<?xml version="1.0" encoding="utf-8" standalone="no"?>
<!DOCTYPE svg PUBLIC "-//W3C//DTD SVG 1.1//EN"
  "http://www.w3.org/Graphics/SVG/1.1/DTD/svg11.dtd">
<svg xmlns:xlink="http://www.w3.org/1999/xlink" width="1152pt" height="576pt" viewBox="0 0 1152 576" xmlns="http://www.w3.org/2000/svg" version="1.1">
 <metadata>
  <rdf:RDF xmlns:dc="http://purl.org/dc/elements/1.1/" xmlns:cc="http://creativecommons.org/ns#" xmlns:rdf="http://www.w3.org/1999/02/22-rdf-syntax-ns#">
   <cc:Work>
    <dc:type rdf:resource="http://purl.org/dc/dcmitype/StillImage"/>
    <dc:date>2025-05-14T11:46:51.408240</dc:date>
    <dc:format>image/svg+xml</dc:format>
    <dc:creator>
     <cc:Agent>
      <dc:title>Matplotlib v3.9.2, https://matplotlib.org/</dc:title>
     </cc:Agent>
    </dc:creator>
   </cc:Work>
  </rdf:RDF>
 </metadata>
 <defs>
  <style type="text/css">*{stroke-linejoin: round; stroke-linecap: butt}</style>
 </defs>
 <g id="figure_1">
  <g id="patch_1">
   <path d="M 0 576 
L 1152 576 
L 1152 0 
L 0 0 
z
" style="fill: #ffffff"/>
  </g>
  <g id="axes_1">
   <g id="patch_2">
    <path d="M 54.2 534.04 
L 1141.2 534.04 
L 1141.2 25.44 
L 54.2 25.44 
z
" style="fill: #ffffff"/>
   </g>
   <g id="matplotlib.axis_1">
    <g id="xtick_1">
     <g id="line2d_1">
      <path d="M 147.956707 534.04 
L 147.956707 25.44 
" clip-path="url(#p75ae517827)" style="fill: none; stroke-dasharray: 2.96,1.28; stroke-dashoffset: 0; stroke: #b0b0b0; stroke-width: 0.8"/>
     </g>
     <g id="line2d_2">
      <defs>
       <path id="mc9db91f98d" d="M 0 0 
L 0 3.5 
" style="stroke: #000000; stroke-width: 0.8"/>
      </defs>
      <g>
       <use xlink:href="#mc9db91f98d" x="147.956707" y="534.04" style="stroke: #000000; stroke-width: 0.8"/>
      </g>
     </g>
     <g id="text_1">
      <!-- 250 -->
      <g transform="translate(138.412957 548.638438) scale(0.1 -0.1)">
       <defs>
        <path id="DejaVuSans-32" d="M 1228 531 
L 3431 531 
L 3431 0 
L 469 0 
L 469 531 
Q 828 903 1448 1529 
Q 2069 2156 2228 2338 
Q 2531 2678 2651 2914 
Q 2772 3150 2772 3378 
Q 2772 3750 2511 3984 
Q 2250 4219 1831 4219 
Q 1534 4219 1204 4116 
Q 875 4013 500 3803 
L 500 4441 
Q 881 4594 1212 4672 
Q 1544 4750 1819 4750 
Q 2544 4750 2975 4387 
Q 3406 4025 3406 3419 
Q 3406 3131 3298 2873 
Q 3191 2616 2906 2266 
Q 2828 2175 2409 1742 
Q 1991 1309 1228 531 
z
" transform="scale(0.015625)"/>
        <path id="DejaVuSans-35" d="M 691 4666 
L 3169 4666 
L 3169 4134 
L 1269 4134 
L 1269 2991 
Q 1406 3038 1543 3061 
Q 1681 3084 1819 3084 
Q 2600 3084 3056 2656 
Q 3513 2228 3513 1497 
Q 3513 744 3044 326 
Q 2575 -91 1722 -91 
Q 1428 -91 1123 -41 
Q 819 9 494 109 
L 494 744 
Q 775 591 1075 516 
Q 1375 441 1709 441 
Q 2250 441 2565 725 
Q 2881 1009 2881 1497 
Q 2881 1984 2565 2268 
Q 2250 2553 1709 2553 
Q 1456 2553 1204 2497 
Q 953 2441 691 2322 
L 691 4666 
z
" transform="scale(0.015625)"/>
        <path id="DejaVuSans-30" d="M 2034 4250 
Q 1547 4250 1301 3770 
Q 1056 3291 1056 2328 
Q 1056 1369 1301 889 
Q 1547 409 2034 409 
Q 2525 409 2770 889 
Q 3016 1369 3016 2328 
Q 3016 3291 2770 3770 
Q 2525 4250 2034 4250 
z
M 2034 4750 
Q 2819 4750 3233 4129 
Q 3647 3509 3647 2328 
Q 3647 1150 3233 529 
Q 2819 -91 2034 -91 
Q 1250 -91 836 529 
Q 422 1150 422 2328 
Q 422 3509 836 4129 
Q 1250 4750 2034 4750 
z
" transform="scale(0.015625)"/>
       </defs>
       <use xlink:href="#DejaVuSans-32"/>
       <use xlink:href="#DejaVuSans-35" x="63.623047"/>
       <use xlink:href="#DejaVuSans-30" x="127.246094"/>
      </g>
     </g>
    </g>
    <g id="xtick_2">
     <g id="line2d_3">
      <path d="M 285.909279 534.04 
L 285.909279 25.44 
" clip-path="url(#p75ae517827)" style="fill: none; stroke-dasharray: 2.96,1.28; stroke-dashoffset: 0; stroke: #b0b0b0; stroke-width: 0.8"/>
     </g>
     <g id="line2d_4">
      <g>
       <use xlink:href="#mc9db91f98d" x="285.909279" y="534.04" style="stroke: #000000; stroke-width: 0.8"/>
      </g>
     </g>
     <g id="text_2">
      <!-- 500 -->
      <g transform="translate(276.365529 548.638438) scale(0.1 -0.1)">
       <use xlink:href="#DejaVuSans-35"/>
       <use xlink:href="#DejaVuSans-30" x="63.623047"/>
       <use xlink:href="#DejaVuSans-30" x="127.246094"/>
      </g>
     </g>
    </g>
    <g id="xtick_3">
     <g id="line2d_5">
      <path d="M 423.86185 534.04 
L 423.86185 25.44 
" clip-path="url(#p75ae517827)" style="fill: none; stroke-dasharray: 2.96,1.28; stroke-dashoffset: 0; stroke: #b0b0b0; stroke-width: 0.8"/>
     </g>
     <g id="line2d_6">
      <g>
       <use xlink:href="#mc9db91f98d" x="423.86185" y="534.04" style="stroke: #000000; stroke-width: 0.8"/>
      </g>
     </g>
     <g id="text_3">
      <!-- 750 -->
      <g transform="translate(414.3181 548.638438) scale(0.1 -0.1)">
       <defs>
        <path id="DejaVuSans-37" d="M 525 4666 
L 3525 4666 
L 3525 4397 
L 1831 0 
L 1172 0 
L 2766 4134 
L 525 4134 
L 525 4666 
z
" transform="scale(0.015625)"/>
       </defs>
       <use xlink:href="#DejaVuSans-37"/>
       <use xlink:href="#DejaVuSans-35" x="63.623047"/>
       <use xlink:href="#DejaVuSans-30" x="127.246094"/>
      </g>
     </g>
    </g>
    <g id="xtick_4">
     <g id="line2d_7">
      <path d="M 561.814422 534.04 
L 561.814422 25.44 
" clip-path="url(#p75ae517827)" style="fill: none; stroke-dasharray: 2.96,1.28; stroke-dashoffset: 0; stroke: #b0b0b0; stroke-width: 0.8"/>
     </g>
     <g id="line2d_8">
      <g>
       <use xlink:href="#mc9db91f98d" x="561.814422" y="534.04" style="stroke: #000000; stroke-width: 0.8"/>
      </g>
     </g>
     <g id="text_4">
      <!-- 1000 -->
      <g transform="translate(549.089422 548.638438) scale(0.1 -0.1)">
       <defs>
        <path id="DejaVuSans-31" d="M 794 531 
L 1825 531 
L 1825 4091 
L 703 3866 
L 703 4441 
L 1819 4666 
L 2450 4666 
L 2450 531 
L 3481 531 
L 3481 0 
L 794 0 
L 794 531 
z
" transform="scale(0.015625)"/>
       </defs>
       <use xlink:href="#DejaVuSans-31"/>
       <use xlink:href="#DejaVuSans-30" x="63.623047"/>
       <use xlink:href="#DejaVuSans-30" x="127.246094"/>
       <use xlink:href="#DejaVuSans-30" x="190.869141"/>
      </g>
     </g>
    </g>
    <g id="xtick_5">
     <g id="line2d_9">
      <path d="M 699.766994 534.04 
L 699.766994 25.44 
" clip-path="url(#p75ae517827)" style="fill: none; stroke-dasharray: 2.96,1.28; stroke-dashoffset: 0; stroke: #b0b0b0; stroke-width: 0.8"/>
     </g>
     <g id="line2d_10">
      <g>
       <use xlink:href="#mc9db91f98d" x="699.766994" y="534.04" style="stroke: #000000; stroke-width: 0.8"/>
      </g>
     </g>
     <g id="text_5">
      <!-- 1250 -->
      <g transform="translate(687.041994 548.638438) scale(0.1 -0.1)">
       <use xlink:href="#DejaVuSans-31"/>
       <use xlink:href="#DejaVuSans-32" x="63.623047"/>
       <use xlink:href="#DejaVuSans-35" x="127.246094"/>
       <use xlink:href="#DejaVuSans-30" x="190.869141"/>
      </g>
     </g>
    </g>
    <g id="xtick_6">
     <g id="line2d_11">
      <path d="M 837.719566 534.04 
L 837.719566 25.44 
" clip-path="url(#p75ae517827)" style="fill: none; stroke-dasharray: 2.96,1.28; stroke-dashoffset: 0; stroke: #b0b0b0; stroke-width: 0.8"/>
     </g>
     <g id="line2d_12">
      <g>
       <use xlink:href="#mc9db91f98d" x="837.719566" y="534.04" style="stroke: #000000; stroke-width: 0.8"/>
      </g>
     </g>
     <g id="text_6">
      <!-- 1500 -->
      <g transform="translate(824.994566 548.638438) scale(0.1 -0.1)">
       <use xlink:href="#DejaVuSans-31"/>
       <use xlink:href="#DejaVuSans-35" x="63.623047"/>
       <use xlink:href="#DejaVuSans-30" x="127.246094"/>
       <use xlink:href="#DejaVuSans-30" x="190.869141"/>
      </g>
     </g>
    </g>
    <g id="xtick_7">
     <g id="line2d_13">
      <path d="M 975.672137 534.04 
L 975.672137 25.44 
" clip-path="url(#p75ae517827)" style="fill: none; stroke-dasharray: 2.96,1.28; stroke-dashoffset: 0; stroke: #b0b0b0; stroke-width: 0.8"/>
     </g>
     <g id="line2d_14">
      <g>
       <use xlink:href="#mc9db91f98d" x="975.672137" y="534.04" style="stroke: #000000; stroke-width: 0.8"/>
      </g>
     </g>
     <g id="text_7">
      <!-- 1750 -->
      <g transform="translate(962.947137 548.638438) scale(0.1 -0.1)">
       <use xlink:href="#DejaVuSans-31"/>
       <use xlink:href="#DejaVuSans-37" x="63.623047"/>
       <use xlink:href="#DejaVuSans-35" x="127.246094"/>
       <use xlink:href="#DejaVuSans-30" x="190.869141"/>
      </g>
     </g>
    </g>
    <g id="xtick_8">
     <g id="line2d_15">
      <path d="M 1113.624709 534.04 
L 1113.624709 25.44 
" clip-path="url(#p75ae517827)" style="fill: none; stroke-dasharray: 2.96,1.28; stroke-dashoffset: 0; stroke: #b0b0b0; stroke-width: 0.8"/>
     </g>
     <g id="line2d_16">
      <g>
       <use xlink:href="#mc9db91f98d" x="1113.624709" y="534.04" style="stroke: #000000; stroke-width: 0.8"/>
      </g>
     </g>
     <g id="text_8">
      <!-- 2000 -->
      <g transform="translate(1100.899709 548.638438) scale(0.1 -0.1)">
       <use xlink:href="#DejaVuSans-32"/>
       <use xlink:href="#DejaVuSans-30" x="63.623047"/>
       <use xlink:href="#DejaVuSans-30" x="127.246094"/>
       <use xlink:href="#DejaVuSans-30" x="190.869141"/>
      </g>
     </g>
    </g>
    <g id="text_9">
     <!-- Frequency (MHz) -->
     <g transform="translate(555.68125 562.316563) scale(0.1 -0.1)">
      <defs>
       <path id="DejaVuSans-46" d="M 628 4666 
L 3309 4666 
L 3309 4134 
L 1259 4134 
L 1259 2759 
L 3109 2759 
L 3109 2228 
L 1259 2228 
L 1259 0 
L 628 0 
L 628 4666 
z
" transform="scale(0.015625)"/>
       <path id="DejaVuSans-72" d="M 2631 2963 
Q 2534 3019 2420 3045 
Q 2306 3072 2169 3072 
Q 1681 3072 1420 2755 
Q 1159 2438 1159 1844 
L 1159 0 
L 581 0 
L 581 3500 
L 1159 3500 
L 1159 2956 
Q 1341 3275 1631 3429 
Q 1922 3584 2338 3584 
Q 2397 3584 2469 3576 
Q 2541 3569 2628 3553 
L 2631 2963 
z
" transform="scale(0.015625)"/>
       <path id="DejaVuSans-65" d="M 3597 1894 
L 3597 1613 
L 953 1613 
Q 991 1019 1311 708 
Q 1631 397 2203 397 
Q 2534 397 2845 478 
Q 3156 559 3463 722 
L 3463 178 
Q 3153 47 2828 -22 
Q 2503 -91 2169 -91 
Q 1331 -91 842 396 
Q 353 884 353 1716 
Q 353 2575 817 3079 
Q 1281 3584 2069 3584 
Q 2775 3584 3186 3129 
Q 3597 2675 3597 1894 
z
M 3022 2063 
Q 3016 2534 2758 2815 
Q 2500 3097 2075 3097 
Q 1594 3097 1305 2825 
Q 1016 2553 972 2059 
L 3022 2063 
z
" transform="scale(0.015625)"/>
       <path id="DejaVuSans-71" d="M 947 1747 
Q 947 1113 1208 752 
Q 1469 391 1925 391 
Q 2381 391 2643 752 
Q 2906 1113 2906 1747 
Q 2906 2381 2643 2742 
Q 2381 3103 1925 3103 
Q 1469 3103 1208 2742 
Q 947 2381 947 1747 
z
M 2906 525 
Q 2725 213 2448 61 
Q 2172 -91 1784 -91 
Q 1150 -91 751 415 
Q 353 922 353 1747 
Q 353 2572 751 3078 
Q 1150 3584 1784 3584 
Q 2172 3584 2448 3432 
Q 2725 3281 2906 2969 
L 2906 3500 
L 3481 3500 
L 3481 -1331 
L 2906 -1331 
L 2906 525 
z
" transform="scale(0.015625)"/>
       <path id="DejaVuSans-75" d="M 544 1381 
L 544 3500 
L 1119 3500 
L 1119 1403 
Q 1119 906 1312 657 
Q 1506 409 1894 409 
Q 2359 409 2629 706 
Q 2900 1003 2900 1516 
L 2900 3500 
L 3475 3500 
L 3475 0 
L 2900 0 
L 2900 538 
Q 2691 219 2414 64 
Q 2138 -91 1772 -91 
Q 1169 -91 856 284 
Q 544 659 544 1381 
z
M 1991 3584 
L 1991 3584 
z
" transform="scale(0.015625)"/>
       <path id="DejaVuSans-6e" d="M 3513 2113 
L 3513 0 
L 2938 0 
L 2938 2094 
Q 2938 2591 2744 2837 
Q 2550 3084 2163 3084 
Q 1697 3084 1428 2787 
Q 1159 2491 1159 1978 
L 1159 0 
L 581 0 
L 581 3500 
L 1159 3500 
L 1159 2956 
Q 1366 3272 1645 3428 
Q 1925 3584 2291 3584 
Q 2894 3584 3203 3211 
Q 3513 2838 3513 2113 
z
" transform="scale(0.015625)"/>
       <path id="DejaVuSans-63" d="M 3122 3366 
L 3122 2828 
Q 2878 2963 2633 3030 
Q 2388 3097 2138 3097 
Q 1578 3097 1268 2742 
Q 959 2388 959 1747 
Q 959 1106 1268 751 
Q 1578 397 2138 397 
Q 2388 397 2633 464 
Q 2878 531 3122 666 
L 3122 134 
Q 2881 22 2623 -34 
Q 2366 -91 2075 -91 
Q 1284 -91 818 406 
Q 353 903 353 1747 
Q 353 2603 823 3093 
Q 1294 3584 2113 3584 
Q 2378 3584 2631 3529 
Q 2884 3475 3122 3366 
z
" transform="scale(0.015625)"/>
       <path id="DejaVuSans-79" d="M 2059 -325 
Q 1816 -950 1584 -1140 
Q 1353 -1331 966 -1331 
L 506 -1331 
L 506 -850 
L 844 -850 
Q 1081 -850 1212 -737 
Q 1344 -625 1503 -206 
L 1606 56 
L 191 3500 
L 800 3500 
L 1894 763 
L 2988 3500 
L 3597 3500 
L 2059 -325 
z
" transform="scale(0.015625)"/>
       <path id="DejaVuSans-20" transform="scale(0.015625)"/>
       <path id="DejaVuSans-28" d="M 1984 4856 
Q 1566 4138 1362 3434 
Q 1159 2731 1159 2009 
Q 1159 1288 1364 580 
Q 1569 -128 1984 -844 
L 1484 -844 
Q 1016 -109 783 600 
Q 550 1309 550 2009 
Q 550 2706 781 3412 
Q 1013 4119 1484 4856 
L 1984 4856 
z
" transform="scale(0.015625)"/>
       <path id="DejaVuSans-4d" d="M 628 4666 
L 1569 4666 
L 2759 1491 
L 3956 4666 
L 4897 4666 
L 4897 0 
L 4281 0 
L 4281 4097 
L 3078 897 
L 2444 897 
L 1241 4097 
L 1241 0 
L 628 0 
L 628 4666 
z
" transform="scale(0.015625)"/>
       <path id="DejaVuSans-48" d="M 628 4666 
L 1259 4666 
L 1259 2753 
L 3553 2753 
L 3553 4666 
L 4184 4666 
L 4184 0 
L 3553 0 
L 3553 2222 
L 1259 2222 
L 1259 0 
L 628 0 
L 628 4666 
z
" transform="scale(0.015625)"/>
       <path id="DejaVuSans-7a" d="M 353 3500 
L 3084 3500 
L 3084 2975 
L 922 459 
L 3084 459 
L 3084 0 
L 275 0 
L 275 525 
L 2438 3041 
L 353 3041 
L 353 3500 
z
" transform="scale(0.015625)"/>
       <path id="DejaVuSans-29" d="M 513 4856 
L 1013 4856 
Q 1481 4119 1714 3412 
Q 1947 2706 1947 2009 
Q 1947 1309 1714 600 
Q 1481 -109 1013 -844 
L 513 -844 
Q 928 -128 1133 580 
Q 1338 1288 1338 2009 
Q 1338 2731 1133 3434 
Q 928 4138 513 4856 
z
" transform="scale(0.015625)"/>
      </defs>
      <use xlink:href="#DejaVuSans-46"/>
      <use xlink:href="#DejaVuSans-72" x="50.269531"/>
      <use xlink:href="#DejaVuSans-65" x="89.132812"/>
      <use xlink:href="#DejaVuSans-71" x="150.65625"/>
      <use xlink:href="#DejaVuSans-75" x="214.132812"/>
      <use xlink:href="#DejaVuSans-65" x="277.511719"/>
      <use xlink:href="#DejaVuSans-6e" x="339.035156"/>
      <use xlink:href="#DejaVuSans-63" x="402.414062"/>
      <use xlink:href="#DejaVuSans-79" x="457.394531"/>
      <use xlink:href="#DejaVuSans-20" x="516.574219"/>
      <use xlink:href="#DejaVuSans-28" x="548.361328"/>
      <use xlink:href="#DejaVuSans-4d" x="587.375"/>
      <use xlink:href="#DejaVuSans-48" x="673.654297"/>
      <use xlink:href="#DejaVuSans-7a" x="748.849609"/>
      <use xlink:href="#DejaVuSans-29" x="801.339844"/>
     </g>
    </g>
   </g>
   <g id="matplotlib.axis_2">
    <g id="ytick_1">
     <g id="line2d_17">
      <path d="M 54.2 510.921818 
L 1141.2 510.921818 
" clip-path="url(#p75ae517827)" style="fill: none; stroke-dasharray: 2.96,1.28; stroke-dashoffset: 0; stroke: #b0b0b0; stroke-width: 0.8"/>
     </g>
     <g id="line2d_18">
      <defs>
       <path id="m0570a724d6" d="M 0 0 
L -3.5 0 
" style="stroke: #000000; stroke-width: 0.8"/>
      </defs>
      <g>
       <use xlink:href="#m0570a724d6" x="54.2" y="510.921818" style="stroke: #000000; stroke-width: 0.8"/>
      </g>
     </g>
     <g id="text_10">
      <!-- 0.00 -->
      <g transform="translate(24.934375 514.721037) scale(0.1 -0.1)">
       <defs>
        <path id="DejaVuSans-2e" d="M 684 794 
L 1344 794 
L 1344 0 
L 684 0 
L 684 794 
z
" transform="scale(0.015625)"/>
       </defs>
       <use xlink:href="#DejaVuSans-30"/>
       <use xlink:href="#DejaVuSans-2e" x="63.623047"/>
       <use xlink:href="#DejaVuSans-30" x="95.410156"/>
       <use xlink:href="#DejaVuSans-30" x="159.033203"/>
      </g>
     </g>
    </g>
    <g id="ytick_2">
     <g id="line2d_19">
      <path d="M 54.2 445.342704 
L 1141.2 445.342704 
" clip-path="url(#p75ae517827)" style="fill: none; stroke-dasharray: 2.96,1.28; stroke-dashoffset: 0; stroke: #b0b0b0; stroke-width: 0.8"/>
     </g>
     <g id="line2d_20">
      <g>
       <use xlink:href="#m0570a724d6" x="54.2" y="445.342704" style="stroke: #000000; stroke-width: 0.8"/>
      </g>
     </g>
     <g id="text_11">
      <!-- 0.25 -->
      <g transform="translate(24.934375 449.141922) scale(0.1 -0.1)">
       <use xlink:href="#DejaVuSans-30"/>
       <use xlink:href="#DejaVuSans-2e" x="63.623047"/>
       <use xlink:href="#DejaVuSans-32" x="95.410156"/>
       <use xlink:href="#DejaVuSans-35" x="159.033203"/>
      </g>
     </g>
    </g>
    <g id="ytick_3">
     <g id="line2d_21">
      <path d="M 54.2 379.763589 
L 1141.2 379.763589 
" clip-path="url(#p75ae517827)" style="fill: none; stroke-dasharray: 2.96,1.28; stroke-dashoffset: 0; stroke: #b0b0b0; stroke-width: 0.8"/>
     </g>
     <g id="line2d_22">
      <g>
       <use xlink:href="#m0570a724d6" x="54.2" y="379.763589" style="stroke: #000000; stroke-width: 0.8"/>
      </g>
     </g>
     <g id="text_12">
      <!-- 0.50 -->
      <g transform="translate(24.934375 383.562808) scale(0.1 -0.1)">
       <use xlink:href="#DejaVuSans-30"/>
       <use xlink:href="#DejaVuSans-2e" x="63.623047"/>
       <use xlink:href="#DejaVuSans-35" x="95.410156"/>
       <use xlink:href="#DejaVuSans-30" x="159.033203"/>
      </g>
     </g>
    </g>
    <g id="ytick_4">
     <g id="line2d_23">
      <path d="M 54.2 314.184474 
L 1141.2 314.184474 
" clip-path="url(#p75ae517827)" style="fill: none; stroke-dasharray: 2.96,1.28; stroke-dashoffset: 0; stroke: #b0b0b0; stroke-width: 0.8"/>
     </g>
     <g id="line2d_24">
      <g>
       <use xlink:href="#m0570a724d6" x="54.2" y="314.184474" style="stroke: #000000; stroke-width: 0.8"/>
      </g>
     </g>
     <g id="text_13">
      <!-- 0.75 -->
      <g transform="translate(24.934375 317.983693) scale(0.1 -0.1)">
       <use xlink:href="#DejaVuSans-30"/>
       <use xlink:href="#DejaVuSans-2e" x="63.623047"/>
       <use xlink:href="#DejaVuSans-37" x="95.410156"/>
       <use xlink:href="#DejaVuSans-35" x="159.033203"/>
      </g>
     </g>
    </g>
    <g id="ytick_5">
     <g id="line2d_25">
      <path d="M 54.2 248.60536 
L 1141.2 248.60536 
" clip-path="url(#p75ae517827)" style="fill: none; stroke-dasharray: 2.96,1.28; stroke-dashoffset: 0; stroke: #b0b0b0; stroke-width: 0.8"/>
     </g>
     <g id="line2d_26">
      <g>
       <use xlink:href="#m0570a724d6" x="54.2" y="248.60536" style="stroke: #000000; stroke-width: 0.8"/>
      </g>
     </g>
     <g id="text_14">
      <!-- 1.00 -->
      <g transform="translate(24.934375 252.404578) scale(0.1 -0.1)">
       <use xlink:href="#DejaVuSans-31"/>
       <use xlink:href="#DejaVuSans-2e" x="63.623047"/>
       <use xlink:href="#DejaVuSans-30" x="95.410156"/>
       <use xlink:href="#DejaVuSans-30" x="159.033203"/>
      </g>
     </g>
    </g>
    <g id="ytick_6">
     <g id="line2d_27">
      <path d="M 54.2 183.026245 
L 1141.2 183.026245 
" clip-path="url(#p75ae517827)" style="fill: none; stroke-dasharray: 2.96,1.28; stroke-dashoffset: 0; stroke: #b0b0b0; stroke-width: 0.8"/>
     </g>
     <g id="line2d_28">
      <g>
       <use xlink:href="#m0570a724d6" x="54.2" y="183.026245" style="stroke: #000000; stroke-width: 0.8"/>
      </g>
     </g>
     <g id="text_15">
      <!-- 1.25 -->
      <g transform="translate(24.934375 186.825464) scale(0.1 -0.1)">
       <use xlink:href="#DejaVuSans-31"/>
       <use xlink:href="#DejaVuSans-2e" x="63.623047"/>
       <use xlink:href="#DejaVuSans-32" x="95.410156"/>
       <use xlink:href="#DejaVuSans-35" x="159.033203"/>
      </g>
     </g>
    </g>
    <g id="ytick_7">
     <g id="line2d_29">
      <path d="M 54.2 117.44713 
L 1141.2 117.44713 
" clip-path="url(#p75ae517827)" style="fill: none; stroke-dasharray: 2.96,1.28; stroke-dashoffset: 0; stroke: #b0b0b0; stroke-width: 0.8"/>
     </g>
     <g id="line2d_30">
      <g>
       <use xlink:href="#m0570a724d6" x="54.2" y="117.44713" style="stroke: #000000; stroke-width: 0.8"/>
      </g>
     </g>
     <g id="text_16">
      <!-- 1.50 -->
      <g transform="translate(24.934375 121.246349) scale(0.1 -0.1)">
       <use xlink:href="#DejaVuSans-31"/>
       <use xlink:href="#DejaVuSans-2e" x="63.623047"/>
       <use xlink:href="#DejaVuSans-35" x="95.410156"/>
       <use xlink:href="#DejaVuSans-30" x="159.033203"/>
      </g>
     </g>
    </g>
    <g id="ytick_8">
     <g id="line2d_31">
      <path d="M 54.2 51.868016 
L 1141.2 51.868016 
" clip-path="url(#p75ae517827)" style="fill: none; stroke-dasharray: 2.96,1.28; stroke-dashoffset: 0; stroke: #b0b0b0; stroke-width: 0.8"/>
     </g>
     <g id="line2d_32">
      <g>
       <use xlink:href="#m0570a724d6" x="54.2" y="51.868016" style="stroke: #000000; stroke-width: 0.8"/>
      </g>
     </g>
     <g id="text_17">
      <!-- 1.75 -->
      <g transform="translate(24.934375 55.667235) scale(0.1 -0.1)">
       <use xlink:href="#DejaVuSans-31"/>
       <use xlink:href="#DejaVuSans-2e" x="63.623047"/>
       <use xlink:href="#DejaVuSans-37" x="95.410156"/>
       <use xlink:href="#DejaVuSans-35" x="159.033203"/>
      </g>
     </g>
    </g>
    <g id="text_18">
     <!-- EIRP (mW) -->
     <g transform="translate(18.854687 306.168125) rotate(-90) scale(0.1 -0.1)">
      <defs>
       <path id="DejaVuSans-45" d="M 628 4666 
L 3578 4666 
L 3578 4134 
L 1259 4134 
L 1259 2753 
L 3481 2753 
L 3481 2222 
L 1259 2222 
L 1259 531 
L 3634 531 
L 3634 0 
L 628 0 
L 628 4666 
z
" transform="scale(0.015625)"/>
       <path id="DejaVuSans-49" d="M 628 4666 
L 1259 4666 
L 1259 0 
L 628 0 
L 628 4666 
z
" transform="scale(0.015625)"/>
       <path id="DejaVuSans-52" d="M 2841 2188 
Q 3044 2119 3236 1894 
Q 3428 1669 3622 1275 
L 4263 0 
L 3584 0 
L 2988 1197 
Q 2756 1666 2539 1819 
Q 2322 1972 1947 1972 
L 1259 1972 
L 1259 0 
L 628 0 
L 628 4666 
L 2053 4666 
Q 2853 4666 3247 4331 
Q 3641 3997 3641 3322 
Q 3641 2881 3436 2590 
Q 3231 2300 2841 2188 
z
M 1259 4147 
L 1259 2491 
L 2053 2491 
Q 2509 2491 2742 2702 
Q 2975 2913 2975 3322 
Q 2975 3731 2742 3939 
Q 2509 4147 2053 4147 
L 1259 4147 
z
" transform="scale(0.015625)"/>
       <path id="DejaVuSans-50" d="M 1259 4147 
L 1259 2394 
L 2053 2394 
Q 2494 2394 2734 2622 
Q 2975 2850 2975 3272 
Q 2975 3691 2734 3919 
Q 2494 4147 2053 4147 
L 1259 4147 
z
M 628 4666 
L 2053 4666 
Q 2838 4666 3239 4311 
Q 3641 3956 3641 3272 
Q 3641 2581 3239 2228 
Q 2838 1875 2053 1875 
L 1259 1875 
L 1259 0 
L 628 0 
L 628 4666 
z
" transform="scale(0.015625)"/>
       <path id="DejaVuSans-6d" d="M 3328 2828 
Q 3544 3216 3844 3400 
Q 4144 3584 4550 3584 
Q 5097 3584 5394 3201 
Q 5691 2819 5691 2113 
L 5691 0 
L 5113 0 
L 5113 2094 
Q 5113 2597 4934 2840 
Q 4756 3084 4391 3084 
Q 3944 3084 3684 2787 
Q 3425 2491 3425 1978 
L 3425 0 
L 2847 0 
L 2847 2094 
Q 2847 2600 2669 2842 
Q 2491 3084 2119 3084 
Q 1678 3084 1418 2786 
Q 1159 2488 1159 1978 
L 1159 0 
L 581 0 
L 581 3500 
L 1159 3500 
L 1159 2956 
Q 1356 3278 1631 3431 
Q 1906 3584 2284 3584 
Q 2666 3584 2933 3390 
Q 3200 3197 3328 2828 
z
" transform="scale(0.015625)"/>
       <path id="DejaVuSans-57" d="M 213 4666 
L 850 4666 
L 1831 722 
L 2809 4666 
L 3519 4666 
L 4500 722 
L 5478 4666 
L 6119 4666 
L 4947 0 
L 4153 0 
L 3169 4050 
L 2175 0 
L 1381 0 
L 213 4666 
z
" transform="scale(0.015625)"/>
      </defs>
      <use xlink:href="#DejaVuSans-45"/>
      <use xlink:href="#DejaVuSans-49" x="63.183594"/>
      <use xlink:href="#DejaVuSans-52" x="92.675781"/>
      <use xlink:href="#DejaVuSans-50" x="162.158203"/>
      <use xlink:href="#DejaVuSans-20" x="222.460938"/>
      <use xlink:href="#DejaVuSans-28" x="254.248047"/>
      <use xlink:href="#DejaVuSans-6d" x="293.261719"/>
      <use xlink:href="#DejaVuSans-57" x="390.673828"/>
      <use xlink:href="#DejaVuSans-29" x="489.550781"/>
     </g>
    </g>
    <g id="text_19">
     <!-- 1e−13 -->
     <g transform="translate(54.2 22.44) scale(0.1 -0.1)">
      <defs>
       <path id="DejaVuSans-2212" d="M 678 2272 
L 4684 2272 
L 4684 1741 
L 678 1741 
L 678 2272 
z
" transform="scale(0.015625)"/>
       <path id="DejaVuSans-33" d="M 2597 2516 
Q 3050 2419 3304 2112 
Q 3559 1806 3559 1356 
Q 3559 666 3084 287 
Q 2609 -91 1734 -91 
Q 1441 -91 1130 -33 
Q 819 25 488 141 
L 488 750 
Q 750 597 1062 519 
Q 1375 441 1716 441 
Q 2309 441 2620 675 
Q 2931 909 2931 1356 
Q 2931 1769 2642 2001 
Q 2353 2234 1838 2234 
L 1294 2234 
L 1294 2753 
L 1863 2753 
Q 2328 2753 2575 2939 
Q 2822 3125 2822 3475 
Q 2822 3834 2567 4026 
Q 2313 4219 1838 4219 
Q 1578 4219 1281 4162 
Q 984 4106 628 3988 
L 628 4550 
Q 988 4650 1302 4700 
Q 1616 4750 1894 4750 
Q 2613 4750 3031 4423 
Q 3450 4097 3450 3541 
Q 3450 3153 3228 2886 
Q 3006 2619 2597 2516 
z
" transform="scale(0.015625)"/>
      </defs>
      <use xlink:href="#DejaVuSans-31"/>
      <use xlink:href="#DejaVuSans-65" x="63.623047"/>
      <use xlink:href="#DejaVuSans-2212" x="125.146484"/>
      <use xlink:href="#DejaVuSans-31" x="208.935547"/>
      <use xlink:href="#DejaVuSans-33" x="272.558594"/>
     </g>
    </g>
   </g>
   <g id="line2d_33">
    <path d="M 54.2 510.921817 
L 328.195885 510.847858 
L 328.297968 510.82429 
L 328.502135 510.889393 
L 328.859444 510.878973 
L 329.21672 510.882111 
L 329.369862 510.841305 
L 330.850091 510.82905 
L 333.861606 510.830882 
L 333.96369 510.827573 
L 334.167857 510.817701 
L 334.320965 510.847075 
L 334.576191 510.859989 
L 334.627216 510.875953 
L 334.678275 510.76177 
L 334.780358 486.015673 
L 334.882442 510.80933 
L 334.9335 510.747866 
L 335.086609 510.848562 
L 337.281422 510.859376 
L 337.587706 510.861921 
L 338.200208 510.867737 
L 338.506458 510.884225 
L 338.812709 510.8744 
L 339.833545 510.862294 
L 340.139829 510.824358 
L 340.292937 510.858403 
L 341.007522 510.88345 
L 341.160665 510.858372 
L 341.466915 510.869625 
L 341.773166 510.878295 
L 341.926308 510.87436 
L 343.814871 510.859911 
L 344.019038 510.854519 
L 344.325288 510.857994 
L 344.886765 510.88194 
L 345.244074 510.864318 
L 345.703433 510.866257 
L 345.958659 510.856256 
L 346.213851 510.859259 
L 346.877411 510.884073 
L 347.081578 510.867931 
L 347.643055 510.893728 
L 348.051389 510.862984 
L 348.612865 510.851322 
L 348.919116 510.886182 
L 350.093094 510.882707 
L 351.42018 510.885508 
L 353.104609 510.877913 
L 354.737946 510.878509 
L 355.095255 510.879392 
L 356.014007 510.866715 
L 356.4734 510.819891 
L 356.983818 510.86345 
L 357.494236 510.847865 
L 358.515105 510.862561 
L 358.770297 510.854437 
L 359.280748 510.850603 
L 359.689083 510.864839 
L 362.700564 510.882885 
L 362.853706 510.877143 
L 366.886057 510.88025 
L 367.0392 510.875305 
L 367.651701 510.867624 
L 368.468369 510.863778 
L 369.234013 510.873943 
L 369.387155 510.885657 
L 374.695567 510.827872 
L 374.848676 510.851671 
L 375.001818 510.858219 
L 375.563261 510.858246 
L 375.869545 510.877888 
L 377.860191 510.837657 
L 378.064358 510.867897 
L 390.875996 510.805671 
L 391.029138 510.744295 
L 391.080197 510.855987 
L 391.131222 510.791874 
L 391.539556 510.77264 
L 391.692698 510.832861 
L 392.049974 510.860483 
L 392.203116 510.727316 
L 392.356258 510.835082 
L 392.560425 510.856789 
L 393.785428 510.849599 
L 393.887512 510.816314 
L 394.040654 510.863649 
L 394.295846 510.871074 
L 404.708503 510.876156 
L 404.759562 508.771467 
L 404.861645 428.908543 
L 404.963729 48.558182 
L 405.116871 493.558406 
L 405.218955 510.887858 
L 405.26998 510.878582 
L 405.984565 510.687136 
L 406.035623 510.483861 
L 406.086648 510.632029 
L 406.23979 510.873005 
L 406.852292 510.876051 
L 408.077328 510.846404 
L 408.33252 510.649338 
L 408.434604 510.093006 
L 408.587746 426.269775 
L 408.740854 510.416992 
L 408.99608 510.882212 
L 410.578392 510.876812 
L 464.5813 510.873775 
L 464.683384 506.824325 
L 464.734442 508.684569 
L 464.785467 510.882622 
L 464.887551 510.836836 
L 465.040693 510.861805 
L 465.193835 510.880049 
L 466.265696 510.875897 
L 467.133423 510.862806 
L 467.490732 510.847806 
L 467.848041 510.863489 
L 468.307401 510.871311 
L 475.045016 510.863663 
L 475.300242 510.824425 
L 475.504409 510.861476 
L 475.759601 510.841227 
L 476.423161 510.88169 
L 476.882554 510.865604 
L 477.188805 510.872194 
L 477.443997 510.854999 
L 478.362782 510.875029 
L 479.128426 510.879384 
L 479.281534 510.869243 
L 479.689869 510.851102 
L 479.843011 510.857885 
L 480.353429 510.873745 
L 481.884716 510.873057 
L 482.446158 510.881341 
L 482.854492 510.864278 
L 483.007635 510.833701 
L 483.160777 510.873234 
L 491.429646 510.846292 
L 491.582754 510.891691 
L 491.991122 510.817872 
L 492.195289 510.876351 
L 493.318209 510.871387 
L 493.675518 510.874028 
L 494.134877 510.876674 
L 495.615105 510.855702 
L 495.768248 510.864428 
L 496.533891 510.879918 
L 497.197451 510.881853 
L 497.707869 510.871042 
L 498.575596 510.868493 
L 498.881847 510.85859 
L 499.034955 510.836355 
L 499.290181 510.873408 
L 499.494348 510.895433 
L 500.208933 510.854612 
L 500.464158 510.870008 
L 500.821468 510.865082 
L 501.791245 510.858888 
L 502.148554 510.884094 
L 502.965222 510.864397 
L 503.526699 510.884471 
L 503.884008 510.84773 
L 504.088175 510.873892 
L 504.241284 510.854153 
L 505.262153 510.865948 
L 505.619429 510.841773 
L 505.823596 510.877921 
L 506.844465 510.869296 
L 507.508025 510.857483 
L 508.784086 510.862755 
L 515.317501 510.866089 
L 515.572727 510.884881 
L 515.67481 510.792623 
L 515.725835 510.840565 
L 516.083145 510.841704 
L 516.644621 510.872429 
L 523.535345 510.844791 
L 523.790571 510.810361 
L 523.943679 510.825897 
L 524.147847 510.83275 
L 524.352014 510.836636 
L 524.811406 510.834753 
L 525.015574 510.808653 
L 525.168716 510.819027 
L 525.832242 510.832684 
L 526.597886 510.79449 
L 526.853111 510.863577 
L 527.108303 510.864489 
L 527.210387 510.835325 
L 527.363529 510.808651 
L 527.618755 510.847766 
L 527.873947 510.853725 
L 529.609401 510.788408 
L 529.660426 510.75425 
L 529.711485 510.8364 
L 530.170877 510.80624 
L 530.783379 510.80902 
L 531.497964 510.842559 
L 532.110465 510.849774 
L 532.263607 510.847254 
L 532.467774 510.858443 
L 532.774025 510.858758 
L 533.641752 510.863419 
L 533.79486 510.827548 
L 534.254253 510.857142 
L 534.45842 510.833723 
L 534.611563 510.828253 
L 536.500125 510.838666 
L 536.755351 510.857384 
L 537.316794 510.830843 
L 537.776186 510.84117 
L 537.827245 510.795985 
L 537.87827 510.86114 
L 538.235579 510.82994 
L 538.388688 510.846703 
L 538.643914 510.869716 
L 539.766833 510.795014 
L 540.022058 510.860016 
L 540.430393 510.857992 
L 540.736643 510.825501 
L 540.991869 510.862892 
L 541.400203 510.855962 
L 541.808537 510.866134 
L 542.114788 510.836361 
L 542.982515 510.871465 
L 543.135657 510.839577 
L 550.689942 510.850145 
L 550.894109 510.865796 
L 555.130627 510.857179 
L 555.334794 510.866953 
L 555.947295 510.868741 
L 556.304604 510.841018 
L 556.508772 510.874815 
L 558.295251 510.837512 
L 558.65256 510.851398 
L 558.907752 510.878079 
L 559.162978 510.839577 
L 559.928621 510.872119 
L 560.132788 510.838529 
L 560.336955 510.882421 
L 560.592148 510.843636 
L 561.153624 510.876819 
L 561.306766 510.842821 
L 561.613017 510.884247 
L 562.123435 510.866053 
L 562.276577 510.845789 
L 562.429685 510.862033 
L 565.441201 510.878062 
L 565.594309 510.827599 
L 565.747451 510.872072 
L 566.104761 510.8768 
L 566.615178 510.85001 
L 566.972454 510.881226 
L 567.329763 510.85064 
L 567.584989 510.879531 
L 567.840181 510.849648 
L 568.095407 510.848941 
L 568.605825 510.878535 
L 568.912075 510.883879 
L 569.422493 510.879008 
L 571.515256 510.860865 
L 572.076699 510.874073 
L 572.331925 510.872499 
L 581.213329 510.893061 
L 581.570605 510.884742 
L 582.999774 510.901727 
L 584.224844 510.893445 
L 585.296739 510.905637 
L 585.90924 510.902465 
L 587.134243 510.906514 
L 593.310382 510.904605 
L 594.484326 510.913585 
L 594.739552 510.909093 
L 597.393791 510.908818 
L 598.669853 510.905267 
L 599.894855 510.911853 
L 601.783418 510.91043 
L 606.98978 510.914898 
L 610.664788 510.912888 
L 613.012744 510.917159 
L 619.341992 510.913354 
L 620.72017 510.919734 
L 936.621927 510.921818 
L 1141.2 510.921817 
L 1141.2 510.921817 
" clip-path="url(#p75ae517827)" style="fill: none; stroke: #1f77b4; stroke-width: 1.5; stroke-linecap: square"/>
   </g>
   <g id="line2d_34">
    <path d="M 54.2 510.921818 
L 329.574029 510.833749 
L 329.727138 510.843529 
L 330.339673 510.857046 
L 330.441756 510.844346 
L 330.645924 510.869806 
L 331.003199 510.849107 
L 331.360508 510.859896 
L 331.768843 510.841452 
L 332.075093 510.847991 
L 332.94282 510.860649 
L 333.504297 510.819052 
L 333.657439 510.876066 
L 333.96369 510.843158 
L 334.372024 510.866281 
L 334.525132 510.861247 
L 334.9335 510.828653 
L 335.086609 510.863925 
L 335.341834 510.856328 
L 335.801194 510.874082 
L 338.965851 510.875969 
L 339.578353 510.875944 
L 347.949305 510.88083 
L 348.204531 510.890198 
L 350.603511 510.871075 
L 351.42018 510.87541 
L 351.624381 510.886565 
L 351.828548 510.897496 
L 352.38999 510.879181 
L 352.849383 510.852133 
L 353.002525 510.867069 
L 353.359801 510.88878 
L 353.768135 510.866351 
L 354.023361 510.869365 
L 354.635862 510.865506 
L 355.14628 510.88371 
L 355.911924 510.869761 
L 356.167149 510.866536 
L 356.524425 510.876226 
L 357.902603 510.839388 
L 358.055712 510.866775 
L 358.464046 510.876974 
L 359.586999 510.867014 
L 360.301584 510.869551 
L 361.271394 510.880773 
L 363.61935 510.871824 
L 363.874542 510.863221 
L 364.946436 510.873351 
L 365.201662 510.886072 
L 365.35477 510.881636 
L 366.120414 510.881339 
L 366.579807 510.880396 
L 367.090225 510.869831 
L 367.34545 510.886776 
L 367.600642 510.889394 
L 368.111094 510.836957 
L 368.264202 510.859655 
L 368.519428 510.875248 
L 376.430988 510.837653 
L 376.533071 510.85697 
L 376.737238 510.894016 
L 376.941406 510.886661 
L 378.370609 510.873729 
L 378.574776 510.874603 
L 383.883188 510.875633 
L 384.087355 510.874525 
L 387.047812 510.85058 
L 387.098871 510.787197 
L 387.149896 510.834569 
L 387.405122 510.858096 
L 387.711372 510.781721 
L 388.323874 510.866734 
L 388.374932 510.790142 
L 388.425957 510.830337 
L 388.834325 510.838272 
L 390.518721 510.821498 
L 390.722888 510.837223 
L 390.927055 510.815353 
L 391.080197 510.778172 
L 391.284364 510.837806 
L 391.386448 510.737074 
L 391.488531 510.831028 
L 391.64164 510.822186 
L 391.94789 510.860442 
L 392.764592 510.837476 
L 392.96876 510.83373 
L 393.581261 510.886337 
L 393.683344 510.821571 
L 393.836487 510.856475 
L 395.316715 510.806543 
L 395.418799 510.729822 
L 395.520882 510.878279 
L 395.571907 510.841537 
L 397.970921 510.880736 
L 398.226113 510.883453 
L 400.11471 510.887678 
L 400.982403 510.882109 
L 401.339712 510.898066 
L 401.645963 510.870399 
L 401.901189 510.896462 
L 403.17725 510.855508 
L 403.534525 510.88628 
L 404.147061 510.885419 
L 404.657478 510.869438 
L 405.014754 510.874323 
L 413.436765 510.879828 
L 413.691991 510.857985 
L 414.100325 510.88111 
L 414.610743 510.87423 
L 414.81491 510.876832 
L 415.070136 510.875516 
L 415.274303 510.858496 
L 415.835779 510.880743 
L 416.550364 510.872209 
L 417.213924 510.87085 
L 418.54101 510.86669 
L 418.745177 510.849216 
L 420.53169 510.869299 
L 420.940024 510.873295 
L 422.216086 510.845274 
L 422.420253 510.882522 
L 422.62442 510.88663 
L 422.930671 510.868811 
L 546.708616 510.833359 
L 546.861758 510.8573 
L 547.270092 510.861218 
L 547.525284 510.841732 
L 548.035735 510.845374 
L 548.495095 510.857464 
L 550.638883 510.827302 
L 550.740966 510.858529 
L 551.098276 510.866714 
L 551.302443 510.843063 
L 551.557635 510.868689 
L 551.914944 510.846258 
L 552.476421 510.836473 
L 552.731613 510.872481 
L 554.160816 510.821138 
L 554.416042 510.857916 
L 562.225518 510.881505 
L 562.37866 510.842996 
L 563.501579 510.869065 
L 563.909914 510.862122 
L 564.369306 510.869897 
L 564.675557 510.873876 
L 565.951618 510.878548 
L 567.380822 510.836296 
L 567.942265 510.865787 
L 573.301735 510.843417 
L 573.454844 510.873451 
L 574.118404 510.855086 
L 574.526738 510.888845 
L 576.160142 510.879372 
L 576.670526 510.887309 
L 578.712265 510.896658 
L 578.967423 510.856392 
L 581.876889 510.894785 
L 582.795607 510.900325 
L 585.500906 510.908302 
L 587.899852 510.906234 
L 590.962426 510.905906 
L 592.646822 510.907306 
L 595.964554 510.904178 
L 596.628114 510.914451 
L 598.822961 510.914095 
L 605.050159 510.914628 
L 627.100477 510.920198 
L 631.183886 510.919036 
L 689.882706 510.921811 
L 1141.2 510.921817 
L 1141.2 510.921817 
" clip-path="url(#p75ae517827)" style="fill: none; stroke: #ff7f0e; stroke-width: 1.5; stroke-linecap: square"/>
   </g>
   <g id="line2d_35">
    <path d="M 54.2 510.921817 
L 334.678275 510.839941 
L 334.780358 486.079707 
L 334.882442 510.897034 
L 334.9335 510.841032 
L 335.086609 510.906454 
L 335.341834 510.901496 
L 335.648085 510.921818 
L 336.005361 510.799885 
L 336.107444 510.921818 
L 336.158503 510.896984 
L 337.077255 510.920707 
L 337.230397 510.778604 
L 337.383506 510.921818 
L 392.152057 510.826483 
L 392.203116 510.807677 
L 392.356258 510.894348 
L 396.541718 510.921818 
L 396.643801 510.885143 
L 396.745885 510.915486 
L 396.847968 510.868788 
L 397.052135 510.912674 
L 397.562587 510.921818 
L 397.766754 510.868341 
L 397.919863 510.921818 
L 398.583423 510.907528 
L 398.991757 510.909372 
L 400.063651 510.91641 
L 402.564749 510.921818 
L 404.708503 510.911804 
L 404.759562 508.811297 
L 404.861645 428.960336 
L 404.963729 48.602706 
L 405.116871 493.592425 
L 405.26998 510.921818 
L 405.93354 510.901209 
L 406.035623 510.528798 
L 406.086648 510.669141 
L 406.23979 510.905478 
L 406.648124 510.921818 
L 406.852292 510.921818 
L 408.281495 510.902678 
L 408.434604 510.131134 
L 408.587746 426.31786 
L 408.740854 510.468839 
L 409.047139 510.921818 
L 409.404414 510.9103 
L 411.037785 510.892838 
L 411.548203 510.921818 
L 443.960152 510.832916 
L 444.011211 510.807252 
L 444.16432 510.918247 
L 444.981022 510.893903 
L 445.13413 510.921818 
L 445.848715 510.91105 
L 447.686253 510.915495 
L 447.992503 510.910937 
L 449.779016 510.893976 
L 450.034208 510.87407 
L 450.238375 510.913342 
L 450.697768 510.921818 
L 457.996827 510.885058 
L 458.047885 510.798163 
L 458.09891 510.836938 
L 458.915612 510.921818 
L 459.119779 510.921818 
L 464.428192 510.847504 
L 464.479217 510.804987 
L 464.530275 510.880586 
L 464.5813 510.921818 
L 464.632359 509.967393 
L 464.683384 506.876668 
L 464.734442 508.749755 
L 464.836526 510.921818 
L 464.887551 510.886454 
L 465.040693 510.911669 
L 465.193835 510.921818 
L 730.716667 510.921818 
L 1141.2 510.921818 
L 1141.2 510.921818 
" clip-path="url(#p75ae517827)" style="fill: none; stroke: #2ca02c; stroke-width: 1.5; stroke-linecap: square"/>
   </g>
   <g id="patch_3">
    <path d="M 54.2 534.04 
L 54.2 25.44 
" style="fill: none; stroke: #000000; stroke-width: 0.8; stroke-linejoin: miter; stroke-linecap: square"/>
   </g>
   <g id="patch_4">
    <path d="M 1141.2 534.04 
L 1141.2 25.44 
" style="fill: none; stroke: #000000; stroke-width: 0.8; stroke-linejoin: miter; stroke-linecap: square"/>
   </g>
   <g id="patch_5">
    <path d="M 54.2 534.04 
L 1141.2 534.04 
" style="fill: none; stroke: #000000; stroke-width: 0.8; stroke-linejoin: miter; stroke-linecap: square"/>
   </g>
   <g id="patch_6">
    <path d="M 54.2 25.44 
L 1141.2 25.44 
" style="fill: none; stroke: #000000; stroke-width: 0.8; stroke-linejoin: miter; stroke-linecap: square"/>
   </g>
   <g id="text_20">
    <!-- Total Linear Power in MK UHF Band -->
    <g transform="translate(493.121875 19.44) scale(0.12 -0.12)">
     <defs>
      <path id="DejaVuSans-54" d="M -19 4666 
L 3928 4666 
L 3928 4134 
L 2272 4134 
L 2272 0 
L 1638 0 
L 1638 4134 
L -19 4134 
L -19 4666 
z
" transform="scale(0.015625)"/>
      <path id="DejaVuSans-6f" d="M 1959 3097 
Q 1497 3097 1228 2736 
Q 959 2375 959 1747 
Q 959 1119 1226 758 
Q 1494 397 1959 397 
Q 2419 397 2687 759 
Q 2956 1122 2956 1747 
Q 2956 2369 2687 2733 
Q 2419 3097 1959 3097 
z
M 1959 3584 
Q 2709 3584 3137 3096 
Q 3566 2609 3566 1747 
Q 3566 888 3137 398 
Q 2709 -91 1959 -91 
Q 1206 -91 779 398 
Q 353 888 353 1747 
Q 353 2609 779 3096 
Q 1206 3584 1959 3584 
z
" transform="scale(0.015625)"/>
      <path id="DejaVuSans-74" d="M 1172 4494 
L 1172 3500 
L 2356 3500 
L 2356 3053 
L 1172 3053 
L 1172 1153 
Q 1172 725 1289 603 
Q 1406 481 1766 481 
L 2356 481 
L 2356 0 
L 1766 0 
Q 1100 0 847 248 
Q 594 497 594 1153 
L 594 3053 
L 172 3053 
L 172 3500 
L 594 3500 
L 594 4494 
L 1172 4494 
z
" transform="scale(0.015625)"/>
      <path id="DejaVuSans-61" d="M 2194 1759 
Q 1497 1759 1228 1600 
Q 959 1441 959 1056 
Q 959 750 1161 570 
Q 1363 391 1709 391 
Q 2188 391 2477 730 
Q 2766 1069 2766 1631 
L 2766 1759 
L 2194 1759 
z
M 3341 1997 
L 3341 0 
L 2766 0 
L 2766 531 
Q 2569 213 2275 61 
Q 1981 -91 1556 -91 
Q 1019 -91 701 211 
Q 384 513 384 1019 
Q 384 1609 779 1909 
Q 1175 2209 1959 2209 
L 2766 2209 
L 2766 2266 
Q 2766 2663 2505 2880 
Q 2244 3097 1772 3097 
Q 1472 3097 1187 3025 
Q 903 2953 641 2809 
L 641 3341 
Q 956 3463 1253 3523 
Q 1550 3584 1831 3584 
Q 2591 3584 2966 3190 
Q 3341 2797 3341 1997 
z
" transform="scale(0.015625)"/>
      <path id="DejaVuSans-6c" d="M 603 4863 
L 1178 4863 
L 1178 0 
L 603 0 
L 603 4863 
z
" transform="scale(0.015625)"/>
      <path id="DejaVuSans-4c" d="M 628 4666 
L 1259 4666 
L 1259 531 
L 3531 531 
L 3531 0 
L 628 0 
L 628 4666 
z
" transform="scale(0.015625)"/>
      <path id="DejaVuSans-69" d="M 603 3500 
L 1178 3500 
L 1178 0 
L 603 0 
L 603 3500 
z
M 603 4863 
L 1178 4863 
L 1178 4134 
L 603 4134 
L 603 4863 
z
" transform="scale(0.015625)"/>
      <path id="DejaVuSans-77" d="M 269 3500 
L 844 3500 
L 1563 769 
L 2278 3500 
L 2956 3500 
L 3675 769 
L 4391 3500 
L 4966 3500 
L 4050 0 
L 3372 0 
L 2619 2869 
L 1863 0 
L 1184 0 
L 269 3500 
z
" transform="scale(0.015625)"/>
      <path id="DejaVuSans-4b" d="M 628 4666 
L 1259 4666 
L 1259 2694 
L 3353 4666 
L 4166 4666 
L 1850 2491 
L 4331 0 
L 3500 0 
L 1259 2247 
L 1259 0 
L 628 0 
L 628 4666 
z
" transform="scale(0.015625)"/>
      <path id="DejaVuSans-55" d="M 556 4666 
L 1191 4666 
L 1191 1831 
Q 1191 1081 1462 751 
Q 1734 422 2344 422 
Q 2950 422 3222 751 
Q 3494 1081 3494 1831 
L 3494 4666 
L 4128 4666 
L 4128 1753 
Q 4128 841 3676 375 
Q 3225 -91 2344 -91 
Q 1459 -91 1007 375 
Q 556 841 556 1753 
L 556 4666 
z
" transform="scale(0.015625)"/>
      <path id="DejaVuSans-42" d="M 1259 2228 
L 1259 519 
L 2272 519 
Q 2781 519 3026 730 
Q 3272 941 3272 1375 
Q 3272 1813 3026 2020 
Q 2781 2228 2272 2228 
L 1259 2228 
z
M 1259 4147 
L 1259 2741 
L 2194 2741 
Q 2656 2741 2882 2914 
Q 3109 3088 3109 3444 
Q 3109 3797 2882 3972 
Q 2656 4147 2194 4147 
L 1259 4147 
z
M 628 4666 
L 2241 4666 
Q 2963 4666 3353 4366 
Q 3744 4066 3744 3513 
Q 3744 3084 3544 2831 
Q 3344 2578 2956 2516 
Q 3422 2416 3680 2098 
Q 3938 1781 3938 1306 
Q 3938 681 3513 340 
Q 3088 0 2303 0 
L 628 0 
L 628 4666 
z
" transform="scale(0.015625)"/>
      <path id="DejaVuSans-64" d="M 2906 2969 
L 2906 4863 
L 3481 4863 
L 3481 0 
L 2906 0 
L 2906 525 
Q 2725 213 2448 61 
Q 2172 -91 1784 -91 
Q 1150 -91 751 415 
Q 353 922 353 1747 
Q 353 2572 751 3078 
Q 1150 3584 1784 3584 
Q 2172 3584 2448 3432 
Q 2725 3281 2906 2969 
z
M 947 1747 
Q 947 1113 1208 752 
Q 1469 391 1925 391 
Q 2381 391 2643 752 
Q 2906 1113 2906 1747 
Q 2906 2381 2643 2742 
Q 2381 3103 1925 3103 
Q 1469 3103 1208 2742 
Q 947 2381 947 1747 
z
" transform="scale(0.015625)"/>
     </defs>
     <use xlink:href="#DejaVuSans-54"/>
     <use xlink:href="#DejaVuSans-6f" x="44.083984"/>
     <use xlink:href="#DejaVuSans-74" x="105.265625"/>
     <use xlink:href="#DejaVuSans-61" x="144.474609"/>
     <use xlink:href="#DejaVuSans-6c" x="205.753906"/>
     <use xlink:href="#DejaVuSans-20" x="233.537109"/>
     <use xlink:href="#DejaVuSans-4c" x="265.324219"/>
     <use xlink:href="#DejaVuSans-69" x="321.037109"/>
     <use xlink:href="#DejaVuSans-6e" x="348.820312"/>
     <use xlink:href="#DejaVuSans-65" x="412.199219"/>
     <use xlink:href="#DejaVuSans-61" x="473.722656"/>
     <use xlink:href="#DejaVuSans-72" x="535.001953"/>
     <use xlink:href="#DejaVuSans-20" x="576.115234"/>
     <use xlink:href="#DejaVuSans-50" x="607.902344"/>
     <use xlink:href="#DejaVuSans-6f" x="664.580078"/>
     <use xlink:href="#DejaVuSans-77" x="725.761719"/>
     <use xlink:href="#DejaVuSans-65" x="807.548828"/>
     <use xlink:href="#DejaVuSans-72" x="869.072266"/>
     <use xlink:href="#DejaVuSans-20" x="910.185547"/>
     <use xlink:href="#DejaVuSans-69" x="941.972656"/>
     <use xlink:href="#DejaVuSans-6e" x="969.755859"/>
     <use xlink:href="#DejaVuSans-20" x="1033.134766"/>
     <use xlink:href="#DejaVuSans-4d" x="1064.921875"/>
     <use xlink:href="#DejaVuSans-4b" x="1151.201172"/>
     <use xlink:href="#DejaVuSans-20" x="1216.777344"/>
     <use xlink:href="#DejaVuSans-55" x="1248.564453"/>
     <use xlink:href="#DejaVuSans-48" x="1321.757812"/>
     <use xlink:href="#DejaVuSans-46" x="1396.953125"/>
     <use xlink:href="#DejaVuSans-20" x="1454.472656"/>
     <use xlink:href="#DejaVuSans-42" x="1486.259766"/>
     <use xlink:href="#DejaVuSans-61" x="1554.863281"/>
     <use xlink:href="#DejaVuSans-6e" x="1616.142578"/>
     <use xlink:href="#DejaVuSans-64" x="1679.521484"/>
    </g>
   </g>
   <g id="legend_1">
    <g id="patch_7">
     <path d="M 1039.18375 67.0675 
L 1135.6 67.0675 
Q 1137.2 67.0675 1137.2 65.4675 
L 1137.2 31.04 
Q 1137.2 29.44 1135.6 29.44 
L 1039.18375 29.44 
Q 1037.58375 29.44 1037.58375 31.04 
L 1037.58375 65.4675 
Q 1037.58375 67.0675 1039.18375 67.0675 
z
" style="fill: #ffffff; opacity: 0.8; stroke: #cccccc; stroke-linejoin: miter"/>
    </g>
    <g id="line2d_36">
     <path d="M 1040.78375 35.91875 
L 1048.78375 35.91875 
L 1056.78375 35.91875 
" style="fill: none; stroke: #1f77b4; stroke-width: 1.5; stroke-linecap: square"/>
    </g>
    <g id="text_21">
     <!-- DUT -->
     <g transform="translate(1063.18375 38.71875) scale(0.08 -0.08)">
      <defs>
       <path id="DejaVuSans-44" d="M 1259 4147 
L 1259 519 
L 2022 519 
Q 2988 519 3436 956 
Q 3884 1394 3884 2338 
Q 3884 3275 3436 3711 
Q 2988 4147 2022 4147 
L 1259 4147 
z
M 628 4666 
L 1925 4666 
Q 3281 4666 3915 4102 
Q 4550 3538 4550 2338 
Q 4550 1131 3912 565 
Q 3275 0 1925 0 
L 628 0 
L 628 4666 
z
" transform="scale(0.015625)"/>
      </defs>
      <use xlink:href="#DejaVuSans-44"/>
      <use xlink:href="#DejaVuSans-55" x="77.001953"/>
      <use xlink:href="#DejaVuSans-54" x="150.195312"/>
     </g>
    </g>
    <g id="line2d_37">
     <path d="M 1040.78375 47.66125 
L 1048.78375 47.66125 
L 1056.78375 47.66125 
" style="fill: none; stroke: #ff7f0e; stroke-width: 1.5; stroke-linecap: square"/>
    </g>
    <g id="text_22">
     <!-- BG -->
     <g transform="translate(1063.18375 50.46125) scale(0.08 -0.08)">
      <defs>
       <path id="DejaVuSans-47" d="M 3809 666 
L 3809 1919 
L 2778 1919 
L 2778 2438 
L 4434 2438 
L 4434 434 
Q 4069 175 3628 42 
Q 3188 -91 2688 -91 
Q 1594 -91 976 548 
Q 359 1188 359 2328 
Q 359 3472 976 4111 
Q 1594 4750 2688 4750 
Q 3144 4750 3555 4637 
Q 3966 4525 4313 4306 
L 4313 3634 
Q 3963 3931 3569 4081 
Q 3175 4231 2741 4231 
Q 1884 4231 1454 3753 
Q 1025 3275 1025 2328 
Q 1025 1384 1454 906 
Q 1884 428 2741 428 
Q 3075 428 3337 486 
Q 3600 544 3809 666 
z
" transform="scale(0.015625)"/>
      </defs>
      <use xlink:href="#DejaVuSans-42"/>
      <use xlink:href="#DejaVuSans-47" x="66.853516"/>
     </g>
    </g>
    <g id="line2d_38">
     <path d="M 1040.78375 59.40375 
L 1048.78375 59.40375 
L 1056.78375 59.40375 
" style="fill: none; stroke: #2ca02c; stroke-width: 1.5; stroke-linecap: square"/>
    </g>
    <g id="text_23">
     <!-- Subtracted Power -->
     <g transform="translate(1063.18375 62.20375) scale(0.08 -0.08)">
      <defs>
       <path id="DejaVuSans-53" d="M 3425 4513 
L 3425 3897 
Q 3066 4069 2747 4153 
Q 2428 4238 2131 4238 
Q 1616 4238 1336 4038 
Q 1056 3838 1056 3469 
Q 1056 3159 1242 3001 
Q 1428 2844 1947 2747 
L 2328 2669 
Q 3034 2534 3370 2195 
Q 3706 1856 3706 1288 
Q 3706 609 3251 259 
Q 2797 -91 1919 -91 
Q 1588 -91 1214 -16 
Q 841 59 441 206 
L 441 856 
Q 825 641 1194 531 
Q 1563 422 1919 422 
Q 2459 422 2753 634 
Q 3047 847 3047 1241 
Q 3047 1584 2836 1778 
Q 2625 1972 2144 2069 
L 1759 2144 
Q 1053 2284 737 2584 
Q 422 2884 422 3419 
Q 422 4038 858 4394 
Q 1294 4750 2059 4750 
Q 2388 4750 2728 4690 
Q 3069 4631 3425 4513 
z
" transform="scale(0.015625)"/>
       <path id="DejaVuSans-62" d="M 3116 1747 
Q 3116 2381 2855 2742 
Q 2594 3103 2138 3103 
Q 1681 3103 1420 2742 
Q 1159 2381 1159 1747 
Q 1159 1113 1420 752 
Q 1681 391 2138 391 
Q 2594 391 2855 752 
Q 3116 1113 3116 1747 
z
M 1159 2969 
Q 1341 3281 1617 3432 
Q 1894 3584 2278 3584 
Q 2916 3584 3314 3078 
Q 3713 2572 3713 1747 
Q 3713 922 3314 415 
Q 2916 -91 2278 -91 
Q 1894 -91 1617 61 
Q 1341 213 1159 525 
L 1159 0 
L 581 0 
L 581 4863 
L 1159 4863 
L 1159 2969 
z
" transform="scale(0.015625)"/>
      </defs>
      <use xlink:href="#DejaVuSans-53"/>
      <use xlink:href="#DejaVuSans-75" x="63.476562"/>
      <use xlink:href="#DejaVuSans-62" x="126.855469"/>
      <use xlink:href="#DejaVuSans-74" x="190.332031"/>
      <use xlink:href="#DejaVuSans-72" x="229.541016"/>
      <use xlink:href="#DejaVuSans-61" x="270.654297"/>
      <use xlink:href="#DejaVuSans-63" x="331.933594"/>
      <use xlink:href="#DejaVuSans-74" x="386.914062"/>
      <use xlink:href="#DejaVuSans-65" x="426.123047"/>
      <use xlink:href="#DejaVuSans-64" x="487.646484"/>
      <use xlink:href="#DejaVuSans-20" x="551.123047"/>
      <use xlink:href="#DejaVuSans-50" x="582.910156"/>
      <use xlink:href="#DejaVuSans-6f" x="639.587891"/>
      <use xlink:href="#DejaVuSans-77" x="700.769531"/>
      <use xlink:href="#DejaVuSans-65" x="782.556641"/>
      <use xlink:href="#DejaVuSans-72" x="844.080078"/>
     </g>
    </g>
   </g>
  </g>
 </g>
 <defs>
  <clipPath id="p75ae517827">
   <rect x="54.2" y="25.44" width="1087" height="508.6"/>
  </clipPath>
 </defs>
</svg>
