<?xml version="1.0" encoding="utf-8" standalone="no"?>
<!DOCTYPE svg PUBLIC "-//W3C//DTD SVG 1.1//EN"
  "http://www.w3.org/Graphics/SVG/1.1/DTD/svg11.dtd">
<svg xmlns:xlink="http://www.w3.org/1999/xlink" width="1152pt" height="576pt" viewBox="0 0 1152 576" xmlns="http://www.w3.org/2000/svg" version="1.1">
 <metadata>
  <rdf:RDF xmlns:dc="http://purl.org/dc/elements/1.1/" xmlns:cc="http://creativecommons.org/ns#" xmlns:rdf="http://www.w3.org/1999/02/22-rdf-syntax-ns#">
   <cc:Work>
    <dc:type rdf:resource="http://purl.org/dc/dcmitype/StillImage"/>
    <dc:date>2025-05-14T11:35:35.192647</dc:date>
    <dc:format>image/svg+xml</dc:format>
    <dc:creator>
     <cc:Agent>
      <dc:title>Matplotlib v3.9.2, https://matplotlib.org/</dc:title>
     </cc:Agent>
    </dc:creator>
   </cc:Work>
  </rdf:RDF>
 </metadata>
 <defs>
  <style type="text/css">*{stroke-linejoin: round; stroke-linecap: butt}</style>
 </defs>
 <g id="figure_1">
  <g id="patch_1">
   <path d="M 0 576 
L 1152 576 
L 1152 0 
L 0 0 
z
" style="fill: #ffffff"/>
  </g>
  <g id="axes_1">
   <g id="patch_2">
    <path d="M 45.34 548.12 
L 1141.2 548.12 
L 1141.2 29.76 
L 45.34 29.76 
z
" style="fill: #ffffff"/>
   </g>
   <g id="PathCollection_1">
    <defs>
     <path id="md74aea4dd6" d="M 0 3 
C 0.795609 3 1.55874 2.683901 2.12132 2.12132 
C 2.683901 1.55874 3 0.795609 3 0 
C 3 -0.795609 2.683901 -1.55874 2.12132 -2.12132 
C 1.55874 -2.683901 0.795609 -3 0 -3 
C -0.795609 -3 -1.55874 -2.683901 -2.12132 -2.12132 
C -2.683901 -1.55874 -3 -0.795609 -3 0 
C -3 0.795609 -2.683901 1.55874 -2.12132 2.12132 
C -1.55874 2.683901 -0.795609 3 0 3 
z
" style="stroke: #ff0000"/>
    </defs>
    <g clip-path="url(#p2051666d77)">
     <use xlink:href="#md74aea4dd6" x="166.630659" y="116.44757" style="fill: #ff0000; stroke: #ff0000"/>
     <use xlink:href="#md74aea4dd6" x="202.370009" y="118.420481" style="fill: #ff0000; stroke: #ff0000"/>
     <use xlink:href="#md74aea4dd6" x="204.603849" y="117.221154" style="fill: #ff0000; stroke: #ff0000"/>
     <use xlink:href="#md74aea4dd6" x="211.304951" y="99.935901" style="fill: #ff0000; stroke: #ff0000"/>
     <use xlink:href="#md74aea4dd6" x="285.017492" y="111.019566" style="fill: #ff0000; stroke: #ff0000"/>
     <use xlink:href="#md74aea4dd6" x="756.331126" y="53.321818" style="fill: #ff0000; stroke: #ff0000"/>
    </g>
   </g>
   <g id="matplotlib.axis_1">
    <g id="xtick_1">
     <g id="line2d_1">
      <path d="M 140.376867 548.12 
L 140.376867 29.76 
" clip-path="url(#p2051666d77)" style="fill: none; stroke-dasharray: 2.96,1.28; stroke-dashoffset: 0; stroke: #b0b0b0; stroke-width: 0.8"/>
     </g>
     <g id="line2d_2">
      <defs>
       <path id="mfcf5e66eb5" d="M 0 0 
L 0 3.5 
" style="stroke: #000000; stroke-width: 0.8"/>
      </defs>
      <g>
       <use xlink:href="#mfcf5e66eb5" x="140.376867" y="548.12" style="stroke: #000000; stroke-width: 0.8"/>
      </g>
     </g>
     <g id="text_1">
      <!-- 600 -->
      <g transform="translate(130.833117 562.718437) scale(0.1 -0.1)">
       <defs>
        <path id="DejaVuSans-36" d="M 2113 2584 
Q 1688 2584 1439 2293 
Q 1191 2003 1191 1497 
Q 1191 994 1439 701 
Q 1688 409 2113 409 
Q 2538 409 2786 701 
Q 3034 994 3034 1497 
Q 3034 2003 2786 2293 
Q 2538 2584 2113 2584 
z
M 3366 4563 
L 3366 3988 
Q 3128 4100 2886 4159 
Q 2644 4219 2406 4219 
Q 1781 4219 1451 3797 
Q 1122 3375 1075 2522 
Q 1259 2794 1537 2939 
Q 1816 3084 2150 3084 
Q 2853 3084 3261 2657 
Q 3669 2231 3669 1497 
Q 3669 778 3244 343 
Q 2819 -91 2113 -91 
Q 1303 -91 875 529 
Q 447 1150 447 2328 
Q 447 3434 972 4092 
Q 1497 4750 2381 4750 
Q 2619 4750 2861 4703 
Q 3103 4656 3366 4563 
z
" transform="scale(0.015625)"/>
        <path id="DejaVuSans-30" d="M 2034 4250 
Q 1547 4250 1301 3770 
Q 1056 3291 1056 2328 
Q 1056 1369 1301 889 
Q 1547 409 2034 409 
Q 2525 409 2770 889 
Q 3016 1369 3016 2328 
Q 3016 3291 2770 3770 
Q 2525 4250 2034 4250 
z
M 2034 4750 
Q 2819 4750 3233 4129 
Q 3647 3509 3647 2328 
Q 3647 1150 3233 529 
Q 2819 -91 2034 -91 
Q 1250 -91 836 529 
Q 422 1150 422 2328 
Q 422 3509 836 4129 
Q 1250 4750 2034 4750 
z
" transform="scale(0.015625)"/>
       </defs>
       <use xlink:href="#DejaVuSans-36"/>
       <use xlink:href="#DejaVuSans-30" x="63.623047"/>
       <use xlink:href="#DejaVuSans-30" x="127.246094"/>
      </g>
     </g>
    </g>
    <g id="xtick_2">
     <g id="line2d_3">
      <path d="M 369.868001 548.12 
L 369.868001 29.76 
" clip-path="url(#p2051666d77)" style="fill: none; stroke-dasharray: 2.96,1.28; stroke-dashoffset: 0; stroke: #b0b0b0; stroke-width: 0.8"/>
     </g>
     <g id="line2d_4">
      <g>
       <use xlink:href="#mfcf5e66eb5" x="369.868001" y="548.12" style="stroke: #000000; stroke-width: 0.8"/>
      </g>
     </g>
     <g id="text_2">
      <!-- 700 -->
      <g transform="translate(360.324251 562.718437) scale(0.1 -0.1)">
       <defs>
        <path id="DejaVuSans-37" d="M 525 4666 
L 3525 4666 
L 3525 4397 
L 1831 0 
L 1172 0 
L 2766 4134 
L 525 4134 
L 525 4666 
z
" transform="scale(0.015625)"/>
       </defs>
       <use xlink:href="#DejaVuSans-37"/>
       <use xlink:href="#DejaVuSans-30" x="63.623047"/>
       <use xlink:href="#DejaVuSans-30" x="127.246094"/>
      </g>
     </g>
    </g>
    <g id="xtick_3">
     <g id="line2d_5">
      <path d="M 599.359135 548.12 
L 599.359135 29.76 
" clip-path="url(#p2051666d77)" style="fill: none; stroke-dasharray: 2.96,1.28; stroke-dashoffset: 0; stroke: #b0b0b0; stroke-width: 0.8"/>
     </g>
     <g id="line2d_6">
      <g>
       <use xlink:href="#mfcf5e66eb5" x="599.359135" y="548.12" style="stroke: #000000; stroke-width: 0.8"/>
      </g>
     </g>
     <g id="text_3">
      <!-- 800 -->
      <g transform="translate(589.815385 562.718437) scale(0.1 -0.1)">
       <defs>
        <path id="DejaVuSans-38" d="M 2034 2216 
Q 1584 2216 1326 1975 
Q 1069 1734 1069 1313 
Q 1069 891 1326 650 
Q 1584 409 2034 409 
Q 2484 409 2743 651 
Q 3003 894 3003 1313 
Q 3003 1734 2745 1975 
Q 2488 2216 2034 2216 
z
M 1403 2484 
Q 997 2584 770 2862 
Q 544 3141 544 3541 
Q 544 4100 942 4425 
Q 1341 4750 2034 4750 
Q 2731 4750 3128 4425 
Q 3525 4100 3525 3541 
Q 3525 3141 3298 2862 
Q 3072 2584 2669 2484 
Q 3125 2378 3379 2068 
Q 3634 1759 3634 1313 
Q 3634 634 3220 271 
Q 2806 -91 2034 -91 
Q 1263 -91 848 271 
Q 434 634 434 1313 
Q 434 1759 690 2068 
Q 947 2378 1403 2484 
z
M 1172 3481 
Q 1172 3119 1398 2916 
Q 1625 2713 2034 2713 
Q 2441 2713 2670 2916 
Q 2900 3119 2900 3481 
Q 2900 3844 2670 4047 
Q 2441 4250 2034 4250 
Q 1625 4250 1398 4047 
Q 1172 3844 1172 3481 
z
" transform="scale(0.015625)"/>
       </defs>
       <use xlink:href="#DejaVuSans-38"/>
       <use xlink:href="#DejaVuSans-30" x="63.623047"/>
       <use xlink:href="#DejaVuSans-30" x="127.246094"/>
      </g>
     </g>
    </g>
    <g id="xtick_4">
     <g id="line2d_7">
      <path d="M 828.850269 548.12 
L 828.850269 29.76 
" clip-path="url(#p2051666d77)" style="fill: none; stroke-dasharray: 2.96,1.28; stroke-dashoffset: 0; stroke: #b0b0b0; stroke-width: 0.8"/>
     </g>
     <g id="line2d_8">
      <g>
       <use xlink:href="#mfcf5e66eb5" x="828.850269" y="548.12" style="stroke: #000000; stroke-width: 0.8"/>
      </g>
     </g>
     <g id="text_4">
      <!-- 900 -->
      <g transform="translate(819.306519 562.718437) scale(0.1 -0.1)">
       <defs>
        <path id="DejaVuSans-39" d="M 703 97 
L 703 672 
Q 941 559 1184 500 
Q 1428 441 1663 441 
Q 2288 441 2617 861 
Q 2947 1281 2994 2138 
Q 2813 1869 2534 1725 
Q 2256 1581 1919 1581 
Q 1219 1581 811 2004 
Q 403 2428 403 3163 
Q 403 3881 828 4315 
Q 1253 4750 1959 4750 
Q 2769 4750 3195 4129 
Q 3622 3509 3622 2328 
Q 3622 1225 3098 567 
Q 2575 -91 1691 -91 
Q 1453 -91 1209 -44 
Q 966 3 703 97 
z
M 1959 2075 
Q 2384 2075 2632 2365 
Q 2881 2656 2881 3163 
Q 2881 3666 2632 3958 
Q 2384 4250 1959 4250 
Q 1534 4250 1286 3958 
Q 1038 3666 1038 3163 
Q 1038 2656 1286 2365 
Q 1534 2075 1959 2075 
z
" transform="scale(0.015625)"/>
       </defs>
       <use xlink:href="#DejaVuSans-39"/>
       <use xlink:href="#DejaVuSans-30" x="63.623047"/>
       <use xlink:href="#DejaVuSans-30" x="127.246094"/>
      </g>
     </g>
    </g>
    <g id="xtick_5">
     <g id="line2d_9">
      <path d="M 1058.341403 548.12 
L 1058.341403 29.76 
" clip-path="url(#p2051666d77)" style="fill: none; stroke-dasharray: 2.96,1.28; stroke-dashoffset: 0; stroke: #b0b0b0; stroke-width: 0.8"/>
     </g>
     <g id="line2d_10">
      <g>
       <use xlink:href="#mfcf5e66eb5" x="1058.341403" y="548.12" style="stroke: #000000; stroke-width: 0.8"/>
      </g>
     </g>
     <g id="text_5">
      <!-- 1000 -->
      <g transform="translate(1045.616403 562.718437) scale(0.1 -0.1)">
       <defs>
        <path id="DejaVuSans-31" d="M 794 531 
L 1825 531 
L 1825 4091 
L 703 3866 
L 703 4441 
L 1819 4666 
L 2450 4666 
L 2450 531 
L 3481 531 
L 3481 0 
L 794 0 
L 794 531 
z
" transform="scale(0.015625)"/>
       </defs>
       <use xlink:href="#DejaVuSans-31"/>
       <use xlink:href="#DejaVuSans-30" x="63.623047"/>
       <use xlink:href="#DejaVuSans-30" x="127.246094"/>
       <use xlink:href="#DejaVuSans-30" x="190.869141"/>
      </g>
     </g>
    </g>
   </g>
   <g id="matplotlib.axis_2">
    <g id="ytick_1">
     <g id="line2d_11">
      <path d="M 45.34 479.947317 
L 1141.2 479.947317 
" clip-path="url(#p2051666d77)" style="fill: none; stroke-dasharray: 2.96,1.28; stroke-dashoffset: 0; stroke: #b0b0b0; stroke-width: 0.8"/>
     </g>
     <g id="line2d_12">
      <defs>
       <path id="mee940fd0ee" d="M 0 0 
L -3.5 0 
" style="stroke: #000000; stroke-width: 0.8"/>
      </defs>
      <g>
       <use xlink:href="#mee940fd0ee" x="45.34" y="479.947317" style="stroke: #000000; stroke-width: 0.8"/>
      </g>
     </g>
     <g id="text_6">
      <!-- −110 -->
      <g transform="translate(10.872812 483.746536) scale(0.1 -0.1)">
       <defs>
        <path id="DejaVuSans-2212" d="M 678 2272 
L 4684 2272 
L 4684 1741 
L 678 1741 
L 678 2272 
z
" transform="scale(0.015625)"/>
       </defs>
       <use xlink:href="#DejaVuSans-2212"/>
       <use xlink:href="#DejaVuSans-31" x="83.789062"/>
       <use xlink:href="#DejaVuSans-31" x="147.412109"/>
       <use xlink:href="#DejaVuSans-30" x="211.035156"/>
      </g>
     </g>
    </g>
    <g id="ytick_2">
     <g id="line2d_13">
      <path d="M 45.34 390.847834 
L 1141.2 390.847834 
" clip-path="url(#p2051666d77)" style="fill: none; stroke-dasharray: 2.96,1.28; stroke-dashoffset: 0; stroke: #b0b0b0; stroke-width: 0.8"/>
     </g>
     <g id="line2d_14">
      <g>
       <use xlink:href="#mee940fd0ee" x="45.34" y="390.847834" style="stroke: #000000; stroke-width: 0.8"/>
      </g>
     </g>
     <g id="text_7">
      <!-- −100 -->
      <g transform="translate(10.872812 394.647053) scale(0.1 -0.1)">
       <use xlink:href="#DejaVuSans-2212"/>
       <use xlink:href="#DejaVuSans-31" x="83.789062"/>
       <use xlink:href="#DejaVuSans-30" x="147.412109"/>
       <use xlink:href="#DejaVuSans-30" x="211.035156"/>
      </g>
     </g>
    </g>
    <g id="ytick_3">
     <g id="line2d_15">
      <path d="M 45.34 301.748351 
L 1141.2 301.748351 
" clip-path="url(#p2051666d77)" style="fill: none; stroke-dasharray: 2.96,1.28; stroke-dashoffset: 0; stroke: #b0b0b0; stroke-width: 0.8"/>
     </g>
     <g id="line2d_16">
      <g>
       <use xlink:href="#mee940fd0ee" x="45.34" y="301.748351" style="stroke: #000000; stroke-width: 0.8"/>
      </g>
     </g>
     <g id="text_8">
      <!-- −90 -->
      <g transform="translate(17.235312 305.54757) scale(0.1 -0.1)">
       <use xlink:href="#DejaVuSans-2212"/>
       <use xlink:href="#DejaVuSans-39" x="83.789062"/>
       <use xlink:href="#DejaVuSans-30" x="147.412109"/>
      </g>
     </g>
    </g>
    <g id="ytick_4">
     <g id="line2d_17">
      <path d="M 45.34 212.648868 
L 1141.2 212.648868 
" clip-path="url(#p2051666d77)" style="fill: none; stroke-dasharray: 2.96,1.28; stroke-dashoffset: 0; stroke: #b0b0b0; stroke-width: 0.8"/>
     </g>
     <g id="line2d_18">
      <g>
       <use xlink:href="#mee940fd0ee" x="45.34" y="212.648868" style="stroke: #000000; stroke-width: 0.8"/>
      </g>
     </g>
     <g id="text_9">
      <!-- −80 -->
      <g transform="translate(17.235312 216.448087) scale(0.1 -0.1)">
       <use xlink:href="#DejaVuSans-2212"/>
       <use xlink:href="#DejaVuSans-38" x="83.789062"/>
       <use xlink:href="#DejaVuSans-30" x="147.412109"/>
      </g>
     </g>
    </g>
    <g id="ytick_5">
     <g id="line2d_19">
      <path d="M 45.34 123.549385 
L 1141.2 123.549385 
" clip-path="url(#p2051666d77)" style="fill: none; stroke-dasharray: 2.96,1.28; stroke-dashoffset: 0; stroke: #b0b0b0; stroke-width: 0.8"/>
     </g>
     <g id="line2d_20">
      <g>
       <use xlink:href="#mee940fd0ee" x="45.34" y="123.549385" style="stroke: #000000; stroke-width: 0.8"/>
      </g>
     </g>
     <g id="text_10">
      <!-- −70 -->
      <g transform="translate(17.235312 127.348603) scale(0.1 -0.1)">
       <use xlink:href="#DejaVuSans-2212"/>
       <use xlink:href="#DejaVuSans-37" x="83.789062"/>
       <use xlink:href="#DejaVuSans-30" x="147.412109"/>
      </g>
     </g>
    </g>
    <g id="ytick_6">
     <g id="line2d_21">
      <path d="M 45.34 34.449902 
L 1141.2 34.449902 
" clip-path="url(#p2051666d77)" style="fill: none; stroke-dasharray: 2.96,1.28; stroke-dashoffset: 0; stroke: #b0b0b0; stroke-width: 0.8"/>
     </g>
     <g id="line2d_22">
      <g>
       <use xlink:href="#mee940fd0ee" x="45.34" y="34.449902" style="stroke: #000000; stroke-width: 0.8"/>
      </g>
     </g>
     <g id="text_11">
      <!-- −60 -->
      <g transform="translate(17.235312 38.24912) scale(0.1 -0.1)">
       <use xlink:href="#DejaVuSans-2212"/>
       <use xlink:href="#DejaVuSans-36" x="83.789062"/>
       <use xlink:href="#DejaVuSans-30" x="147.412109"/>
      </g>
     </g>
    </g>
   </g>
   <g id="line2d_23">
    <path d="M 95.151818 149.887543 
L 97.385519 136.478435 
L 99.619219 154.591791 
L 101.85292 149.164194 
L 104.086621 152.437855 
L 106.320321 153.996716 
L 108.554162 154.042737 
L 110.787863 147.595749 
L 113.021563 151.578212 
L 115.255264 145.890805 
L 117.488965 149.050128 
L 119.722665 151.031197 
L 121.956366 145.572671 
L 124.190066 143.580114 
L 126.423767 150.696068 
L 128.657468 149.111784 
L 130.891168 135.716204 
L 133.125009 148.487274 
L 135.35871 145.406262 
L 137.59241 151.350011 
L 139.826111 149.722154 
L 142.059812 151.360956 
L 144.293512 150.286979 
L 146.527213 149.032998 
L 148.760913 133.238831 
L 150.994614 132.936807 
L 153.228315 151.953856 
L 155.462015 153.859537 
L 157.695856 148.877873 
L 159.929557 127.444224 
L 162.163257 141.609922 
L 164.396958 132.297682 
L 166.630659 116.44757 
L 168.864359 155.451231 
L 171.09806 158.88192 
L 173.33176 130.493967 
L 175.565461 132.591481 
L 177.799162 150.764725 
L 180.033002 145.312181 
L 182.266703 140.890856 
L 184.500404 158.243203 
L 186.734104 151.433556 
L 191.201506 157.11532 
L 193.435206 150.141439 
L 195.668907 146.200919 
L 197.902607 128.357162 
L 200.136308 146.538291 
L 202.370009 118.420481 
L 204.603849 117.221154 
L 206.83755 148.309513 
L 209.071251 128.322426 
L 211.304951 99.935901 
L 213.538652 141.402182 
L 215.772353 130.709592 
L 218.006053 150.004532 
L 220.239754 138.519936 
L 222.473454 145.016751 
L 224.707155 127.502753 
L 226.940856 135.786492 
L 229.174696 139.677185 
L 231.408397 138.900406 
L 233.642098 143.338522 
L 235.875798 142.220088 
L 238.109499 143.148729 
L 240.3432 140.494275 
L 242.5769 142.161763 
L 244.810601 149.485524 
L 247.044301 145.015663 
L 249.278002 148.504881 
L 251.511843 137.7713 
L 253.745543 146.471809 
L 255.979244 144.869307 
L 258.212945 151.842304 
L 260.446645 143.220173 
L 262.680346 149.654992 
L 264.914047 146.193781 
L 267.147747 148.359273 
L 269.381448 152.899831 
L 271.615148 150.472694 
L 273.848849 145.142781 
L 276.08269 149.775108 
L 278.31639 148.992959 
L 280.550091 140.373411 
L 282.783792 138.907612 
L 285.017492 111.019566 
L 287.251193 147.621309 
L 289.484893 140.672376 
L 291.718594 140.439281 
L 293.952295 138.609122 
L 296.185995 138.664796 
L 298.419696 153.416528 
L 300.653537 147.803829 
L 302.887237 159.46707 
L 305.120938 143.827892 
L 307.354639 143.803964 
L 309.588339 154.315734 
L 311.82204 118.77512 
L 314.05574 149.820449 
L 316.289441 154.074278 
L 318.523142 155.171367 
L 320.756842 149.706315 
L 322.990543 153.028784 
L 325.224384 152.785764 
L 327.458084 148.772848 
L 329.691785 157.477504 
L 331.925486 147.596225 
L 334.159186 144.988812 
L 336.392887 149.954569 
L 338.626587 147.464009 
L 340.860288 154.187733 
L 343.093989 147.395148 
L 345.327689 154.017925 
L 347.56153 147.598808 
L 349.795231 152.261726 
L 352.028931 149.722902 
L 354.262632 152.158604 
L 356.496333 153.829491 
L 358.730033 147.815521 
L 360.963734 148.328139 
L 363.197434 149.313065 
L 365.431135 143.571617 
L 367.664836 148.103337 
L 369.898536 143.876836 
L 372.132377 152.767342 
L 374.366078 144.959717 
L 376.599778 145.809436 
L 378.833479 148.823083 
L 381.06718 151.594594 
L 383.30088 149.273162 
L 385.534581 140.802281 
L 387.768281 141.050603 
L 390.001982 147.480799 
L 392.235683 143.975471 
L 394.469383 134.520615 
L 396.703224 141.951713 
L 398.936925 140.792696 
L 401.170625 144.813566 
L 403.404326 142.653648 
L 405.638027 146.310159 
L 407.871727 144.197282 
L 410.105428 139.925507 
L 412.339128 142.171892 
L 414.572829 141.229588 
L 416.80653 140.616226 
L 419.04037 142.224846 
L 421.274071 140.53778 
L 423.507772 141.673821 
L 425.741472 140.676319 
L 427.975173 136.94884 
L 430.208874 141.933767 
L 432.442574 133.14645 
L 434.676275 141.37839 
L 436.909975 141.824255 
L 439.143676 133.946613 
L 441.377377 139.361905 
L 443.611217 139.422745 
L 445.844918 136.173148 
L 448.078619 136.293469 
L 450.312319 140.004633 
L 452.54602 138.601781 
L 454.779721 145.845396 
L 457.013421 145.520804 
L 459.247122 140.592638 
L 461.480822 147.115964 
L 463.714523 140.732536 
L 465.948224 141.709577 
L 468.182064 146.969812 
L 470.415765 142.815571 
L 472.649466 144.508483 
L 474.883166 140.436426 
L 477.116867 145.260314 
L 479.350568 147.302087 
L 481.584268 145.470704 
L 483.817969 145.85403 
L 486.051669 149.265141 
L 488.28537 147.72647 
L 490.519071 145.242572 
L 492.752911 147.521586 
L 494.986612 143.774462 
L 497.220313 146.492814 
L 499.454013 145.968504 
L 501.687714 144.97576 
L 503.921415 144.412227 
L 506.155115 141.019129 
L 508.388816 147.600576 
L 510.622516 144.303802 
L 512.856217 139.875883 
L 515.090058 143.293249 
L 517.323758 144.805205 
L 519.557459 136.052896 
L 521.79116 140.197825 
L 524.02486 142.76316 
L 526.258561 146.385274 
L 528.492262 134.989592 
L 530.725962 143.375298 
L 532.959663 140.41311 
L 535.193363 139.364081 
L 537.427064 140.607525 
L 539.660905 143.726877 
L 541.894605 129.25766 
L 544.128306 141.974077 
L 546.362007 141.081261 
L 548.595707 142.953361 
L 550.829408 137.12463 
L 553.063109 143.066272 
L 557.53051 128.830082 
L 559.76421 129.592993 
L 561.997911 135.742443 
L 564.231752 131.004206 
L 566.465452 136.213799 
L 568.699153 138.055514 
L 570.932854 132.402844 
L 573.166554 140.110678 
L 575.400255 127.815721 
L 577.633956 135.70995 
L 579.867656 135.686225 
L 582.101357 134.825154 
L 584.335057 132.021558 
L 586.568898 134.290783 
L 588.802599 125.920372 
L 591.036299 140.214343 
L 593.27 128.478774 
L 595.503701 135.937878 
L 597.737401 134.311924 
L 599.971102 129.171397 
L 602.204803 133.067392 
L 604.438503 124.837423 
L 606.672204 124.8103 
L 608.905904 135.372305 
L 611.139745 127.826734 
L 613.373446 129.955789 
L 615.607146 132.45505 
L 617.840847 129.450988 
L 620.074548 131.504521 
L 622.308248 128.854825 
L 624.541949 130.619862 
L 626.77565 125.867962 
L 629.00935 128.468101 
L 631.243051 126.880555 
L 633.476751 122.458889 
L 637.944293 120.17131 
L 640.177993 123.466112 
L 642.411694 125.314625 
L 644.645395 118.562962 
L 646.879095 122.336394 
L 649.112796 121.63643 
L 651.346497 120.447435 
L 653.580197 122.999719 
L 655.813898 122.600079 
L 658.047598 130.435439 
L 660.281439 115.251778 
L 662.51514 126.319332 
L 664.74884 124.58611 
L 666.982541 131.186454 
L 669.216242 124.20965 
L 671.449942 120.952032 
L 673.683643 125.461864 
L 675.917343 123.504588 
L 678.151044 128.385237 
L 680.384745 131.757873 
L 682.618585 127.697644 
L 684.852286 129.212523 
L 687.085987 130.205403 
L 689.319687 119.41574 
L 691.553388 131.537014 
L 693.787089 127.919931 
L 696.020789 126.897821 
L 698.25449 130.729373 
L 700.48819 133.655465 
L 702.721891 137.743769 
L 704.955592 135.325877 
L 707.189432 134.782193 
L 709.423133 136.334595 
L 711.656834 132.730087 
L 713.890534 133.454456 
L 716.124235 133.30946 
L 718.357936 131.580384 
L 720.591636 130.203431 
L 722.825337 125.916022 
L 725.059037 135.909803 
L 727.292738 131.658762 
L 729.526439 133.164532 
L 731.760279 132.53941 
L 733.99398 130.479012 
L 736.227681 126.87634 
L 738.461381 133.094107 
L 740.695082 136.013877 
L 742.928783 126.051365 
L 745.162483 130.80476 
L 747.396184 129.400141 
L 749.629884 135.355991 
L 751.863585 135.518389 
L 754.097426 131.420297 
L 756.331126 53.321818 
L 758.564827 135.38862 
L 760.798528 126.664726 
L 763.032228 123.626811 
L 765.265929 126.95397 
L 767.49963 127.140569 
L 769.73333 127.92768 
L 771.967031 130.250336 
L 774.200731 128.135895 
L 776.434432 128.500527 
L 778.668273 131.89546 
L 780.901973 129.635547 
L 783.135674 121.214221 
L 785.369375 127.707569 
L 787.603075 126.177735 
L 789.836776 118.759077 
L 792.070477 123.450341 
L 794.304177 110.731477 
L 796.537878 126.495258 
L 798.771578 119.165311 
L 801.005279 123.915715 
L 803.23912 120.857951 
L 805.47282 124.081309 
L 807.706521 126.538356 
L 809.940222 124.404882 
L 812.173922 126.914339 
L 814.407623 117.476682 
L 816.641324 114.365487 
L 818.875024 122.241973 
L 821.108725 125.257456 
L 823.342425 122.512864 
L 825.576126 121.546359 
L 827.809967 117.444053 
L 830.043667 123.409215 
L 832.277368 120.913761 
L 834.511069 125.626845 
L 836.744769 126.461949 
L 838.97847 123.78751 
L 841.212171 124.267771 
L 843.445871 118.056326 
L 845.679572 121.947155 
L 847.913272 112.255329 
L 850.147113 114.028115 
L 852.380814 118.179093 
L 854.614514 115.968397 
L 856.848215 125.409385 
L 859.081916 125.231964 
L 861.315616 118.590901 
L 863.549317 118.76336 
L 865.783018 111.467878 
L 868.016718 117.281382 
L 870.250419 118.914474 
L 872.484119 111.074492 
L 874.71796 120.215496 
L 876.951661 118.556708 
L 879.185361 113.749135 
L 881.419062 118.118933 
L 883.652763 114.167672 
L 885.886463 112.517246 
L 888.120164 113.413666 
L 890.353865 116.453892 
L 892.587565 117.051007 
L 894.821266 116.309984 
L 897.054966 114.466026 
L 899.288807 112.225895 
L 901.522508 111.47386 
L 903.756208 116.466536 
L 905.989909 112.41093 
L 908.22361 112.024206 
L 910.45731 109.361934 
L 912.691011 111.814495 
L 914.924712 119.342121 
L 917.158412 113.411763 
L 919.392113 117.293482 
L 921.625953 114.279563 
L 923.859654 120.158395 
L 926.093355 116.518675 
L 928.327055 117.128025 
L 930.560756 121.650569 
L 932.794457 110.805437 
L 935.028157 115.50982 
L 937.261858 116.031752 
L 939.495559 120.002318 
L 941.729259 122.557797 
L 943.96296 120.929871 
L 946.1968 121.347797 
L 948.430501 112.538319 
L 950.664202 119.236348 
L 952.897902 115.527495 
L 955.131603 121.225234 
L 957.365304 120.394344 
L 959.599004 125.486608 
L 961.832705 118.581656 
L 964.066406 120.679918 
L 966.300106 121.488986 
L 968.533807 123.102501 
L 970.767647 110.750783 
L 973.001348 115.17204 
L 975.235049 114.691439 
L 977.468749 116.965763 
L 979.70245 121.763751 
L 981.936151 116.745788 
L 984.169851 119.60431 
L 986.403552 114.726923 
L 988.637253 113.379541 
L 990.870953 116.56388 
L 993.104654 116.746467 
L 995.338494 111.860448 
L 997.572195 112.468982 
L 999.805896 116.332008 
L 1002.039596 112.115975 
L 1004.273297 118.618568 
L 1006.506998 106.115192 
L 1008.740698 114.868792 
L 1010.974399 116.003337 
L 1013.2081 116.440569 
L 1015.4418 108.010609 
L 1017.675641 109.535549 
L 1019.909341 112.249483 
L 1022.143042 111.279104 
L 1024.376743 100.647693 
L 1026.610443 107.17537 
L 1028.844144 113.103213 
L 1031.077845 111.866566 
L 1033.311545 114.362496 
L 1035.545246 107.353743 
L 1037.778947 108.67271 
L 1040.012647 112.713905 
L 1042.246488 106.996317 
L 1044.480188 109.884206 
L 1046.713889 103.520695 
L 1048.94759 113.432972 
L 1051.18129 108.499232 
L 1053.414991 110.203496 
L 1055.648692 110.685253 
L 1057.882392 107.684861 
L 1060.116093 108.404879 
L 1062.349793 103.53565 
L 1064.583494 110.64365 
L 1066.817335 111.259323 
L 1069.051035 108.083345 
L 1071.284736 113.217823 
L 1073.518437 109.571645 
L 1075.752137 113.507067 
L 1077.985838 108.695143 
L 1080.219539 114.867705 
L 1082.453239 110.308317 
L 1084.68694 101.965709 
L 1086.92064 109.21755 
L 1089.154481 113.31136 
L 1091.388182 107.939573 
L 1091.388182 107.939573 
" clip-path="url(#p2051666d77)" style="fill: none; stroke: #1f77b4; stroke-width: 1.5; stroke-linecap: square"/>
   </g>
   <g id="line2d_24">
    <path d="M 95.151818 166.460052 
L 97.385519 157.238631 
L 99.619219 157.710259 
L 101.85292 161.192611 
L 104.086621 152.437855 
L 106.320321 152.303804 
L 108.554162 155.557411 
L 110.787863 156.594816 
L 113.021563 159.50806 
L 115.255264 166.74012 
L 117.488965 156.445402 
L 119.722665 162.079582 
L 121.956366 164.90731 
L 124.190066 149.817118 
L 126.423767 147.310244 
L 128.657468 145.636909 
L 130.891168 153.5361 
L 133.125009 165.950765 
L 135.35871 169.017638 
L 137.59241 164.09124 
L 139.826111 165.225513 
L 142.059812 163.567609 
L 144.293512 164.899289 
L 146.527213 165.872795 
L 148.760913 164.958293 
L 150.994614 167.329145 
L 153.228315 160.596448 
L 155.462015 164.28416 
L 157.695856 166.519533 
L 159.929557 157.648943 
L 162.163257 167.448785 
L 164.396958 160.631321 
L 166.630659 167.14513 
L 168.864359 164.984873 
L 171.09806 163.336894 
L 173.33176 168.806704 
L 175.565461 166.449312 
L 177.799162 161.723991 
L 180.033002 162.062859 
L 182.266703 169.313544 
L 184.500404 164.034683 
L 186.734104 169.342571 
L 188.967805 163.139487 
L 191.201506 169.143805 
L 193.435206 161.724399 
L 195.668907 171.683376 
L 197.902607 164.888005 
L 200.136308 170.595124 
L 202.370009 165.999573 
L 206.83755 162.298129 
L 209.071251 161.111038 
L 211.304951 162.21642 
L 213.538652 162.518784 
L 215.772353 161.359836 
L 218.006053 159.716411 
L 220.239754 164.002394 
L 222.473454 157.57981 
L 224.707155 158.420284 
L 226.940856 148.884127 
L 229.174696 156.78427 
L 231.408397 155.20556 
L 233.642098 155.456057 
L 238.109499 157.226463 
L 240.3432 160.185252 
L 242.5769 154.724755 
L 244.810601 155.989748 
L 247.044301 151.341718 
L 249.278002 158.484047 
L 251.511843 162.006302 
L 253.745543 163.400725 
L 255.979244 154.848474 
L 258.212945 153.802436 
L 260.446645 160.950951 
L 262.680346 157.406672 
L 264.914047 164.013678 
L 267.147747 161.18962 
L 269.381448 166.264753 
L 271.615148 162.501178 
L 273.848849 155.121947 
L 276.08269 162.605456 
L 278.31639 162.001476 
L 280.550091 159.351644 
L 282.783792 162.608039 
L 285.017492 169.825211 
L 287.251193 159.293319 
L 289.484893 162.947247 
L 291.718594 168.149158 
L 293.952295 167.744624 
L 296.185995 167.087553 
L 298.419696 155.644015 
L 300.653537 162.32702 
L 302.887237 158.576089 
L 305.120938 167.35015 
L 307.354639 161.980267 
L 309.588339 161.087314 
L 311.82204 164.483198 
L 314.05574 164.165404 
L 316.289441 160.489452 
L 318.523142 167.021615 
L 320.756842 168.328142 
L 322.990543 164.166219 
L 325.224384 170.249255 
L 327.458084 164.454376 
L 329.691785 154.98273 
L 331.925486 160.69386 
L 334.159186 165.392602 
L 336.392887 142.648414 
L 338.626587 160.205238 
L 340.860288 155.256883 
L 343.093989 145.345898 
L 345.327689 160.611267 
L 347.56153 155.350488 
L 349.795231 158.676899 
L 352.028931 153.999707 
L 354.262632 160.712214 
L 356.496333 161.581171 
L 358.730033 150.399414 
L 360.963734 150.466576 
L 363.197434 161.697888 
L 365.431135 153.283428 
L 367.664836 162.982935 
L 369.898536 159.558364 
L 372.132377 153.212867 
L 374.366078 155.117053 
L 376.599778 153.561048 
L 378.833479 156.574763 
L 381.06718 145.446776 
L 383.30088 160.588835 
L 385.534581 155.949166 
L 387.768281 154.682881 
L 390.001982 157.638135 
L 392.235683 157.964087 
L 394.469383 135.678952 
L 396.703224 151.396236 
L 398.936925 148.722545 
L 401.170625 150.605046 
L 403.404326 155.305759 
L 405.638027 158.87315 
L 407.871727 151.770792 
L 410.105428 150.884773 
L 412.339128 153.843902 
L 414.572829 139.091219 
L 416.80653 147.298688 
L 419.04037 156.569868 
L 421.274071 157.288459 
L 423.507772 152.900306 
L 425.741472 142.190993 
L 427.975173 141.938389 
L 430.208874 146.121385 
L 432.442574 152.748377 
L 434.676275 142.447609 
L 436.909975 149.486816 
L 439.143676 155.508672 
L 441.377377 147.113585 
L 443.611217 146.550731 
L 445.844918 150.785458 
L 448.078619 146.629041 
L 450.312319 143.568626 
L 452.54602 152.233991 
L 454.779721 156.002732 
L 457.013421 152.916077 
L 459.247122 139.345251 
L 461.480822 156.382319 
L 463.714523 150.177127 
L 465.948224 141.620526 
L 468.182064 149.820993 
L 470.415765 155.289512 
L 472.649466 154.487581 
L 474.883166 145.158688 
L 477.116867 154.704905 
L 479.350568 149.351405 
L 481.584268 159.815727 
L 483.817969 148.794329 
L 486.051669 149.532497 
L 488.28537 156.012725 
L 490.519071 141.411291 
L 492.752911 152.154729 
L 494.986612 155.357422 
L 497.220313 146.04729 
L 499.454013 155.680383 
L 501.687714 148.450635 
L 503.921415 147.263407 
L 506.155115 154.295001 
L 508.388816 156.243237 
L 510.622516 156.688625 
L 512.856217 146.380176 
L 515.090058 144.451518 
L 517.323758 150.953091 
L 519.557459 147.368501 
L 521.79116 153.919153 
L 524.02486 142.584991 
L 526.258561 150.216554 
L 528.492262 153.255013 
L 530.725962 149.523184 
L 532.959663 151.817833 
L 535.193363 145.155561 
L 537.427064 152.190417 
L 539.660905 149.607476 
L 541.894605 150.374262 
L 544.128306 149.903926 
L 548.595707 145.269967 
L 550.829408 153.60802 
L 553.063109 152.510863 
L 555.296809 145.429918 
L 557.53051 148.075535 
L 559.76421 142.957916 
L 561.997911 151.334852 
L 564.231752 146.507497 
L 566.465452 137.728474 
L 568.699153 145.896244 
L 570.932854 137.927036 
L 573.166554 147.238596 
L 575.400255 138.774988 
L 577.633956 142.837867 
L 579.867656 146.021798 
L 582.101357 147.477265 
L 584.335057 144.58455 
L 586.568898 134.914477 
L 588.802599 141.780069 
L 591.036299 146.540399 
L 593.27 136.67591 
L 595.503701 142.174815 
L 597.737401 140.014286 
L 599.971102 142.625438 
L 602.204803 142.868321 
L 604.438503 145.062975 
L 606.672204 138.977085 
L 608.905904 133.233937 
L 611.139745 130.410627 
L 613.373446 139.133025 
L 615.607146 144.928992 
L 617.840847 145.310685 
L 620.074548 134.712108 
L 622.308248 143.378017 
L 624.541949 141.044553 
L 626.77565 135.134316 
L 629.00935 136.041544 
L 631.243051 139.08714 
L 633.476751 132.08165 
L 635.710592 137.057128 
L 637.944293 136.298295 
L 640.177993 131.485079 
L 642.411694 138.590497 
L 644.645395 134.779066 
L 646.879095 137.037754 
L 649.112796 131.615528 
L 651.346497 130.426601 
L 653.580197 127.989268 
L 655.813898 130.708164 
L 658.047598 138.721693 
L 660.281439 134.230011 
L 662.51514 135.942093 
L 664.74884 136.971 
L 666.982541 129.048086 
L 669.216242 139.267417 
L 671.449942 131.554824 
L 673.683643 136.777468 
L 675.917343 138.740659 
L 678.151044 136.938847 
L 680.384745 139.420434 
L 682.618585 142.220836 
L 684.852286 127.074155 
L 687.085987 138.758945 
L 689.319687 133.137001 
L 691.553388 138.75405 
L 693.787089 144.759728 
L 696.020789 138.748001 
L 700.48819 142.92182 
L 702.721891 141.931387 
L 704.955592 143.344844 
L 707.189432 130.950912 
L 709.423133 132.414196 
L 711.656834 142.976474 
L 713.890534 143.70091 
L 716.124235 133.220341 
L 718.357936 142.806938 
L 720.591636 137.776874 
L 722.825337 139.993688 
L 725.059037 144.552464 
L 727.292738 139.766779 
L 729.526439 136.906694 
L 731.760279 140.29109 
L 733.99398 144.556679 
L 736.227681 139.52845 
L 738.461381 144.409711 
L 740.695082 141.716239 
L 742.928783 140.307269 
L 745.162483 143.367752 
L 747.396184 140.804864 
L 749.629884 142.038452 
L 751.863585 142.913662 
L 754.097426 139.350145 
L 756.331126 139.213714 
L 758.564827 141.714675 
L 760.798528 147.157566 
L 763.032228 140.555726 
L 765.265929 135.507513 
L 767.49963 134.624961 
L 769.73333 133.986448 
L 771.967031 140.853128 
L 774.200731 140.788006 
L 776.434432 140.083419 
L 778.668273 131.360816 
L 780.901973 137.476345 
L 783.135674 133.331756 
L 785.369375 141.785304 
L 787.603075 133.840296 
L 789.836776 127.847263 
L 792.070477 128.974534 
L 794.304177 133.184517 
L 796.537878 125.247871 
L 798.771578 130.659153 
L 801.005279 135.23132 
L 805.47282 129.783738 
L 807.706521 133.042648 
L 809.940222 130.018193 
L 812.173922 132.260363 
L 814.407623 138.415115 
L 816.641324 132.185384 
L 818.875024 127.944335 
L 821.108725 118.842282 
L 823.342425 118.147008 
L 825.576126 135.802263 
L 827.809967 133.125581 
L 830.043667 130.626319 
L 832.277368 135.43702 
L 834.511069 136.942518 
L 836.744769 130.827873 
L 838.97847 135.905045 
L 841.212171 134.781513 
L 843.445871 130.530267 
L 845.679572 125.065623 
L 847.913272 126.600351 
L 850.147113 122.670775 
L 852.380814 134.573434 
L 854.614514 127.551357 
L 856.848215 130.93351 
L 859.081916 124.786439 
L 861.315616 133.826905 
L 863.549317 129.188051 
L 865.783018 122.338025 
L 868.016718 134.744873 
L 870.250419 122.923924 
L 872.484119 123.904771 
L 874.71796 129.927307 
L 876.951661 127.377538 
L 879.185361 121.768102 
L 881.419062 130.325587 
L 883.652763 133.234956 
L 885.886463 126.060406 
L 888.120164 129.095126 
L 890.353865 126.878515 
L 892.587565 120.525881 
L 894.821266 128.873043 
L 897.054966 123.465093 
L 899.288807 123.630618 
L 901.522508 128.046369 
L 903.756208 130.544271 
L 905.989909 120.073491 
L 908.22361 120.31046 
L 910.45731 119.251982 
L 912.691011 130.970897 
L 914.924712 118.985714 
L 917.158412 119.737818 
L 919.392113 127.985393 
L 921.625953 124.971474 
L 923.859654 129.959324 
L 926.093355 126.230554 
L 928.327055 127.909054 
L 930.560756 127.085643 
L 932.794457 125.685034 
L 937.261858 133.851648 
L 939.495559 126.328373 
L 941.729259 131.02222 
L 943.96296 122.355428 
L 946.1968 131.237845 
L 948.430501 132.674822 
L 950.664202 128.76999 
L 952.897902 135.842166 
L 955.131603 129.689657 
L 957.365304 119.146957 
L 959.599004 119.249603 
L 961.832705 123.927612 
L 964.066406 123.976623 
L 966.300106 128.349617 
L 968.533807 119.627626 
L 970.767647 126.788649 
L 973.001348 116.241258 
L 975.235049 127.343549 
L 977.468749 130.330685 
L 979.70245 127.555231 
L 981.936151 128.328748 
L 984.169851 126.197721 
L 986.403552 111.252049 
L 988.637253 124.695146 
L 990.870953 127.612197 
L 993.104654 127.527497 
L 995.338494 117.295522 
L 997.572195 130.645285 
L 999.805896 128.271375 
L 1002.039596 129.044891 
L 1004.273297 116.480131 
L 1006.506998 125.717052 
L 1008.740698 125.471585 
L 1010.974399 119.032687 
L 1013.2081 120.450018 
L 1015.4418 121.375532 
L 1017.675641 108.822737 
L 1019.909341 117.060795 
L 1022.143042 124.644027 
L 1024.376743 113.388922 
L 1026.610443 118.223687 
L 1028.844144 121.92411 
L 1031.077845 122.736714 
L 1033.311545 125.767219 
L 1035.545246 119.916734 
L 1037.778947 120.433839 
L 1040.012647 120.643754 
L 1042.246488 113.58966 
L 1044.480188 117.992291 
L 1046.713889 111.896 
L 1048.94759 115.393171 
L 1051.18129 121.775104 
L 1053.414991 118.757038 
L 1055.648692 116.922189 
L 1057.882392 122.831814 
L 1060.116093 125.779251 
L 1062.349793 121.89019 
L 1064.583494 120.355461 
L 1066.817335 111.704847 
L 1069.051035 106.123146 
L 1071.284736 112.950535 
L 1073.518437 113.402925 
L 1075.752137 122.773421 
L 1077.985838 117.872379 
L 1080.219539 123.15396 
L 1082.453239 119.752909 
L 1084.68694 119.785606 
L 1086.92064 106.544538 
L 1089.154481 109.747367 
L 1091.388182 117.651452 
L 1091.388182 117.651452 
" clip-path="url(#p2051666d77)" style="fill: none; stroke: #ff7f0e; stroke-width: 1.5; stroke-linecap: square"/>
   </g>
   <g id="line2d_25">
    <path d="M 95.151818 524.558182 
L 224.707155 520.189959 
L 329.691785 516.882019 
L 432.442574 513.852149 
L 557.53051 510.406365 
L 671.449942 507.469937 
L 816.641324 503.971527 
L 964.066406 500.664756 
L 1091.388182 497.982347 
L 1091.388182 497.982347 
" clip-path="url(#p2051666d77)" style="fill: none; stroke-dasharray: 9.6,2.4,1.5,2.4; stroke-dashoffset: 0; stroke: #2ca02c; stroke-width: 1.5"/>
   </g>
   <g id="line2d_26">
    <path d="M 95.151818 390.908957 
L 224.707155 386.540734 
L 329.691785 383.232794 
L 432.442574 380.202924 
L 557.53051 376.757141 
L 671.449942 373.820712 
L 816.641324 370.322303 
L 964.066406 367.015532 
L 1091.388182 364.333123 
L 1091.388182 364.333123 
" clip-path="url(#p2051666d77)" style="fill: none; stroke-dasharray: 9.6,2.4,1.5,2.4; stroke-dashoffset: 0; stroke: #d62728; stroke-width: 1.5"/>
   </g>
   <g id="line2d_27">
    <path d="M 95.151818 114.520136 
L 97.385519 112.877663 
L 99.619219 111.760317 
L 101.85292 111.426955 
L 104.086621 111.306635 
L 106.320321 110.43761 
L 108.554162 111.625382 
L 110.787863 111.467198 
L 113.021563 111.578069 
L 115.255264 113.136726 
L 117.488965 112.825932 
L 119.722665 111.795053 
L 121.956366 110.425307 
L 124.190066 109.678778 
L 126.423767 109.580142 
L 128.657468 111.151714 
L 130.891168 111.403095 
L 133.125009 111.44293 
L 135.35871 113.161673 
L 137.59241 115.360338 
L 139.826111 117.889781 
L 142.059812 119.317581 
L 144.293512 119.489836 
L 146.527213 118.437272 
L 148.760913 118.461336 
L 150.994614 118.623122 
L 153.228315 117.883255 
L 155.462015 118.201934 
L 157.695856 117.546767 
L 159.929557 117.820172 
L 162.163257 117.527053 
L 164.396958 117.86966 
L 166.630659 118.434961 
L 168.864359 118.42626 
L 171.09806 118.935547 
L 173.33176 118.262366 
L 175.565461 119.347627 
L 177.799162 118.958863 
L 180.033002 119.503567 
L 184.500404 119.520969 
L 186.734104 118.930381 
L 188.967805 120.175321 
L 191.201506 120.528464 
L 195.668907 120.934222 
L 197.902607 120.288503 
L 200.136308 120.183342 
L 202.370009 119.179246 
L 204.603849 119.240766 
L 206.83755 118.095141 
L 209.071251 117.654171 
L 211.304951 116.294281 
L 213.538652 116.0446 
L 215.772353 115.220032 
L 218.006053 114.735353 
L 220.239754 113.206946 
L 222.473454 112.527919 
L 224.707155 111.613825 
L 226.940856 110.875861 
L 229.174696 110.459635 
L 231.408397 109.612635 
L 233.642098 109.938316 
L 235.875798 109.47634 
L 238.109499 110.364603 
L 240.3432 109.684284 
L 242.5769 110.09412 
L 247.044301 111.789615 
L 249.278002 111.49235 
L 251.511843 110.694497 
L 253.745543 111.472772 
L 255.979244 111.649853 
L 258.212945 113.233865 
L 260.446645 113.572054 
L 262.680346 114.104385 
L 264.914047 113.991951 
L 267.147747 114.026143 
L 269.381448 115.126495 
L 271.615148 115.257828 
L 273.848849 115.500915 
L 276.08269 115.325261 
L 278.31639 116.404676 
L 280.550091 115.533273 
L 282.783792 115.589014 
L 285.017492 117.217415 
L 289.484893 118.495597 
L 291.718594 118.032126 
L 293.952295 117.996982 
L 296.185995 116.590867 
L 298.419696 117.597954 
L 300.653537 117.477022 
L 302.887237 116.594334 
L 307.354639 115.821361 
L 311.82204 117.013891 
L 314.05574 118.232864 
L 316.289441 117.834855 
L 318.523142 118.868521 
L 320.756842 119.289438 
L 322.990543 118.101871 
L 325.224384 117.667902 
L 327.458084 118.280788 
L 329.691785 115.234172 
L 334.159186 113.105116 
L 336.392887 109.992222 
L 338.626587 109.511825 
L 340.860288 109.557778 
L 343.093989 109.305717 
L 345.327689 107.881588 
L 347.56153 110.139529 
L 349.795231 110.311512 
L 352.028931 109.704337 
L 354.262632 110.344413 
L 356.496333 110.480232 
L 358.730033 110.221918 
L 360.963734 110.760164 
L 363.197434 111.454962 
L 365.431135 110.517552 
L 367.664836 109.709503 
L 369.898536 110.104725 
L 372.132377 110.868248 
L 374.366078 108.836876 
L 376.599778 109.750018 
L 378.833479 108.870797 
L 381.06718 108.261378 
L 383.30088 108.814511 
L 385.534581 109.170442 
L 387.768281 106.935205 
L 390.001982 106.287787 
L 392.235683 106.697284 
L 394.469383 105.449353 
L 396.703224 105.368867 
L 398.936925 105.892702 
L 401.170625 105.159225 
L 403.404326 104.274361 
L 405.638027 106.545014 
L 407.871727 105.006819 
L 410.105428 104.828854 
L 412.339128 105.574499 
L 414.572829 105.822345 
L 416.80653 105.07568 
L 421.274071 102.759958 
L 423.507772 101.794678 
L 425.741472 103.501729 
L 427.975173 102.89537 
L 430.208874 102.009963 
L 432.442574 101.78754 
L 434.676275 101.064191 
L 436.909975 101.609167 
L 439.143676 102.715025 
L 441.377377 102.778516 
L 443.611217 101.631056 
L 445.844918 102.854379 
L 448.078619 103.668818 
L 450.312319 103.344769 
L 452.54602 102.37371 
L 454.779721 103.602676 
L 457.013421 103.526609 
L 459.247122 102.900536 
L 461.480822 103.682073 
L 463.714523 104.064039 
L 465.948224 103.874654 
L 468.182064 102.904955 
L 470.415765 104.824911 
L 472.649466 103.946098 
L 474.883166 105.150863 
L 477.116867 106.047555 
L 479.350568 106.011527 
L 481.584268 106.101937 
L 483.817969 104.467418 
L 486.051669 105.341948 
L 488.28537 105.423521 
L 492.752911 104.493589 
L 494.986612 104.450627 
L 499.454013 103.952216 
L 501.687714 105.806235 
L 503.921415 106.372963 
L 506.155115 105.25079 
L 508.388816 105.051344 
L 510.622516 104.460416 
L 512.856217 104.325141 
L 515.090058 105.157117 
L 517.323758 103.693358 
L 519.557459 102.940031 
L 521.79116 102.510821 
L 524.02486 102.903731 
L 526.258561 103.824554 
L 528.492262 103.099778 
L 530.725962 103.702603 
L 532.959663 103.163541 
L 535.193363 104.137251 
L 537.427064 104.098096 
L 539.660905 103.389498 
L 541.894605 102.857778 
L 544.128306 103.08156 
L 546.362007 104.001024 
L 548.595707 103.155927 
L 550.829408 102.964435 
L 553.063109 102.037426 
L 555.296809 102.216274 
L 557.53051 102.081543 
L 561.997911 100.174842 
L 564.231752 98.351889 
L 566.465452 98.577982 
L 568.699153 97.415431 
L 570.932854 97.400408 
L 573.166554 96.736267 
L 575.400255 96.857539 
L 577.633956 97.714532 
L 579.867656 96.341794 
L 582.101357 96.823414 
L 584.335057 96.736131 
L 586.568898 96.473738 
L 588.802599 96.390874 
L 591.036299 95.639926 
L 593.27 95.033431 
L 595.503701 94.818894 
L 597.737401 96.08749 
L 599.971102 95.737134 
L 602.204803 94.073792 
L 604.438503 93.290623 
L 606.672204 92.910425 
L 608.905904 93.524738 
L 611.139745 93.860411 
L 613.373446 92.840884 
L 615.607146 92.63029 
L 620.074548 93.126254 
L 622.308248 93.830093 
L 624.541949 93.824383 
L 626.77565 92.218482 
L 629.00935 91.186719 
L 631.243051 91.385078 
L 633.476751 89.898409 
L 635.710592 89.591695 
L 637.944293 89.547238 
L 640.177993 89.671772 
L 642.411694 88.737897 
L 644.645395 88.530974 
L 646.879095 87.397517 
L 649.112796 86.698708 
L 651.346497 87.603353 
L 653.580197 87.058173 
L 655.813898 87.203645 
L 658.047598 87.195216 
L 660.281439 86.874362 
L 662.51514 87.979404 
L 664.74884 88.425133 
L 666.982541 89.183762 
L 669.216242 89.186141 
L 673.683643 89.959521 
L 675.917343 90.615776 
L 678.151044 90.369086 
L 680.384745 90.305459 
L 684.852286 90.750304 
L 687.085987 91.502679 
L 691.553388 91.912175 
L 693.787089 91.99973 
L 696.020789 93.856876 
L 698.25449 94.430198 
L 700.48819 94.156929 
L 702.721891 93.364447 
L 704.955592 93.141481 
L 707.189432 93.76062 
L 709.423133 92.802341 
L 711.656834 92.787998 
L 716.124235 91.849772 
L 718.357936 93.550025 
L 720.591636 94.469013 
L 722.825337 93.710316 
L 725.059037 93.284097 
L 727.292738 94.701157 
L 729.526439 94.291252 
L 731.760279 95.120442 
L 733.99398 95.335727 
L 736.227681 94.805094 
L 740.695082 95.742436 
L 742.928783 95.960916 
L 745.162483 95.755488 
L 747.396184 95.733191 
L 749.629884 95.083734 
L 751.863585 95.08353 
L 754.097426 95.939843 
L 756.331126 95.588263 
L 758.564827 94.926162 
L 760.798528 93.999493 
L 763.032228 92.883574 
L 767.49963 93.268191 
L 769.73333 93.064258 
L 771.967031 91.089715 
L 774.200731 90.704759 
L 776.434432 90.432849 
L 778.668273 91.327841 
L 780.901973 91.309623 
L 783.135674 89.683872 
L 785.369375 88.207129 
L 792.070477 85.728533 
L 794.304177 85.966046 
L 796.537878 84.809069 
L 798.771578 84.302025 
L 801.005279 84.951414 
L 803.23912 85.081931 
L 805.47282 84.966369 
L 807.706521 86.612309 
L 809.940222 86.803054 
L 812.173922 85.892223 
L 814.407623 84.181229 
L 816.641324 82.726646 
L 821.108725 83.459988 
L 823.342425 83.255783 
L 825.576126 82.88347 
L 827.809967 83.478138 
L 830.043667 83.838622 
L 834.511069 88.050713 
L 836.744769 87.391739 
L 838.97847 86.384244 
L 841.212171 85.881007 
L 843.445871 84.285235 
L 845.679572 83.989124 
L 847.913272 83.579492 
L 850.147113 82.958042 
L 852.380814 81.708683 
L 856.848215 82.6361 
L 859.081916 82.103292 
L 861.315616 83.612529 
L 863.549317 82.156315 
L 865.783018 81.700594 
L 868.016718 81.574699 
L 870.250419 81.89868 
L 872.484119 80.391279 
L 874.71796 80.533556 
L 876.951661 81.895553 
L 879.185361 80.810088 
L 881.419062 81.581429 
L 883.652763 81.953198 
L 885.886463 80.778003 
L 890.353865 81.177031 
L 892.587565 80.34016 
L 894.821266 79.691586 
L 897.054966 80.252061 
L 899.288807 79.124382 
L 901.522508 78.30335 
L 903.756208 78.144146 
L 905.989909 78.406335 
L 910.45731 77.359822 
L 912.691011 77.352208 
L 914.924712 76.655575 
L 917.158412 77.891338 
L 919.392113 78.631341 
L 921.625953 79.713475 
L 923.859654 79.227844 
L 926.093355 80.065259 
L 928.327055 81.318696 
L 930.560756 82.052037 
L 935.028157 82.354537 
L 937.261858 81.870129 
L 939.495559 82.28622 
L 941.729259 82.984825 
L 943.96296 83.370529 
L 946.1968 84.130042 
L 948.430501 83.60981 
L 950.664202 82.712099 
L 952.897902 81.240522 
L 955.131603 81.437045 
L 957.365304 80.529341 
L 959.599004 79.988784 
L 964.066406 77.714256 
L 966.300106 76.033173 
L 968.533807 77.057798 
L 970.767647 78.442907 
L 975.235049 79.440341 
L 977.468749 79.171422 
L 979.70245 78.124433 
L 981.936151 77.862787 
L 984.169851 79.284129 
L 986.403552 79.307105 
L 988.637253 77.677684 
L 990.870953 78.064001 
L 993.104654 78.056863 
L 995.338494 78.412725 
L 997.572195 79.066193 
L 999.805896 79.193991 
L 1002.039596 78.926363 
L 1004.273297 77.864555 
L 1006.506998 78.258824 
L 1008.740698 77.100148 
L 1010.974399 74.669 
L 1013.2081 73.171047 
L 1015.4418 74.191526 
L 1017.675641 72.650476 
L 1019.909341 71.744539 
L 1026.610443 72.94074 
L 1028.844144 74.327481 
L 1031.077845 74.749145 
L 1033.311545 74.249103 
L 1037.778947 74.245228 
L 1040.012647 72.991723 
L 1042.246488 72.073754 
L 1044.480188 71.5748 
L 1046.713889 71.429803 
L 1048.94759 70.990873 
L 1051.18129 71.264346 
L 1053.414991 72.788062 
L 1055.648692 73.275325 
L 1057.882392 74.332783 
L 1060.116093 73.871692 
L 1062.349793 71.915231 
L 1064.583494 71.189367 
L 1066.817335 70.749485 
L 1069.051035 70.742211 
L 1071.284736 69.753784 
L 1073.518437 69.911764 
L 1075.752137 69.836445 
L 1077.985838 70.846624 
L 1080.219539 70.899239 
L 1082.453239 70.498851 
L 1084.68694 71.02996 
L 1086.92064 70.227961 
L 1089.154481 69.975663 
L 1091.388182 68.566081 
L 1091.388182 68.566081 
" clip-path="url(#p2051666d77)" style="fill: none; stroke: #ff0000; stroke-width: 1.5; stroke-linecap: square"/>
   </g>
   <g id="patch_3">
    <path d="M 45.34 548.12 
L 45.34 29.76 
" style="fill: none; stroke: #000000; stroke-width: 0.8; stroke-linejoin: miter; stroke-linecap: square"/>
   </g>
   <g id="patch_4">
    <path d="M 1141.2 548.12 
L 1141.2 29.76 
" style="fill: none; stroke: #000000; stroke-width: 0.8; stroke-linejoin: miter; stroke-linecap: square"/>
   </g>
   <g id="patch_5">
    <path d="M 45.34 548.12 
L 1141.2 548.12 
" style="fill: none; stroke: #000000; stroke-width: 0.8; stroke-linejoin: miter; stroke-linecap: square"/>
   </g>
   <g id="patch_6">
    <path d="M 45.34 29.76 
L 1141.2 29.76 
" style="fill: none; stroke: #000000; stroke-width: 0.8; stroke-linejoin: miter; stroke-linecap: square"/>
   </g>
   <g id="text_12">
    <!-- ALS Bakkie CAA567123 100kHz EIRP with adjusted threshold levels for UHF -->
    <g transform="translate(290.9425 23.76) scale(0.16 -0.16)">
     <defs>
      <path id="DejaVuSans-41" d="M 2188 4044 
L 1331 1722 
L 3047 1722 
L 2188 4044 
z
M 1831 4666 
L 2547 4666 
L 4325 0 
L 3669 0 
L 3244 1197 
L 1141 1197 
L 716 0 
L 50 0 
L 1831 4666 
z
" transform="scale(0.015625)"/>
      <path id="DejaVuSans-4c" d="M 628 4666 
L 1259 4666 
L 1259 531 
L 3531 531 
L 3531 0 
L 628 0 
L 628 4666 
z
" transform="scale(0.015625)"/>
      <path id="DejaVuSans-53" d="M 3425 4513 
L 3425 3897 
Q 3066 4069 2747 4153 
Q 2428 4238 2131 4238 
Q 1616 4238 1336 4038 
Q 1056 3838 1056 3469 
Q 1056 3159 1242 3001 
Q 1428 2844 1947 2747 
L 2328 2669 
Q 3034 2534 3370 2195 
Q 3706 1856 3706 1288 
Q 3706 609 3251 259 
Q 2797 -91 1919 -91 
Q 1588 -91 1214 -16 
Q 841 59 441 206 
L 441 856 
Q 825 641 1194 531 
Q 1563 422 1919 422 
Q 2459 422 2753 634 
Q 3047 847 3047 1241 
Q 3047 1584 2836 1778 
Q 2625 1972 2144 2069 
L 1759 2144 
Q 1053 2284 737 2584 
Q 422 2884 422 3419 
Q 422 4038 858 4394 
Q 1294 4750 2059 4750 
Q 2388 4750 2728 4690 
Q 3069 4631 3425 4513 
z
" transform="scale(0.015625)"/>
      <path id="DejaVuSans-20" transform="scale(0.015625)"/>
      <path id="DejaVuSans-42" d="M 1259 2228 
L 1259 519 
L 2272 519 
Q 2781 519 3026 730 
Q 3272 941 3272 1375 
Q 3272 1813 3026 2020 
Q 2781 2228 2272 2228 
L 1259 2228 
z
M 1259 4147 
L 1259 2741 
L 2194 2741 
Q 2656 2741 2882 2914 
Q 3109 3088 3109 3444 
Q 3109 3797 2882 3972 
Q 2656 4147 2194 4147 
L 1259 4147 
z
M 628 4666 
L 2241 4666 
Q 2963 4666 3353 4366 
Q 3744 4066 3744 3513 
Q 3744 3084 3544 2831 
Q 3344 2578 2956 2516 
Q 3422 2416 3680 2098 
Q 3938 1781 3938 1306 
Q 3938 681 3513 340 
Q 3088 0 2303 0 
L 628 0 
L 628 4666 
z
" transform="scale(0.015625)"/>
      <path id="DejaVuSans-61" d="M 2194 1759 
Q 1497 1759 1228 1600 
Q 959 1441 959 1056 
Q 959 750 1161 570 
Q 1363 391 1709 391 
Q 2188 391 2477 730 
Q 2766 1069 2766 1631 
L 2766 1759 
L 2194 1759 
z
M 3341 1997 
L 3341 0 
L 2766 0 
L 2766 531 
Q 2569 213 2275 61 
Q 1981 -91 1556 -91 
Q 1019 -91 701 211 
Q 384 513 384 1019 
Q 384 1609 779 1909 
Q 1175 2209 1959 2209 
L 2766 2209 
L 2766 2266 
Q 2766 2663 2505 2880 
Q 2244 3097 1772 3097 
Q 1472 3097 1187 3025 
Q 903 2953 641 2809 
L 641 3341 
Q 956 3463 1253 3523 
Q 1550 3584 1831 3584 
Q 2591 3584 2966 3190 
Q 3341 2797 3341 1997 
z
" transform="scale(0.015625)"/>
      <path id="DejaVuSans-6b" d="M 581 4863 
L 1159 4863 
L 1159 1991 
L 2875 3500 
L 3609 3500 
L 1753 1863 
L 3688 0 
L 2938 0 
L 1159 1709 
L 1159 0 
L 581 0 
L 581 4863 
z
" transform="scale(0.015625)"/>
      <path id="DejaVuSans-69" d="M 603 3500 
L 1178 3500 
L 1178 0 
L 603 0 
L 603 3500 
z
M 603 4863 
L 1178 4863 
L 1178 4134 
L 603 4134 
L 603 4863 
z
" transform="scale(0.015625)"/>
      <path id="DejaVuSans-65" d="M 3597 1894 
L 3597 1613 
L 953 1613 
Q 991 1019 1311 708 
Q 1631 397 2203 397 
Q 2534 397 2845 478 
Q 3156 559 3463 722 
L 3463 178 
Q 3153 47 2828 -22 
Q 2503 -91 2169 -91 
Q 1331 -91 842 396 
Q 353 884 353 1716 
Q 353 2575 817 3079 
Q 1281 3584 2069 3584 
Q 2775 3584 3186 3129 
Q 3597 2675 3597 1894 
z
M 3022 2063 
Q 3016 2534 2758 2815 
Q 2500 3097 2075 3097 
Q 1594 3097 1305 2825 
Q 1016 2553 972 2059 
L 3022 2063 
z
" transform="scale(0.015625)"/>
      <path id="DejaVuSans-43" d="M 4122 4306 
L 4122 3641 
Q 3803 3938 3442 4084 
Q 3081 4231 2675 4231 
Q 1875 4231 1450 3742 
Q 1025 3253 1025 2328 
Q 1025 1406 1450 917 
Q 1875 428 2675 428 
Q 3081 428 3442 575 
Q 3803 722 4122 1019 
L 4122 359 
Q 3791 134 3420 21 
Q 3050 -91 2638 -91 
Q 1578 -91 968 557 
Q 359 1206 359 2328 
Q 359 3453 968 4101 
Q 1578 4750 2638 4750 
Q 3056 4750 3426 4639 
Q 3797 4528 4122 4306 
z
" transform="scale(0.015625)"/>
      <path id="DejaVuSans-35" d="M 691 4666 
L 3169 4666 
L 3169 4134 
L 1269 4134 
L 1269 2991 
Q 1406 3038 1543 3061 
Q 1681 3084 1819 3084 
Q 2600 3084 3056 2656 
Q 3513 2228 3513 1497 
Q 3513 744 3044 326 
Q 2575 -91 1722 -91 
Q 1428 -91 1123 -41 
Q 819 9 494 109 
L 494 744 
Q 775 591 1075 516 
Q 1375 441 1709 441 
Q 2250 441 2565 725 
Q 2881 1009 2881 1497 
Q 2881 1984 2565 2268 
Q 2250 2553 1709 2553 
Q 1456 2553 1204 2497 
Q 953 2441 691 2322 
L 691 4666 
z
" transform="scale(0.015625)"/>
      <path id="DejaVuSans-32" d="M 1228 531 
L 3431 531 
L 3431 0 
L 469 0 
L 469 531 
Q 828 903 1448 1529 
Q 2069 2156 2228 2338 
Q 2531 2678 2651 2914 
Q 2772 3150 2772 3378 
Q 2772 3750 2511 3984 
Q 2250 4219 1831 4219 
Q 1534 4219 1204 4116 
Q 875 4013 500 3803 
L 500 4441 
Q 881 4594 1212 4672 
Q 1544 4750 1819 4750 
Q 2544 4750 2975 4387 
Q 3406 4025 3406 3419 
Q 3406 3131 3298 2873 
Q 3191 2616 2906 2266 
Q 2828 2175 2409 1742 
Q 1991 1309 1228 531 
z
" transform="scale(0.015625)"/>
      <path id="DejaVuSans-33" d="M 2597 2516 
Q 3050 2419 3304 2112 
Q 3559 1806 3559 1356 
Q 3559 666 3084 287 
Q 2609 -91 1734 -91 
Q 1441 -91 1130 -33 
Q 819 25 488 141 
L 488 750 
Q 750 597 1062 519 
Q 1375 441 1716 441 
Q 2309 441 2620 675 
Q 2931 909 2931 1356 
Q 2931 1769 2642 2001 
Q 2353 2234 1838 2234 
L 1294 2234 
L 1294 2753 
L 1863 2753 
Q 2328 2753 2575 2939 
Q 2822 3125 2822 3475 
Q 2822 3834 2567 4026 
Q 2313 4219 1838 4219 
Q 1578 4219 1281 4162 
Q 984 4106 628 3988 
L 628 4550 
Q 988 4650 1302 4700 
Q 1616 4750 1894 4750 
Q 2613 4750 3031 4423 
Q 3450 4097 3450 3541 
Q 3450 3153 3228 2886 
Q 3006 2619 2597 2516 
z
" transform="scale(0.015625)"/>
      <path id="DejaVuSans-48" d="M 628 4666 
L 1259 4666 
L 1259 2753 
L 3553 2753 
L 3553 4666 
L 4184 4666 
L 4184 0 
L 3553 0 
L 3553 2222 
L 1259 2222 
L 1259 0 
L 628 0 
L 628 4666 
z
" transform="scale(0.015625)"/>
      <path id="DejaVuSans-7a" d="M 353 3500 
L 3084 3500 
L 3084 2975 
L 922 459 
L 3084 459 
L 3084 0 
L 275 0 
L 275 525 
L 2438 3041 
L 353 3041 
L 353 3500 
z
" transform="scale(0.015625)"/>
      <path id="DejaVuSans-45" d="M 628 4666 
L 3578 4666 
L 3578 4134 
L 1259 4134 
L 1259 2753 
L 3481 2753 
L 3481 2222 
L 1259 2222 
L 1259 531 
L 3634 531 
L 3634 0 
L 628 0 
L 628 4666 
z
" transform="scale(0.015625)"/>
      <path id="DejaVuSans-49" d="M 628 4666 
L 1259 4666 
L 1259 0 
L 628 0 
L 628 4666 
z
" transform="scale(0.015625)"/>
      <path id="DejaVuSans-52" d="M 2841 2188 
Q 3044 2119 3236 1894 
Q 3428 1669 3622 1275 
L 4263 0 
L 3584 0 
L 2988 1197 
Q 2756 1666 2539 1819 
Q 2322 1972 1947 1972 
L 1259 1972 
L 1259 0 
L 628 0 
L 628 4666 
L 2053 4666 
Q 2853 4666 3247 4331 
Q 3641 3997 3641 3322 
Q 3641 2881 3436 2590 
Q 3231 2300 2841 2188 
z
M 1259 4147 
L 1259 2491 
L 2053 2491 
Q 2509 2491 2742 2702 
Q 2975 2913 2975 3322 
Q 2975 3731 2742 3939 
Q 2509 4147 2053 4147 
L 1259 4147 
z
" transform="scale(0.015625)"/>
      <path id="DejaVuSans-50" d="M 1259 4147 
L 1259 2394 
L 2053 2394 
Q 2494 2394 2734 2622 
Q 2975 2850 2975 3272 
Q 2975 3691 2734 3919 
Q 2494 4147 2053 4147 
L 1259 4147 
z
M 628 4666 
L 2053 4666 
Q 2838 4666 3239 4311 
Q 3641 3956 3641 3272 
Q 3641 2581 3239 2228 
Q 2838 1875 2053 1875 
L 1259 1875 
L 1259 0 
L 628 0 
L 628 4666 
z
" transform="scale(0.015625)"/>
      <path id="DejaVuSans-77" d="M 269 3500 
L 844 3500 
L 1563 769 
L 2278 3500 
L 2956 3500 
L 3675 769 
L 4391 3500 
L 4966 3500 
L 4050 0 
L 3372 0 
L 2619 2869 
L 1863 0 
L 1184 0 
L 269 3500 
z
" transform="scale(0.015625)"/>
      <path id="DejaVuSans-74" d="M 1172 4494 
L 1172 3500 
L 2356 3500 
L 2356 3053 
L 1172 3053 
L 1172 1153 
Q 1172 725 1289 603 
Q 1406 481 1766 481 
L 2356 481 
L 2356 0 
L 1766 0 
Q 1100 0 847 248 
Q 594 497 594 1153 
L 594 3053 
L 172 3053 
L 172 3500 
L 594 3500 
L 594 4494 
L 1172 4494 
z
" transform="scale(0.015625)"/>
      <path id="DejaVuSans-68" d="M 3513 2113 
L 3513 0 
L 2938 0 
L 2938 2094 
Q 2938 2591 2744 2837 
Q 2550 3084 2163 3084 
Q 1697 3084 1428 2787 
Q 1159 2491 1159 1978 
L 1159 0 
L 581 0 
L 581 4863 
L 1159 4863 
L 1159 2956 
Q 1366 3272 1645 3428 
Q 1925 3584 2291 3584 
Q 2894 3584 3203 3211 
Q 3513 2838 3513 2113 
z
" transform="scale(0.015625)"/>
      <path id="DejaVuSans-64" d="M 2906 2969 
L 2906 4863 
L 3481 4863 
L 3481 0 
L 2906 0 
L 2906 525 
Q 2725 213 2448 61 
Q 2172 -91 1784 -91 
Q 1150 -91 751 415 
Q 353 922 353 1747 
Q 353 2572 751 3078 
Q 1150 3584 1784 3584 
Q 2172 3584 2448 3432 
Q 2725 3281 2906 2969 
z
M 947 1747 
Q 947 1113 1208 752 
Q 1469 391 1925 391 
Q 2381 391 2643 752 
Q 2906 1113 2906 1747 
Q 2906 2381 2643 2742 
Q 2381 3103 1925 3103 
Q 1469 3103 1208 2742 
Q 947 2381 947 1747 
z
" transform="scale(0.015625)"/>
      <path id="DejaVuSans-6a" d="M 603 3500 
L 1178 3500 
L 1178 -63 
Q 1178 -731 923 -1031 
Q 669 -1331 103 -1331 
L -116 -1331 
L -116 -844 
L 38 -844 
Q 366 -844 484 -692 
Q 603 -541 603 -63 
L 603 3500 
z
M 603 4863 
L 1178 4863 
L 1178 4134 
L 603 4134 
L 603 4863 
z
" transform="scale(0.015625)"/>
      <path id="DejaVuSans-75" d="M 544 1381 
L 544 3500 
L 1119 3500 
L 1119 1403 
Q 1119 906 1312 657 
Q 1506 409 1894 409 
Q 2359 409 2629 706 
Q 2900 1003 2900 1516 
L 2900 3500 
L 3475 3500 
L 3475 0 
L 2900 0 
L 2900 538 
Q 2691 219 2414 64 
Q 2138 -91 1772 -91 
Q 1169 -91 856 284 
Q 544 659 544 1381 
z
M 1991 3584 
L 1991 3584 
z
" transform="scale(0.015625)"/>
      <path id="DejaVuSans-73" d="M 2834 3397 
L 2834 2853 
Q 2591 2978 2328 3040 
Q 2066 3103 1784 3103 
Q 1356 3103 1142 2972 
Q 928 2841 928 2578 
Q 928 2378 1081 2264 
Q 1234 2150 1697 2047 
L 1894 2003 
Q 2506 1872 2764 1633 
Q 3022 1394 3022 966 
Q 3022 478 2636 193 
Q 2250 -91 1575 -91 
Q 1294 -91 989 -36 
Q 684 19 347 128 
L 347 722 
Q 666 556 975 473 
Q 1284 391 1588 391 
Q 1994 391 2212 530 
Q 2431 669 2431 922 
Q 2431 1156 2273 1281 
Q 2116 1406 1581 1522 
L 1381 1569 
Q 847 1681 609 1914 
Q 372 2147 372 2553 
Q 372 3047 722 3315 
Q 1072 3584 1716 3584 
Q 2034 3584 2315 3537 
Q 2597 3491 2834 3397 
z
" transform="scale(0.015625)"/>
      <path id="DejaVuSans-72" d="M 2631 2963 
Q 2534 3019 2420 3045 
Q 2306 3072 2169 3072 
Q 1681 3072 1420 2755 
Q 1159 2438 1159 1844 
L 1159 0 
L 581 0 
L 581 3500 
L 1159 3500 
L 1159 2956 
Q 1341 3275 1631 3429 
Q 1922 3584 2338 3584 
Q 2397 3584 2469 3576 
Q 2541 3569 2628 3553 
L 2631 2963 
z
" transform="scale(0.015625)"/>
      <path id="DejaVuSans-6f" d="M 1959 3097 
Q 1497 3097 1228 2736 
Q 959 2375 959 1747 
Q 959 1119 1226 758 
Q 1494 397 1959 397 
Q 2419 397 2687 759 
Q 2956 1122 2956 1747 
Q 2956 2369 2687 2733 
Q 2419 3097 1959 3097 
z
M 1959 3584 
Q 2709 3584 3137 3096 
Q 3566 2609 3566 1747 
Q 3566 888 3137 398 
Q 2709 -91 1959 -91 
Q 1206 -91 779 398 
Q 353 888 353 1747 
Q 353 2609 779 3096 
Q 1206 3584 1959 3584 
z
" transform="scale(0.015625)"/>
      <path id="DejaVuSans-6c" d="M 603 4863 
L 1178 4863 
L 1178 0 
L 603 0 
L 603 4863 
z
" transform="scale(0.015625)"/>
      <path id="DejaVuSans-76" d="M 191 3500 
L 800 3500 
L 1894 563 
L 2988 3500 
L 3597 3500 
L 2284 0 
L 1503 0 
L 191 3500 
z
" transform="scale(0.015625)"/>
      <path id="DejaVuSans-66" d="M 2375 4863 
L 2375 4384 
L 1825 4384 
Q 1516 4384 1395 4259 
Q 1275 4134 1275 3809 
L 1275 3500 
L 2222 3500 
L 2222 3053 
L 1275 3053 
L 1275 0 
L 697 0 
L 697 3053 
L 147 3053 
L 147 3500 
L 697 3500 
L 697 3744 
Q 697 4328 969 4595 
Q 1241 4863 1831 4863 
L 2375 4863 
z
" transform="scale(0.015625)"/>
      <path id="DejaVuSans-55" d="M 556 4666 
L 1191 4666 
L 1191 1831 
Q 1191 1081 1462 751 
Q 1734 422 2344 422 
Q 2950 422 3222 751 
Q 3494 1081 3494 1831 
L 3494 4666 
L 4128 4666 
L 4128 1753 
Q 4128 841 3676 375 
Q 3225 -91 2344 -91 
Q 1459 -91 1007 375 
Q 556 841 556 1753 
L 556 4666 
z
" transform="scale(0.015625)"/>
      <path id="DejaVuSans-46" d="M 628 4666 
L 3309 4666 
L 3309 4134 
L 1259 4134 
L 1259 2759 
L 3109 2759 
L 3109 2228 
L 1259 2228 
L 1259 0 
L 628 0 
L 628 4666 
z
" transform="scale(0.015625)"/>
     </defs>
     <use xlink:href="#DejaVuSans-41"/>
     <use xlink:href="#DejaVuSans-4c" x="68.408203"/>
     <use xlink:href="#DejaVuSans-53" x="124.121094"/>
     <use xlink:href="#DejaVuSans-20" x="187.597656"/>
     <use xlink:href="#DejaVuSans-42" x="219.384766"/>
     <use xlink:href="#DejaVuSans-61" x="287.988281"/>
     <use xlink:href="#DejaVuSans-6b" x="349.267578"/>
     <use xlink:href="#DejaVuSans-6b" x="407.177734"/>
     <use xlink:href="#DejaVuSans-69" x="465.087891"/>
     <use xlink:href="#DejaVuSans-65" x="492.871094"/>
     <use xlink:href="#DejaVuSans-20" x="554.394531"/>
     <use xlink:href="#DejaVuSans-43" x="586.181641"/>
     <use xlink:href="#DejaVuSans-41" x="656.005859"/>
     <use xlink:href="#DejaVuSans-41" x="727.164062"/>
     <use xlink:href="#DejaVuSans-35" x="795.572266"/>
     <use xlink:href="#DejaVuSans-36" x="859.195312"/>
     <use xlink:href="#DejaVuSans-37" x="922.818359"/>
     <use xlink:href="#DejaVuSans-31" x="986.441406"/>
     <use xlink:href="#DejaVuSans-32" x="1050.064453"/>
     <use xlink:href="#DejaVuSans-33" x="1113.6875"/>
     <use xlink:href="#DejaVuSans-20" x="1177.310547"/>
     <use xlink:href="#DejaVuSans-31" x="1209.097656"/>
     <use xlink:href="#DejaVuSans-30" x="1272.720703"/>
     <use xlink:href="#DejaVuSans-30" x="1336.34375"/>
     <use xlink:href="#DejaVuSans-6b" x="1399.966797"/>
     <use xlink:href="#DejaVuSans-48" x="1457.876953"/>
     <use xlink:href="#DejaVuSans-7a" x="1533.072266"/>
     <use xlink:href="#DejaVuSans-20" x="1585.5625"/>
     <use xlink:href="#DejaVuSans-45" x="1617.349609"/>
     <use xlink:href="#DejaVuSans-49" x="1680.533203"/>
     <use xlink:href="#DejaVuSans-52" x="1710.025391"/>
     <use xlink:href="#DejaVuSans-50" x="1779.507812"/>
     <use xlink:href="#DejaVuSans-20" x="1839.810547"/>
     <use xlink:href="#DejaVuSans-77" x="1871.597656"/>
     <use xlink:href="#DejaVuSans-69" x="1953.384766"/>
     <use xlink:href="#DejaVuSans-74" x="1981.167969"/>
     <use xlink:href="#DejaVuSans-68" x="2020.376953"/>
     <use xlink:href="#DejaVuSans-20" x="2083.755859"/>
     <use xlink:href="#DejaVuSans-61" x="2115.542969"/>
     <use xlink:href="#DejaVuSans-64" x="2176.822266"/>
     <use xlink:href="#DejaVuSans-6a" x="2240.298828"/>
     <use xlink:href="#DejaVuSans-75" x="2268.082031"/>
     <use xlink:href="#DejaVuSans-73" x="2331.460938"/>
     <use xlink:href="#DejaVuSans-74" x="2383.560547"/>
     <use xlink:href="#DejaVuSans-65" x="2422.769531"/>
     <use xlink:href="#DejaVuSans-64" x="2484.292969"/>
     <use xlink:href="#DejaVuSans-20" x="2547.769531"/>
     <use xlink:href="#DejaVuSans-74" x="2579.556641"/>
     <use xlink:href="#DejaVuSans-68" x="2618.765625"/>
     <use xlink:href="#DejaVuSans-72" x="2682.144531"/>
     <use xlink:href="#DejaVuSans-65" x="2721.007812"/>
     <use xlink:href="#DejaVuSans-73" x="2782.53125"/>
     <use xlink:href="#DejaVuSans-68" x="2834.630859"/>
     <use xlink:href="#DejaVuSans-6f" x="2898.009766"/>
     <use xlink:href="#DejaVuSans-6c" x="2959.191406"/>
     <use xlink:href="#DejaVuSans-64" x="2986.974609"/>
     <use xlink:href="#DejaVuSans-20" x="3050.451172"/>
     <use xlink:href="#DejaVuSans-6c" x="3082.238281"/>
     <use xlink:href="#DejaVuSans-65" x="3110.021484"/>
     <use xlink:href="#DejaVuSans-76" x="3171.544922"/>
     <use xlink:href="#DejaVuSans-65" x="3230.724609"/>
     <use xlink:href="#DejaVuSans-6c" x="3292.248047"/>
     <use xlink:href="#DejaVuSans-73" x="3320.03125"/>
     <use xlink:href="#DejaVuSans-20" x="3372.130859"/>
     <use xlink:href="#DejaVuSans-66" x="3403.917969"/>
     <use xlink:href="#DejaVuSans-6f" x="3439.123047"/>
     <use xlink:href="#DejaVuSans-72" x="3500.304688"/>
     <use xlink:href="#DejaVuSans-20" x="3541.417969"/>
     <use xlink:href="#DejaVuSans-55" x="3573.205078"/>
     <use xlink:href="#DejaVuSans-48" x="3646.398438"/>
     <use xlink:href="#DejaVuSans-46" x="3721.59375"/>
    </g>
   </g>
   <g id="legend_1">
    <g id="patch_7">
     <path d="M 943.642187 327.135312 
L 1134.2 327.135312 
Q 1136.2 327.135312 1136.2 325.135312 
L 1136.2 252.744687 
Q 1136.2 250.744687 1134.2 250.744687 
L 943.642187 250.744687 
Q 941.642187 250.744687 941.642187 252.744687 
L 941.642187 325.135312 
Q 941.642187 327.135312 943.642187 327.135312 
z
" style="fill: #ffffff; opacity: 0.8; stroke: #cccccc; stroke-linejoin: miter"/>
    </g>
    <g id="line2d_28">
     <path d="M 945.642187 258.843125 
L 955.642187 258.843125 
L 965.642187 258.843125 
" style="fill: none; stroke: #1f77b4; stroke-width: 1.5; stroke-linecap: square"/>
    </g>
    <g id="text_13">
     <!-- ALS Bakkie CAA567123 100kHz -->
     <g transform="translate(973.642187 262.343125) scale(0.1 -0.1)">
      <use xlink:href="#DejaVuSans-41"/>
      <use xlink:href="#DejaVuSans-4c" x="68.408203"/>
      <use xlink:href="#DejaVuSans-53" x="124.121094"/>
      <use xlink:href="#DejaVuSans-20" x="187.597656"/>
      <use xlink:href="#DejaVuSans-42" x="219.384766"/>
      <use xlink:href="#DejaVuSans-61" x="287.988281"/>
      <use xlink:href="#DejaVuSans-6b" x="349.267578"/>
      <use xlink:href="#DejaVuSans-6b" x="407.177734"/>
      <use xlink:href="#DejaVuSans-69" x="465.087891"/>
      <use xlink:href="#DejaVuSans-65" x="492.871094"/>
      <use xlink:href="#DejaVuSans-20" x="554.394531"/>
      <use xlink:href="#DejaVuSans-43" x="586.181641"/>
      <use xlink:href="#DejaVuSans-41" x="656.005859"/>
      <use xlink:href="#DejaVuSans-41" x="727.164062"/>
      <use xlink:href="#DejaVuSans-35" x="795.572266"/>
      <use xlink:href="#DejaVuSans-36" x="859.195312"/>
      <use xlink:href="#DejaVuSans-37" x="922.818359"/>
      <use xlink:href="#DejaVuSans-31" x="986.441406"/>
      <use xlink:href="#DejaVuSans-32" x="1050.064453"/>
      <use xlink:href="#DejaVuSans-33" x="1113.6875"/>
      <use xlink:href="#DejaVuSans-20" x="1177.310547"/>
      <use xlink:href="#DejaVuSans-31" x="1209.097656"/>
      <use xlink:href="#DejaVuSans-30" x="1272.720703"/>
      <use xlink:href="#DejaVuSans-30" x="1336.34375"/>
      <use xlink:href="#DejaVuSans-6b" x="1399.966797"/>
      <use xlink:href="#DejaVuSans-48" x="1457.876953"/>
      <use xlink:href="#DejaVuSans-7a" x="1533.072266"/>
     </g>
    </g>
    <g id="line2d_29">
     <path d="M 945.642187 273.52125 
L 955.642187 273.52125 
L 965.642187 273.52125 
" style="fill: none; stroke: #ff7f0e; stroke-width: 1.5; stroke-linecap: square"/>
    </g>
    <g id="text_14">
     <!-- Background -->
     <g transform="translate(973.642187 277.02125) scale(0.1 -0.1)">
      <defs>
       <path id="DejaVuSans-63" d="M 3122 3366 
L 3122 2828 
Q 2878 2963 2633 3030 
Q 2388 3097 2138 3097 
Q 1578 3097 1268 2742 
Q 959 2388 959 1747 
Q 959 1106 1268 751 
Q 1578 397 2138 397 
Q 2388 397 2633 464 
Q 2878 531 3122 666 
L 3122 134 
Q 2881 22 2623 -34 
Q 2366 -91 2075 -91 
Q 1284 -91 818 406 
Q 353 903 353 1747 
Q 353 2603 823 3093 
Q 1294 3584 2113 3584 
Q 2378 3584 2631 3529 
Q 2884 3475 3122 3366 
z
" transform="scale(0.015625)"/>
       <path id="DejaVuSans-67" d="M 2906 1791 
Q 2906 2416 2648 2759 
Q 2391 3103 1925 3103 
Q 1463 3103 1205 2759 
Q 947 2416 947 1791 
Q 947 1169 1205 825 
Q 1463 481 1925 481 
Q 2391 481 2648 825 
Q 2906 1169 2906 1791 
z
M 3481 434 
Q 3481 -459 3084 -895 
Q 2688 -1331 1869 -1331 
Q 1566 -1331 1297 -1286 
Q 1028 -1241 775 -1147 
L 775 -588 
Q 1028 -725 1275 -790 
Q 1522 -856 1778 -856 
Q 2344 -856 2625 -561 
Q 2906 -266 2906 331 
L 2906 616 
Q 2728 306 2450 153 
Q 2172 0 1784 0 
Q 1141 0 747 490 
Q 353 981 353 1791 
Q 353 2603 747 3093 
Q 1141 3584 1784 3584 
Q 2172 3584 2450 3431 
Q 2728 3278 2906 2969 
L 2906 3500 
L 3481 3500 
L 3481 434 
z
" transform="scale(0.015625)"/>
       <path id="DejaVuSans-6e" d="M 3513 2113 
L 3513 0 
L 2938 0 
L 2938 2094 
Q 2938 2591 2744 2837 
Q 2550 3084 2163 3084 
Q 1697 3084 1428 2787 
Q 1159 2491 1159 1978 
L 1159 0 
L 581 0 
L 581 3500 
L 1159 3500 
L 1159 2956 
Q 1366 3272 1645 3428 
Q 1925 3584 2291 3584 
Q 2894 3584 3203 3211 
Q 3513 2838 3513 2113 
z
" transform="scale(0.015625)"/>
      </defs>
      <use xlink:href="#DejaVuSans-42"/>
      <use xlink:href="#DejaVuSans-61" x="68.603516"/>
      <use xlink:href="#DejaVuSans-63" x="129.882812"/>
      <use xlink:href="#DejaVuSans-6b" x="184.863281"/>
      <use xlink:href="#DejaVuSans-67" x="242.773438"/>
      <use xlink:href="#DejaVuSans-72" x="306.25"/>
      <use xlink:href="#DejaVuSans-6f" x="345.113281"/>
      <use xlink:href="#DejaVuSans-75" x="406.294922"/>
      <use xlink:href="#DejaVuSans-6e" x="469.673828"/>
      <use xlink:href="#DejaVuSans-64" x="533.052734"/>
     </g>
    </g>
    <g id="line2d_30">
     <path d="M 945.642187 288.199375 
L 955.642187 288.199375 
L 965.642187 288.199375 
" style="fill: none; stroke-dasharray: 9.6,2.4,1.5,2.4; stroke-dashoffset: 0; stroke: #2ca02c; stroke-width: 1.5"/>
    </g>
    <g id="text_15">
     <!-- Spectral line threshold -->
     <g transform="translate(973.642187 291.699375) scale(0.1 -0.1)">
      <defs>
       <path id="DejaVuSans-70" d="M 1159 525 
L 1159 -1331 
L 581 -1331 
L 581 3500 
L 1159 3500 
L 1159 2969 
Q 1341 3281 1617 3432 
Q 1894 3584 2278 3584 
Q 2916 3584 3314 3078 
Q 3713 2572 3713 1747 
Q 3713 922 3314 415 
Q 2916 -91 2278 -91 
Q 1894 -91 1617 61 
Q 1341 213 1159 525 
z
M 3116 1747 
Q 3116 2381 2855 2742 
Q 2594 3103 2138 3103 
Q 1681 3103 1420 2742 
Q 1159 2381 1159 1747 
Q 1159 1113 1420 752 
Q 1681 391 2138 391 
Q 2594 391 2855 752 
Q 3116 1113 3116 1747 
z
" transform="scale(0.015625)"/>
      </defs>
      <use xlink:href="#DejaVuSans-53"/>
      <use xlink:href="#DejaVuSans-70" x="63.476562"/>
      <use xlink:href="#DejaVuSans-65" x="126.953125"/>
      <use xlink:href="#DejaVuSans-63" x="188.476562"/>
      <use xlink:href="#DejaVuSans-74" x="243.457031"/>
      <use xlink:href="#DejaVuSans-72" x="282.666016"/>
      <use xlink:href="#DejaVuSans-61" x="323.779297"/>
      <use xlink:href="#DejaVuSans-6c" x="385.058594"/>
      <use xlink:href="#DejaVuSans-20" x="412.841797"/>
      <use xlink:href="#DejaVuSans-6c" x="444.628906"/>
      <use xlink:href="#DejaVuSans-69" x="472.412109"/>
      <use xlink:href="#DejaVuSans-6e" x="500.195312"/>
      <use xlink:href="#DejaVuSans-65" x="563.574219"/>
      <use xlink:href="#DejaVuSans-20" x="625.097656"/>
      <use xlink:href="#DejaVuSans-74" x="656.884766"/>
      <use xlink:href="#DejaVuSans-68" x="696.09375"/>
      <use xlink:href="#DejaVuSans-72" x="759.472656"/>
      <use xlink:href="#DejaVuSans-65" x="798.335938"/>
      <use xlink:href="#DejaVuSans-73" x="859.859375"/>
      <use xlink:href="#DejaVuSans-68" x="911.958984"/>
      <use xlink:href="#DejaVuSans-6f" x="975.337891"/>
      <use xlink:href="#DejaVuSans-6c" x="1036.519531"/>
      <use xlink:href="#DejaVuSans-64" x="1064.302734"/>
     </g>
    </g>
    <g id="line2d_31">
     <path d="M 945.642187 302.8775 
L 955.642187 302.8775 
L 965.642187 302.8775 
" style="fill: none; stroke-dasharray: 9.6,2.4,1.5,2.4; stroke-dashoffset: 0; stroke: #d62728; stroke-width: 1.5"/>
    </g>
    <g id="text_16">
     <!-- Continuum threshold -->
     <g transform="translate(973.642187 306.3775) scale(0.1 -0.1)">
      <defs>
       <path id="DejaVuSans-6d" d="M 3328 2828 
Q 3544 3216 3844 3400 
Q 4144 3584 4550 3584 
Q 5097 3584 5394 3201 
Q 5691 2819 5691 2113 
L 5691 0 
L 5113 0 
L 5113 2094 
Q 5113 2597 4934 2840 
Q 4756 3084 4391 3084 
Q 3944 3084 3684 2787 
Q 3425 2491 3425 1978 
L 3425 0 
L 2847 0 
L 2847 2094 
Q 2847 2600 2669 2842 
Q 2491 3084 2119 3084 
Q 1678 3084 1418 2786 
Q 1159 2488 1159 1978 
L 1159 0 
L 581 0 
L 581 3500 
L 1159 3500 
L 1159 2956 
Q 1356 3278 1631 3431 
Q 1906 3584 2284 3584 
Q 2666 3584 2933 3390 
Q 3200 3197 3328 2828 
z
" transform="scale(0.015625)"/>
      </defs>
      <use xlink:href="#DejaVuSans-43"/>
      <use xlink:href="#DejaVuSans-6f" x="69.824219"/>
      <use xlink:href="#DejaVuSans-6e" x="131.005859"/>
      <use xlink:href="#DejaVuSans-74" x="194.384766"/>
      <use xlink:href="#DejaVuSans-69" x="233.59375"/>
      <use xlink:href="#DejaVuSans-6e" x="261.376953"/>
      <use xlink:href="#DejaVuSans-75" x="324.755859"/>
      <use xlink:href="#DejaVuSans-75" x="388.134766"/>
      <use xlink:href="#DejaVuSans-6d" x="451.513672"/>
      <use xlink:href="#DejaVuSans-20" x="548.925781"/>
      <use xlink:href="#DejaVuSans-74" x="580.712891"/>
      <use xlink:href="#DejaVuSans-68" x="619.921875"/>
      <use xlink:href="#DejaVuSans-72" x="683.300781"/>
      <use xlink:href="#DejaVuSans-65" x="722.164062"/>
      <use xlink:href="#DejaVuSans-73" x="783.6875"/>
      <use xlink:href="#DejaVuSans-68" x="835.787109"/>
      <use xlink:href="#DejaVuSans-6f" x="899.166016"/>
      <use xlink:href="#DejaVuSans-6c" x="960.347656"/>
      <use xlink:href="#DejaVuSans-64" x="988.130859"/>
     </g>
    </g>
    <g id="line2d_32">
     <path d="M 945.642187 317.555625 
L 955.642187 317.555625 
L 965.642187 317.555625 
" style="fill: none; stroke: #ff0000; stroke-width: 1.5; stroke-linecap: square"/>
    </g>
    <g id="text_17">
     <!-- Detection Threshold -->
     <g transform="translate(973.642187 321.055625) scale(0.1 -0.1)">
      <defs>
       <path id="DejaVuSans-44" d="M 1259 4147 
L 1259 519 
L 2022 519 
Q 2988 519 3436 956 
Q 3884 1394 3884 2338 
Q 3884 3275 3436 3711 
Q 2988 4147 2022 4147 
L 1259 4147 
z
M 628 4666 
L 1925 4666 
Q 3281 4666 3915 4102 
Q 4550 3538 4550 2338 
Q 4550 1131 3912 565 
Q 3275 0 1925 0 
L 628 0 
L 628 4666 
z
" transform="scale(0.015625)"/>
       <path id="DejaVuSans-54" d="M -19 4666 
L 3928 4666 
L 3928 4134 
L 2272 4134 
L 2272 0 
L 1638 0 
L 1638 4134 
L -19 4134 
L -19 4666 
z
" transform="scale(0.015625)"/>
      </defs>
      <use xlink:href="#DejaVuSans-44"/>
      <use xlink:href="#DejaVuSans-65" x="77.001953"/>
      <use xlink:href="#DejaVuSans-74" x="138.525391"/>
      <use xlink:href="#DejaVuSans-65" x="177.734375"/>
      <use xlink:href="#DejaVuSans-63" x="239.257812"/>
      <use xlink:href="#DejaVuSans-74" x="294.238281"/>
      <use xlink:href="#DejaVuSans-69" x="333.447266"/>
      <use xlink:href="#DejaVuSans-6f" x="361.230469"/>
      <use xlink:href="#DejaVuSans-6e" x="422.412109"/>
      <use xlink:href="#DejaVuSans-20" x="485.791016"/>
      <use xlink:href="#DejaVuSans-54" x="517.578125"/>
      <use xlink:href="#DejaVuSans-68" x="578.662109"/>
      <use xlink:href="#DejaVuSans-72" x="642.041016"/>
      <use xlink:href="#DejaVuSans-65" x="680.904297"/>
      <use xlink:href="#DejaVuSans-73" x="742.427734"/>
      <use xlink:href="#DejaVuSans-68" x="794.527344"/>
      <use xlink:href="#DejaVuSans-6f" x="857.90625"/>
      <use xlink:href="#DejaVuSans-6c" x="919.087891"/>
      <use xlink:href="#DejaVuSans-64" x="946.871094"/>
     </g>
    </g>
   </g>
  </g>
 </g>
 <defs>
  <clipPath id="p2051666d77">
   <rect x="45.34" y="29.76" width="1095.86" height="518.36"/>
  </clipPath>
 </defs>
</svg>
