<?xml version="1.0" encoding="utf-8" standalone="no"?>
<!DOCTYPE svg PUBLIC "-//W3C//DTD SVG 1.1//EN"
  "http://www.w3.org/Graphics/SVG/1.1/DTD/svg11.dtd">
<svg xmlns:xlink="http://www.w3.org/1999/xlink" width="1152pt" height="576pt" viewBox="0 0 1152 576" xmlns="http://www.w3.org/2000/svg" version="1.1">
 <metadata>
  <rdf:RDF xmlns:dc="http://purl.org/dc/elements/1.1/" xmlns:cc="http://creativecommons.org/ns#" xmlns:rdf="http://www.w3.org/1999/02/22-rdf-syntax-ns#">
   <cc:Work>
    <dc:type rdf:resource="http://purl.org/dc/dcmitype/StillImage"/>
    <dc:date>2025-05-14T11:35:41.552943</dc:date>
    <dc:format>image/svg+xml</dc:format>
    <dc:creator>
     <cc:Agent>
      <dc:title>Matplotlib v3.9.2, https://matplotlib.org/</dc:title>
     </cc:Agent>
    </dc:creator>
   </cc:Work>
  </rdf:RDF>
 </metadata>
 <defs>
  <style type="text/css">*{stroke-linejoin: round; stroke-linecap: butt}</style>
 </defs>
 <g id="figure_1">
  <g id="patch_1">
   <path d="M 0 576 
L 1152 576 
L 1152 0 
L 0 0 
z
" style="fill: #ffffff"/>
  </g>
  <g id="axes_1">
   <g id="patch_2">
    <path d="M 45.34 548.12 
L 1141.2 548.12 
L 1141.2 29.76 
L 45.34 29.76 
z
" style="fill: #ffffff"/>
   </g>
   <g id="PathCollection_1">
    <defs>
     <path id="m9ac7403952" d="M 0 3 
C 0.795609 3 1.55874 2.683901 2.12132 2.12132 
C 2.683901 1.55874 3 0.795609 3 0 
C 3 -0.795609 2.683901 -1.55874 2.12132 -2.12132 
C 1.55874 -2.683901 0.795609 -3 0 -3 
C -0.795609 -3 -1.55874 -2.683901 -2.12132 -2.12132 
C -2.683901 -1.55874 -3 -0.795609 -3 0 
C -3 0.795609 -2.683901 1.55874 -2.12132 2.12132 
C -1.55874 2.683901 -0.795609 3 0 3 
z
" style="stroke: #ff0000"/>
    </defs>
    <g clip-path="url(#p46df425738)">
     <use xlink:href="#m9ac7403952" x="154.822363" y="67.727491" style="fill: #ff0000; stroke: #ff0000"/>
     <use xlink:href="#m9ac7403952" x="162.605251" y="66.200451" style="fill: #ff0000; stroke: #ff0000"/>
     <use xlink:href="#m9ac7403952" x="196.331967" y="72.142016" style="fill: #ff0000; stroke: #ff0000"/>
     <use xlink:href="#m9ac7403952" x="209.303881" y="74.682684" style="fill: #ff0000; stroke: #ff0000"/>
     <use xlink:href="#m9ac7403952" x="271.568939" y="57.567703" style="fill: #ff0000; stroke: #ff0000"/>
     <use xlink:href="#m9ac7403952" x="349.399772" y="66.256141" style="fill: #ff0000; stroke: #ff0000"/>
     <use xlink:href="#m9ac7403952" x="398.692916" y="68.535792" style="fill: #ff0000; stroke: #ff0000"/>
     <use xlink:href="#m9ac7403952" x="403.881291" y="68.209877" style="fill: #ff0000; stroke: #ff0000"/>
     <use xlink:href="#m9ac7403952" x="435.014145" y="69.149217" style="fill: #ff0000; stroke: #ff0000"/>
     <use xlink:href="#m9ac7403952" x="588.081299" y="60.597847" style="fill: #ff0000; stroke: #ff0000"/>
     <use xlink:href="#m9ac7403952" x="720.394302" y="60.290605" style="fill: #ff0000; stroke: #ff0000"/>
     <use xlink:href="#m9ac7403952" x="795.630623" y="65.021508" style="fill: #ff0000; stroke: #ff0000"/>
     <use xlink:href="#m9ac7403952" x="863.084056" y="65.927156" style="fill: #ff0000; stroke: #ff0000"/>
     <use xlink:href="#m9ac7403952" x="1060.255978" y="56.298575" style="fill: #ff0000; stroke: #ff0000"/>
    </g>
   </g>
   <g id="matplotlib.axis_1">
    <g id="xtick_1">
     <g id="line2d_1">
      <path d="M 161.077306 548.12 
L 161.077306 29.76 
" clip-path="url(#p46df425738)" style="fill: none; stroke-dasharray: 2.96,1.28; stroke-dashoffset: 0; stroke: #b0b0b0; stroke-width: 0.8"/>
     </g>
     <g id="line2d_2">
      <defs>
       <path id="m3bdbf3c779" d="M 0 0 
L 0 3.5 
" style="stroke: #000000; stroke-width: 0.8"/>
      </defs>
      <g>
       <use xlink:href="#m3bdbf3c779" x="161.077306" y="548.12" style="stroke: #000000; stroke-width: 0.8"/>
      </g>
     </g>
     <g id="text_1">
      <!-- 2650 -->
      <g transform="translate(148.352306 562.718437) scale(0.1 -0.1)">
       <defs>
        <path id="DejaVuSans-32" d="M 1228 531 
L 3431 531 
L 3431 0 
L 469 0 
L 469 531 
Q 828 903 1448 1529 
Q 2069 2156 2228 2338 
Q 2531 2678 2651 2914 
Q 2772 3150 2772 3378 
Q 2772 3750 2511 3984 
Q 2250 4219 1831 4219 
Q 1534 4219 1204 4116 
Q 875 4013 500 3803 
L 500 4441 
Q 881 4594 1212 4672 
Q 1544 4750 1819 4750 
Q 2544 4750 2975 4387 
Q 3406 4025 3406 3419 
Q 3406 3131 3298 2873 
Q 3191 2616 2906 2266 
Q 2828 2175 2409 1742 
Q 1991 1309 1228 531 
z
" transform="scale(0.015625)"/>
        <path id="DejaVuSans-36" d="M 2113 2584 
Q 1688 2584 1439 2293 
Q 1191 2003 1191 1497 
Q 1191 994 1439 701 
Q 1688 409 2113 409 
Q 2538 409 2786 701 
Q 3034 994 3034 1497 
Q 3034 2003 2786 2293 
Q 2538 2584 2113 2584 
z
M 3366 4563 
L 3366 3988 
Q 3128 4100 2886 4159 
Q 2644 4219 2406 4219 
Q 1781 4219 1451 3797 
Q 1122 3375 1075 2522 
Q 1259 2794 1537 2939 
Q 1816 3084 2150 3084 
Q 2853 3084 3261 2657 
Q 3669 2231 3669 1497 
Q 3669 778 3244 343 
Q 2819 -91 2113 -91 
Q 1303 -91 875 529 
Q 447 1150 447 2328 
Q 447 3434 972 4092 
Q 1497 4750 2381 4750 
Q 2619 4750 2861 4703 
Q 3103 4656 3366 4563 
z
" transform="scale(0.015625)"/>
        <path id="DejaVuSans-35" d="M 691 4666 
L 3169 4666 
L 3169 4134 
L 1269 4134 
L 1269 2991 
Q 1406 3038 1543 3061 
Q 1681 3084 1819 3084 
Q 2600 3084 3056 2656 
Q 3513 2228 3513 1497 
Q 3513 744 3044 326 
Q 2575 -91 1722 -91 
Q 1428 -91 1123 -41 
Q 819 9 494 109 
L 494 744 
Q 775 591 1075 516 
Q 1375 441 1709 441 
Q 2250 441 2565 725 
Q 2881 1009 2881 1497 
Q 2881 1984 2565 2268 
Q 2250 2553 1709 2553 
Q 1456 2553 1204 2497 
Q 953 2441 691 2322 
L 691 4666 
z
" transform="scale(0.015625)"/>
        <path id="DejaVuSans-30" d="M 2034 4250 
Q 1547 4250 1301 3770 
Q 1056 3291 1056 2328 
Q 1056 1369 1301 889 
Q 1547 409 2034 409 
Q 2525 409 2770 889 
Q 3016 1369 3016 2328 
Q 3016 3291 2770 3770 
Q 2525 4250 2034 4250 
z
M 2034 4750 
Q 2819 4750 3233 4129 
Q 3647 3509 3647 2328 
Q 3647 1150 3233 529 
Q 2819 -91 2034 -91 
Q 1250 -91 836 529 
Q 422 1150 422 2328 
Q 422 3509 836 4129 
Q 1250 4750 2034 4750 
z
" transform="scale(0.015625)"/>
       </defs>
       <use xlink:href="#DejaVuSans-32"/>
       <use xlink:href="#DejaVuSans-36" x="63.623047"/>
       <use xlink:href="#DejaVuSans-35" x="127.246094"/>
       <use xlink:href="#DejaVuSans-30" x="190.869141"/>
      </g>
     </g>
    </g>
    <g id="xtick_2">
     <g id="line2d_3">
      <path d="M 294.349504 548.12 
L 294.349504 29.76 
" clip-path="url(#p46df425738)" style="fill: none; stroke-dasharray: 2.96,1.28; stroke-dashoffset: 0; stroke: #b0b0b0; stroke-width: 0.8"/>
     </g>
     <g id="line2d_4">
      <g>
       <use xlink:href="#m3bdbf3c779" x="294.349504" y="548.12" style="stroke: #000000; stroke-width: 0.8"/>
      </g>
     </g>
     <g id="text_2">
      <!-- 2700 -->
      <g transform="translate(281.624504 562.718437) scale(0.1 -0.1)">
       <defs>
        <path id="DejaVuSans-37" d="M 525 4666 
L 3525 4666 
L 3525 4397 
L 1831 0 
L 1172 0 
L 2766 4134 
L 525 4134 
L 525 4666 
z
" transform="scale(0.015625)"/>
       </defs>
       <use xlink:href="#DejaVuSans-32"/>
       <use xlink:href="#DejaVuSans-37" x="63.623047"/>
       <use xlink:href="#DejaVuSans-30" x="127.246094"/>
       <use xlink:href="#DejaVuSans-30" x="190.869141"/>
      </g>
     </g>
    </g>
    <g id="xtick_3">
     <g id="line2d_5">
      <path d="M 427.621703 548.12 
L 427.621703 29.76 
" clip-path="url(#p46df425738)" style="fill: none; stroke-dasharray: 2.96,1.28; stroke-dashoffset: 0; stroke: #b0b0b0; stroke-width: 0.8"/>
     </g>
     <g id="line2d_6">
      <g>
       <use xlink:href="#m3bdbf3c779" x="427.621703" y="548.12" style="stroke: #000000; stroke-width: 0.8"/>
      </g>
     </g>
     <g id="text_3">
      <!-- 2750 -->
      <g transform="translate(414.896703 562.718437) scale(0.1 -0.1)">
       <use xlink:href="#DejaVuSans-32"/>
       <use xlink:href="#DejaVuSans-37" x="63.623047"/>
       <use xlink:href="#DejaVuSans-35" x="127.246094"/>
       <use xlink:href="#DejaVuSans-30" x="190.869141"/>
      </g>
     </g>
    </g>
    <g id="xtick_4">
     <g id="line2d_7">
      <path d="M 560.893901 548.12 
L 560.893901 29.76 
" clip-path="url(#p46df425738)" style="fill: none; stroke-dasharray: 2.96,1.28; stroke-dashoffset: 0; stroke: #b0b0b0; stroke-width: 0.8"/>
     </g>
     <g id="line2d_8">
      <g>
       <use xlink:href="#m3bdbf3c779" x="560.893901" y="548.12" style="stroke: #000000; stroke-width: 0.8"/>
      </g>
     </g>
     <g id="text_4">
      <!-- 2800 -->
      <g transform="translate(548.168901 562.718437) scale(0.1 -0.1)">
       <defs>
        <path id="DejaVuSans-38" d="M 2034 2216 
Q 1584 2216 1326 1975 
Q 1069 1734 1069 1313 
Q 1069 891 1326 650 
Q 1584 409 2034 409 
Q 2484 409 2743 651 
Q 3003 894 3003 1313 
Q 3003 1734 2745 1975 
Q 2488 2216 2034 2216 
z
M 1403 2484 
Q 997 2584 770 2862 
Q 544 3141 544 3541 
Q 544 4100 942 4425 
Q 1341 4750 2034 4750 
Q 2731 4750 3128 4425 
Q 3525 4100 3525 3541 
Q 3525 3141 3298 2862 
Q 3072 2584 2669 2484 
Q 3125 2378 3379 2068 
Q 3634 1759 3634 1313 
Q 3634 634 3220 271 
Q 2806 -91 2034 -91 
Q 1263 -91 848 271 
Q 434 634 434 1313 
Q 434 1759 690 2068 
Q 947 2378 1403 2484 
z
M 1172 3481 
Q 1172 3119 1398 2916 
Q 1625 2713 2034 2713 
Q 2441 2713 2670 2916 
Q 2900 3119 2900 3481 
Q 2900 3844 2670 4047 
Q 2441 4250 2034 4250 
Q 1625 4250 1398 4047 
Q 1172 3844 1172 3481 
z
" transform="scale(0.015625)"/>
       </defs>
       <use xlink:href="#DejaVuSans-32"/>
       <use xlink:href="#DejaVuSans-38" x="63.623047"/>
       <use xlink:href="#DejaVuSans-30" x="127.246094"/>
       <use xlink:href="#DejaVuSans-30" x="190.869141"/>
      </g>
     </g>
    </g>
    <g id="xtick_5">
     <g id="line2d_9">
      <path d="M 694.1661 548.12 
L 694.1661 29.76 
" clip-path="url(#p46df425738)" style="fill: none; stroke-dasharray: 2.96,1.28; stroke-dashoffset: 0; stroke: #b0b0b0; stroke-width: 0.8"/>
     </g>
     <g id="line2d_10">
      <g>
       <use xlink:href="#m3bdbf3c779" x="694.1661" y="548.12" style="stroke: #000000; stroke-width: 0.8"/>
      </g>
     </g>
     <g id="text_5">
      <!-- 2850 -->
      <g transform="translate(681.4411 562.718437) scale(0.1 -0.1)">
       <use xlink:href="#DejaVuSans-32"/>
       <use xlink:href="#DejaVuSans-38" x="63.623047"/>
       <use xlink:href="#DejaVuSans-35" x="127.246094"/>
       <use xlink:href="#DejaVuSans-30" x="190.869141"/>
      </g>
     </g>
    </g>
    <g id="xtick_6">
     <g id="line2d_11">
      <path d="M 827.438298 548.12 
L 827.438298 29.76 
" clip-path="url(#p46df425738)" style="fill: none; stroke-dasharray: 2.96,1.28; stroke-dashoffset: 0; stroke: #b0b0b0; stroke-width: 0.8"/>
     </g>
     <g id="line2d_12">
      <g>
       <use xlink:href="#m3bdbf3c779" x="827.438298" y="548.12" style="stroke: #000000; stroke-width: 0.8"/>
      </g>
     </g>
     <g id="text_6">
      <!-- 2900 -->
      <g transform="translate(814.713298 562.718437) scale(0.1 -0.1)">
       <defs>
        <path id="DejaVuSans-39" d="M 703 97 
L 703 672 
Q 941 559 1184 500 
Q 1428 441 1663 441 
Q 2288 441 2617 861 
Q 2947 1281 2994 2138 
Q 2813 1869 2534 1725 
Q 2256 1581 1919 1581 
Q 1219 1581 811 2004 
Q 403 2428 403 3163 
Q 403 3881 828 4315 
Q 1253 4750 1959 4750 
Q 2769 4750 3195 4129 
Q 3622 3509 3622 2328 
Q 3622 1225 3098 567 
Q 2575 -91 1691 -91 
Q 1453 -91 1209 -44 
Q 966 3 703 97 
z
M 1959 2075 
Q 2384 2075 2632 2365 
Q 2881 2656 2881 3163 
Q 2881 3666 2632 3958 
Q 2384 4250 1959 4250 
Q 1534 4250 1286 3958 
Q 1038 3666 1038 3163 
Q 1038 2656 1286 2365 
Q 1534 2075 1959 2075 
z
" transform="scale(0.015625)"/>
       </defs>
       <use xlink:href="#DejaVuSans-32"/>
       <use xlink:href="#DejaVuSans-39" x="63.623047"/>
       <use xlink:href="#DejaVuSans-30" x="127.246094"/>
       <use xlink:href="#DejaVuSans-30" x="190.869141"/>
      </g>
     </g>
    </g>
    <g id="xtick_7">
     <g id="line2d_13">
      <path d="M 960.710496 548.12 
L 960.710496 29.76 
" clip-path="url(#p46df425738)" style="fill: none; stroke-dasharray: 2.96,1.28; stroke-dashoffset: 0; stroke: #b0b0b0; stroke-width: 0.8"/>
     </g>
     <g id="line2d_14">
      <g>
       <use xlink:href="#m3bdbf3c779" x="960.710496" y="548.12" style="stroke: #000000; stroke-width: 0.8"/>
      </g>
     </g>
     <g id="text_7">
      <!-- 2950 -->
      <g transform="translate(947.985496 562.718437) scale(0.1 -0.1)">
       <use xlink:href="#DejaVuSans-32"/>
       <use xlink:href="#DejaVuSans-39" x="63.623047"/>
       <use xlink:href="#DejaVuSans-35" x="127.246094"/>
       <use xlink:href="#DejaVuSans-30" x="190.869141"/>
      </g>
     </g>
    </g>
    <g id="xtick_8">
     <g id="line2d_15">
      <path d="M 1093.982695 548.12 
L 1093.982695 29.76 
" clip-path="url(#p46df425738)" style="fill: none; stroke-dasharray: 2.96,1.28; stroke-dashoffset: 0; stroke: #b0b0b0; stroke-width: 0.8"/>
     </g>
     <g id="line2d_16">
      <g>
       <use xlink:href="#m3bdbf3c779" x="1093.982695" y="548.12" style="stroke: #000000; stroke-width: 0.8"/>
      </g>
     </g>
     <g id="text_8">
      <!-- 3000 -->
      <g transform="translate(1081.257695 562.718437) scale(0.1 -0.1)">
       <defs>
        <path id="DejaVuSans-33" d="M 2597 2516 
Q 3050 2419 3304 2112 
Q 3559 1806 3559 1356 
Q 3559 666 3084 287 
Q 2609 -91 1734 -91 
Q 1441 -91 1130 -33 
Q 819 25 488 141 
L 488 750 
Q 750 597 1062 519 
Q 1375 441 1716 441 
Q 2309 441 2620 675 
Q 2931 909 2931 1356 
Q 2931 1769 2642 2001 
Q 2353 2234 1838 2234 
L 1294 2234 
L 1294 2753 
L 1863 2753 
Q 2328 2753 2575 2939 
Q 2822 3125 2822 3475 
Q 2822 3834 2567 4026 
Q 2313 4219 1838 4219 
Q 1578 4219 1281 4162 
Q 984 4106 628 3988 
L 628 4550 
Q 988 4650 1302 4700 
Q 1616 4750 1894 4750 
Q 2613 4750 3031 4423 
Q 3450 4097 3450 3541 
Q 3450 3153 3228 2886 
Q 3006 2619 2597 2516 
z
" transform="scale(0.015625)"/>
       </defs>
       <use xlink:href="#DejaVuSans-33"/>
       <use xlink:href="#DejaVuSans-30" x="63.623047"/>
       <use xlink:href="#DejaVuSans-30" x="127.246094"/>
       <use xlink:href="#DejaVuSans-30" x="190.869141"/>
      </g>
     </g>
    </g>
   </g>
   <g id="matplotlib.axis_2">
    <g id="ytick_1">
     <g id="line2d_17">
      <path d="M 45.34 477.566362 
L 1141.2 477.566362 
" clip-path="url(#p46df425738)" style="fill: none; stroke-dasharray: 2.96,1.28; stroke-dashoffset: 0; stroke: #b0b0b0; stroke-width: 0.8"/>
     </g>
     <g id="line2d_18">
      <defs>
       <path id="m6286ee506b" d="M 0 0 
L -3.5 0 
" style="stroke: #000000; stroke-width: 0.8"/>
      </defs>
      <g>
       <use xlink:href="#m6286ee506b" x="45.34" y="477.566362" style="stroke: #000000; stroke-width: 0.8"/>
      </g>
     </g>
     <g id="text_9">
      <!-- −100 -->
      <g transform="translate(10.872812 481.365581) scale(0.1 -0.1)">
       <defs>
        <path id="DejaVuSans-2212" d="M 678 2272 
L 4684 2272 
L 4684 1741 
L 678 1741 
L 678 2272 
z
" transform="scale(0.015625)"/>
        <path id="DejaVuSans-31" d="M 794 531 
L 1825 531 
L 1825 4091 
L 703 3866 
L 703 4441 
L 1819 4666 
L 2450 4666 
L 2450 531 
L 3481 531 
L 3481 0 
L 794 0 
L 794 531 
z
" transform="scale(0.015625)"/>
       </defs>
       <use xlink:href="#DejaVuSans-2212"/>
       <use xlink:href="#DejaVuSans-31" x="83.789062"/>
       <use xlink:href="#DejaVuSans-30" x="147.412109"/>
       <use xlink:href="#DejaVuSans-30" x="211.035156"/>
      </g>
     </g>
    </g>
    <g id="ytick_2">
     <g id="line2d_19">
      <path d="M 45.34 381.774593 
L 1141.2 381.774593 
" clip-path="url(#p46df425738)" style="fill: none; stroke-dasharray: 2.96,1.28; stroke-dashoffset: 0; stroke: #b0b0b0; stroke-width: 0.8"/>
     </g>
     <g id="line2d_20">
      <g>
       <use xlink:href="#m6286ee506b" x="45.34" y="381.774593" style="stroke: #000000; stroke-width: 0.8"/>
      </g>
     </g>
     <g id="text_10">
      <!-- −90 -->
      <g transform="translate(17.235312 385.573812) scale(0.1 -0.1)">
       <use xlink:href="#DejaVuSans-2212"/>
       <use xlink:href="#DejaVuSans-39" x="83.789062"/>
       <use xlink:href="#DejaVuSans-30" x="147.412109"/>
      </g>
     </g>
    </g>
    <g id="ytick_3">
     <g id="line2d_21">
      <path d="M 45.34 285.982824 
L 1141.2 285.982824 
" clip-path="url(#p46df425738)" style="fill: none; stroke-dasharray: 2.96,1.28; stroke-dashoffset: 0; stroke: #b0b0b0; stroke-width: 0.8"/>
     </g>
     <g id="line2d_22">
      <g>
       <use xlink:href="#m6286ee506b" x="45.34" y="285.982824" style="stroke: #000000; stroke-width: 0.8"/>
      </g>
     </g>
     <g id="text_11">
      <!-- −80 -->
      <g transform="translate(17.235312 289.782042) scale(0.1 -0.1)">
       <use xlink:href="#DejaVuSans-2212"/>
       <use xlink:href="#DejaVuSans-38" x="83.789062"/>
       <use xlink:href="#DejaVuSans-30" x="147.412109"/>
      </g>
     </g>
    </g>
    <g id="ytick_4">
     <g id="line2d_23">
      <path d="M 45.34 190.191054 
L 1141.2 190.191054 
" clip-path="url(#p46df425738)" style="fill: none; stroke-dasharray: 2.96,1.28; stroke-dashoffset: 0; stroke: #b0b0b0; stroke-width: 0.8"/>
     </g>
     <g id="line2d_24">
      <g>
       <use xlink:href="#m6286ee506b" x="45.34" y="190.191054" style="stroke: #000000; stroke-width: 0.8"/>
      </g>
     </g>
     <g id="text_12">
      <!-- −70 -->
      <g transform="translate(17.235312 193.990273) scale(0.1 -0.1)">
       <use xlink:href="#DejaVuSans-2212"/>
       <use xlink:href="#DejaVuSans-37" x="83.789062"/>
       <use xlink:href="#DejaVuSans-30" x="147.412109"/>
      </g>
     </g>
    </g>
    <g id="ytick_5">
     <g id="line2d_25">
      <path d="M 45.34 94.399285 
L 1141.2 94.399285 
" clip-path="url(#p46df425738)" style="fill: none; stroke-dasharray: 2.96,1.28; stroke-dashoffset: 0; stroke: #b0b0b0; stroke-width: 0.8"/>
     </g>
     <g id="line2d_26">
      <g>
       <use xlink:href="#m6286ee506b" x="45.34" y="94.399285" style="stroke: #000000; stroke-width: 0.8"/>
      </g>
     </g>
     <g id="text_13">
      <!-- −60 -->
      <g transform="translate(17.235312 98.198504) scale(0.1 -0.1)">
       <use xlink:href="#DejaVuSans-2212"/>
       <use xlink:href="#DejaVuSans-36" x="83.789062"/>
       <use xlink:href="#DejaVuSans-30" x="147.412109"/>
      </g>
     </g>
    </g>
   </g>
   <g id="line2d_27">
    <path d="M 95.151818 80.632763 
L 97.746331 81.659949 
L 100.340844 80.178331 
L 102.935357 77.306595 
L 105.529219 73.742723 
L 108.123732 75.923164 
L 110.718245 81.082225 
L 113.312758 75.15155 
L 115.90662 82.541662 
L 118.501133 78.529498 
L 121.095646 84.114013 
L 123.690159 78.721524 
L 126.284672 79.667807 
L 128.878534 84.46105 
L 131.473047 84.349123 
L 134.06756 80.055441 
L 136.662073 79.059206 
L 139.255936 74.894808 
L 144.444962 80.93752 
L 147.039474 82.036986 
L 149.633987 73.636898 
L 152.22785 79.135358 
L 154.822363 67.727491 
L 157.416876 82.362901 
L 160.011389 84.838086 
L 162.605251 66.200451 
L 165.199764 82.917749 
L 167.794277 80.456522 
L 170.38879 82.551127 
L 172.982652 78.218565 
L 175.577165 85.333409 
L 178.171678 85.550685 
L 180.766191 78.460032 
L 183.360704 81.63722 
L 185.954566 78.82406 
L 188.549079 84.086023 
L 191.143592 82.880221 
L 193.738105 84.62567 
L 196.331967 72.142016 
L 201.520993 81.320696 
L 204.115506 78.755398 
L 206.710019 84.694185 
L 209.303881 74.682684 
L 211.898394 78.436316 
L 214.492907 82.705406 
L 217.08742 78.181402 
L 219.681282 80.418921 
L 222.275795 87.847877 
L 224.870308 79.965439 
L 227.464821 83.55679 
L 230.058683 80.49014 
L 232.653196 78.983637 
L 235.247709 80.323109 
L 237.842222 78.21418 
L 240.436735 70.388308 
L 243.030597 77.34204 
L 245.62511 79.980457 
L 248.219623 78.151036 
L 250.814136 72.455433 
L 253.407999 74.231431 
L 256.002512 78.353732 
L 258.597025 81.373791 
L 261.191537 75.040244 
L 263.78605 76.291029 
L 266.379913 76.331334 
L 268.974426 82.925496 
L 271.568939 57.567703 
L 274.163452 76.419802 
L 276.757314 82.379235 
L 279.351827 79.47388 
L 281.94634 79.935328 
L 284.540853 76.077881 
L 287.134715 76.675374 
L 289.729228 73.622209 
L 292.323741 74.133755 
L 294.918254 75.806413 
L 297.512767 76.787922 
L 300.106629 72.861594 
L 302.701142 79.022591 
L 305.295655 69.349319 
L 307.890168 74.411837 
L 310.48403 75.361738 
L 313.078543 77.49292 
L 315.673056 71.725112 
L 318.267569 77.036004 
L 320.862082 78.846314 
L 323.455944 72.254381 
L 326.050457 76.407085 
L 328.64497 76.108174 
L 331.239483 75.06111 
L 333.833345 77.2349 
L 336.427858 73.409317 
L 339.022371 77.082265 
L 341.616884 81.37602 
L 344.211397 71.504437 
L 346.805259 70.080518 
L 349.399772 66.256141 
L 351.994285 71.758255 
L 354.588798 79.609011 
L 357.18266 80.792048 
L 359.777173 75.557638 
L 362.371686 76.610586 
L 364.966199 75.668395 
L 367.560062 73.463033 
L 370.154575 77.736142 
L 372.749088 77.859214 
L 375.3436 81.42557 
L 377.938113 74.285878 
L 380.531976 80.088803 
L 383.126489 75.905076 
L 385.721002 75.271114 
L 388.315515 73.638908 
L 390.909377 81.538155 
L 393.50389 81.048789 
L 396.098403 76.819165 
L 398.692916 68.535792 
L 401.287429 68.196795 
L 403.881291 68.209877 
L 406.475804 75.15948 
L 409.070317 75.558624 
L 411.66483 79.546233 
L 414.258692 75.364223 
L 416.853205 80.466023 
L 419.447718 77.538926 
L 422.042231 77.518463 
L 424.636093 76.707567 
L 427.230606 77.497232 
L 429.825119 75.804184 
L 432.419632 80.726127 
L 435.014145 69.149217 
L 437.608007 75.384247 
L 440.20252 75.713049 
L 442.797033 70.813288 
L 445.391546 79.736213 
L 447.985408 67.413671 
L 450.579921 79.663787 
L 453.174434 75.442495 
L 455.768947 70.121042 
L 458.36346 76.579379 
L 460.957322 78.502493 
L 463.551835 76.462775 
L 466.146348 72.937272 
L 468.740861 78.656845 
L 471.334723 71.178924 
L 473.929236 76.794025 
L 476.523749 79.74776 
L 479.118262 67.621264 
L 481.712125 77.895719 
L 484.306638 70.106609 
L 486.901151 74.51134 
L 489.495663 76.570609 
L 492.090176 75.838789 
L 494.684039 75.705485 
L 497.278552 75.249153 
L 499.873065 72.139933 
L 502.467578 76.585847 
L 505.06144 73.748972 
L 507.655953 79.338018 
L 510.250466 67.381441 
L 512.844979 74.31862 
L 515.439492 76.474322 
L 518.033354 70.528226 
L 520.627867 75.989779 
L 523.22238 74.008271 
L 525.816893 76.939826 
L 528.410755 65.787348 
L 531.005268 65.188868 
L 533.599781 70.559689 
L 536.194294 68.113992 
L 538.788807 78.388337 
L 541.382669 68.12923 
L 543.977182 68.12342 
L 546.571695 68.96892 
L 549.166208 70.627254 
L 551.76007 78.139708 
L 554.354583 72.657947 
L 556.949096 75.123413 
L 559.543609 73.070539 
L 562.137471 71.884031 
L 564.731984 72.244076 
L 567.326497 63.010912 
L 569.92101 68.572115 
L 572.515523 66.466913 
L 575.109385 70.133174 
L 577.703898 64.619476 
L 580.298411 67.508168 
L 582.892924 66.499654 
L 585.486786 67.105698 
L 588.081299 60.597847 
L 590.675812 70.384142 
L 593.270325 75.184255 
L 595.864838 67.427301 
L 598.458701 71.086765 
L 601.053214 69.625501 
L 603.647726 73.312189 
L 606.242239 80.33524 
L 608.836102 68.110374 
L 611.430615 69.555853 
L 614.025128 70.343362 
L 616.619641 68.116513 
L 619.213503 75.269909 
L 621.808016 73.000891 
L 624.402529 75.668578 
L 626.997042 71.946956 
L 629.591555 72.396272 
L 632.185417 67.841281 
L 634.77993 69.589398 
L 637.374443 66.026221 
L 639.968956 64.972103 
L 642.562818 67.442064 
L 645.157331 70.078289 
L 647.751844 66.686053 
L 650.346357 72.473741 
L 652.94087 70.136098 
L 655.534732 66.373074 
L 658.129245 74.553546 
L 660.723758 67.109206 
L 663.318271 71.755149 
L 665.912133 67.398945 
L 668.506646 67.180937 
L 671.101159 71.332179 
L 673.695672 72.957187 
L 676.289534 75.552704 
L 678.884047 75.340324 
L 681.47856 71.837514 
L 686.667586 68.285226 
L 689.261448 71.890572 
L 691.855961 74.879644 
L 694.450474 71.065937 
L 697.044987 74.128566 
L 699.638849 67.771743 
L 702.233362 74.232235 
L 704.827875 77.500119 
L 707.422388 71.741811 
L 710.016901 63.741563 
L 712.610764 73.475311 
L 715.205277 72.483461 
L 717.799789 76.244292 
L 720.394302 60.290605 
L 722.988165 64.314865 
L 725.582678 73.191602 
L 728.177191 74.474725 
L 730.771704 69.844459 
L 733.366217 68.156672 
L 735.960079 73.823005 
L 738.554592 74.090234 
L 741.149105 68.994792 
L 743.743618 77.210636 
L 746.33748 73.279959 
L 748.931993 70.467494 
L 751.526506 66.414914 
L 754.121019 77.659624 
L 756.714881 74.548393 
L 759.309394 75.974359 
L 761.903907 75.448341 
L 764.49842 76.932956 
L 767.092933 73.103865 
L 769.686795 65.897704 
L 772.281308 77.462993 
L 774.875821 72.435007 
L 777.470334 78.646468 
L 780.064196 76.158748 
L 782.658709 76.866487 
L 785.253222 74.280178 
L 787.847735 76.265267 
L 790.442248 77.997999 
L 793.03611 67.05549 
L 795.630623 65.021508 
L 798.225136 73.051464 
L 800.819649 67.978203 
L 803.413511 74.549672 
L 806.008024 78.516635 
L 808.602537 75.169857 
L 811.19705 77.673473 
L 813.790912 65.837556 
L 816.385425 71.549493 
L 818.979938 71.527202 
L 821.574451 75.830202 
L 824.168964 74.561731 
L 826.762827 79.425792 
L 829.35734 80.616282 
L 831.951852 73.190432 
L 834.546365 75.899741 
L 837.140228 74.967124 
L 839.734741 77.153485 
L 842.329254 69.855677 
L 844.923767 77.706178 
L 847.51828 74.849022 
L 850.112142 74.416807 
L 852.706655 79.528218 
L 855.301168 72.488942 
L 857.895681 81.173835 
L 860.489543 80.651143 
L 863.084056 65.927156 
L 865.678569 70.666646 
L 868.273082 66.714519 
L 870.866944 78.165543 
L 873.461457 67.802949 
L 876.05597 78.922321 
L 878.650483 75.021498 
L 881.244996 72.504399 
L 883.838858 73.778205 
L 886.433371 81.337286 
L 889.027884 79.160536 
L 891.622397 72.307878 
L 894.216259 71.438515 
L 896.810772 69.857066 
L 899.405285 73.0587 
L 901.999798 78.450641 
L 904.594311 76.923674 
L 907.188173 74.425321 
L 909.782686 75.293697 
L 912.377199 77.207822 
L 914.971712 75.981959 
L 917.565574 69.484743 
L 920.160087 69.908662 
L 922.7546 77.501033 
L 925.349113 75.624107 
L 927.943626 74.550147 
L 930.537488 69.436288 
L 933.132001 77.204278 
L 935.726514 70.53294 
L 938.321027 72.381363 
L 940.91489 70.063087 
L 943.509403 66.919189 
L 946.103915 75.280433 
L 948.698428 71.716086 
L 951.292291 77.777543 
L 953.886804 79.597208 
L 956.481317 72.157838 
L 959.07583 78.308311 
L 961.670343 76.351249 
L 964.264205 71.042769 
L 966.858718 76.049013 
L 969.453231 75.2345 
L 972.047744 73.411984 
L 974.641606 72.300131 
L 977.236119 70.356882 
L 979.830632 71.003706 
L 982.425145 75.732234 
L 985.019658 75.022229 
L 990.208033 76.490948 
L 992.802546 75.235486 
L 995.397059 71.549493 
L 997.990921 69.307662 
L 1000.585434 67.390175 
L 1003.179947 73.449659 
L 1005.77446 68.358967 
L 1008.368322 74.803527 
L 1010.962835 65.785338 
L 1013.557348 62.56737 
L 1016.151861 67.336787 
L 1018.746374 72.594621 
L 1021.340236 75.412165 
L 1023.934749 70.402011 
L 1026.529262 74.219117 
L 1029.123775 73.470743 
L 1031.717637 69.049604 
L 1034.31215 67.997278 
L 1036.906663 66.034114 
L 1039.501176 67.089364 
L 1042.095689 70.760595 
L 1044.689551 76.263038 
L 1047.284064 70.995996 
L 1049.878577 63.288337 
L 1052.47309 69.628169 
L 1055.066953 70.013245 
L 1057.661466 69.673444 
L 1060.255978 56.298575 
L 1062.850491 59.070406 
L 1065.444354 67.601897 
L 1068.038867 65.237615 
L 1070.63338 66.166394 
L 1073.227893 56.734846 
L 1075.822406 71.014084 
L 1078.416268 66.761622 
L 1081.010781 62.735827 
L 1083.605294 59.68712 
L 1086.199807 59.898038 
L 1088.793669 69.787563 
L 1091.388182 68.193104 
L 1091.388182 68.193104 
" clip-path="url(#p46df425738)" style="fill: none; stroke: #1f77b4; stroke-width: 1.5; stroke-linecap: square"/>
   </g>
   <g id="line2d_28">
    <path d="M 95.151818 91.553018 
L 97.746331 91.239126 
L 100.340844 84.201604 
L 102.935357 86.11942 
L 105.529219 85.141967 
L 108.123732 95.943645 
L 110.718245 82.519116 
L 113.312758 86.263394 
L 115.90662 84.361693 
L 118.501133 93.856203 
L 121.095646 87.754074 
L 123.690159 75.751966 
L 126.284672 91.162827 
L 128.878534 91.741208 
L 131.473047 93.066172 
L 134.06756 94.807382 
L 136.662073 91.895304 
L 139.255936 83.611858 
L 141.850449 87.772601 
L 144.444962 89.941933 
L 147.039474 96.501527 
L 149.633987 97.105889 
L 152.22785 101.071682 
L 154.822363 88.705875 
L 157.416876 92.995793 
L 160.011389 96.33307 
L 162.605251 92.830551 
L 165.199764 87.419974 
L 167.794277 93.96316 
L 170.38879 103.529511 
L 172.982652 95.748476 
L 175.577165 83.130202 
L 178.171678 88.137068 
L 180.766191 84.782287 
L 183.360704 82.978299 
L 185.954566 95.300256 
L 188.549079 83.702883 
L 191.143592 94.949968 
L 193.738105 87.882591 
L 196.331967 94.94043 
L 198.92648 89.643826 
L 201.520993 96.934765 
L 204.115506 91.87886 
L 206.710019 98.296599 
L 209.303881 95.373705 
L 211.898394 94.720925 
L 214.492907 87.399182 
L 217.08742 96.764992 
L 219.681282 96.511941 
L 222.275795 89.284731 
L 224.870308 81.593918 
L 227.464821 91.22016 
L 230.058683 94.188366 
L 232.653196 86.263832 
L 235.247709 85.974824 
L 237.842222 89.517611 
L 240.436735 94.719426 
L 243.030597 85.196962 
L 245.62511 87.739567 
L 248.219623 91.466086 
L 250.814136 92.57169 
L 253.407999 86.301215 
L 256.002512 91.094055 
L 258.597025 91.431919 
L 261.191537 88.259519 
L 263.78605 90.37243 
L 266.379913 81.120923 
L 268.974426 89.247751 
L 271.568939 91.956913 
L 274.163452 91.267518 
L 276.757314 78.547549 
L 279.351827 89.244645 
L 281.94634 87.981839 
L 284.540853 89.488707 
L 287.134715 87.308266 
L 289.729228 80.040276 
L 292.323741 86.299314 
L 294.918254 88.355148 
L 297.512767 83.014365 
L 300.106629 80.908104 
L 302.701142 79.98053 
L 305.295655 93.105674 
L 307.890168 80.925681 
L 310.48403 82.54612 
L 313.078543 79.312987 
L 315.673056 89.733975 
L 318.267569 93.607975 
L 320.862082 90.149746 
L 323.455944 90.64642 
L 326.050457 92.500105 
L 328.64497 81.664114 
L 331.239483 80.712825 
L 333.833345 89.687822 
L 336.427858 80.114748 
L 339.022371 88.002521 
L 341.616884 86.165608 
L 344.211397 88.363772 
L 346.805259 88.664144 
L 349.399772 88.096652 
L 351.994285 89.57553 
L 354.588798 80.758502 
L 357.18266 83.761569 
L 359.777173 81.400905 
L 362.371686 78.813792 
L 364.966199 92.431955 
L 367.560062 84.000113 
L 370.154575 85.495288 
L 372.749088 80.924548 
L 375.3436 91.866875 
L 377.938113 88.558831 
L 380.531976 89.093253 
L 383.126489 87.591647 
L 385.721002 87.628261 
L 388.315515 93.180401 
L 390.909377 80.580216 
L 393.50389 91.298506 
L 396.098403 88.888912 
L 398.692916 89.035225 
L 401.287429 92.815277 
L 403.881291 87.368231 
L 406.475804 84.642881 
L 409.070317 82.455607 
L 411.66483 84.623185 
L 414.258692 82.931781 
L 416.853205 94.164249 
L 419.447718 87.692831 
L 422.042231 81.8291 
L 424.636093 90.214205 
L 427.230606 92.249137 
L 429.825119 89.215046 
L 432.419632 92.891686 
L 435.014145 90.510814 
L 437.608007 80.844375 
L 442.797033 87.67266 
L 445.391546 72.168654 
L 447.985408 80.824533 
L 450.579921 87.614522 
L 453.174434 77.070937 
L 455.768947 95.026924 
L 458.36346 82.997446 
L 460.957322 88.75221 
L 463.551835 91.693667 
L 466.146348 83.186988 
L 468.740861 77.794718 
L 471.334723 84.206573 
L 473.929236 78.997231 
L 476.523749 78.310869 
L 479.118262 88.503873 
L 481.712125 83.451623 
L 484.306638 87.157532 
L 486.901151 96.160301 
L 489.495663 78.869591 
L 492.090176 88.866476 
L 494.684039 89.403711 
L 497.278552 86.265184 
L 499.873065 85.359207 
L 502.467578 86.260836 
L 505.06144 84.0945 
L 507.655953 80.679097 
L 510.250466 81.079667 
L 512.844979 85.909451 
L 515.439492 90.172511 
L 518.033354 85.854931 
L 520.627867 86.526896 
L 523.22238 75.349387 
L 525.816893 75.694559 
L 528.410755 85.13729 
L 531.005268 72.181663 
L 533.599781 71.70918 
L 536.194294 80.950054 
L 538.788807 83.561065 
L 541.382669 85.275965 
L 543.977182 79.331076 
L 546.571695 85.253529 
L 549.166208 71.872557 
L 551.76007 78.043932 
L 554.354583 82.811888 
L 556.949096 79.43405 
L 559.543609 79.009619 
L 562.137471 78.876826 
L 564.731984 76.171537 
L 567.326497 79.199745 
L 569.92101 81.599765 
L 572.515523 82.176757 
L 575.109385 80.191303 
L 577.703898 78.030302 
L 580.298411 86.091758 
L 582.892924 88.148578 
L 585.486786 85.976688 
L 588.081299 85.503729 
L 590.675812 84.178144 
L 593.270325 81.889686 
L 595.864838 76.431714 
L 598.458701 86.509246 
L 601.053214 79.396266 
L 603.647726 83.46613 
L 606.242239 80.814192 
L 608.836102 76.061109 
L 611.430615 82.296175 
L 614.025128 86.723746 
L 616.619641 79.611533 
L 619.213503 81.400612 
L 621.808016 73.288291 
L 624.402529 90.037343 
L 626.997042 74.34175 
L 629.591555 86.477674 
L 632.185417 84.317477 
L 634.77993 80.701242 
L 637.374443 81.927653 
L 639.968956 78.478741 
L 642.562818 87.845721 
L 645.157331 67.970858 
L 647.751844 82.779074 
L 650.346357 84.830888 
L 652.94087 88.528136 
L 655.534732 87.83041 
L 658.129245 82.88742 
L 660.723758 76.401019 
L 663.318271 80.472199 
L 665.912133 81.959298 
L 668.506646 75.802211 
L 671.101159 86.275672 
L 673.695672 82.249 
L 676.289534 87.335088 
L 678.884047 85.973217 
L 681.47856 78.159769 
L 684.073073 80.948227 
L 686.667586 84.282471 
L 689.261448 67.100984 
L 691.855961 81.489263 
L 694.450474 81.698829 
L 697.044987 78.151803 
L 699.638849 87.888 
L 702.233362 92.624237 
L 704.827875 86.025581 
L 707.422388 74.519781 
L 710.016901 82.995692 
L 712.610764 84.491343 
L 715.205277 80.913147 
L 717.799789 70.688388 
L 720.394302 86.345978 
L 722.988165 78.587855 
L 725.582678 81.333887 
L 728.177191 82.138096 
L 730.771704 88.715449 
L 733.366217 83.291753 
L 735.960079 82.348467 
L 738.554592 75.048174 
L 741.149105 77.520254 
L 743.743618 84.011843 
L 746.33748 87.936125 
L 748.931993 83.303593 
L 751.526506 81.07108 
L 754.121019 86.185122 
L 756.714881 72.153599 
L 759.309394 84.691408 
L 761.903907 84.83593 
L 764.49842 78.848799 
L 767.092933 83.640982 
L 769.686795 80.841233 
L 772.281308 89.436964 
L 774.875821 82.780535 
L 777.470334 83.34028 
L 780.064196 90.719101 
L 782.658709 78.973881 
L 785.253222 76.674972 
L 787.847735 93.220414 
L 790.442248 91.408862 
L 793.03611 83.052734 
L 795.630623 77.570243 
L 798.225136 89.336072 
L 800.819649 87.807096 
L 803.413511 82.308819 
L 806.008024 90.969558 
L 808.602537 77.0857 
L 811.19705 82.846237 
L 813.790912 84.612734 
L 816.385425 80.45813 
L 818.979938 72.580917 
L 821.574451 86.654682 
L 824.168964 90.080024 
L 826.762827 86.610174 
L 829.35734 87.225938 
L 831.951852 81.42853 
L 834.546365 89.119015 
L 837.140228 89.910654 
L 839.734741 87.977965 
L 842.329254 78.668539 
L 844.923767 85.752688 
L 847.51828 92.091533 
L 850.112142 78.631668 
L 852.706655 92.172728 
L 855.301168 90.018853 
L 857.895681 86.059199 
L 860.489543 79.022701 
L 863.084056 83.073855 
L 865.678569 90.687127 
L 868.273082 84.91497 
L 870.866944 91.193229 
L 873.461457 82.938066 
L 876.05597 86.489879 
L 878.650483 88.623912 
L 881.244996 73.65389 
L 883.838858 94.277638 
L 886.433371 94.173384 
L 889.027884 83.950124 
L 891.622397 80.83334 
L 894.216259 86.669408 
L 896.810772 87.482753 
L 899.405285 83.116828 
L 901.999798 89.849848 
L 904.594311 88.610245 
L 907.188173 85.058213 
L 909.782686 90.907729 
L 912.377199 81.039471 
L 914.971712 81.346312 
L 917.565574 79.063919 
L 920.160087 80.63733 
L 922.7546 83.535888 
L 925.349113 91.812903 
L 927.943626 79.435512 
L 930.537488 85.146169 
L 933.132001 90.231964 
L 935.726514 89.787106 
L 938.321027 81.864765 
L 940.91489 84.815029 
L 943.509403 87.035483 
L 946.103915 88.116531 
L 948.698428 67.118085 
L 951.292291 87.35672 
L 953.886804 91.954356 
L 956.481317 81.737015 
L 959.07583 79.457839 
L 961.670343 88.133633 
L 964.264205 89.243184 
L 966.858718 82.754444 
L 969.453231 89.507453 
L 972.047744 83.182749 
L 974.641606 84.753054 
L 977.236119 87.407806 
L 979.830632 83.743993 
L 982.425145 74.678518 
L 985.019658 87.379376 
L 987.61352 87.861836 
L 990.208033 63.367486 
L 992.802546 82.515681 
L 995.397059 88.025689 
L 997.990921 87.6997 
L 1000.585434 85.399001 
L 1003.179947 80.059278 
L 1005.77446 84.835163 
L 1008.368322 70.109751 
L 1010.962835 81.878358 
L 1013.557348 83.449978 
L 1016.151861 85.154062 
L 1018.746374 72.786208 
L 1021.340236 77.13642 
L 1023.934749 85.05814 
L 1026.529262 88.396294 
L 1029.123775 79.697223 
L 1031.717637 81.789891 
L 1034.31215 82.174455 
L 1036.906663 75.709066 
L 1039.501176 78.488571 
L 1042.095689 83.596693 
L 1044.689551 64.768055 
L 1047.284064 79.808858 
L 1049.878577 86.182564 
L 1052.47309 83.901122 
L 1055.066953 75.090233 
L 1057.661466 70.822971 
L 1060.255978 79.001214 
L 1062.850491 74.588662 
L 1065.444354 79.288505 
L 1068.038867 75.583144 
L 1070.63338 72.967601 
L 1073.227893 71.582563 
L 1075.822406 74.271006 
L 1078.416268 70.210131 
L 1081.010781 71.357064 
L 1083.605294 71.086364 
L 1086.199807 76.278422 
L 1088.793669 71.511782 
L 1091.388182 74.994311 
L 1091.388182 74.994311 
" clip-path="url(#p46df425738)" style="fill: none; stroke: #ff7f0e; stroke-width: 1.5; stroke-linecap: square"/>
   </g>
   <g id="line2d_29">
    <path d="M 95.151818 524.558182 
L 380.531976 519.629953 
L 767.092933 513.282748 
L 1044.689551 508.911299 
L 1091.388182 508.195862 
L 1091.388182 508.195862 
" clip-path="url(#p46df425738)" style="fill: none; stroke-dasharray: 9.6,2.4,1.5,2.4; stroke-dashoffset: 0; stroke: #2ca02c; stroke-width: 1.5"/>
   </g>
   <g id="line2d_30">
    <path d="M 95.151818 380.870528 
L 380.531976 375.942299 
L 767.092933 369.595094 
L 1044.689551 365.223645 
L 1091.388182 364.508208 
L 1091.388182 364.508208 
" clip-path="url(#p46df425738)" style="fill: none; stroke-dasharray: 9.6,2.4,1.5,2.4; stroke-dashoffset: 0; stroke: #d62728; stroke-width: 1.5"/>
   </g>
   <g id="line2d_31">
    <path d="M 95.151818 69.192007 
L 97.746331 68.56477 
L 100.340844 69.946885 
L 102.935357 69.016315 
L 105.529219 68.786358 
L 108.123732 67.887434 
L 110.718245 68.214591 
L 113.312758 68.658609 
L 115.90662 67.362695 
L 118.501133 68.115307 
L 121.095646 67.590021 
L 123.690159 68.908407 
L 126.284672 69.976374 
L 128.878534 70.918089 
L 131.473047 69.63756 
L 134.06756 69.639862 
L 136.662073 71.413631 
L 141.850449 72.75153 
L 144.444962 73.752224 
L 147.039474 72.989563 
L 149.633987 73.127069 
L 152.22785 74.717252 
L 154.822363 75.349496 
L 160.011389 74.716924 
L 162.605251 75.519927 
L 170.38879 73.550185 
L 172.982652 72.106387 
L 175.577165 70.874824 
L 178.171678 71.859877 
L 180.766191 70.577338 
L 185.954566 68.521651 
L 188.549079 69.997934 
L 191.143592 70.186269 
L 193.738105 71.705306 
L 196.331967 72.817927 
L 198.92648 73.192442 
L 201.520993 74.651295 
L 206.710019 74.562243 
L 209.303881 74.790299 
L 211.898394 75.648809 
L 214.492907 74.692587 
L 217.08742 73.406978 
L 219.681282 72.522378 
L 222.275795 72.374238 
L 224.870308 71.317088 
L 227.464821 71.139057 
L 230.058683 70.233116 
L 232.653196 70.009042 
L 235.247709 69.49808 
L 237.842222 70.266296 
L 240.436735 70.297027 
L 243.030597 70.094952 
L 245.62511 70.099629 
L 248.219623 70.73951 
L 250.814136 70.978821 
L 253.407999 70.17136 
L 256.002512 70.818294 
L 258.597025 69.990918 
L 261.191537 69.71364 
L 263.78605 69.636792 
L 266.379913 70.257599 
L 268.974426 68.689267 
L 271.568939 68.415899 
L 276.757314 68.270682 
L 279.351827 69.044087 
L 281.94634 67.893171 
L 284.540853 67.18598 
L 287.134715 66.821915 
L 289.729228 67.380272 
L 294.918254 65.338068 
L 297.512767 65.790161 
L 300.106629 64.992347 
L 302.701142 65.305583 
L 305.295655 64.432273 
L 307.890168 64.60464 
L 310.48403 65.928837 
L 313.078543 67.084029 
L 315.673056 68.417288 
L 318.267569 68.341573 
L 320.862082 68.433877 
L 323.455944 68.204725 
L 326.050457 69.501588 
L 328.64497 68.299185 
L 331.239483 67.598499 
L 333.833345 67.100472 
L 336.427858 66.815155 
L 339.022371 66.335655 
L 341.616884 67.139718 
L 344.211397 68.247588 
L 346.805259 67.131387 
L 349.399772 67.58728 
L 354.588798 65.843074 
L 357.18266 66.351588 
L 359.777173 65.768602 
L 362.371686 65.443381 
L 364.966199 64.36204 
L 367.560062 65.750587 
L 370.154575 66.350272 
L 372.749088 67.311756 
L 375.3436 68.409029 
L 377.938113 67.80854 
L 380.531976 68.956094 
L 383.126489 68.341719 
L 385.721002 69.638437 
L 388.315515 69.266223 
L 390.909377 69.325786 
L 393.50389 69.791035 
L 396.098403 69.76308 
L 398.692916 69.389953 
L 401.287429 68.049313 
L 403.881291 68.554684 
L 406.475804 67.508862 
L 409.070317 68.168293 
L 411.66483 68.000493 
L 414.258692 66.627185 
L 416.853205 66.982954 
L 427.230606 70.759608 
L 429.825119 69.094624 
L 432.419632 68.674833 
L 435.014145 69.405228 
L 437.608007 67.149584 
L 440.20252 65.721463 
L 442.797033 65.521434 
L 445.391546 63.543799 
L 447.985408 64.108332 
L 450.579921 64.377461 
L 455.768947 65.432309 
L 458.36346 66.809601 
L 463.551835 66.00488 
L 466.146348 66.24569 
L 468.740861 64.156165 
L 471.334723 64.844463 
L 476.523749 63.614873 
L 479.118262 65.236555 
L 481.712125 65.370882 
L 484.306638 65.953393 
L 486.901151 67.254203 
L 489.495663 68.248502 
L 492.090176 67.855423 
L 494.684039 68.206552 
L 497.278552 67.823705 
L 499.873065 65.888532 
L 502.467578 66.164787 
L 505.06144 65.795168 
L 507.655953 65.891272 
L 510.250466 65.839968 
L 512.844979 65.985952 
L 515.439492 64.621998 
L 518.033354 63.57201 
L 520.627867 64.12927 
L 523.22238 63.017051 
L 525.816893 61.242004 
L 528.410755 60.089187 
L 531.005268 59.802445 
L 533.599781 59.64612 
L 536.194294 60.143817 
L 538.788807 61.338656 
L 541.382669 59.680579 
L 543.977182 60.413385 
L 546.571695 61.801201 
L 549.166208 61.611696 
L 551.76007 61.042779 
L 554.354583 60.242882 
L 556.949096 59.847976 
L 559.543609 59.091235 
L 562.137471 60.307122 
L 564.731984 60.823711 
L 567.326497 60.496152 
L 569.92101 60.320679 
L 572.515523 61.205937 
L 577.703898 63.590573 
L 580.298411 64.378557 
L 582.892924 64.700855 
L 585.486786 64.665007 
L 588.081299 64.195045 
L 590.675812 65.254899 
L 593.270325 64.417949 
L 598.458701 63.187336 
L 601.053214 62.007003 
L 603.647726 61.771748 
L 606.242239 62.376001 
L 608.836102 62.773501 
L 611.430615 62.134899 
L 614.025128 61.371434 
L 616.619641 62.192854 
L 619.213503 61.383749 
L 621.808016 62.685874 
L 624.402529 62.938523 
L 626.997042 62.185692 
L 629.591555 62.475212 
L 632.185417 62.109978 
L 634.77993 63.929679 
L 637.374443 61.171332 
L 639.968956 62.226034 
L 642.562818 62.020158 
L 645.157331 62.546504 
L 647.751844 63.437646 
L 650.346357 63.557612 
L 652.94087 63.297911 
L 655.534732 62.37622 
L 658.129245 64.124775 
L 660.723758 63.252636 
L 663.318271 63.433261 
L 665.912133 62.648383 
L 668.506646 62.586445 
L 671.101159 62.972142 
L 673.695672 63.192013 
L 676.289534 63.251539 
L 678.884047 63.541899 
L 681.47856 62.454273 
L 684.073073 61.85594 
L 686.667586 61.787169 
L 689.261448 60.639249 
L 691.855961 60.878633 
L 694.450474 62.686678 
L 697.044987 63.321334 
L 699.638849 62.100989 
L 702.233362 64.087868 
L 704.827875 64.463115 
L 707.422388 64.364891 
L 710.016901 63.431982 
L 712.610764 63.239225 
L 715.205277 61.484677 
L 717.799789 60.89822 
L 720.394302 61.850495 
L 722.988165 62.56547 
L 725.582678 62.415539 
L 728.177191 62.594959 
L 730.771704 63.139941 
L 733.366217 62.036675 
L 735.960079 62.714706 
L 738.554592 63.539999 
L 741.149105 63.685654 
L 743.743618 62.73009 
L 746.33748 63.091779 
L 748.931993 61.817425 
L 751.526506 63.022862 
L 754.121019 63.93728 
L 759.309394 62.755011 
L 761.903907 62.447257 
L 764.49842 63.49297 
L 767.092933 63.067369 
L 769.686795 64.465746 
L 772.281308 65.219161 
L 774.875821 64.486428 
L 777.470334 64.214704 
L 780.064196 65.412138 
L 782.658709 66.733082 
L 785.253222 65.935086 
L 787.847735 65.283767 
L 790.442248 66.033237 
L 793.03611 65.669245 
L 795.630623 66.086112 
L 798.225136 67.872926 
L 800.819649 65.856083 
L 803.413511 64.785777 
L 806.008024 64.980764 
L 808.602537 65.341759 
L 811.19705 63.247374 
L 813.790912 63.103326 
L 816.385425 64.074713 
L 818.979938 63.529804 
L 821.574451 64.797325 
L 824.168964 64.620098 
L 826.762827 65.183387 
L 829.35734 66.364962 
L 831.951852 68.289574 
L 834.546365 67.291293 
L 837.140228 66.750403 
L 839.734741 67.435559 
L 842.329254 66.361271 
L 844.923767 67.704287 
L 847.51828 67.816762 
L 850.112142 67.335362 
L 852.706655 66.215945 
L 857.895681 67.383378 
L 860.489543 66.486353 
L 863.084056 68.056548 
L 865.678569 66.902197 
L 868.273082 66.461066 
L 870.866944 66.781683 
L 873.461457 66.110559 
L 876.05597 67.511054 
L 878.650483 67.94685 
L 881.244996 67.826226 
L 883.838858 66.531226 
L 886.433371 66.997644 
L 889.027884 67.12174 
L 891.622397 66.433368 
L 894.216259 68.457849 
L 896.810772 67.749452 
L 899.405285 66.610047 
L 901.999798 67.479738 
L 904.594311 67.5055 
L 907.188173 66.840113 
L 909.782686 65.78775 
L 912.377199 65.47784 
L 914.971712 64.688577 
L 917.565574 65.088927 
L 922.7546 63.665922 
L 927.943626 65.870042 
L 930.537488 66.220184 
L 935.726514 67.179841 
L 938.321027 66.717772 
L 940.91489 65.178089 
L 946.103915 65.66972 
L 948.698428 64.663436 
L 951.292291 64.362588 
L 953.886804 64.777446 
L 956.481317 65.053372 
L 959.07583 64.383125 
L 961.670343 67.181778 
L 964.264205 66.660036 
L 966.858718 65.759868 
L 969.453231 66.46874 
L 972.047744 67.004477 
L 974.641606 65.322574 
L 977.236119 65.089621 
L 979.830632 65.728041 
L 982.425145 62.460558 
L 985.019658 62.37717 
L 987.61352 62.786254 
L 990.208033 62.822759 
L 992.802546 63.029622 
L 995.397059 63.702208 
L 997.990921 63.384185 
L 1000.585434 61.165157 
L 1003.179947 63.479048 
L 1005.77446 63.595835 
L 1008.368322 63.23685 
L 1010.962835 61.372677 
L 1013.557348 60.339863 
L 1016.151861 60.964726 
L 1018.746374 61.40984 
L 1021.340236 62.60826 
L 1023.934749 62.597224 
L 1026.529262 62.437793 
L 1029.123775 61.257169 
L 1034.31215 62.777521 
L 1036.906663 60.241237 
L 1039.501176 59.16779 
L 1042.095689 59.978503 
L 1044.689551 60.242407 
L 1047.284064 59.356856 
L 1049.878577 58.746099 
L 1052.47309 58.810193 
L 1055.066953 57.684162 
L 1057.661466 59.499222 
L 1060.255978 58.971013 
L 1065.444354 55.779318 
L 1070.63338 55.6003 
L 1073.227893 54.644809 
L 1081.010781 53.321818 
L 1086.199807 53.729258 
L 1088.793669 53.486694 
L 1091.388182 53.959287 
L 1091.388182 53.959287 
" clip-path="url(#p46df425738)" style="fill: none; stroke: #ff0000; stroke-width: 1.5; stroke-linecap: square"/>
   </g>
   <g id="patch_3">
    <path d="M 45.34 548.12 
L 45.34 29.76 
" style="fill: none; stroke: #000000; stroke-width: 0.8; stroke-linejoin: miter; stroke-linecap: square"/>
   </g>
   <g id="patch_4">
    <path d="M 1141.2 548.12 
L 1141.2 29.76 
" style="fill: none; stroke: #000000; stroke-width: 0.8; stroke-linejoin: miter; stroke-linecap: square"/>
   </g>
   <g id="patch_5">
    <path d="M 45.34 548.12 
L 1141.2 548.12 
" style="fill: none; stroke: #000000; stroke-width: 0.8; stroke-linejoin: miter; stroke-linecap: square"/>
   </g>
   <g id="patch_6">
    <path d="M 45.34 29.76 
L 1141.2 29.76 
" style="fill: none; stroke: #000000; stroke-width: 0.8; stroke-linejoin: miter; stroke-linecap: square"/>
   </g>
   <g id="text_14">
    <!-- ALS Bakkie CAA567123 100kHz EIRP with adjusted threshold levels for S4 -->
    <g transform="translate(297.24625 23.76) scale(0.16 -0.16)">
     <defs>
      <path id="DejaVuSans-41" d="M 2188 4044 
L 1331 1722 
L 3047 1722 
L 2188 4044 
z
M 1831 4666 
L 2547 4666 
L 4325 0 
L 3669 0 
L 3244 1197 
L 1141 1197 
L 716 0 
L 50 0 
L 1831 4666 
z
" transform="scale(0.015625)"/>
      <path id="DejaVuSans-4c" d="M 628 4666 
L 1259 4666 
L 1259 531 
L 3531 531 
L 3531 0 
L 628 0 
L 628 4666 
z
" transform="scale(0.015625)"/>
      <path id="DejaVuSans-53" d="M 3425 4513 
L 3425 3897 
Q 3066 4069 2747 4153 
Q 2428 4238 2131 4238 
Q 1616 4238 1336 4038 
Q 1056 3838 1056 3469 
Q 1056 3159 1242 3001 
Q 1428 2844 1947 2747 
L 2328 2669 
Q 3034 2534 3370 2195 
Q 3706 1856 3706 1288 
Q 3706 609 3251 259 
Q 2797 -91 1919 -91 
Q 1588 -91 1214 -16 
Q 841 59 441 206 
L 441 856 
Q 825 641 1194 531 
Q 1563 422 1919 422 
Q 2459 422 2753 634 
Q 3047 847 3047 1241 
Q 3047 1584 2836 1778 
Q 2625 1972 2144 2069 
L 1759 2144 
Q 1053 2284 737 2584 
Q 422 2884 422 3419 
Q 422 4038 858 4394 
Q 1294 4750 2059 4750 
Q 2388 4750 2728 4690 
Q 3069 4631 3425 4513 
z
" transform="scale(0.015625)"/>
      <path id="DejaVuSans-20" transform="scale(0.015625)"/>
      <path id="DejaVuSans-42" d="M 1259 2228 
L 1259 519 
L 2272 519 
Q 2781 519 3026 730 
Q 3272 941 3272 1375 
Q 3272 1813 3026 2020 
Q 2781 2228 2272 2228 
L 1259 2228 
z
M 1259 4147 
L 1259 2741 
L 2194 2741 
Q 2656 2741 2882 2914 
Q 3109 3088 3109 3444 
Q 3109 3797 2882 3972 
Q 2656 4147 2194 4147 
L 1259 4147 
z
M 628 4666 
L 2241 4666 
Q 2963 4666 3353 4366 
Q 3744 4066 3744 3513 
Q 3744 3084 3544 2831 
Q 3344 2578 2956 2516 
Q 3422 2416 3680 2098 
Q 3938 1781 3938 1306 
Q 3938 681 3513 340 
Q 3088 0 2303 0 
L 628 0 
L 628 4666 
z
" transform="scale(0.015625)"/>
      <path id="DejaVuSans-61" d="M 2194 1759 
Q 1497 1759 1228 1600 
Q 959 1441 959 1056 
Q 959 750 1161 570 
Q 1363 391 1709 391 
Q 2188 391 2477 730 
Q 2766 1069 2766 1631 
L 2766 1759 
L 2194 1759 
z
M 3341 1997 
L 3341 0 
L 2766 0 
L 2766 531 
Q 2569 213 2275 61 
Q 1981 -91 1556 -91 
Q 1019 -91 701 211 
Q 384 513 384 1019 
Q 384 1609 779 1909 
Q 1175 2209 1959 2209 
L 2766 2209 
L 2766 2266 
Q 2766 2663 2505 2880 
Q 2244 3097 1772 3097 
Q 1472 3097 1187 3025 
Q 903 2953 641 2809 
L 641 3341 
Q 956 3463 1253 3523 
Q 1550 3584 1831 3584 
Q 2591 3584 2966 3190 
Q 3341 2797 3341 1997 
z
" transform="scale(0.015625)"/>
      <path id="DejaVuSans-6b" d="M 581 4863 
L 1159 4863 
L 1159 1991 
L 2875 3500 
L 3609 3500 
L 1753 1863 
L 3688 0 
L 2938 0 
L 1159 1709 
L 1159 0 
L 581 0 
L 581 4863 
z
" transform="scale(0.015625)"/>
      <path id="DejaVuSans-69" d="M 603 3500 
L 1178 3500 
L 1178 0 
L 603 0 
L 603 3500 
z
M 603 4863 
L 1178 4863 
L 1178 4134 
L 603 4134 
L 603 4863 
z
" transform="scale(0.015625)"/>
      <path id="DejaVuSans-65" d="M 3597 1894 
L 3597 1613 
L 953 1613 
Q 991 1019 1311 708 
Q 1631 397 2203 397 
Q 2534 397 2845 478 
Q 3156 559 3463 722 
L 3463 178 
Q 3153 47 2828 -22 
Q 2503 -91 2169 -91 
Q 1331 -91 842 396 
Q 353 884 353 1716 
Q 353 2575 817 3079 
Q 1281 3584 2069 3584 
Q 2775 3584 3186 3129 
Q 3597 2675 3597 1894 
z
M 3022 2063 
Q 3016 2534 2758 2815 
Q 2500 3097 2075 3097 
Q 1594 3097 1305 2825 
Q 1016 2553 972 2059 
L 3022 2063 
z
" transform="scale(0.015625)"/>
      <path id="DejaVuSans-43" d="M 4122 4306 
L 4122 3641 
Q 3803 3938 3442 4084 
Q 3081 4231 2675 4231 
Q 1875 4231 1450 3742 
Q 1025 3253 1025 2328 
Q 1025 1406 1450 917 
Q 1875 428 2675 428 
Q 3081 428 3442 575 
Q 3803 722 4122 1019 
L 4122 359 
Q 3791 134 3420 21 
Q 3050 -91 2638 -91 
Q 1578 -91 968 557 
Q 359 1206 359 2328 
Q 359 3453 968 4101 
Q 1578 4750 2638 4750 
Q 3056 4750 3426 4639 
Q 3797 4528 4122 4306 
z
" transform="scale(0.015625)"/>
      <path id="DejaVuSans-48" d="M 628 4666 
L 1259 4666 
L 1259 2753 
L 3553 2753 
L 3553 4666 
L 4184 4666 
L 4184 0 
L 3553 0 
L 3553 2222 
L 1259 2222 
L 1259 0 
L 628 0 
L 628 4666 
z
" transform="scale(0.015625)"/>
      <path id="DejaVuSans-7a" d="M 353 3500 
L 3084 3500 
L 3084 2975 
L 922 459 
L 3084 459 
L 3084 0 
L 275 0 
L 275 525 
L 2438 3041 
L 353 3041 
L 353 3500 
z
" transform="scale(0.015625)"/>
      <path id="DejaVuSans-45" d="M 628 4666 
L 3578 4666 
L 3578 4134 
L 1259 4134 
L 1259 2753 
L 3481 2753 
L 3481 2222 
L 1259 2222 
L 1259 531 
L 3634 531 
L 3634 0 
L 628 0 
L 628 4666 
z
" transform="scale(0.015625)"/>
      <path id="DejaVuSans-49" d="M 628 4666 
L 1259 4666 
L 1259 0 
L 628 0 
L 628 4666 
z
" transform="scale(0.015625)"/>
      <path id="DejaVuSans-52" d="M 2841 2188 
Q 3044 2119 3236 1894 
Q 3428 1669 3622 1275 
L 4263 0 
L 3584 0 
L 2988 1197 
Q 2756 1666 2539 1819 
Q 2322 1972 1947 1972 
L 1259 1972 
L 1259 0 
L 628 0 
L 628 4666 
L 2053 4666 
Q 2853 4666 3247 4331 
Q 3641 3997 3641 3322 
Q 3641 2881 3436 2590 
Q 3231 2300 2841 2188 
z
M 1259 4147 
L 1259 2491 
L 2053 2491 
Q 2509 2491 2742 2702 
Q 2975 2913 2975 3322 
Q 2975 3731 2742 3939 
Q 2509 4147 2053 4147 
L 1259 4147 
z
" transform="scale(0.015625)"/>
      <path id="DejaVuSans-50" d="M 1259 4147 
L 1259 2394 
L 2053 2394 
Q 2494 2394 2734 2622 
Q 2975 2850 2975 3272 
Q 2975 3691 2734 3919 
Q 2494 4147 2053 4147 
L 1259 4147 
z
M 628 4666 
L 2053 4666 
Q 2838 4666 3239 4311 
Q 3641 3956 3641 3272 
Q 3641 2581 3239 2228 
Q 2838 1875 2053 1875 
L 1259 1875 
L 1259 0 
L 628 0 
L 628 4666 
z
" transform="scale(0.015625)"/>
      <path id="DejaVuSans-77" d="M 269 3500 
L 844 3500 
L 1563 769 
L 2278 3500 
L 2956 3500 
L 3675 769 
L 4391 3500 
L 4966 3500 
L 4050 0 
L 3372 0 
L 2619 2869 
L 1863 0 
L 1184 0 
L 269 3500 
z
" transform="scale(0.015625)"/>
      <path id="DejaVuSans-74" d="M 1172 4494 
L 1172 3500 
L 2356 3500 
L 2356 3053 
L 1172 3053 
L 1172 1153 
Q 1172 725 1289 603 
Q 1406 481 1766 481 
L 2356 481 
L 2356 0 
L 1766 0 
Q 1100 0 847 248 
Q 594 497 594 1153 
L 594 3053 
L 172 3053 
L 172 3500 
L 594 3500 
L 594 4494 
L 1172 4494 
z
" transform="scale(0.015625)"/>
      <path id="DejaVuSans-68" d="M 3513 2113 
L 3513 0 
L 2938 0 
L 2938 2094 
Q 2938 2591 2744 2837 
Q 2550 3084 2163 3084 
Q 1697 3084 1428 2787 
Q 1159 2491 1159 1978 
L 1159 0 
L 581 0 
L 581 4863 
L 1159 4863 
L 1159 2956 
Q 1366 3272 1645 3428 
Q 1925 3584 2291 3584 
Q 2894 3584 3203 3211 
Q 3513 2838 3513 2113 
z
" transform="scale(0.015625)"/>
      <path id="DejaVuSans-64" d="M 2906 2969 
L 2906 4863 
L 3481 4863 
L 3481 0 
L 2906 0 
L 2906 525 
Q 2725 213 2448 61 
Q 2172 -91 1784 -91 
Q 1150 -91 751 415 
Q 353 922 353 1747 
Q 353 2572 751 3078 
Q 1150 3584 1784 3584 
Q 2172 3584 2448 3432 
Q 2725 3281 2906 2969 
z
M 947 1747 
Q 947 1113 1208 752 
Q 1469 391 1925 391 
Q 2381 391 2643 752 
Q 2906 1113 2906 1747 
Q 2906 2381 2643 2742 
Q 2381 3103 1925 3103 
Q 1469 3103 1208 2742 
Q 947 2381 947 1747 
z
" transform="scale(0.015625)"/>
      <path id="DejaVuSans-6a" d="M 603 3500 
L 1178 3500 
L 1178 -63 
Q 1178 -731 923 -1031 
Q 669 -1331 103 -1331 
L -116 -1331 
L -116 -844 
L 38 -844 
Q 366 -844 484 -692 
Q 603 -541 603 -63 
L 603 3500 
z
M 603 4863 
L 1178 4863 
L 1178 4134 
L 603 4134 
L 603 4863 
z
" transform="scale(0.015625)"/>
      <path id="DejaVuSans-75" d="M 544 1381 
L 544 3500 
L 1119 3500 
L 1119 1403 
Q 1119 906 1312 657 
Q 1506 409 1894 409 
Q 2359 409 2629 706 
Q 2900 1003 2900 1516 
L 2900 3500 
L 3475 3500 
L 3475 0 
L 2900 0 
L 2900 538 
Q 2691 219 2414 64 
Q 2138 -91 1772 -91 
Q 1169 -91 856 284 
Q 544 659 544 1381 
z
M 1991 3584 
L 1991 3584 
z
" transform="scale(0.015625)"/>
      <path id="DejaVuSans-73" d="M 2834 3397 
L 2834 2853 
Q 2591 2978 2328 3040 
Q 2066 3103 1784 3103 
Q 1356 3103 1142 2972 
Q 928 2841 928 2578 
Q 928 2378 1081 2264 
Q 1234 2150 1697 2047 
L 1894 2003 
Q 2506 1872 2764 1633 
Q 3022 1394 3022 966 
Q 3022 478 2636 193 
Q 2250 -91 1575 -91 
Q 1294 -91 989 -36 
Q 684 19 347 128 
L 347 722 
Q 666 556 975 473 
Q 1284 391 1588 391 
Q 1994 391 2212 530 
Q 2431 669 2431 922 
Q 2431 1156 2273 1281 
Q 2116 1406 1581 1522 
L 1381 1569 
Q 847 1681 609 1914 
Q 372 2147 372 2553 
Q 372 3047 722 3315 
Q 1072 3584 1716 3584 
Q 2034 3584 2315 3537 
Q 2597 3491 2834 3397 
z
" transform="scale(0.015625)"/>
      <path id="DejaVuSans-72" d="M 2631 2963 
Q 2534 3019 2420 3045 
Q 2306 3072 2169 3072 
Q 1681 3072 1420 2755 
Q 1159 2438 1159 1844 
L 1159 0 
L 581 0 
L 581 3500 
L 1159 3500 
L 1159 2956 
Q 1341 3275 1631 3429 
Q 1922 3584 2338 3584 
Q 2397 3584 2469 3576 
Q 2541 3569 2628 3553 
L 2631 2963 
z
" transform="scale(0.015625)"/>
      <path id="DejaVuSans-6f" d="M 1959 3097 
Q 1497 3097 1228 2736 
Q 959 2375 959 1747 
Q 959 1119 1226 758 
Q 1494 397 1959 397 
Q 2419 397 2687 759 
Q 2956 1122 2956 1747 
Q 2956 2369 2687 2733 
Q 2419 3097 1959 3097 
z
M 1959 3584 
Q 2709 3584 3137 3096 
Q 3566 2609 3566 1747 
Q 3566 888 3137 398 
Q 2709 -91 1959 -91 
Q 1206 -91 779 398 
Q 353 888 353 1747 
Q 353 2609 779 3096 
Q 1206 3584 1959 3584 
z
" transform="scale(0.015625)"/>
      <path id="DejaVuSans-6c" d="M 603 4863 
L 1178 4863 
L 1178 0 
L 603 0 
L 603 4863 
z
" transform="scale(0.015625)"/>
      <path id="DejaVuSans-76" d="M 191 3500 
L 800 3500 
L 1894 563 
L 2988 3500 
L 3597 3500 
L 2284 0 
L 1503 0 
L 191 3500 
z
" transform="scale(0.015625)"/>
      <path id="DejaVuSans-66" d="M 2375 4863 
L 2375 4384 
L 1825 4384 
Q 1516 4384 1395 4259 
Q 1275 4134 1275 3809 
L 1275 3500 
L 2222 3500 
L 2222 3053 
L 1275 3053 
L 1275 0 
L 697 0 
L 697 3053 
L 147 3053 
L 147 3500 
L 697 3500 
L 697 3744 
Q 697 4328 969 4595 
Q 1241 4863 1831 4863 
L 2375 4863 
z
" transform="scale(0.015625)"/>
      <path id="DejaVuSans-34" d="M 2419 4116 
L 825 1625 
L 2419 1625 
L 2419 4116 
z
M 2253 4666 
L 3047 4666 
L 3047 1625 
L 3713 1625 
L 3713 1100 
L 3047 1100 
L 3047 0 
L 2419 0 
L 2419 1100 
L 313 1100 
L 313 1709 
L 2253 4666 
z
" transform="scale(0.015625)"/>
     </defs>
     <use xlink:href="#DejaVuSans-41"/>
     <use xlink:href="#DejaVuSans-4c" x="68.408203"/>
     <use xlink:href="#DejaVuSans-53" x="124.121094"/>
     <use xlink:href="#DejaVuSans-20" x="187.597656"/>
     <use xlink:href="#DejaVuSans-42" x="219.384766"/>
     <use xlink:href="#DejaVuSans-61" x="287.988281"/>
     <use xlink:href="#DejaVuSans-6b" x="349.267578"/>
     <use xlink:href="#DejaVuSans-6b" x="407.177734"/>
     <use xlink:href="#DejaVuSans-69" x="465.087891"/>
     <use xlink:href="#DejaVuSans-65" x="492.871094"/>
     <use xlink:href="#DejaVuSans-20" x="554.394531"/>
     <use xlink:href="#DejaVuSans-43" x="586.181641"/>
     <use xlink:href="#DejaVuSans-41" x="656.005859"/>
     <use xlink:href="#DejaVuSans-41" x="727.164062"/>
     <use xlink:href="#DejaVuSans-35" x="795.572266"/>
     <use xlink:href="#DejaVuSans-36" x="859.195312"/>
     <use xlink:href="#DejaVuSans-37" x="922.818359"/>
     <use xlink:href="#DejaVuSans-31" x="986.441406"/>
     <use xlink:href="#DejaVuSans-32" x="1050.064453"/>
     <use xlink:href="#DejaVuSans-33" x="1113.6875"/>
     <use xlink:href="#DejaVuSans-20" x="1177.310547"/>
     <use xlink:href="#DejaVuSans-31" x="1209.097656"/>
     <use xlink:href="#DejaVuSans-30" x="1272.720703"/>
     <use xlink:href="#DejaVuSans-30" x="1336.34375"/>
     <use xlink:href="#DejaVuSans-6b" x="1399.966797"/>
     <use xlink:href="#DejaVuSans-48" x="1457.876953"/>
     <use xlink:href="#DejaVuSans-7a" x="1533.072266"/>
     <use xlink:href="#DejaVuSans-20" x="1585.5625"/>
     <use xlink:href="#DejaVuSans-45" x="1617.349609"/>
     <use xlink:href="#DejaVuSans-49" x="1680.533203"/>
     <use xlink:href="#DejaVuSans-52" x="1710.025391"/>
     <use xlink:href="#DejaVuSans-50" x="1779.507812"/>
     <use xlink:href="#DejaVuSans-20" x="1839.810547"/>
     <use xlink:href="#DejaVuSans-77" x="1871.597656"/>
     <use xlink:href="#DejaVuSans-69" x="1953.384766"/>
     <use xlink:href="#DejaVuSans-74" x="1981.167969"/>
     <use xlink:href="#DejaVuSans-68" x="2020.376953"/>
     <use xlink:href="#DejaVuSans-20" x="2083.755859"/>
     <use xlink:href="#DejaVuSans-61" x="2115.542969"/>
     <use xlink:href="#DejaVuSans-64" x="2176.822266"/>
     <use xlink:href="#DejaVuSans-6a" x="2240.298828"/>
     <use xlink:href="#DejaVuSans-75" x="2268.082031"/>
     <use xlink:href="#DejaVuSans-73" x="2331.460938"/>
     <use xlink:href="#DejaVuSans-74" x="2383.560547"/>
     <use xlink:href="#DejaVuSans-65" x="2422.769531"/>
     <use xlink:href="#DejaVuSans-64" x="2484.292969"/>
     <use xlink:href="#DejaVuSans-20" x="2547.769531"/>
     <use xlink:href="#DejaVuSans-74" x="2579.556641"/>
     <use xlink:href="#DejaVuSans-68" x="2618.765625"/>
     <use xlink:href="#DejaVuSans-72" x="2682.144531"/>
     <use xlink:href="#DejaVuSans-65" x="2721.007812"/>
     <use xlink:href="#DejaVuSans-73" x="2782.53125"/>
     <use xlink:href="#DejaVuSans-68" x="2834.630859"/>
     <use xlink:href="#DejaVuSans-6f" x="2898.009766"/>
     <use xlink:href="#DejaVuSans-6c" x="2959.191406"/>
     <use xlink:href="#DejaVuSans-64" x="2986.974609"/>
     <use xlink:href="#DejaVuSans-20" x="3050.451172"/>
     <use xlink:href="#DejaVuSans-6c" x="3082.238281"/>
     <use xlink:href="#DejaVuSans-65" x="3110.021484"/>
     <use xlink:href="#DejaVuSans-76" x="3171.544922"/>
     <use xlink:href="#DejaVuSans-65" x="3230.724609"/>
     <use xlink:href="#DejaVuSans-6c" x="3292.248047"/>
     <use xlink:href="#DejaVuSans-73" x="3320.03125"/>
     <use xlink:href="#DejaVuSans-20" x="3372.130859"/>
     <use xlink:href="#DejaVuSans-66" x="3403.917969"/>
     <use xlink:href="#DejaVuSans-6f" x="3439.123047"/>
     <use xlink:href="#DejaVuSans-72" x="3500.304688"/>
     <use xlink:href="#DejaVuSans-20" x="3541.417969"/>
     <use xlink:href="#DejaVuSans-53" x="3573.205078"/>
     <use xlink:href="#DejaVuSans-34" x="3636.681641"/>
    </g>
   </g>
   <g id="legend_1">
    <g id="patch_7">
     <path d="M 943.642188 327.135312 
L 1134.2 327.135312 
Q 1136.2 327.135312 1136.2 325.135312 
L 1136.2 252.744687 
Q 1136.2 250.744687 1134.2 250.744687 
L 943.642188 250.744687 
Q 941.642188 250.744687 941.642188 252.744687 
L 941.642188 325.135312 
Q 941.642188 327.135312 943.642188 327.135312 
z
" style="fill: #ffffff; opacity: 0.8; stroke: #cccccc; stroke-linejoin: miter"/>
    </g>
    <g id="line2d_32">
     <path d="M 945.642188 258.843125 
L 955.642188 258.843125 
L 965.642188 258.843125 
" style="fill: none; stroke: #1f77b4; stroke-width: 1.5; stroke-linecap: square"/>
    </g>
    <g id="text_15">
     <!-- ALS Bakkie CAA567123 100kHz -->
     <g transform="translate(973.642188 262.343125) scale(0.1 -0.1)">
      <use xlink:href="#DejaVuSans-41"/>
      <use xlink:href="#DejaVuSans-4c" x="68.408203"/>
      <use xlink:href="#DejaVuSans-53" x="124.121094"/>
      <use xlink:href="#DejaVuSans-20" x="187.597656"/>
      <use xlink:href="#DejaVuSans-42" x="219.384766"/>
      <use xlink:href="#DejaVuSans-61" x="287.988281"/>
      <use xlink:href="#DejaVuSans-6b" x="349.267578"/>
      <use xlink:href="#DejaVuSans-6b" x="407.177734"/>
      <use xlink:href="#DejaVuSans-69" x="465.087891"/>
      <use xlink:href="#DejaVuSans-65" x="492.871094"/>
      <use xlink:href="#DejaVuSans-20" x="554.394531"/>
      <use xlink:href="#DejaVuSans-43" x="586.181641"/>
      <use xlink:href="#DejaVuSans-41" x="656.005859"/>
      <use xlink:href="#DejaVuSans-41" x="727.164062"/>
      <use xlink:href="#DejaVuSans-35" x="795.572266"/>
      <use xlink:href="#DejaVuSans-36" x="859.195312"/>
      <use xlink:href="#DejaVuSans-37" x="922.818359"/>
      <use xlink:href="#DejaVuSans-31" x="986.441406"/>
      <use xlink:href="#DejaVuSans-32" x="1050.064453"/>
      <use xlink:href="#DejaVuSans-33" x="1113.6875"/>
      <use xlink:href="#DejaVuSans-20" x="1177.310547"/>
      <use xlink:href="#DejaVuSans-31" x="1209.097656"/>
      <use xlink:href="#DejaVuSans-30" x="1272.720703"/>
      <use xlink:href="#DejaVuSans-30" x="1336.34375"/>
      <use xlink:href="#DejaVuSans-6b" x="1399.966797"/>
      <use xlink:href="#DejaVuSans-48" x="1457.876953"/>
      <use xlink:href="#DejaVuSans-7a" x="1533.072266"/>
     </g>
    </g>
    <g id="line2d_33">
     <path d="M 945.642188 273.52125 
L 955.642188 273.52125 
L 965.642188 273.52125 
" style="fill: none; stroke: #ff7f0e; stroke-width: 1.5; stroke-linecap: square"/>
    </g>
    <g id="text_16">
     <!-- Background -->
     <g transform="translate(973.642188 277.02125) scale(0.1 -0.1)">
      <defs>
       <path id="DejaVuSans-63" d="M 3122 3366 
L 3122 2828 
Q 2878 2963 2633 3030 
Q 2388 3097 2138 3097 
Q 1578 3097 1268 2742 
Q 959 2388 959 1747 
Q 959 1106 1268 751 
Q 1578 397 2138 397 
Q 2388 397 2633 464 
Q 2878 531 3122 666 
L 3122 134 
Q 2881 22 2623 -34 
Q 2366 -91 2075 -91 
Q 1284 -91 818 406 
Q 353 903 353 1747 
Q 353 2603 823 3093 
Q 1294 3584 2113 3584 
Q 2378 3584 2631 3529 
Q 2884 3475 3122 3366 
z
" transform="scale(0.015625)"/>
       <path id="DejaVuSans-67" d="M 2906 1791 
Q 2906 2416 2648 2759 
Q 2391 3103 1925 3103 
Q 1463 3103 1205 2759 
Q 947 2416 947 1791 
Q 947 1169 1205 825 
Q 1463 481 1925 481 
Q 2391 481 2648 825 
Q 2906 1169 2906 1791 
z
M 3481 434 
Q 3481 -459 3084 -895 
Q 2688 -1331 1869 -1331 
Q 1566 -1331 1297 -1286 
Q 1028 -1241 775 -1147 
L 775 -588 
Q 1028 -725 1275 -790 
Q 1522 -856 1778 -856 
Q 2344 -856 2625 -561 
Q 2906 -266 2906 331 
L 2906 616 
Q 2728 306 2450 153 
Q 2172 0 1784 0 
Q 1141 0 747 490 
Q 353 981 353 1791 
Q 353 2603 747 3093 
Q 1141 3584 1784 3584 
Q 2172 3584 2450 3431 
Q 2728 3278 2906 2969 
L 2906 3500 
L 3481 3500 
L 3481 434 
z
" transform="scale(0.015625)"/>
       <path id="DejaVuSans-6e" d="M 3513 2113 
L 3513 0 
L 2938 0 
L 2938 2094 
Q 2938 2591 2744 2837 
Q 2550 3084 2163 3084 
Q 1697 3084 1428 2787 
Q 1159 2491 1159 1978 
L 1159 0 
L 581 0 
L 581 3500 
L 1159 3500 
L 1159 2956 
Q 1366 3272 1645 3428 
Q 1925 3584 2291 3584 
Q 2894 3584 3203 3211 
Q 3513 2838 3513 2113 
z
" transform="scale(0.015625)"/>
      </defs>
      <use xlink:href="#DejaVuSans-42"/>
      <use xlink:href="#DejaVuSans-61" x="68.603516"/>
      <use xlink:href="#DejaVuSans-63" x="129.882812"/>
      <use xlink:href="#DejaVuSans-6b" x="184.863281"/>
      <use xlink:href="#DejaVuSans-67" x="242.773438"/>
      <use xlink:href="#DejaVuSans-72" x="306.25"/>
      <use xlink:href="#DejaVuSans-6f" x="345.113281"/>
      <use xlink:href="#DejaVuSans-75" x="406.294922"/>
      <use xlink:href="#DejaVuSans-6e" x="469.673828"/>
      <use xlink:href="#DejaVuSans-64" x="533.052734"/>
     </g>
    </g>
    <g id="line2d_34">
     <path d="M 945.642188 288.199375 
L 955.642188 288.199375 
L 965.642188 288.199375 
" style="fill: none; stroke-dasharray: 9.6,2.4,1.5,2.4; stroke-dashoffset: 0; stroke: #2ca02c; stroke-width: 1.5"/>
    </g>
    <g id="text_17">
     <!-- Spectral line threshold -->
     <g transform="translate(973.642188 291.699375) scale(0.1 -0.1)">
      <defs>
       <path id="DejaVuSans-70" d="M 1159 525 
L 1159 -1331 
L 581 -1331 
L 581 3500 
L 1159 3500 
L 1159 2969 
Q 1341 3281 1617 3432 
Q 1894 3584 2278 3584 
Q 2916 3584 3314 3078 
Q 3713 2572 3713 1747 
Q 3713 922 3314 415 
Q 2916 -91 2278 -91 
Q 1894 -91 1617 61 
Q 1341 213 1159 525 
z
M 3116 1747 
Q 3116 2381 2855 2742 
Q 2594 3103 2138 3103 
Q 1681 3103 1420 2742 
Q 1159 2381 1159 1747 
Q 1159 1113 1420 752 
Q 1681 391 2138 391 
Q 2594 391 2855 752 
Q 3116 1113 3116 1747 
z
" transform="scale(0.015625)"/>
      </defs>
      <use xlink:href="#DejaVuSans-53"/>
      <use xlink:href="#DejaVuSans-70" x="63.476562"/>
      <use xlink:href="#DejaVuSans-65" x="126.953125"/>
      <use xlink:href="#DejaVuSans-63" x="188.476562"/>
      <use xlink:href="#DejaVuSans-74" x="243.457031"/>
      <use xlink:href="#DejaVuSans-72" x="282.666016"/>
      <use xlink:href="#DejaVuSans-61" x="323.779297"/>
      <use xlink:href="#DejaVuSans-6c" x="385.058594"/>
      <use xlink:href="#DejaVuSans-20" x="412.841797"/>
      <use xlink:href="#DejaVuSans-6c" x="444.628906"/>
      <use xlink:href="#DejaVuSans-69" x="472.412109"/>
      <use xlink:href="#DejaVuSans-6e" x="500.195312"/>
      <use xlink:href="#DejaVuSans-65" x="563.574219"/>
      <use xlink:href="#DejaVuSans-20" x="625.097656"/>
      <use xlink:href="#DejaVuSans-74" x="656.884766"/>
      <use xlink:href="#DejaVuSans-68" x="696.09375"/>
      <use xlink:href="#DejaVuSans-72" x="759.472656"/>
      <use xlink:href="#DejaVuSans-65" x="798.335938"/>
      <use xlink:href="#DejaVuSans-73" x="859.859375"/>
      <use xlink:href="#DejaVuSans-68" x="911.958984"/>
      <use xlink:href="#DejaVuSans-6f" x="975.337891"/>
      <use xlink:href="#DejaVuSans-6c" x="1036.519531"/>
      <use xlink:href="#DejaVuSans-64" x="1064.302734"/>
     </g>
    </g>
    <g id="line2d_35">
     <path d="M 945.642188 302.8775 
L 955.642188 302.8775 
L 965.642188 302.8775 
" style="fill: none; stroke-dasharray: 9.6,2.4,1.5,2.4; stroke-dashoffset: 0; stroke: #d62728; stroke-width: 1.5"/>
    </g>
    <g id="text_18">
     <!-- Continuum threshold -->
     <g transform="translate(973.642188 306.3775) scale(0.1 -0.1)">
      <defs>
       <path id="DejaVuSans-6d" d="M 3328 2828 
Q 3544 3216 3844 3400 
Q 4144 3584 4550 3584 
Q 5097 3584 5394 3201 
Q 5691 2819 5691 2113 
L 5691 0 
L 5113 0 
L 5113 2094 
Q 5113 2597 4934 2840 
Q 4756 3084 4391 3084 
Q 3944 3084 3684 2787 
Q 3425 2491 3425 1978 
L 3425 0 
L 2847 0 
L 2847 2094 
Q 2847 2600 2669 2842 
Q 2491 3084 2119 3084 
Q 1678 3084 1418 2786 
Q 1159 2488 1159 1978 
L 1159 0 
L 581 0 
L 581 3500 
L 1159 3500 
L 1159 2956 
Q 1356 3278 1631 3431 
Q 1906 3584 2284 3584 
Q 2666 3584 2933 3390 
Q 3200 3197 3328 2828 
z
" transform="scale(0.015625)"/>
      </defs>
      <use xlink:href="#DejaVuSans-43"/>
      <use xlink:href="#DejaVuSans-6f" x="69.824219"/>
      <use xlink:href="#DejaVuSans-6e" x="131.005859"/>
      <use xlink:href="#DejaVuSans-74" x="194.384766"/>
      <use xlink:href="#DejaVuSans-69" x="233.59375"/>
      <use xlink:href="#DejaVuSans-6e" x="261.376953"/>
      <use xlink:href="#DejaVuSans-75" x="324.755859"/>
      <use xlink:href="#DejaVuSans-75" x="388.134766"/>
      <use xlink:href="#DejaVuSans-6d" x="451.513672"/>
      <use xlink:href="#DejaVuSans-20" x="548.925781"/>
      <use xlink:href="#DejaVuSans-74" x="580.712891"/>
      <use xlink:href="#DejaVuSans-68" x="619.921875"/>
      <use xlink:href="#DejaVuSans-72" x="683.300781"/>
      <use xlink:href="#DejaVuSans-65" x="722.164062"/>
      <use xlink:href="#DejaVuSans-73" x="783.6875"/>
      <use xlink:href="#DejaVuSans-68" x="835.787109"/>
      <use xlink:href="#DejaVuSans-6f" x="899.166016"/>
      <use xlink:href="#DejaVuSans-6c" x="960.347656"/>
      <use xlink:href="#DejaVuSans-64" x="988.130859"/>
     </g>
    </g>
    <g id="line2d_36">
     <path d="M 945.642188 317.555625 
L 955.642188 317.555625 
L 965.642188 317.555625 
" style="fill: none; stroke: #ff0000; stroke-width: 1.5; stroke-linecap: square"/>
    </g>
    <g id="text_19">
     <!-- Detection Threshold -->
     <g transform="translate(973.642188 321.055625) scale(0.1 -0.1)">
      <defs>
       <path id="DejaVuSans-44" d="M 1259 4147 
L 1259 519 
L 2022 519 
Q 2988 519 3436 956 
Q 3884 1394 3884 2338 
Q 3884 3275 3436 3711 
Q 2988 4147 2022 4147 
L 1259 4147 
z
M 628 4666 
L 1925 4666 
Q 3281 4666 3915 4102 
Q 4550 3538 4550 2338 
Q 4550 1131 3912 565 
Q 3275 0 1925 0 
L 628 0 
L 628 4666 
z
" transform="scale(0.015625)"/>
       <path id="DejaVuSans-54" d="M -19 4666 
L 3928 4666 
L 3928 4134 
L 2272 4134 
L 2272 0 
L 1638 0 
L 1638 4134 
L -19 4134 
L -19 4666 
z
" transform="scale(0.015625)"/>
      </defs>
      <use xlink:href="#DejaVuSans-44"/>
      <use xlink:href="#DejaVuSans-65" x="77.001953"/>
      <use xlink:href="#DejaVuSans-74" x="138.525391"/>
      <use xlink:href="#DejaVuSans-65" x="177.734375"/>
      <use xlink:href="#DejaVuSans-63" x="239.257812"/>
      <use xlink:href="#DejaVuSans-74" x="294.238281"/>
      <use xlink:href="#DejaVuSans-69" x="333.447266"/>
      <use xlink:href="#DejaVuSans-6f" x="361.230469"/>
      <use xlink:href="#DejaVuSans-6e" x="422.412109"/>
      <use xlink:href="#DejaVuSans-20" x="485.791016"/>
      <use xlink:href="#DejaVuSans-54" x="517.578125"/>
      <use xlink:href="#DejaVuSans-68" x="578.662109"/>
      <use xlink:href="#DejaVuSans-72" x="642.041016"/>
      <use xlink:href="#DejaVuSans-65" x="680.904297"/>
      <use xlink:href="#DejaVuSans-73" x="742.427734"/>
      <use xlink:href="#DejaVuSans-68" x="794.527344"/>
      <use xlink:href="#DejaVuSans-6f" x="857.90625"/>
      <use xlink:href="#DejaVuSans-6c" x="919.087891"/>
      <use xlink:href="#DejaVuSans-64" x="946.871094"/>
     </g>
    </g>
   </g>
  </g>
 </g>
 <defs>
  <clipPath id="p46df425738">
   <rect x="45.34" y="29.76" width="1095.86" height="518.36"/>
  </clipPath>
 </defs>
</svg>
