<?xml version="1.0" encoding="utf-8" standalone="no"?>
<!DOCTYPE svg PUBLIC "-//W3C//DTD SVG 1.1//EN"
  "http://www.w3.org/Graphics/SVG/1.1/DTD/svg11.dtd">
<svg xmlns:xlink="http://www.w3.org/1999/xlink" width="1152pt" height="576pt" viewBox="0 0 1152 576" xmlns="http://www.w3.org/2000/svg" version="1.1">
 <metadata>
  <rdf:RDF xmlns:dc="http://purl.org/dc/elements/1.1/" xmlns:cc="http://creativecommons.org/ns#" xmlns:rdf="http://www.w3.org/1999/02/22-rdf-syntax-ns#">
   <cc:Work>
    <dc:type rdf:resource="http://purl.org/dc/dcmitype/StillImage"/>
    <dc:date>2025-05-14T11:35:46.026097</dc:date>
    <dc:format>image/svg+xml</dc:format>
    <dc:creator>
     <cc:Agent>
      <dc:title>Matplotlib v3.9.2, https://matplotlib.org/</dc:title>
     </cc:Agent>
    </dc:creator>
   </cc:Work>
  </rdf:RDF>
 </metadata>
 <defs>
  <style type="text/css">*{stroke-linejoin: round; stroke-linecap: butt}</style>
 </defs>
 <g id="figure_1">
  <g id="patch_1">
   <path d="M 0 576 
L 1152 576 
L 1152 0 
L 0 0 
z
" style="fill: #ffffff"/>
  </g>
  <g id="axes_1">
   <g id="patch_2">
    <path d="M 47.81 534.04 
L 1141.2 534.04 
L 1141.2 25.44 
L 47.81 25.44 
z
" style="fill: #ffffff"/>
   </g>
   <g id="matplotlib.axis_1">
    <g id="xtick_1">
     <g id="line2d_1">
      <path d="M 198.529977 534.04 
L 198.529977 25.44 
" clip-path="url(#paf5df0c035)" style="fill: none; stroke-dasharray: 2.96,1.28; stroke-dashoffset: 0; stroke: #b0b0b0; stroke-width: 0.8"/>
     </g>
     <g id="line2d_2">
      <defs>
       <path id="m410041693c" d="M 0 0 
L 0 3.5 
" style="stroke: #000000; stroke-width: 0.8"/>
      </defs>
      <g>
       <use xlink:href="#m410041693c" x="198.529977" y="534.04" style="stroke: #000000; stroke-width: 0.8"/>
      </g>
     </g>
     <g id="text_1">
      <!-- 500 -->
      <g transform="translate(188.986227 548.638438) scale(0.1 -0.1)">
       <defs>
        <path id="DejaVuSans-35" d="M 691 4666 
L 3169 4666 
L 3169 4134 
L 1269 4134 
L 1269 2991 
Q 1406 3038 1543 3061 
Q 1681 3084 1819 3084 
Q 2600 3084 3056 2656 
Q 3513 2228 3513 1497 
Q 3513 744 3044 326 
Q 2575 -91 1722 -91 
Q 1428 -91 1123 -41 
Q 819 9 494 109 
L 494 744 
Q 775 591 1075 516 
Q 1375 441 1709 441 
Q 2250 441 2565 725 
Q 2881 1009 2881 1497 
Q 2881 1984 2565 2268 
Q 2250 2553 1709 2553 
Q 1456 2553 1204 2497 
Q 953 2441 691 2322 
L 691 4666 
z
" transform="scale(0.015625)"/>
        <path id="DejaVuSans-30" d="M 2034 4250 
Q 1547 4250 1301 3770 
Q 1056 3291 1056 2328 
Q 1056 1369 1301 889 
Q 1547 409 2034 409 
Q 2525 409 2770 889 
Q 3016 1369 3016 2328 
Q 3016 3291 2770 3770 
Q 2525 4250 2034 4250 
z
M 2034 4750 
Q 2819 4750 3233 4129 
Q 3647 3509 3647 2328 
Q 3647 1150 3233 529 
Q 2819 -91 2034 -91 
Q 1250 -91 836 529 
Q 422 1150 422 2328 
Q 422 3509 836 4129 
Q 1250 4750 2034 4750 
z
" transform="scale(0.015625)"/>
       </defs>
       <use xlink:href="#DejaVuSans-35"/>
       <use xlink:href="#DejaVuSans-30" x="63.623047"/>
       <use xlink:href="#DejaVuSans-30" x="127.246094"/>
      </g>
     </g>
    </g>
    <g id="xtick_2">
     <g id="line2d_3">
      <path d="M 387.137417 534.04 
L 387.137417 25.44 
" clip-path="url(#paf5df0c035)" style="fill: none; stroke-dasharray: 2.96,1.28; stroke-dashoffset: 0; stroke: #b0b0b0; stroke-width: 0.8"/>
     </g>
     <g id="line2d_4">
      <g>
       <use xlink:href="#m410041693c" x="387.137417" y="534.04" style="stroke: #000000; stroke-width: 0.8"/>
      </g>
     </g>
     <g id="text_2">
      <!-- 1000 -->
      <g transform="translate(374.412417 548.638438) scale(0.1 -0.1)">
       <defs>
        <path id="DejaVuSans-31" d="M 794 531 
L 1825 531 
L 1825 4091 
L 703 3866 
L 703 4441 
L 1819 4666 
L 2450 4666 
L 2450 531 
L 3481 531 
L 3481 0 
L 794 0 
L 794 531 
z
" transform="scale(0.015625)"/>
       </defs>
       <use xlink:href="#DejaVuSans-31"/>
       <use xlink:href="#DejaVuSans-30" x="63.623047"/>
       <use xlink:href="#DejaVuSans-30" x="127.246094"/>
       <use xlink:href="#DejaVuSans-30" x="190.869141"/>
      </g>
     </g>
    </g>
    <g id="xtick_3">
     <g id="line2d_5">
      <path d="M 575.744857 534.04 
L 575.744857 25.44 
" clip-path="url(#paf5df0c035)" style="fill: none; stroke-dasharray: 2.96,1.28; stroke-dashoffset: 0; stroke: #b0b0b0; stroke-width: 0.8"/>
     </g>
     <g id="line2d_6">
      <g>
       <use xlink:href="#m410041693c" x="575.744857" y="534.04" style="stroke: #000000; stroke-width: 0.8"/>
      </g>
     </g>
     <g id="text_3">
      <!-- 1500 -->
      <g transform="translate(563.019857 548.638438) scale(0.1 -0.1)">
       <use xlink:href="#DejaVuSans-31"/>
       <use xlink:href="#DejaVuSans-35" x="63.623047"/>
       <use xlink:href="#DejaVuSans-30" x="127.246094"/>
       <use xlink:href="#DejaVuSans-30" x="190.869141"/>
      </g>
     </g>
    </g>
    <g id="xtick_4">
     <g id="line2d_7">
      <path d="M 764.352297 534.04 
L 764.352297 25.44 
" clip-path="url(#paf5df0c035)" style="fill: none; stroke-dasharray: 2.96,1.28; stroke-dashoffset: 0; stroke: #b0b0b0; stroke-width: 0.8"/>
     </g>
     <g id="line2d_8">
      <g>
       <use xlink:href="#m410041693c" x="764.352297" y="534.04" style="stroke: #000000; stroke-width: 0.8"/>
      </g>
     </g>
     <g id="text_4">
      <!-- 2000 -->
      <g transform="translate(751.627297 548.638438) scale(0.1 -0.1)">
       <defs>
        <path id="DejaVuSans-32" d="M 1228 531 
L 3431 531 
L 3431 0 
L 469 0 
L 469 531 
Q 828 903 1448 1529 
Q 2069 2156 2228 2338 
Q 2531 2678 2651 2914 
Q 2772 3150 2772 3378 
Q 2772 3750 2511 3984 
Q 2250 4219 1831 4219 
Q 1534 4219 1204 4116 
Q 875 4013 500 3803 
L 500 4441 
Q 881 4594 1212 4672 
Q 1544 4750 1819 4750 
Q 2544 4750 2975 4387 
Q 3406 4025 3406 3419 
Q 3406 3131 3298 2873 
Q 3191 2616 2906 2266 
Q 2828 2175 2409 1742 
Q 1991 1309 1228 531 
z
" transform="scale(0.015625)"/>
       </defs>
       <use xlink:href="#DejaVuSans-32"/>
       <use xlink:href="#DejaVuSans-30" x="63.623047"/>
       <use xlink:href="#DejaVuSans-30" x="127.246094"/>
       <use xlink:href="#DejaVuSans-30" x="190.869141"/>
      </g>
     </g>
    </g>
    <g id="xtick_5">
     <g id="line2d_9">
      <path d="M 952.959737 534.04 
L 952.959737 25.44 
" clip-path="url(#paf5df0c035)" style="fill: none; stroke-dasharray: 2.96,1.28; stroke-dashoffset: 0; stroke: #b0b0b0; stroke-width: 0.8"/>
     </g>
     <g id="line2d_10">
      <g>
       <use xlink:href="#m410041693c" x="952.959737" y="534.04" style="stroke: #000000; stroke-width: 0.8"/>
      </g>
     </g>
     <g id="text_5">
      <!-- 2500 -->
      <g transform="translate(940.234737 548.638438) scale(0.1 -0.1)">
       <use xlink:href="#DejaVuSans-32"/>
       <use xlink:href="#DejaVuSans-35" x="63.623047"/>
       <use xlink:href="#DejaVuSans-30" x="127.246094"/>
       <use xlink:href="#DejaVuSans-30" x="190.869141"/>
      </g>
     </g>
    </g>
    <g id="text_6">
     <!-- Frequency (MHz) -->
     <g transform="translate(552.48625 562.316563) scale(0.1 -0.1)">
      <defs>
       <path id="DejaVuSans-46" d="M 628 4666 
L 3309 4666 
L 3309 4134 
L 1259 4134 
L 1259 2759 
L 3109 2759 
L 3109 2228 
L 1259 2228 
L 1259 0 
L 628 0 
L 628 4666 
z
" transform="scale(0.015625)"/>
       <path id="DejaVuSans-72" d="M 2631 2963 
Q 2534 3019 2420 3045 
Q 2306 3072 2169 3072 
Q 1681 3072 1420 2755 
Q 1159 2438 1159 1844 
L 1159 0 
L 581 0 
L 581 3500 
L 1159 3500 
L 1159 2956 
Q 1341 3275 1631 3429 
Q 1922 3584 2338 3584 
Q 2397 3584 2469 3576 
Q 2541 3569 2628 3553 
L 2631 2963 
z
" transform="scale(0.015625)"/>
       <path id="DejaVuSans-65" d="M 3597 1894 
L 3597 1613 
L 953 1613 
Q 991 1019 1311 708 
Q 1631 397 2203 397 
Q 2534 397 2845 478 
Q 3156 559 3463 722 
L 3463 178 
Q 3153 47 2828 -22 
Q 2503 -91 2169 -91 
Q 1331 -91 842 396 
Q 353 884 353 1716 
Q 353 2575 817 3079 
Q 1281 3584 2069 3584 
Q 2775 3584 3186 3129 
Q 3597 2675 3597 1894 
z
M 3022 2063 
Q 3016 2534 2758 2815 
Q 2500 3097 2075 3097 
Q 1594 3097 1305 2825 
Q 1016 2553 972 2059 
L 3022 2063 
z
" transform="scale(0.015625)"/>
       <path id="DejaVuSans-71" d="M 947 1747 
Q 947 1113 1208 752 
Q 1469 391 1925 391 
Q 2381 391 2643 752 
Q 2906 1113 2906 1747 
Q 2906 2381 2643 2742 
Q 2381 3103 1925 3103 
Q 1469 3103 1208 2742 
Q 947 2381 947 1747 
z
M 2906 525 
Q 2725 213 2448 61 
Q 2172 -91 1784 -91 
Q 1150 -91 751 415 
Q 353 922 353 1747 
Q 353 2572 751 3078 
Q 1150 3584 1784 3584 
Q 2172 3584 2448 3432 
Q 2725 3281 2906 2969 
L 2906 3500 
L 3481 3500 
L 3481 -1331 
L 2906 -1331 
L 2906 525 
z
" transform="scale(0.015625)"/>
       <path id="DejaVuSans-75" d="M 544 1381 
L 544 3500 
L 1119 3500 
L 1119 1403 
Q 1119 906 1312 657 
Q 1506 409 1894 409 
Q 2359 409 2629 706 
Q 2900 1003 2900 1516 
L 2900 3500 
L 3475 3500 
L 3475 0 
L 2900 0 
L 2900 538 
Q 2691 219 2414 64 
Q 2138 -91 1772 -91 
Q 1169 -91 856 284 
Q 544 659 544 1381 
z
M 1991 3584 
L 1991 3584 
z
" transform="scale(0.015625)"/>
       <path id="DejaVuSans-6e" d="M 3513 2113 
L 3513 0 
L 2938 0 
L 2938 2094 
Q 2938 2591 2744 2837 
Q 2550 3084 2163 3084 
Q 1697 3084 1428 2787 
Q 1159 2491 1159 1978 
L 1159 0 
L 581 0 
L 581 3500 
L 1159 3500 
L 1159 2956 
Q 1366 3272 1645 3428 
Q 1925 3584 2291 3584 
Q 2894 3584 3203 3211 
Q 3513 2838 3513 2113 
z
" transform="scale(0.015625)"/>
       <path id="DejaVuSans-63" d="M 3122 3366 
L 3122 2828 
Q 2878 2963 2633 3030 
Q 2388 3097 2138 3097 
Q 1578 3097 1268 2742 
Q 959 2388 959 1747 
Q 959 1106 1268 751 
Q 1578 397 2138 397 
Q 2388 397 2633 464 
Q 2878 531 3122 666 
L 3122 134 
Q 2881 22 2623 -34 
Q 2366 -91 2075 -91 
Q 1284 -91 818 406 
Q 353 903 353 1747 
Q 353 2603 823 3093 
Q 1294 3584 2113 3584 
Q 2378 3584 2631 3529 
Q 2884 3475 3122 3366 
z
" transform="scale(0.015625)"/>
       <path id="DejaVuSans-79" d="M 2059 -325 
Q 1816 -950 1584 -1140 
Q 1353 -1331 966 -1331 
L 506 -1331 
L 506 -850 
L 844 -850 
Q 1081 -850 1212 -737 
Q 1344 -625 1503 -206 
L 1606 56 
L 191 3500 
L 800 3500 
L 1894 763 
L 2988 3500 
L 3597 3500 
L 2059 -325 
z
" transform="scale(0.015625)"/>
       <path id="DejaVuSans-20" transform="scale(0.015625)"/>
       <path id="DejaVuSans-28" d="M 1984 4856 
Q 1566 4138 1362 3434 
Q 1159 2731 1159 2009 
Q 1159 1288 1364 580 
Q 1569 -128 1984 -844 
L 1484 -844 
Q 1016 -109 783 600 
Q 550 1309 550 2009 
Q 550 2706 781 3412 
Q 1013 4119 1484 4856 
L 1984 4856 
z
" transform="scale(0.015625)"/>
       <path id="DejaVuSans-4d" d="M 628 4666 
L 1569 4666 
L 2759 1491 
L 3956 4666 
L 4897 4666 
L 4897 0 
L 4281 0 
L 4281 4097 
L 3078 897 
L 2444 897 
L 1241 4097 
L 1241 0 
L 628 0 
L 628 4666 
z
" transform="scale(0.015625)"/>
       <path id="DejaVuSans-48" d="M 628 4666 
L 1259 4666 
L 1259 2753 
L 3553 2753 
L 3553 4666 
L 4184 4666 
L 4184 0 
L 3553 0 
L 3553 2222 
L 1259 2222 
L 1259 0 
L 628 0 
L 628 4666 
z
" transform="scale(0.015625)"/>
       <path id="DejaVuSans-7a" d="M 353 3500 
L 3084 3500 
L 3084 2975 
L 922 459 
L 3084 459 
L 3084 0 
L 275 0 
L 275 525 
L 2438 3041 
L 353 3041 
L 353 3500 
z
" transform="scale(0.015625)"/>
       <path id="DejaVuSans-29" d="M 513 4856 
L 1013 4856 
Q 1481 4119 1714 3412 
Q 1947 2706 1947 2009 
Q 1947 1309 1714 600 
Q 1481 -109 1013 -844 
L 513 -844 
Q 928 -128 1133 580 
Q 1338 1288 1338 2009 
Q 1338 2731 1133 3434 
Q 928 4138 513 4856 
z
" transform="scale(0.015625)"/>
      </defs>
      <use xlink:href="#DejaVuSans-46"/>
      <use xlink:href="#DejaVuSans-72" x="50.269531"/>
      <use xlink:href="#DejaVuSans-65" x="89.132812"/>
      <use xlink:href="#DejaVuSans-71" x="150.65625"/>
      <use xlink:href="#DejaVuSans-75" x="214.132812"/>
      <use xlink:href="#DejaVuSans-65" x="277.511719"/>
      <use xlink:href="#DejaVuSans-6e" x="339.035156"/>
      <use xlink:href="#DejaVuSans-63" x="402.414062"/>
      <use xlink:href="#DejaVuSans-79" x="457.394531"/>
      <use xlink:href="#DejaVuSans-20" x="516.574219"/>
      <use xlink:href="#DejaVuSans-28" x="548.361328"/>
      <use xlink:href="#DejaVuSans-4d" x="587.375"/>
      <use xlink:href="#DejaVuSans-48" x="673.654297"/>
      <use xlink:href="#DejaVuSans-7a" x="748.849609"/>
      <use xlink:href="#DejaVuSans-29" x="801.339844"/>
     </g>
    </g>
   </g>
   <g id="matplotlib.axis_2">
    <g id="ytick_1">
     <g id="line2d_11">
      <path d="M 47.81 510.921818 
L 1141.2 510.921818 
" clip-path="url(#paf5df0c035)" style="fill: none; stroke-dasharray: 2.96,1.28; stroke-dashoffset: 0; stroke: #b0b0b0; stroke-width: 0.8"/>
     </g>
     <g id="line2d_12">
      <defs>
       <path id="m0d8b959001" d="M 0 0 
L -3.5 0 
" style="stroke: #000000; stroke-width: 0.8"/>
      </defs>
      <g>
       <use xlink:href="#m0d8b959001" x="47.81" y="510.921818" style="stroke: #000000; stroke-width: 0.8"/>
      </g>
     </g>
     <g id="text_7">
      <!-- 0.0 -->
      <g transform="translate(24.906875 514.721037) scale(0.1 -0.1)">
       <defs>
        <path id="DejaVuSans-2e" d="M 684 794 
L 1344 794 
L 1344 0 
L 684 0 
L 684 794 
z
" transform="scale(0.015625)"/>
       </defs>
       <use xlink:href="#DejaVuSans-30"/>
       <use xlink:href="#DejaVuSans-2e" x="63.623047"/>
       <use xlink:href="#DejaVuSans-30" x="95.410156"/>
      </g>
     </g>
    </g>
    <g id="ytick_2">
     <g id="line2d_13">
      <path d="M 47.81 421.517253 
L 1141.2 421.517253 
" clip-path="url(#paf5df0c035)" style="fill: none; stroke-dasharray: 2.96,1.28; stroke-dashoffset: 0; stroke: #b0b0b0; stroke-width: 0.8"/>
     </g>
     <g id="line2d_14">
      <g>
       <use xlink:href="#m0d8b959001" x="47.81" y="421.517253" style="stroke: #000000; stroke-width: 0.8"/>
      </g>
     </g>
     <g id="text_8">
      <!-- 0.5 -->
      <g transform="translate(24.906875 425.316472) scale(0.1 -0.1)">
       <use xlink:href="#DejaVuSans-30"/>
       <use xlink:href="#DejaVuSans-2e" x="63.623047"/>
       <use xlink:href="#DejaVuSans-35" x="95.410156"/>
      </g>
     </g>
    </g>
    <g id="ytick_3">
     <g id="line2d_15">
      <path d="M 47.81 332.112688 
L 1141.2 332.112688 
" clip-path="url(#paf5df0c035)" style="fill: none; stroke-dasharray: 2.96,1.28; stroke-dashoffset: 0; stroke: #b0b0b0; stroke-width: 0.8"/>
     </g>
     <g id="line2d_16">
      <g>
       <use xlink:href="#m0d8b959001" x="47.81" y="332.112688" style="stroke: #000000; stroke-width: 0.8"/>
      </g>
     </g>
     <g id="text_9">
      <!-- 1.0 -->
      <g transform="translate(24.906875 335.911907) scale(0.1 -0.1)">
       <use xlink:href="#DejaVuSans-31"/>
       <use xlink:href="#DejaVuSans-2e" x="63.623047"/>
       <use xlink:href="#DejaVuSans-30" x="95.410156"/>
      </g>
     </g>
    </g>
    <g id="ytick_4">
     <g id="line2d_17">
      <path d="M 47.81 242.708123 
L 1141.2 242.708123 
" clip-path="url(#paf5df0c035)" style="fill: none; stroke-dasharray: 2.96,1.28; stroke-dashoffset: 0; stroke: #b0b0b0; stroke-width: 0.8"/>
     </g>
     <g id="line2d_18">
      <g>
       <use xlink:href="#m0d8b959001" x="47.81" y="242.708123" style="stroke: #000000; stroke-width: 0.8"/>
      </g>
     </g>
     <g id="text_10">
      <!-- 1.5 -->
      <g transform="translate(24.906875 246.507342) scale(0.1 -0.1)">
       <use xlink:href="#DejaVuSans-31"/>
       <use xlink:href="#DejaVuSans-2e" x="63.623047"/>
       <use xlink:href="#DejaVuSans-35" x="95.410156"/>
      </g>
     </g>
    </g>
    <g id="ytick_5">
     <g id="line2d_19">
      <path d="M 47.81 153.303558 
L 1141.2 153.303558 
" clip-path="url(#paf5df0c035)" style="fill: none; stroke-dasharray: 2.96,1.28; stroke-dashoffset: 0; stroke: #b0b0b0; stroke-width: 0.8"/>
     </g>
     <g id="line2d_20">
      <g>
       <use xlink:href="#m0d8b959001" x="47.81" y="153.303558" style="stroke: #000000; stroke-width: 0.8"/>
      </g>
     </g>
     <g id="text_11">
      <!-- 2.0 -->
      <g transform="translate(24.906875 157.102777) scale(0.1 -0.1)">
       <use xlink:href="#DejaVuSans-32"/>
       <use xlink:href="#DejaVuSans-2e" x="63.623047"/>
       <use xlink:href="#DejaVuSans-30" x="95.410156"/>
      </g>
     </g>
    </g>
    <g id="ytick_6">
     <g id="line2d_21">
      <path d="M 47.81 63.898993 
L 1141.2 63.898993 
" clip-path="url(#paf5df0c035)" style="fill: none; stroke-dasharray: 2.96,1.28; stroke-dashoffset: 0; stroke: #b0b0b0; stroke-width: 0.8"/>
     </g>
     <g id="line2d_22">
      <g>
       <use xlink:href="#m0d8b959001" x="47.81" y="63.898993" style="stroke: #000000; stroke-width: 0.8"/>
      </g>
     </g>
     <g id="text_12">
      <!-- 2.5 -->
      <g transform="translate(24.906875 67.698212) scale(0.1 -0.1)">
       <use xlink:href="#DejaVuSans-32"/>
       <use xlink:href="#DejaVuSans-2e" x="63.623047"/>
       <use xlink:href="#DejaVuSans-35" x="95.410156"/>
      </g>
     </g>
    </g>
    <g id="text_13">
     <!-- EIRP (mW) -->
     <g transform="translate(18.827187 306.168125) rotate(-90) scale(0.1 -0.1)">
      <defs>
       <path id="DejaVuSans-45" d="M 628 4666 
L 3578 4666 
L 3578 4134 
L 1259 4134 
L 1259 2753 
L 3481 2753 
L 3481 2222 
L 1259 2222 
L 1259 531 
L 3634 531 
L 3634 0 
L 628 0 
L 628 4666 
z
" transform="scale(0.015625)"/>
       <path id="DejaVuSans-49" d="M 628 4666 
L 1259 4666 
L 1259 0 
L 628 0 
L 628 4666 
z
" transform="scale(0.015625)"/>
       <path id="DejaVuSans-52" d="M 2841 2188 
Q 3044 2119 3236 1894 
Q 3428 1669 3622 1275 
L 4263 0 
L 3584 0 
L 2988 1197 
Q 2756 1666 2539 1819 
Q 2322 1972 1947 1972 
L 1259 1972 
L 1259 0 
L 628 0 
L 628 4666 
L 2053 4666 
Q 2853 4666 3247 4331 
Q 3641 3997 3641 3322 
Q 3641 2881 3436 2590 
Q 3231 2300 2841 2188 
z
M 1259 4147 
L 1259 2491 
L 2053 2491 
Q 2509 2491 2742 2702 
Q 2975 2913 2975 3322 
Q 2975 3731 2742 3939 
Q 2509 4147 2053 4147 
L 1259 4147 
z
" transform="scale(0.015625)"/>
       <path id="DejaVuSans-50" d="M 1259 4147 
L 1259 2394 
L 2053 2394 
Q 2494 2394 2734 2622 
Q 2975 2850 2975 3272 
Q 2975 3691 2734 3919 
Q 2494 4147 2053 4147 
L 1259 4147 
z
M 628 4666 
L 2053 4666 
Q 2838 4666 3239 4311 
Q 3641 3956 3641 3272 
Q 3641 2581 3239 2228 
Q 2838 1875 2053 1875 
L 1259 1875 
L 1259 0 
L 628 0 
L 628 4666 
z
" transform="scale(0.015625)"/>
       <path id="DejaVuSans-6d" d="M 3328 2828 
Q 3544 3216 3844 3400 
Q 4144 3584 4550 3584 
Q 5097 3584 5394 3201 
Q 5691 2819 5691 2113 
L 5691 0 
L 5113 0 
L 5113 2094 
Q 5113 2597 4934 2840 
Q 4756 3084 4391 3084 
Q 3944 3084 3684 2787 
Q 3425 2491 3425 1978 
L 3425 0 
L 2847 0 
L 2847 2094 
Q 2847 2600 2669 2842 
Q 2491 3084 2119 3084 
Q 1678 3084 1418 2786 
Q 1159 2488 1159 1978 
L 1159 0 
L 581 0 
L 581 3500 
L 1159 3500 
L 1159 2956 
Q 1356 3278 1631 3431 
Q 1906 3584 2284 3584 
Q 2666 3584 2933 3390 
Q 3200 3197 3328 2828 
z
" transform="scale(0.015625)"/>
       <path id="DejaVuSans-57" d="M 213 4666 
L 850 4666 
L 1831 722 
L 2809 4666 
L 3519 4666 
L 4500 722 
L 5478 4666 
L 6119 4666 
L 4947 0 
L 4153 0 
L 3169 4050 
L 2175 0 
L 1381 0 
L 213 4666 
z
" transform="scale(0.015625)"/>
      </defs>
      <use xlink:href="#DejaVuSans-45"/>
      <use xlink:href="#DejaVuSans-49" x="63.183594"/>
      <use xlink:href="#DejaVuSans-52" x="92.675781"/>
      <use xlink:href="#DejaVuSans-50" x="162.158203"/>
      <use xlink:href="#DejaVuSans-20" x="222.460938"/>
      <use xlink:href="#DejaVuSans-28" x="254.248047"/>
      <use xlink:href="#DejaVuSans-6d" x="293.261719"/>
      <use xlink:href="#DejaVuSans-57" x="390.673828"/>
      <use xlink:href="#DejaVuSans-29" x="489.550781"/>
     </g>
    </g>
    <g id="text_14">
     <!-- 1e−12 -->
     <g transform="translate(47.81 22.44) scale(0.1 -0.1)">
      <defs>
       <path id="DejaVuSans-2212" d="M 678 2272 
L 4684 2272 
L 4684 1741 
L 678 1741 
L 678 2272 
z
" transform="scale(0.015625)"/>
      </defs>
      <use xlink:href="#DejaVuSans-31"/>
      <use xlink:href="#DejaVuSans-65" x="63.623047"/>
      <use xlink:href="#DejaVuSans-2212" x="125.146484"/>
      <use xlink:href="#DejaVuSans-31" x="208.935547"/>
      <use xlink:href="#DejaVuSans-32" x="272.558594"/>
     </g>
    </g>
   </g>
   <g id="line2d_23">
    <path d="M 47.81 510.921818 
L 173.377291 510.921818 
L 173.744445 510.303606 
L 174.111598 510.921818 
L 337.128794 510.8738 
L 337.495948 510.537548 
L 337.863101 510.87281 
L 341.901815 510.782791 
L 343.370429 510.753995 
L 343.737583 510.673895 
L 344.104737 510.746386 
L 345.206221 510.677737 
L 346.674835 510.654858 
L 347.409143 510.504241 
L 348.14345 510.565412 
L 349.612088 510.459613 
L 350.346395 510.4872 
L 351.447856 510.474505 
L 351.81501 510.397722 
L 352.182163 510.448853 
L 352.549317 510.315511 
L 355.119416 510.41682 
L 355.486569 510.313311 
L 356.220877 510.421918 
L 356.58803 510.310915 
L 356.955207 510.440449 
L 359.525283 510.39892 
L 361.728228 510.405486 
L 362.829689 510.305213 
L 364.298303 510.423561 
L 364.66548 510.384293 
L 365.032634 510.460991 
L 365.766941 510.425465 
L 366.134095 510.481106 
L 366.501248 510.339718 
L 367.602709 510.465621 
L 368.704194 510.483858 
L 369.071347 510.372989 
L 369.438501 510.461145 
L 369.805655 510.415819 
L 370.907116 510.532975 
L 371.641423 510.483295 
L 372.37573 510.511542 
L 372.742907 510.358384 
L 374.211522 510.501283 
L 375.312983 510.420388 
L 377.148774 510.395453 
L 378.250235 510.475424 
L 378.617389 510.306356 
L 379.351696 510.446997 
L 379.71885 510.453245 
L 380.086003 510.340324 
L 381.187487 510.390526 
L 381.554641 510.223887 
L 382.288948 510.417924 
L 385.226201 510.286193 
L 385.593354 510.430775 
L 386.327662 510.390073 
L 387.429123 510.367954 
L 387.796276 510.294879 
L 388.530607 510.410269 
L 388.89776 510.367566 
L 389.264914 510.437359 
L 390.366375 510.380379 
L 390.733529 510.461083 
L 391.83499 510.391657 
L 392.202166 510.445778 
L 393.303627 510.26989 
L 394.405088 510.392349 
L 397.709471 510.300683 
L 398.443825 504.459589 
L 398.810955 506.463826 
L 399.178132 510.267536 
L 399.545263 510.362799 
L 400.27957 510.252678 
L 400.646747 510.351808 
L 401.381054 510.245309 
L 401.748185 510.215857 
L 402.115361 510.364869 
L 405.052591 510.3294 
L 405.419768 510.089261 
L 405.786898 510.321284 
L 406.154075 510.224851 
L 406.521252 510.369678 
L 406.888382 510.303573 
L 407.255559 510.380127 
L 407.62269 510.008908 
L 407.989866 510.383398 
L 408.724174 510.331814 
L 409.091304 510.40096 
L 409.825612 510.255075 
L 410.192788 510.091502 
L 410.559965 510.342627 
L 411.661403 510.465694 
L 412.02858 510.341173 
L 413.864371 510.475097 
L 414.231502 510.303977 
L 414.598678 510.443898 
L 414.965809 510.398667 
L 415.332986 510.492131 
L 415.700116 510.332846 
L 416.067293 510.31377 
L 416.434424 510.456582 
L 417.168731 510.494721 
L 417.535908 510.483349 
L 417.903084 507.916936 
L 418.270215 510.373489 
L 418.637392 510.40991 
L 419.004522 510.251697 
L 419.371699 510.357687 
L 419.73883 508.1587 
L 420.106006 507.359024 
L 420.473137 481.832097 
L 420.840314 440.808883 
L 421.207444 48.558182 
L 421.574621 456.987248 
L 421.941798 510.097619 
L 422.308928 509.493765 
L 422.676105 509.643848 
L 423.043236 510.384059 
L 425.613334 510.394496 
L 425.980511 501.090627 
L 426.347642 510.242209 
L 426.714818 504.747496 
L 427.081949 510.35642 
L 429.284871 510.41459 
L 429.652048 482.112636 
L 430.019224 509.026174 
L 430.386355 510.394493 
L 431.120662 510.332009 
L 431.487839 510.141952 
L 431.85497 510.400288 
L 432.222146 510.247721 
L 432.956454 510.399631 
L 434.425068 510.338109 
L 434.792245 510.4327 
L 435.159376 510.369209 
L 435.526552 508.535229 
L 435.893683 510.42849 
L 436.26086 510.46169 
L 436.62799 510.349466 
L 436.995167 510.390306 
L 437.362298 510.237765 
L 438.096651 510.452873 
L 438.463782 510.302907 
L 438.830958 492.959192 
L 439.198089 506.091618 
L 439.565266 510.417343 
L 443.97111 510.335823 
L 444.338287 510.421108 
L 445.072594 510.368261 
L 446.174078 510.406775 
L 447.275516 510.36252 
L 447.642693 510.211672 
L 448.009823 510.353381 
L 450.212791 510.361043 
L 451.314229 510.40527 
L 451.681406 510.30824 
L 452.415713 510.356501 
L 452.782844 510.219528 
L 453.517197 510.297416 
L 453.884328 510.067519 
L 454.618635 510.36759 
L 455.352943 510.2964 
L 456.454427 510.346668 
L 457.555911 510.271728 
L 457.923041 510.349574 
L 458.290218 510.254355 
L 458.657349 510.393803 
L 459.024525 510.285436 
L 460.49314 510.387432 
L 461.227447 510.297494 
L 461.961755 510.439254 
L 462.328931 510.375367 
L 462.696062 510.424317 
L 463.063239 510.335372 
L 463.797546 510.434063 
L 464.164677 510.395875 
L 464.531853 510.215074 
L 464.898984 510.347874 
L 466.000468 510.375771 
L 466.367645 510.410493 
L 466.734775 510.327593 
L 467.101952 510.425069 
L 467.469083 510.325678 
L 467.836259 510.417397 
L 468.20339 510.325634 
L 468.570567 510.398123 
L 468.937743 510.330938 
L 469.304874 510.438071 
L 470.039181 510.34452 
L 472.242103 510.43291 
L 472.60928 509.931269 
L 472.976457 510.28953 
L 474.445071 510.363324 
L 475.546509 510.381419 
L 476.647993 510.316031 
L 477.749477 510.345399 
L 478.116608 510.397874 
L 478.483785 510.128832 
L 478.850915 510.258116 
L 479.218092 510.194142 
L 479.585223 510.290051 
L 479.952399 510.248741 
L 480.686707 510.333447 
L 481.788191 510.269603 
L 482.155322 510.372035 
L 482.522498 510.18941 
L 482.889629 510.338256 
L 483.256806 510.088356 
L 483.623936 510.322382 
L 483.991113 510.33522 
L 484.358244 510.204547 
L 484.72542 510.271636 
L 485.459728 510.134629 
L 486.194035 510.288483 
L 486.928342 510.231366 
L 487.295519 510.136543 
L 488.029826 510.29577 
L 488.396957 510.297998 
L 488.764134 510.18155 
L 489.13131 510.327015 
L 489.865618 510.162043 
L 490.232748 510.3536 
L 490.599925 510.382654 
L 490.967056 510.152443 
L 491.334232 510.105434 
L 491.701363 510.250869 
L 492.06854 510.204679 
L 492.802847 510.317016 
L 493.904331 510.285145 
L 494.638638 510.161214 
L 495.372946 510.282381 
L 495.740076 510.258682 
L 496.107253 510.356508 
L 496.84156 510.368605 
L 498.310175 510.281704 
L 506.387602 510.289548 
L 506.754778 510.032424 
L 507.121909 510.287414 
L 507.856216 510.343934 
L 508.223393 510.226123 
L 508.9577 510.337863 
L 509.324877 510.244894 
L 509.692008 510.316667 
L 510.426315 510.172896 
L 510.793492 510.289182 
L 518.503742 510.313245 
L 518.870919 510.04635 
L 519.605226 510.34509 
L 519.972356 510.280181 
L 520.339533 510.389639 
L 521.073841 510.255627 
L 521.808148 510.392942 
L 522.175325 510.310735 
L 522.542455 510.415373 
L 522.909632 510.162478 
L 523.276763 510.331281 
L 523.643939 510.245403 
L 524.011116 510.405041 
L 529.151267 510.351346 
L 529.518444 510.198414 
L 529.885575 510.387151 
L 531.721366 510.366414 
L 532.088543 510.259577 
L 532.455673 510.361036 
L 532.82285 510.278352 
L 533.189981 510.440433 
L 534.658595 510.319022 
L 535.392903 510.388222 
L 536.494387 510.231788 
L 537.228694 510.372779 
L 537.595871 510.35173 
L 538.330178 510.451034 
L 539.064485 510.358901 
L 540.165969 510.461662 
L 540.5331 510.276914 
L 540.900277 510.399171 
L 541.634584 510.344892 
L 542.368891 510.411805 
L 542.736022 510.227294 
L 544.571813 510.436654 
L 545.673297 510.236891 
L 546.407605 510.389892 
L 550.079141 510.262144 
L 550.813449 510.371929 
L 551.180625 510.276157 
L 551.547802 510.386079 
L 552.282109 510.305656 
L 553.016417 510.35408 
L 553.383547 510.250746 
L 554.117855 510.322004 
L 554.852162 510.271825 
L 555.586516 510.376898 
L 556.687954 510.370549 
L 559.99236 510.384836 
L 560.359536 510.13176 
L 560.726667 510.327326 
L 561.460974 510.350408 
L 561.828151 510.140185 
L 562.929589 510.274922 
L 564.76538 510.201763 
L 565.132557 509.970744 
L 565.499688 510.293486 
L 565.866864 510.335073 
L 566.233995 510.144454 
L 566.601172 510.295879 
L 568.069786 510.177573 
L 568.436963 510.314123 
L 568.804094 510.233622 
L 569.17127 510.295951 
L 569.538401 510.140997 
L 569.905578 510.306805 
L 570.272708 510.184431 
L 571.007016 510.24414 
L 571.741369 510.253618 
L 573.944291 510.21631 
L 574.311422 510.152609 
L 575.045729 510.3042 
L 576.147213 510.241238 
L 576.51439 510.293614 
L 576.88152 510.155957 
L 577.248697 510.247784 
L 577.615828 510.090129 
L 578.350135 510.246925 
L 580.920234 510.23037 
L 581.28741 510.133497 
L 581.654541 510.269182 
L 582.021718 510.212285 
L 582.388848 510.299512 
L 582.756025 510.195165 
L 583.123202 510.275715 
L 583.490332 510.193162 
L 584.591816 510.267789 
L 584.958947 510.170684 
L 585.326124 509.83335 
L 585.693254 510.228279 
L 586.060431 510.280169 
L 586.427562 510.130557 
L 588.263353 510.284291 
L 589.364837 510.269384 
L 590.099144 510.342608 
L 590.466275 510.119869 
L 590.833452 510.31276 
L 596.34078 510.229515 
L 596.707957 510.346956 
L 597.442264 510.286111 
L 597.809395 510.330007 
L 598.176571 510.230034 
L 598.543702 510.349927 
L 598.910879 510.000138 
L 599.278055 510.347755 
L 599.645186 510.286917 
L 600.012363 510.074733 
L 600.379493 510.320379 
L 602.215285 510.315299 
L 602.582415 510.233057 
L 603.316769 510.34172 
L 604.051076 510.258136 
L 605.152514 510.311967 
L 605.519691 510.394631 
L 606.253998 510.259013 
L 606.988305 510.396179 
L 607.355482 510.176292 
L 608.45692 510.271869 
L 608.824097 510.122009 
L 609.558404 510.29339 
L 611.027019 510.129788 
L 611.394195 510.260038 
L 612.495633 510.236008 
L 612.86281 510.321384 
L 613.229941 510.264252 
L 613.597117 510.334299 
L 613.964248 510.201398 
L 614.331425 510.314452 
L 615.065732 510.251442 
L 615.432909 510.354141 
L 615.800039 510.242559 
L 617.635831 510.271013 
L 619.104445 510.221503 
L 619.838753 510.264379 
L 620.205929 510.266282 
L 620.57306 509.494086 
L 620.940237 509.960643 
L 621.307367 509.673009 
L 621.674544 510.047062 
L 622.041675 509.102038 
L 622.408851 509.551844 
L 622.776028 509.609321 
L 623.143159 509.012321 
L 623.510335 451.750983 
L 623.877466 510.323141 
L 624.611773 510.333854 
L 624.97895 510.052744 
L 625.713257 510.303912 
L 626.080388 510.232659 
L 626.447565 510.30701 
L 627.181872 510.219124 
L 627.549049 510.302272 
L 628.650487 510.286782 
L 629.384794 510.340741 
L 629.751971 510.226504 
L 630.486278 510.311203 
L 630.853455 510.150248 
L 631.220585 510.281458 
L 631.954893 510.100384 
L 633.056377 510.28198 
L 633.790684 510.231108 
L 634.157861 510.294861 
L 634.524992 510.175698 
L 634.892168 510.177557 
L 635.259299 510.309583 
L 635.993606 510.257569 
L 636.360783 510.190117 
L 637.09509 510.303042 
L 637.462221 510.288963 
L 637.829398 510.064943 
L 638.196574 510.276518 
L 638.930882 510.229434 
L 639.298012 510.143393 
L 639.665189 510.248744 
L 640.03232 510.225889 
L 640.399496 510.071454 
L 641.133804 510.407889 
L 641.868111 510.349827 
L 642.602418 510.525198 
L 644.43821 510.629396 
L 656.187173 510.885027 
L 690.332671 510.920249 
L 1141.2 510.921818 
L 1141.2 510.921818 
" clip-path="url(#paf5df0c035)" style="fill: none; stroke: #1f77b4; stroke-width: 1.5; stroke-linecap: square"/>
   </g>
   <g id="line2d_24">
    <path d="M 47.81 510.921818 
L 342.268968 510.834935 
L 344.47189 510.754288 
L 346.307682 510.690138 
L 347.776296 510.609166 
L 348.510604 510.466331 
L 348.877757 510.614878 
L 349.979241 510.583814 
L 351.81501 510.542144 
L 352.916494 510.459561 
L 353.283647 510.582673 
L 354.385108 510.487805 
L 354.752262 510.578947 
L 355.486569 510.462339 
L 355.853723 510.589071 
L 356.220877 510.471123 
L 359.525283 510.52241 
L 359.892436 510.452116 
L 360.25959 510.544032 
L 360.99392 510.490992 
L 361.728228 510.562955 
L 362.462535 510.456218 
L 362.829689 510.444281 
L 363.196842 510.569775 
L 363.563996 510.442939 
L 370.172808 510.571603 
L 370.907116 510.464967 
L 372.008577 510.562856 
L 372.37573 510.472994 
L 372.742907 510.54956 
L 373.110061 510.433885 
L 373.844368 510.584134 
L 374.945829 510.548289 
L 375.312983 510.373276 
L 375.680136 510.535026 
L 376.414444 510.563736 
L 376.78162 510.456266 
L 377.148774 510.592749 
L 380.820334 510.463376 
L 381.187487 510.545692 
L 381.554641 510.419692 
L 383.023256 510.559967 
L 383.757563 510.50809 
L 388.16343 510.516661 
L 388.89776 510.338766 
L 389.999221 510.544798 
L 390.733529 510.549897 
L 392.202166 510.399851 
L 392.56932 510.497086 
L 392.936474 510.316513 
L 393.303627 510.528992 
L 393.670781 510.475576 
L 394.405088 510.541768 
L 395.873703 510.553903 
L 396.975164 510.350896 
L 397.342341 510.556596 
L 398.443825 510.521521 
L 398.810955 510.339528 
L 399.178132 510.523926 
L 399.545263 510.444919 
L 399.912439 510.544105 
L 402.115361 510.54614 
L 404.68546 510.454079 
L 405.052591 510.322541 
L 405.419768 510.422458 
L 405.786898 510.344337 
L 407.62269 510.471595 
L 407.989866 510.351495 
L 408.356997 510.475842 
L 410.559965 510.503196 
L 410.927096 510.579176 
L 411.294272 510.470257 
L 411.661403 510.544173 
L 412.02858 510.449852 
L 412.39571 510.556263 
L 413.130018 510.488543 
L 413.497194 510.591849 
L 415.332986 510.508625 
L 416.434424 510.523093 
L 417.535908 510.428714 
L 417.903084 510.519261 
L 418.637392 510.458166 
L 419.371699 510.529733 
L 420.473137 510.517485 
L 420.840314 508.274551 
L 421.207444 500.594588 
L 421.574621 507.580891 
L 421.941798 510.463643 
L 423.777543 510.461438 
L 427.449126 510.465161 
L 428.183433 510.508558 
L 428.550564 510.448259 
L 428.91774 510.545026 
L 429.284871 510.423848 
L 430.019224 510.459696 
L 430.386355 510.380966 
L 431.120662 510.501371 
L 433.690761 510.533738 
L 434.425068 510.515191 
L 434.792245 510.43941 
L 435.526552 510.507076 
L 437.362298 510.484205 
L 438.096651 510.556962 
L 438.463782 502.911899 
L 438.830958 510.508419 
L 439.198089 508.410134 
L 439.565266 510.465949 
L 440.299573 510.465559 
L 444.338287 510.53135 
L 445.072594 510.398022 
L 445.806901 510.47435 
L 446.174078 510.420811 
L 446.541209 510.563591 
L 449.111307 510.42474 
L 449.845615 510.518142 
L 453.517197 510.516809 
L 453.884328 510.294323 
L 454.251505 510.480502 
L 454.985812 510.505815 
L 456.08725 510.324134 
L 456.454427 510.503235 
L 457.188734 510.440964 
L 457.555911 510.359511 
L 457.923041 510.511065 
L 459.391656 510.504415 
L 460.125963 510.510992 
L 460.49314 510.346569 
L 461.227447 510.51028 
L 462.328931 510.53048 
L 462.696062 510.552165 
L 463.430369 510.464398 
L 464.164677 510.406663 
L 464.531853 510.559356 
L 465.266161 510.523928 
L 470.039181 510.490895 
L 470.406358 510.379859 
L 471.140665 510.551205 
L 474.077895 510.460477 
L 474.445071 510.54683 
L 474.812202 510.382107 
L 475.179379 510.509768 
L 476.647993 510.310426 
L 477.01517 510.50683 
L 479.218092 510.428715 
L 479.585223 510.507286 
L 480.686707 510.416399 
L 483.991113 510.281582 
L 484.358244 510.2273 
L 485.826904 510.450427 
L 486.194035 510.365102 
L 486.561212 510.45271 
L 486.928342 510.334148 
L 488.764134 510.449332 
L 489.498441 510.475953 
L 491.701363 510.392533 
L 492.06854 510.505329 
L 492.43567 510.367489 
L 493.170024 510.501455 
L 493.904331 510.43326 
L 494.271462 510.336345 
L 494.638638 510.44191 
L 495.005769 510.316152 
L 495.372946 510.456448 
L 496.107253 510.43509 
L 496.47443 510.371089 
L 497.208737 510.4096 
L 497.943044 510.443509 
L 499.411659 510.349092 
L 499.77879 510.456337 
L 500.880274 510.330225 
L 501.24745 510.2606 
L 501.614581 510.455979 
L 508.223393 510.462177 
L 509.692008 510.464874 
L 510.059184 510.383449 
L 510.426315 510.453613 
L 511.160622 510.354432 
L 511.527799 510.428121 
L 511.89493 510.324729 
L 512.996414 510.426105 
L 514.097898 510.39063 
L 514.465028 510.113632 
L 514.832205 510.442337 
L 516.30082 510.472566 
L 516.667997 510.34205 
L 517.402304 510.461585 
L 517.769434 510.489231 
L 518.136611 510.39576 
L 518.870919 510.501827 
L 519.238049 510.402176 
L 519.972356 510.537855 
L 520.339533 510.500066 
L 520.70671 510.241688 
L 521.073841 510.488707 
L 521.808148 510.410897 
L 525.479731 510.51244 
L 525.846861 510.565724 
L 526.948345 510.40903 
L 528.41696 510.478742 
L 529.518444 510.527923 
L 530.987059 510.441454 
L 531.721366 510.372773 
L 532.088543 510.50301 
L 532.455673 510.333253 
L 532.82285 510.523229 
L 533.189981 510.390331 
L 533.924288 510.464259 
L 534.658595 510.542354 
L 535.392903 510.480031 
L 535.760079 510.535568 
L 536.494387 510.371177 
L 536.861563 510.541351 
L 537.963001 510.522642 
L 538.330178 510.35581 
L 538.697309 510.525957 
L 539.064485 510.542115 
L 539.431616 510.419162 
L 539.798793 510.507338 
L 540.165969 510.368589 
L 540.900277 510.531689 
L 541.634584 510.481141 
L 542.001715 510.558399 
L 542.736022 510.444632 
L 543.103199 510.565564 
L 543.837506 510.476429 
L 544.204683 510.510932 
L 544.571813 510.342538 
L 544.93899 510.510325 
L 545.673297 510.540187 
L 546.040428 510.43805 
L 546.407605 510.520165 
L 546.774735 510.399853 
L 547.141912 510.565598 
L 547.509043 510.353622 
L 547.876219 510.487768 
L 548.977703 510.446355 
L 549.712011 510.511323 
L 550.813449 510.451626 
L 551.547802 510.511658 
L 553.016417 510.461405 
L 553.383547 510.518387 
L 554.117855 510.378547 
L 555.586516 510.47582 
L 555.953646 510.284517 
L 556.320823 510.461212 
L 557.05513 510.312101 
L 557.422261 510.495335 
L 558.523745 510.362198 
L 559.625229 510.452891 
L 559.99236 510.409004 
L 560.726667 510.48314 
L 561.828151 510.38848 
L 562.929589 510.455337 
L 563.296766 510.250804 
L 563.663942 510.399048 
L 564.76538 510.41323 
L 565.499688 510.161161 
L 566.233995 510.421064 
L 566.601172 510.366513 
L 566.968302 510.465743 
L 567.335479 510.421336 
L 567.702656 510.189719 
L 568.069786 510.480536 
L 569.17127 510.431495 
L 570.639885 510.398068 
L 571.007016 510.319227 
L 571.741369 510.48439 
L 572.1085 510.34529 
L 572.475676 510.414993 
L 573.209984 510.253989 
L 573.944291 510.398818 
L 574.678598 510.273496 
L 575.045729 510.430096 
L 575.412906 510.318775 
L 575.780082 510.441583 
L 577.983004 510.382407 
L 578.350135 510.431774 
L 578.717312 510.315061 
L 579.818796 510.397602 
L 580.920234 510.306982 
L 581.654541 510.443551 
L 582.021718 510.305262 
L 582.388848 510.399418 
L 583.857509 510.293974 
L 584.22464 510.492864 
L 584.591816 510.367707 
L 584.958947 510.461861 
L 586.427562 510.339286 
L 588.63053 510.457352 
L 589.364837 510.294429 
L 589.731968 510.383698 
L 590.099144 510.319487 
L 590.466275 510.463521 
L 591.934936 510.349143 
L 592.302066 510.45946 
L 592.669243 510.361494 
L 593.403551 510.445748 
L 593.770681 510.380668 
L 594.504988 510.500995 
L 594.872165 510.411355 
L 595.606473 510.481259 
L 597.075087 510.344329 
L 597.442264 510.391842 
L 597.809395 510.325905 
L 598.176571 510.488337 
L 598.543702 510.389327 
L 599.278055 510.466873 
L 599.645186 510.281043 
L 600.379493 510.46558 
L 600.74667 510.363225 
L 601.480977 510.464866 
L 603.316769 510.428074 
L 604.418207 510.474493 
L 608.089789 510.417022 
L 609.191227 510.413292 
L 609.558404 510.339372 
L 609.925535 510.451488 
L 610.292711 510.210983 
L 611.027019 510.443473 
L 611.761326 510.383936 
L 612.128503 510.481382 
L 614.331425 510.37675 
L 618.370138 510.459878 
L 618.737315 510.319766 
L 620.205929 510.35087 
L 620.57306 510.057554 
L 620.940237 510.358436 
L 621.307367 510.502546 
L 622.041675 510.398195 
L 622.408851 509.561275 
L 622.776028 510.245582 
L 623.143159 510.368571 
L 623.877466 510.237603 
L 624.244643 510.4394 
L 624.611773 510.300447 
L 624.97895 510.460441 
L 625.713257 510.292425 
L 627.181872 510.398499 
L 628.650487 510.345319 
L 629.017663 510.466317 
L 629.751971 510.193735 
L 630.486278 510.406865 
L 631.220585 510.36665 
L 631.587762 510.319971 
L 631.954893 510.40828 
L 632.6892 510.434842 
L 634.157861 510.447317 
L 634.892168 510.430089 
L 635.993606 510.344611 
L 636.727914 510.404135 
L 638.196574 510.38508 
L 638.563705 510.459777 
L 639.298012 510.271364 
L 639.665189 510.420559 
L 640.399496 510.182886 
L 640.766627 510.411206 
L 643.336726 510.620187 
L 647.742616 510.794035 
L 649.21123 510.807028 
L 653.984251 510.876645 
L 663.163162 510.914365 
L 858.122888 510.92179 
L 1141.2 510.921818 
L 1141.2 510.921818 
" clip-path="url(#paf5df0c035)" style="fill: none; stroke: #ff7f0e; stroke-width: 1.5; stroke-linecap: square"/>
   </g>
   <g id="line2d_25">
    <path d="M 47.81 510.921818 
L 173.377291 510.921818 
L 173.744445 510.303609 
L 174.111598 510.921818 
L 337.128794 510.912921 
L 337.495948 510.579296 
L 337.863101 510.914427 
L 340.066023 510.90242 
L 347.776296 510.872176 
L 348.510604 510.921818 
L 349.244934 510.747026 
L 349.612088 510.843174 
L 349.979241 510.76787 
L 351.080702 510.799794 
L 352.182163 510.885197 
L 352.549317 510.734008 
L 352.916494 510.806134 
L 353.650801 510.780217 
L 354.385108 510.921818 
L 354.752262 510.756377 
L 355.486569 510.77279 
L 355.853723 510.732032 
L 356.220877 510.872614 
L 356.58803 510.749418 
L 357.322361 510.81961 
L 363.196842 510.696303 
L 363.563996 510.921818 
L 364.298303 510.801528 
L 367.235556 510.734894 
L 367.602709 510.853015 
L 370.172808 510.836186 
L 370.907116 510.921818 
L 372.008577 510.852184 
L 372.37573 510.921818 
L 372.742907 510.730642 
L 373.110061 510.908148 
L 373.477214 510.780457 
L 374.945829 510.852428 
L 375.312983 510.921818 
L 375.680136 510.790434 
L 376.78162 510.851613 
L 377.148774 510.724522 
L 377.515928 510.7956 
L 377.883081 510.734329 
L 378.250235 510.921818 
L 378.617389 510.677209 
L 379.351696 510.886064 
L 379.71885 510.875697 
L 380.086003 510.75199 
L 380.45318 510.921818 
L 381.921795 510.775661 
L 383.023256 510.797789 
L 383.757563 510.774866 
L 384.491893 510.830442 
L 388.16343 510.806233 
L 388.89776 510.921818 
L 389.999221 510.819806 
L 391.467836 510.685393 
L 391.83499 510.921818 
L 392.202166 510.921818 
L 392.56932 510.800647 
L 392.936474 510.921818 
L 393.303627 510.662716 
L 393.670781 510.785192 
L 396.240857 510.704987 
L 396.975164 510.921818 
L 397.709471 510.679288 
L 398.443825 504.859886 
L 398.810955 507.046116 
L 399.178132 510.665428 
L 399.545263 510.839698 
L 399.912439 510.676999 
L 400.27957 510.646697 
L 400.646747 510.79837 
L 401.381054 510.679093 
L 404.68546 510.748343 
L 405.052591 510.921818 
L 405.419768 510.588621 
L 405.786898 510.898765 
L 406.154075 510.759677 
L 406.888382 510.793533 
L 407.255559 510.819418 
L 407.62269 510.459131 
L 407.989866 510.921818 
L 408.356997 510.775808 
L 409.458481 510.839568 
L 410.192788 510.481662 
L 410.559965 510.761249 
L 410.927096 510.713855 
L 411.661403 510.843338 
L 412.762887 510.834412 
L 413.130018 510.882199 
L 414.231502 510.718813 
L 415.332986 510.905324 
L 415.700116 510.718408 
L 416.067293 510.695659 
L 416.434424 510.855307 
L 417.535908 510.921818 
L 417.903084 508.319493 
L 418.270215 510.809042 
L 418.637392 510.873562 
L 419.004522 510.628534 
L 419.371699 510.749772 
L 419.73883 508.580784 
L 420.106006 507.722764 
L 420.473137 482.23643 
L 420.840314 443.45615 
L 421.207444 58.885412 
L 421.574621 460.328175 
L 421.941798 510.555795 
L 422.308928 509.974322 
L 422.676105 510.085949 
L 423.043236 510.921818 
L 424.879027 510.716921 
L 425.246158 510.839499 
L 425.613334 510.836144 
L 425.980511 501.529771 
L 426.347642 510.754197 
L 426.714818 505.190685 
L 427.081949 510.798351 
L 429.284871 510.91256 
L 429.652048 482.557811 
L 430.019224 509.488296 
L 430.386355 510.921818 
L 431.487839 510.572499 
L 431.85497 510.825181 
L 432.589277 510.792903 
L 432.956454 510.760896 
L 433.323584 510.842808 
L 433.690761 510.679055 
L 434.425068 510.744736 
L 434.792245 510.915107 
L 435.159376 510.7962 
L 435.526552 508.949971 
L 435.893683 510.869182 
L 436.26086 510.885215 
L 436.62799 510.787657 
L 436.995167 510.921818 
L 437.362298 510.675378 
L 438.463782 510.921818 
L 438.830958 493.372592 
L 439.198089 508.603303 
L 439.565266 510.873211 
L 440.299573 510.882386 
L 441.03388 510.828829 
L 443.603979 510.776728 
L 443.97111 510.717674 
L 445.072594 510.892057 
L 445.806901 510.869525 
L 446.174078 510.907782 
L 446.908385 510.67989 
L 447.275516 510.842964 
L 447.642693 510.643537 
L 448.009823 510.801799 
L 449.478484 510.744719 
L 449.845615 510.647801 
L 450.579922 510.791264 
L 450.947099 510.747956 
L 451.314229 510.839891 
L 452.782844 510.63022 
L 453.150021 510.772737 
L 453.884328 510.695014 
L 455.720119 510.785858 
L 456.08725 510.913504 
L 456.821557 510.719015 
L 457.555911 510.834036 
L 458.290218 510.684314 
L 458.657349 510.817101 
L 459.024525 510.6433 
L 459.758833 510.776796 
L 460.125963 510.786059 
L 460.49314 510.921818 
L 460.860271 510.750949 
L 461.227447 510.709033 
L 461.594624 510.858992 
L 464.164677 510.911031 
L 464.531853 510.577536 
L 464.898984 510.781255 
L 465.633337 510.779877 
L 468.20339 510.725009 
L 468.570567 510.834718 
L 468.937743 510.750214 
L 469.304874 510.828569 
L 470.039181 510.775443 
L 470.406358 510.888381 
L 471.874973 510.810908 
L 472.242103 510.848081 
L 472.60928 510.326522 
L 472.976457 510.715045 
L 474.077895 510.908893 
L 474.445071 510.738313 
L 474.812202 510.876521 
L 475.179379 510.732763 
L 475.913686 510.861086 
L 476.280817 510.810826 
L 476.647993 510.921818 
L 477.01517 510.714456 
L 477.382301 510.644146 
L 478.116608 510.873521 
L 478.483785 510.592563 
L 478.850915 510.69966 
L 479.952399 510.721962 
L 480.31953 510.847359 
L 482.889629 510.795435 
L 483.256806 510.572401 
L 483.623936 510.859096 
L 484.358244 510.899065 
L 484.72542 510.907017 
L 485.459728 510.618889 
L 486.194035 510.845199 
L 486.561212 510.763918 
L 486.928342 510.819037 
L 487.295519 510.717336 
L 487.66265 510.901723 
L 488.396957 510.865621 
L 488.764134 510.654037 
L 489.13131 510.735685 
L 489.865618 510.626222 
L 490.232748 510.85886 
L 490.967056 510.767816 
L 491.334232 510.587265 
L 491.701363 510.780154 
L 492.06854 510.621168 
L 492.43567 510.85418 
L 493.170024 510.75249 
L 493.904331 510.773703 
L 494.271462 510.809851 
L 494.638638 510.641123 
L 495.005769 510.864911 
L 495.740076 510.713254 
L 496.47443 510.858873 
L 497.208737 510.837749 
L 497.575868 510.665341 
L 498.310175 510.782035 
L 498.677352 510.717514 
L 499.411659 510.921818 
L 499.77879 510.698802 
L 500.145966 510.823803 
L 500.880274 510.803796 
L 501.24745 510.867973 
L 501.981758 510.790315 
L 502.348888 510.86037 
L 503.817503 510.731234 
L 504.918987 510.851466 
L 505.286164 510.75273 
L 505.653294 510.835341 
L 506.020471 510.607508 
L 506.387602 510.716031 
L 506.754778 510.559768 
L 507.489086 510.811484 
L 507.856216 510.844937 
L 508.223393 510.685765 
L 508.9577 510.780839 
L 509.324877 510.715373 
L 510.059184 510.728913 
L 510.426315 510.641102 
L 510.793492 510.842729 
L 512.262106 510.873719 
L 512.629283 510.75221 
L 512.996414 510.831083 
L 513.730721 510.742379 
L 514.465028 510.921818 
L 515.199336 510.722185 
L 515.566512 510.774675 
L 515.933643 510.611755 
L 516.667997 510.921818 
L 517.035127 510.736131 
L 517.769434 510.74336 
L 518.136611 510.826959 
L 518.503742 510.741116 
L 518.870919 510.466341 
L 519.238049 510.765838 
L 519.605226 510.77361 
L 519.972356 510.664144 
L 520.70671 510.921818 
L 521.073841 510.688738 
L 521.808148 510.903863 
L 522.175325 510.817843 
L 522.542455 510.870919 
L 522.909632 510.581692 
L 523.276763 510.821339 
L 523.643939 510.68516 
L 524.011116 510.829957 
L 525.479731 510.752934 
L 526.214038 510.804148 
L 527.315476 510.842059 
L 529.151267 510.789104 
L 529.518444 510.592309 
L 529.885575 510.784419 
L 530.987059 510.858218 
L 531.721366 510.91546 
L 532.088543 510.678386 
L 532.455673 510.921818 
L 532.82285 510.676942 
L 533.189981 510.921818 
L 533.924288 510.808626 
L 534.658595 510.698486 
L 535.392903 510.830009 
L 535.760079 510.69166 
L 536.494387 510.782429 
L 537.228694 510.750006 
L 537.963001 510.845479 
L 538.330178 510.921818 
L 539.064485 510.738605 
L 539.431616 510.915997 
L 539.798793 510.78612 
L 540.165969 510.921818 
L 540.5331 510.710919 
L 541.267407 510.812433 
L 543.470329 510.752973 
L 543.837506 510.763621 
L 544.571813 510.921818 
L 544.93899 510.785839 
L 545.306121 510.821268 
L 545.673297 510.618523 
L 546.040428 510.817234 
L 546.407605 510.791545 
L 546.774735 510.893431 
L 547.141912 510.746275 
L 547.509043 510.921818 
L 547.876219 510.767648 
L 548.243396 510.848738 
L 548.610527 510.751956 
L 548.977703 510.817697 
L 549.344834 510.675781 
L 550.813449 510.842121 
L 551.180625 510.685423 
L 551.547802 510.79624 
L 552.282109 510.79962 
L 553.016417 510.814493 
L 553.383547 510.654177 
L 553.750724 510.865619 
L 554.485031 510.821201 
L 554.852162 510.722547 
L 555.219339 510.879244 
L 555.586516 510.822896 
L 555.953646 510.921818 
L 556.320823 510.776624 
L 557.05513 510.921818 
L 557.422261 510.689276 
L 558.156568 510.893074 
L 559.625229 510.747901 
L 559.99236 510.89765 
L 560.359536 510.552156 
L 561.093844 510.893398 
L 561.460974 510.856172 
L 561.828151 510.673523 
L 563.663942 510.874016 
L 564.031073 510.71853 
L 564.76538 510.710351 
L 565.132557 510.596225 
L 565.499688 510.921818 
L 565.866864 510.921818 
L 566.233995 510.645208 
L 566.601172 510.851184 
L 566.968302 510.720181 
L 567.702656 510.921818 
L 568.069786 510.618855 
L 568.436963 510.804676 
L 569.538401 510.629145 
L 569.905578 510.899573 
L 570.272708 510.670497 
L 571.007016 510.846732 
L 571.374192 510.679642 
L 571.741369 510.691045 
L 572.1085 510.836404 
L 572.475676 510.740216 
L 572.842807 510.913673 
L 574.311422 510.793885 
L 574.678598 510.909765 
L 575.045729 510.795923 
L 575.412906 510.863637 
L 575.780082 510.603224 
L 576.51439 510.865226 
L 576.88152 510.647034 
L 577.248697 510.750916 
L 577.615828 510.684367 
L 578.717312 510.858667 
L 579.084488 510.751418 
L 579.451619 510.887562 
L 579.818796 510.684813 
L 580.185926 510.837467 
L 580.553103 510.769139 
L 580.920234 510.845207 
L 581.28741 510.668928 
L 582.388848 510.821913 
L 582.756025 510.754056 
L 583.123202 510.839745 
L 583.490332 510.76797 
L 583.857509 510.867556 
L 584.22464 510.683334 
L 584.591816 510.8219 
L 585.326124 510.334325 
L 585.693254 510.807802 
L 586.060431 510.850725 
L 586.427562 510.713089 
L 590.099144 510.921818 
L 590.466275 510.578166 
L 590.833452 510.822864 
L 591.934936 510.856364 
L 592.302066 510.744473 
L 592.669243 510.916634 
L 594.504988 510.582141 
L 594.872165 510.717844 
L 595.606473 510.740071 
L 596.34078 510.724163 
L 596.707957 510.921818 
L 597.442264 510.816088 
L 597.809395 510.921818 
L 598.176571 510.663515 
L 598.543702 510.882419 
L 598.910879 510.48273 
L 599.278055 510.802701 
L 599.645186 510.921818 
L 600.012363 510.615397 
L 600.74667 510.883244 
L 601.113801 510.776372 
L 602.215285 510.781791 
L 602.582415 510.671657 
L 603.316769 510.835464 
L 603.683899 510.708063 
L 605.886821 510.808026 
L 606.253998 510.736967 
L 606.621175 510.893918 
L 606.988305 510.921818 
L 607.355482 510.761705 
L 608.089789 510.845695 
L 608.824097 510.615168 
L 609.558404 510.875836 
L 609.925535 510.721642 
L 610.292711 510.910268 
L 611.027019 510.608133 
L 611.394195 510.789352 
L 613.964248 510.717322 
L 614.331425 510.85952 
L 615.800039 510.674114 
L 616.167216 510.816998 
L 616.901523 510.760027 
L 617.635831 510.771567 
L 618.370138 510.673223 
L 618.737315 510.798376 
L 620.205929 510.83723 
L 620.57306 510.358351 
L 620.940237 510.524025 
L 621.307367 510.092281 
L 621.674544 510.540108 
L 622.041675 509.625661 
L 622.408851 510.912387 
L 623.143159 509.565568 
L 623.510335 452.41184 
L 623.877466 510.921818 
L 624.244643 510.824242 
L 624.611773 510.921818 
L 624.97895 510.514122 
L 625.713257 510.921818 
L 626.080388 510.815191 
L 626.447565 510.836356 
L 626.814741 510.703577 
L 628.650487 510.863281 
L 629.017663 510.79187 
L 629.384794 510.921818 
L 630.486278 510.826156 
L 630.853455 510.633724 
L 631.220585 510.836626 
L 632.6892 510.675112 
L 633.056377 510.791393 
L 633.423508 510.668519 
L 633.790684 510.805616 
L 634.892168 510.669285 
L 635.259299 510.845279 
L 635.626476 510.768162 
L 635.993606 510.834776 
L 636.360783 510.711712 
L 637.09509 510.833356 
L 637.462221 510.804552 
L 637.829398 510.631075 
L 638.196574 510.813256 
L 639.665189 510.750004 
L 640.399496 510.810387 
L 641.500934 510.781642 
L 641.868111 510.688195 
L 642.602418 510.889427 
L 646.274001 510.85028 
L 647.008308 510.881086 
L 649.945538 510.892801 
L 653.617074 510.911422 
L 659.491579 510.917041 
L 748.343319 510.921709 
L 1141.2 510.921818 
L 1141.2 510.921818 
" clip-path="url(#paf5df0c035)" style="fill: none; stroke: #2ca02c; stroke-width: 1.5; stroke-linecap: square"/>
   </g>
   <g id="patch_3">
    <path d="M 47.81 534.04 
L 47.81 25.44 
" style="fill: none; stroke: #000000; stroke-width: 0.8; stroke-linejoin: miter; stroke-linecap: square"/>
   </g>
   <g id="patch_4">
    <path d="M 1141.2 534.04 
L 1141.2 25.44 
" style="fill: none; stroke: #000000; stroke-width: 0.8; stroke-linejoin: miter; stroke-linecap: square"/>
   </g>
   <g id="patch_5">
    <path d="M 47.81 534.04 
L 1141.2 534.04 
" style="fill: none; stroke: #000000; stroke-width: 0.8; stroke-linejoin: miter; stroke-linecap: square"/>
   </g>
   <g id="patch_6">
    <path d="M 47.81 25.44 
L 1141.2 25.44 
" style="fill: none; stroke: #000000; stroke-width: 0.8; stroke-linejoin: miter; stroke-linecap: square"/>
   </g>
   <g id="text_15">
    <!-- Total Linear Power in MK L-Band -->
    <g transform="translate(499.002813 19.44) scale(0.12 -0.12)">
     <defs>
      <path id="DejaVuSans-54" d="M -19 4666 
L 3928 4666 
L 3928 4134 
L 2272 4134 
L 2272 0 
L 1638 0 
L 1638 4134 
L -19 4134 
L -19 4666 
z
" transform="scale(0.015625)"/>
      <path id="DejaVuSans-6f" d="M 1959 3097 
Q 1497 3097 1228 2736 
Q 959 2375 959 1747 
Q 959 1119 1226 758 
Q 1494 397 1959 397 
Q 2419 397 2687 759 
Q 2956 1122 2956 1747 
Q 2956 2369 2687 2733 
Q 2419 3097 1959 3097 
z
M 1959 3584 
Q 2709 3584 3137 3096 
Q 3566 2609 3566 1747 
Q 3566 888 3137 398 
Q 2709 -91 1959 -91 
Q 1206 -91 779 398 
Q 353 888 353 1747 
Q 353 2609 779 3096 
Q 1206 3584 1959 3584 
z
" transform="scale(0.015625)"/>
      <path id="DejaVuSans-74" d="M 1172 4494 
L 1172 3500 
L 2356 3500 
L 2356 3053 
L 1172 3053 
L 1172 1153 
Q 1172 725 1289 603 
Q 1406 481 1766 481 
L 2356 481 
L 2356 0 
L 1766 0 
Q 1100 0 847 248 
Q 594 497 594 1153 
L 594 3053 
L 172 3053 
L 172 3500 
L 594 3500 
L 594 4494 
L 1172 4494 
z
" transform="scale(0.015625)"/>
      <path id="DejaVuSans-61" d="M 2194 1759 
Q 1497 1759 1228 1600 
Q 959 1441 959 1056 
Q 959 750 1161 570 
Q 1363 391 1709 391 
Q 2188 391 2477 730 
Q 2766 1069 2766 1631 
L 2766 1759 
L 2194 1759 
z
M 3341 1997 
L 3341 0 
L 2766 0 
L 2766 531 
Q 2569 213 2275 61 
Q 1981 -91 1556 -91 
Q 1019 -91 701 211 
Q 384 513 384 1019 
Q 384 1609 779 1909 
Q 1175 2209 1959 2209 
L 2766 2209 
L 2766 2266 
Q 2766 2663 2505 2880 
Q 2244 3097 1772 3097 
Q 1472 3097 1187 3025 
Q 903 2953 641 2809 
L 641 3341 
Q 956 3463 1253 3523 
Q 1550 3584 1831 3584 
Q 2591 3584 2966 3190 
Q 3341 2797 3341 1997 
z
" transform="scale(0.015625)"/>
      <path id="DejaVuSans-6c" d="M 603 4863 
L 1178 4863 
L 1178 0 
L 603 0 
L 603 4863 
z
" transform="scale(0.015625)"/>
      <path id="DejaVuSans-4c" d="M 628 4666 
L 1259 4666 
L 1259 531 
L 3531 531 
L 3531 0 
L 628 0 
L 628 4666 
z
" transform="scale(0.015625)"/>
      <path id="DejaVuSans-69" d="M 603 3500 
L 1178 3500 
L 1178 0 
L 603 0 
L 603 3500 
z
M 603 4863 
L 1178 4863 
L 1178 4134 
L 603 4134 
L 603 4863 
z
" transform="scale(0.015625)"/>
      <path id="DejaVuSans-77" d="M 269 3500 
L 844 3500 
L 1563 769 
L 2278 3500 
L 2956 3500 
L 3675 769 
L 4391 3500 
L 4966 3500 
L 4050 0 
L 3372 0 
L 2619 2869 
L 1863 0 
L 1184 0 
L 269 3500 
z
" transform="scale(0.015625)"/>
      <path id="DejaVuSans-4b" d="M 628 4666 
L 1259 4666 
L 1259 2694 
L 3353 4666 
L 4166 4666 
L 1850 2491 
L 4331 0 
L 3500 0 
L 1259 2247 
L 1259 0 
L 628 0 
L 628 4666 
z
" transform="scale(0.015625)"/>
      <path id="DejaVuSans-2d" d="M 313 2009 
L 1997 2009 
L 1997 1497 
L 313 1497 
L 313 2009 
z
" transform="scale(0.015625)"/>
      <path id="DejaVuSans-42" d="M 1259 2228 
L 1259 519 
L 2272 519 
Q 2781 519 3026 730 
Q 3272 941 3272 1375 
Q 3272 1813 3026 2020 
Q 2781 2228 2272 2228 
L 1259 2228 
z
M 1259 4147 
L 1259 2741 
L 2194 2741 
Q 2656 2741 2882 2914 
Q 3109 3088 3109 3444 
Q 3109 3797 2882 3972 
Q 2656 4147 2194 4147 
L 1259 4147 
z
M 628 4666 
L 2241 4666 
Q 2963 4666 3353 4366 
Q 3744 4066 3744 3513 
Q 3744 3084 3544 2831 
Q 3344 2578 2956 2516 
Q 3422 2416 3680 2098 
Q 3938 1781 3938 1306 
Q 3938 681 3513 340 
Q 3088 0 2303 0 
L 628 0 
L 628 4666 
z
" transform="scale(0.015625)"/>
      <path id="DejaVuSans-64" d="M 2906 2969 
L 2906 4863 
L 3481 4863 
L 3481 0 
L 2906 0 
L 2906 525 
Q 2725 213 2448 61 
Q 2172 -91 1784 -91 
Q 1150 -91 751 415 
Q 353 922 353 1747 
Q 353 2572 751 3078 
Q 1150 3584 1784 3584 
Q 2172 3584 2448 3432 
Q 2725 3281 2906 2969 
z
M 947 1747 
Q 947 1113 1208 752 
Q 1469 391 1925 391 
Q 2381 391 2643 752 
Q 2906 1113 2906 1747 
Q 2906 2381 2643 2742 
Q 2381 3103 1925 3103 
Q 1469 3103 1208 2742 
Q 947 2381 947 1747 
z
" transform="scale(0.015625)"/>
     </defs>
     <use xlink:href="#DejaVuSans-54"/>
     <use xlink:href="#DejaVuSans-6f" x="44.083984"/>
     <use xlink:href="#DejaVuSans-74" x="105.265625"/>
     <use xlink:href="#DejaVuSans-61" x="144.474609"/>
     <use xlink:href="#DejaVuSans-6c" x="205.753906"/>
     <use xlink:href="#DejaVuSans-20" x="233.537109"/>
     <use xlink:href="#DejaVuSans-4c" x="265.324219"/>
     <use xlink:href="#DejaVuSans-69" x="321.037109"/>
     <use xlink:href="#DejaVuSans-6e" x="348.820312"/>
     <use xlink:href="#DejaVuSans-65" x="412.199219"/>
     <use xlink:href="#DejaVuSans-61" x="473.722656"/>
     <use xlink:href="#DejaVuSans-72" x="535.001953"/>
     <use xlink:href="#DejaVuSans-20" x="576.115234"/>
     <use xlink:href="#DejaVuSans-50" x="607.902344"/>
     <use xlink:href="#DejaVuSans-6f" x="664.580078"/>
     <use xlink:href="#DejaVuSans-77" x="725.761719"/>
     <use xlink:href="#DejaVuSans-65" x="807.548828"/>
     <use xlink:href="#DejaVuSans-72" x="869.072266"/>
     <use xlink:href="#DejaVuSans-20" x="910.185547"/>
     <use xlink:href="#DejaVuSans-69" x="941.972656"/>
     <use xlink:href="#DejaVuSans-6e" x="969.755859"/>
     <use xlink:href="#DejaVuSans-20" x="1033.134766"/>
     <use xlink:href="#DejaVuSans-4d" x="1064.921875"/>
     <use xlink:href="#DejaVuSans-4b" x="1151.201172"/>
     <use xlink:href="#DejaVuSans-20" x="1216.777344"/>
     <use xlink:href="#DejaVuSans-4c" x="1248.564453"/>
     <use xlink:href="#DejaVuSans-2d" x="1302.527344"/>
     <use xlink:href="#DejaVuSans-42" x="1334.986328"/>
     <use xlink:href="#DejaVuSans-61" x="1403.589844"/>
     <use xlink:href="#DejaVuSans-6e" x="1464.869141"/>
     <use xlink:href="#DejaVuSans-64" x="1528.248047"/>
    </g>
   </g>
   <g id="legend_1">
    <g id="patch_7">
     <path d="M 1039.18375 67.0675 
L 1135.6 67.0675 
Q 1137.2 67.0675 1137.2 65.4675 
L 1137.2 31.04 
Q 1137.2 29.44 1135.6 29.44 
L 1039.18375 29.44 
Q 1037.58375 29.44 1037.58375 31.04 
L 1037.58375 65.4675 
Q 1037.58375 67.0675 1039.18375 67.0675 
z
" style="fill: #ffffff; opacity: 0.8; stroke: #cccccc; stroke-linejoin: miter"/>
    </g>
    <g id="line2d_26">
     <path d="M 1040.78375 35.91875 
L 1048.78375 35.91875 
L 1056.78375 35.91875 
" style="fill: none; stroke: #1f77b4; stroke-width: 1.5; stroke-linecap: square"/>
    </g>
    <g id="text_16">
     <!-- DUT -->
     <g transform="translate(1063.18375 38.71875) scale(0.08 -0.08)">
      <defs>
       <path id="DejaVuSans-44" d="M 1259 4147 
L 1259 519 
L 2022 519 
Q 2988 519 3436 956 
Q 3884 1394 3884 2338 
Q 3884 3275 3436 3711 
Q 2988 4147 2022 4147 
L 1259 4147 
z
M 628 4666 
L 1925 4666 
Q 3281 4666 3915 4102 
Q 4550 3538 4550 2338 
Q 4550 1131 3912 565 
Q 3275 0 1925 0 
L 628 0 
L 628 4666 
z
" transform="scale(0.015625)"/>
       <path id="DejaVuSans-55" d="M 556 4666 
L 1191 4666 
L 1191 1831 
Q 1191 1081 1462 751 
Q 1734 422 2344 422 
Q 2950 422 3222 751 
Q 3494 1081 3494 1831 
L 3494 4666 
L 4128 4666 
L 4128 1753 
Q 4128 841 3676 375 
Q 3225 -91 2344 -91 
Q 1459 -91 1007 375 
Q 556 841 556 1753 
L 556 4666 
z
" transform="scale(0.015625)"/>
      </defs>
      <use xlink:href="#DejaVuSans-44"/>
      <use xlink:href="#DejaVuSans-55" x="77.001953"/>
      <use xlink:href="#DejaVuSans-54" x="150.195312"/>
     </g>
    </g>
    <g id="line2d_27">
     <path d="M 1040.78375 47.66125 
L 1048.78375 47.66125 
L 1056.78375 47.66125 
" style="fill: none; stroke: #ff7f0e; stroke-width: 1.5; stroke-linecap: square"/>
    </g>
    <g id="text_17">
     <!-- BG -->
     <g transform="translate(1063.18375 50.46125) scale(0.08 -0.08)">
      <defs>
       <path id="DejaVuSans-47" d="M 3809 666 
L 3809 1919 
L 2778 1919 
L 2778 2438 
L 4434 2438 
L 4434 434 
Q 4069 175 3628 42 
Q 3188 -91 2688 -91 
Q 1594 -91 976 548 
Q 359 1188 359 2328 
Q 359 3472 976 4111 
Q 1594 4750 2688 4750 
Q 3144 4750 3555 4637 
Q 3966 4525 4313 4306 
L 4313 3634 
Q 3963 3931 3569 4081 
Q 3175 4231 2741 4231 
Q 1884 4231 1454 3753 
Q 1025 3275 1025 2328 
Q 1025 1384 1454 906 
Q 1884 428 2741 428 
Q 3075 428 3337 486 
Q 3600 544 3809 666 
z
" transform="scale(0.015625)"/>
      </defs>
      <use xlink:href="#DejaVuSans-42"/>
      <use xlink:href="#DejaVuSans-47" x="66.853516"/>
     </g>
    </g>
    <g id="line2d_28">
     <path d="M 1040.78375 59.40375 
L 1048.78375 59.40375 
L 1056.78375 59.40375 
" style="fill: none; stroke: #2ca02c; stroke-width: 1.5; stroke-linecap: square"/>
    </g>
    <g id="text_18">
     <!-- Subtracted Power -->
     <g transform="translate(1063.18375 62.20375) scale(0.08 -0.08)">
      <defs>
       <path id="DejaVuSans-53" d="M 3425 4513 
L 3425 3897 
Q 3066 4069 2747 4153 
Q 2428 4238 2131 4238 
Q 1616 4238 1336 4038 
Q 1056 3838 1056 3469 
Q 1056 3159 1242 3001 
Q 1428 2844 1947 2747 
L 2328 2669 
Q 3034 2534 3370 2195 
Q 3706 1856 3706 1288 
Q 3706 609 3251 259 
Q 2797 -91 1919 -91 
Q 1588 -91 1214 -16 
Q 841 59 441 206 
L 441 856 
Q 825 641 1194 531 
Q 1563 422 1919 422 
Q 2459 422 2753 634 
Q 3047 847 3047 1241 
Q 3047 1584 2836 1778 
Q 2625 1972 2144 2069 
L 1759 2144 
Q 1053 2284 737 2584 
Q 422 2884 422 3419 
Q 422 4038 858 4394 
Q 1294 4750 2059 4750 
Q 2388 4750 2728 4690 
Q 3069 4631 3425 4513 
z
" transform="scale(0.015625)"/>
       <path id="DejaVuSans-62" d="M 3116 1747 
Q 3116 2381 2855 2742 
Q 2594 3103 2138 3103 
Q 1681 3103 1420 2742 
Q 1159 2381 1159 1747 
Q 1159 1113 1420 752 
Q 1681 391 2138 391 
Q 2594 391 2855 752 
Q 3116 1113 3116 1747 
z
M 1159 2969 
Q 1341 3281 1617 3432 
Q 1894 3584 2278 3584 
Q 2916 3584 3314 3078 
Q 3713 2572 3713 1747 
Q 3713 922 3314 415 
Q 2916 -91 2278 -91 
Q 1894 -91 1617 61 
Q 1341 213 1159 525 
L 1159 0 
L 581 0 
L 581 4863 
L 1159 4863 
L 1159 2969 
z
" transform="scale(0.015625)"/>
      </defs>
      <use xlink:href="#DejaVuSans-53"/>
      <use xlink:href="#DejaVuSans-75" x="63.476562"/>
      <use xlink:href="#DejaVuSans-62" x="126.855469"/>
      <use xlink:href="#DejaVuSans-74" x="190.332031"/>
      <use xlink:href="#DejaVuSans-72" x="229.541016"/>
      <use xlink:href="#DejaVuSans-61" x="270.654297"/>
      <use xlink:href="#DejaVuSans-63" x="331.933594"/>
      <use xlink:href="#DejaVuSans-74" x="386.914062"/>
      <use xlink:href="#DejaVuSans-65" x="426.123047"/>
      <use xlink:href="#DejaVuSans-64" x="487.646484"/>
      <use xlink:href="#DejaVuSans-20" x="551.123047"/>
      <use xlink:href="#DejaVuSans-50" x="582.910156"/>
      <use xlink:href="#DejaVuSans-6f" x="639.587891"/>
      <use xlink:href="#DejaVuSans-77" x="700.769531"/>
      <use xlink:href="#DejaVuSans-65" x="782.556641"/>
      <use xlink:href="#DejaVuSans-72" x="844.080078"/>
     </g>
    </g>
   </g>
  </g>
 </g>
 <defs>
  <clipPath id="paf5df0c035">
   <rect x="47.81" y="25.44" width="1093.39" height="508.6"/>
  </clipPath>
 </defs>
</svg>
