<?xml version="1.0" encoding="utf-8" standalone="no"?>
<!DOCTYPE svg PUBLIC "-//W3C//DTD SVG 1.1//EN"
  "http://www.w3.org/Graphics/SVG/1.1/DTD/svg11.dtd">
<svg xmlns:xlink="http://www.w3.org/1999/xlink" width="1152pt" height="576pt" viewBox="0 0 1152 576" xmlns="http://www.w3.org/2000/svg" version="1.1">
 <metadata>
  <rdf:RDF xmlns:dc="http://purl.org/dc/elements/1.1/" xmlns:cc="http://creativecommons.org/ns#" xmlns:rdf="http://www.w3.org/1999/02/22-rdf-syntax-ns#">
   <cc:Work>
    <dc:type rdf:resource="http://purl.org/dc/dcmitype/StillImage"/>
    <dc:date>2025-05-14T11:35:40.516411</dc:date>
    <dc:format>image/svg+xml</dc:format>
    <dc:creator>
     <cc:Agent>
      <dc:title>Matplotlib v3.9.2, https://matplotlib.org/</dc:title>
     </cc:Agent>
    </dc:creator>
   </cc:Work>
  </rdf:RDF>
 </metadata>
 <defs>
  <style type="text/css">*{stroke-linejoin: round; stroke-linecap: butt}</style>
 </defs>
 <g id="figure_1">
  <g id="patch_1">
   <path d="M 0 576 
L 1152 576 
L 1152 0 
L 0 0 
z
" style="fill: #ffffff"/>
  </g>
  <g id="axes_1">
   <g id="patch_2">
    <path d="M 45.34 548.12 
L 1141.2 548.12 
L 1141.2 29.76 
L 45.34 29.76 
z
" style="fill: #ffffff"/>
   </g>
   <g id="PathCollection_1">
    <defs>
     <path id="ma5b4861abd" d="M 0 3 
C 0.795609 3 1.55874 2.683901 2.12132 2.12132 
C 2.683901 1.55874 3 0.795609 3 0 
C 3 -0.795609 2.683901 -1.55874 2.12132 -2.12132 
C 1.55874 -2.683901 0.795609 -3 0 -3 
C -0.795609 -3 -1.55874 -2.683901 -2.12132 -2.12132 
C -2.683901 -1.55874 -3 -0.795609 -3 0 
C -3 0.795609 -2.683901 1.55874 -2.12132 2.12132 
C -1.55874 2.683901 -0.795609 3 0 3 
z
" style="stroke: #ff0000"/>
    </defs>
    <g clip-path="url(#pa0b2093ece)">
     <use xlink:href="#ma5b4861abd" x="158.950139" y="76.576194" style="fill: #ff0000; stroke: #ff0000"/>
     <use xlink:href="#ma5b4861abd" x="500.844211" y="73.284584" style="fill: #ff0000; stroke: #ff0000"/>
     <use xlink:href="#ma5b4861abd" x="505.751648" y="71.810654" style="fill: #ff0000; stroke: #ff0000"/>
     <use xlink:href="#ma5b4861abd" x="574.457817" y="63.478144" style="fill: #ff0000; stroke: #ff0000"/>
    </g>
   </g>
   <g id="matplotlib.axis_1">
    <g id="xtick_1">
     <g id="line2d_1">
      <path d="M 84.619704 548.12 
L 84.619704 29.76 
" clip-path="url(#pa0b2093ece)" style="fill: none; stroke-dasharray: 2.96,1.28; stroke-dashoffset: 0; stroke: #b0b0b0; stroke-width: 0.8"/>
     </g>
     <g id="line2d_2">
      <defs>
       <path id="m89e39f0262" d="M 0 0 
L 0 3.5 
" style="stroke: #000000; stroke-width: 0.8"/>
      </defs>
      <g>
       <use xlink:href="#m89e39f0262" x="84.619704" y="548.12" style="stroke: #000000; stroke-width: 0.8"/>
      </g>
     </g>
     <g id="text_1">
      <!-- 2400 -->
      <g transform="translate(71.894704 562.718437) scale(0.1 -0.1)">
       <defs>
        <path id="DejaVuSans-32" d="M 1228 531 
L 3431 531 
L 3431 0 
L 469 0 
L 469 531 
Q 828 903 1448 1529 
Q 2069 2156 2228 2338 
Q 2531 2678 2651 2914 
Q 2772 3150 2772 3378 
Q 2772 3750 2511 3984 
Q 2250 4219 1831 4219 
Q 1534 4219 1204 4116 
Q 875 4013 500 3803 
L 500 4441 
Q 881 4594 1212 4672 
Q 1544 4750 1819 4750 
Q 2544 4750 2975 4387 
Q 3406 4025 3406 3419 
Q 3406 3131 3298 2873 
Q 3191 2616 2906 2266 
Q 2828 2175 2409 1742 
Q 1991 1309 1228 531 
z
" transform="scale(0.015625)"/>
        <path id="DejaVuSans-34" d="M 2419 4116 
L 825 1625 
L 2419 1625 
L 2419 4116 
z
M 2253 4666 
L 3047 4666 
L 3047 1625 
L 3713 1625 
L 3713 1100 
L 3047 1100 
L 3047 0 
L 2419 0 
L 2419 1100 
L 313 1100 
L 313 1709 
L 2253 4666 
z
" transform="scale(0.015625)"/>
        <path id="DejaVuSans-30" d="M 2034 4250 
Q 1547 4250 1301 3770 
Q 1056 3291 1056 2328 
Q 1056 1369 1301 889 
Q 1547 409 2034 409 
Q 2525 409 2770 889 
Q 3016 1369 3016 2328 
Q 3016 3291 2770 3770 
Q 2525 4250 2034 4250 
z
M 2034 4750 
Q 2819 4750 3233 4129 
Q 3647 3509 3647 2328 
Q 3647 1150 3233 529 
Q 2819 -91 2034 -91 
Q 1250 -91 836 529 
Q 422 1150 422 2328 
Q 422 3509 836 4129 
Q 1250 4750 2034 4750 
z
" transform="scale(0.015625)"/>
       </defs>
       <use xlink:href="#DejaVuSans-32"/>
       <use xlink:href="#DejaVuSans-34" x="63.623047"/>
       <use xlink:href="#DejaVuSans-30" x="127.246094"/>
       <use xlink:href="#DejaVuSans-30" x="190.869141"/>
      </g>
     </g>
    </g>
    <g id="xtick_2">
     <g id="line2d_3">
      <path d="M 252.687108 548.12 
L 252.687108 29.76 
" clip-path="url(#pa0b2093ece)" style="fill: none; stroke-dasharray: 2.96,1.28; stroke-dashoffset: 0; stroke: #b0b0b0; stroke-width: 0.8"/>
     </g>
     <g id="line2d_4">
      <g>
       <use xlink:href="#m89e39f0262" x="252.687108" y="548.12" style="stroke: #000000; stroke-width: 0.8"/>
      </g>
     </g>
     <g id="text_2">
      <!-- 2500 -->
      <g transform="translate(239.962108 562.718437) scale(0.1 -0.1)">
       <defs>
        <path id="DejaVuSans-35" d="M 691 4666 
L 3169 4666 
L 3169 4134 
L 1269 4134 
L 1269 2991 
Q 1406 3038 1543 3061 
Q 1681 3084 1819 3084 
Q 2600 3084 3056 2656 
Q 3513 2228 3513 1497 
Q 3513 744 3044 326 
Q 2575 -91 1722 -91 
Q 1428 -91 1123 -41 
Q 819 9 494 109 
L 494 744 
Q 775 591 1075 516 
Q 1375 441 1709 441 
Q 2250 441 2565 725 
Q 2881 1009 2881 1497 
Q 2881 1984 2565 2268 
Q 2250 2553 1709 2553 
Q 1456 2553 1204 2497 
Q 953 2441 691 2322 
L 691 4666 
z
" transform="scale(0.015625)"/>
       </defs>
       <use xlink:href="#DejaVuSans-32"/>
       <use xlink:href="#DejaVuSans-35" x="63.623047"/>
       <use xlink:href="#DejaVuSans-30" x="127.246094"/>
       <use xlink:href="#DejaVuSans-30" x="190.869141"/>
      </g>
     </g>
    </g>
    <g id="xtick_3">
     <g id="line2d_5">
      <path d="M 420.754513 548.12 
L 420.754513 29.76 
" clip-path="url(#pa0b2093ece)" style="fill: none; stroke-dasharray: 2.96,1.28; stroke-dashoffset: 0; stroke: #b0b0b0; stroke-width: 0.8"/>
     </g>
     <g id="line2d_6">
      <g>
       <use xlink:href="#m89e39f0262" x="420.754513" y="548.12" style="stroke: #000000; stroke-width: 0.8"/>
      </g>
     </g>
     <g id="text_3">
      <!-- 2600 -->
      <g transform="translate(408.029513 562.718437) scale(0.1 -0.1)">
       <defs>
        <path id="DejaVuSans-36" d="M 2113 2584 
Q 1688 2584 1439 2293 
Q 1191 2003 1191 1497 
Q 1191 994 1439 701 
Q 1688 409 2113 409 
Q 2538 409 2786 701 
Q 3034 994 3034 1497 
Q 3034 2003 2786 2293 
Q 2538 2584 2113 2584 
z
M 3366 4563 
L 3366 3988 
Q 3128 4100 2886 4159 
Q 2644 4219 2406 4219 
Q 1781 4219 1451 3797 
Q 1122 3375 1075 2522 
Q 1259 2794 1537 2939 
Q 1816 3084 2150 3084 
Q 2853 3084 3261 2657 
Q 3669 2231 3669 1497 
Q 3669 778 3244 343 
Q 2819 -91 2113 -91 
Q 1303 -91 875 529 
Q 447 1150 447 2328 
Q 447 3434 972 4092 
Q 1497 4750 2381 4750 
Q 2619 4750 2861 4703 
Q 3103 4656 3366 4563 
z
" transform="scale(0.015625)"/>
       </defs>
       <use xlink:href="#DejaVuSans-32"/>
       <use xlink:href="#DejaVuSans-36" x="63.623047"/>
       <use xlink:href="#DejaVuSans-30" x="127.246094"/>
       <use xlink:href="#DejaVuSans-30" x="190.869141"/>
      </g>
     </g>
    </g>
    <g id="xtick_4">
     <g id="line2d_7">
      <path d="M 588.821917 548.12 
L 588.821917 29.76 
" clip-path="url(#pa0b2093ece)" style="fill: none; stroke-dasharray: 2.96,1.28; stroke-dashoffset: 0; stroke: #b0b0b0; stroke-width: 0.8"/>
     </g>
     <g id="line2d_8">
      <g>
       <use xlink:href="#m89e39f0262" x="588.821917" y="548.12" style="stroke: #000000; stroke-width: 0.8"/>
      </g>
     </g>
     <g id="text_4">
      <!-- 2700 -->
      <g transform="translate(576.096917 562.718437) scale(0.1 -0.1)">
       <defs>
        <path id="DejaVuSans-37" d="M 525 4666 
L 3525 4666 
L 3525 4397 
L 1831 0 
L 1172 0 
L 2766 4134 
L 525 4134 
L 525 4666 
z
" transform="scale(0.015625)"/>
       </defs>
       <use xlink:href="#DejaVuSans-32"/>
       <use xlink:href="#DejaVuSans-37" x="63.623047"/>
       <use xlink:href="#DejaVuSans-30" x="127.246094"/>
       <use xlink:href="#DejaVuSans-30" x="190.869141"/>
      </g>
     </g>
    </g>
    <g id="xtick_5">
     <g id="line2d_9">
      <path d="M 756.889322 548.12 
L 756.889322 29.76 
" clip-path="url(#pa0b2093ece)" style="fill: none; stroke-dasharray: 2.96,1.28; stroke-dashoffset: 0; stroke: #b0b0b0; stroke-width: 0.8"/>
     </g>
     <g id="line2d_10">
      <g>
       <use xlink:href="#m89e39f0262" x="756.889322" y="548.12" style="stroke: #000000; stroke-width: 0.8"/>
      </g>
     </g>
     <g id="text_5">
      <!-- 2800 -->
      <g transform="translate(744.164322 562.718437) scale(0.1 -0.1)">
       <defs>
        <path id="DejaVuSans-38" d="M 2034 2216 
Q 1584 2216 1326 1975 
Q 1069 1734 1069 1313 
Q 1069 891 1326 650 
Q 1584 409 2034 409 
Q 2484 409 2743 651 
Q 3003 894 3003 1313 
Q 3003 1734 2745 1975 
Q 2488 2216 2034 2216 
z
M 1403 2484 
Q 997 2584 770 2862 
Q 544 3141 544 3541 
Q 544 4100 942 4425 
Q 1341 4750 2034 4750 
Q 2731 4750 3128 4425 
Q 3525 4100 3525 3541 
Q 3525 3141 3298 2862 
Q 3072 2584 2669 2484 
Q 3125 2378 3379 2068 
Q 3634 1759 3634 1313 
Q 3634 634 3220 271 
Q 2806 -91 2034 -91 
Q 1263 -91 848 271 
Q 434 634 434 1313 
Q 434 1759 690 2068 
Q 947 2378 1403 2484 
z
M 1172 3481 
Q 1172 3119 1398 2916 
Q 1625 2713 2034 2713 
Q 2441 2713 2670 2916 
Q 2900 3119 2900 3481 
Q 2900 3844 2670 4047 
Q 2441 4250 2034 4250 
Q 1625 4250 1398 4047 
Q 1172 3844 1172 3481 
z
" transform="scale(0.015625)"/>
       </defs>
       <use xlink:href="#DejaVuSans-32"/>
       <use xlink:href="#DejaVuSans-38" x="63.623047"/>
       <use xlink:href="#DejaVuSans-30" x="127.246094"/>
       <use xlink:href="#DejaVuSans-30" x="190.869141"/>
      </g>
     </g>
    </g>
    <g id="xtick_6">
     <g id="line2d_11">
      <path d="M 924.956726 548.12 
L 924.956726 29.76 
" clip-path="url(#pa0b2093ece)" style="fill: none; stroke-dasharray: 2.96,1.28; stroke-dashoffset: 0; stroke: #b0b0b0; stroke-width: 0.8"/>
     </g>
     <g id="line2d_12">
      <g>
       <use xlink:href="#m89e39f0262" x="924.956726" y="548.12" style="stroke: #000000; stroke-width: 0.8"/>
      </g>
     </g>
     <g id="text_6">
      <!-- 2900 -->
      <g transform="translate(912.231726 562.718437) scale(0.1 -0.1)">
       <defs>
        <path id="DejaVuSans-39" d="M 703 97 
L 703 672 
Q 941 559 1184 500 
Q 1428 441 1663 441 
Q 2288 441 2617 861 
Q 2947 1281 2994 2138 
Q 2813 1869 2534 1725 
Q 2256 1581 1919 1581 
Q 1219 1581 811 2004 
Q 403 2428 403 3163 
Q 403 3881 828 4315 
Q 1253 4750 1959 4750 
Q 2769 4750 3195 4129 
Q 3622 3509 3622 2328 
Q 3622 1225 3098 567 
Q 2575 -91 1691 -91 
Q 1453 -91 1209 -44 
Q 966 3 703 97 
z
M 1959 2075 
Q 2384 2075 2632 2365 
Q 2881 2656 2881 3163 
Q 2881 3666 2632 3958 
Q 2384 4250 1959 4250 
Q 1534 4250 1286 3958 
Q 1038 3666 1038 3163 
Q 1038 2656 1286 2365 
Q 1534 2075 1959 2075 
z
" transform="scale(0.015625)"/>
       </defs>
       <use xlink:href="#DejaVuSans-32"/>
       <use xlink:href="#DejaVuSans-39" x="63.623047"/>
       <use xlink:href="#DejaVuSans-30" x="127.246094"/>
       <use xlink:href="#DejaVuSans-30" x="190.869141"/>
      </g>
     </g>
    </g>
    <g id="xtick_7">
     <g id="line2d_13">
      <path d="M 1093.024131 548.12 
L 1093.024131 29.76 
" clip-path="url(#pa0b2093ece)" style="fill: none; stroke-dasharray: 2.96,1.28; stroke-dashoffset: 0; stroke: #b0b0b0; stroke-width: 0.8"/>
     </g>
     <g id="line2d_14">
      <g>
       <use xlink:href="#m89e39f0262" x="1093.024131" y="548.12" style="stroke: #000000; stroke-width: 0.8"/>
      </g>
     </g>
     <g id="text_7">
      <!-- 3000 -->
      <g transform="translate(1080.299131 562.718437) scale(0.1 -0.1)">
       <defs>
        <path id="DejaVuSans-33" d="M 2597 2516 
Q 3050 2419 3304 2112 
Q 3559 1806 3559 1356 
Q 3559 666 3084 287 
Q 2609 -91 1734 -91 
Q 1441 -91 1130 -33 
Q 819 25 488 141 
L 488 750 
Q 750 597 1062 519 
Q 1375 441 1716 441 
Q 2309 441 2620 675 
Q 2931 909 2931 1356 
Q 2931 1769 2642 2001 
Q 2353 2234 1838 2234 
L 1294 2234 
L 1294 2753 
L 1863 2753 
Q 2328 2753 2575 2939 
Q 2822 3125 2822 3475 
Q 2822 3834 2567 4026 
Q 2313 4219 1838 4219 
Q 1578 4219 1281 4162 
Q 984 4106 628 3988 
L 628 4550 
Q 988 4650 1302 4700 
Q 1616 4750 1894 4750 
Q 2613 4750 3031 4423 
Q 3450 4097 3450 3541 
Q 3450 3153 3228 2886 
Q 3006 2619 2597 2516 
z
" transform="scale(0.015625)"/>
       </defs>
       <use xlink:href="#DejaVuSans-33"/>
       <use xlink:href="#DejaVuSans-30" x="63.623047"/>
       <use xlink:href="#DejaVuSans-30" x="127.246094"/>
       <use xlink:href="#DejaVuSans-30" x="190.869141"/>
      </g>
     </g>
    </g>
   </g>
   <g id="matplotlib.axis_2">
    <g id="ytick_1">
     <g id="line2d_15">
      <path d="M 45.34 468.869664 
L 1141.2 468.869664 
" clip-path="url(#pa0b2093ece)" style="fill: none; stroke-dasharray: 2.96,1.28; stroke-dashoffset: 0; stroke: #b0b0b0; stroke-width: 0.8"/>
     </g>
     <g id="line2d_16">
      <defs>
       <path id="m5eb728df68" d="M 0 0 
L -3.5 0 
" style="stroke: #000000; stroke-width: 0.8"/>
      </defs>
      <g>
       <use xlink:href="#m5eb728df68" x="45.34" y="468.869664" style="stroke: #000000; stroke-width: 0.8"/>
      </g>
     </g>
     <g id="text_8">
      <!-- −100 -->
      <g transform="translate(10.872812 472.668882) scale(0.1 -0.1)">
       <defs>
        <path id="DejaVuSans-2212" d="M 678 2272 
L 4684 2272 
L 4684 1741 
L 678 1741 
L 678 2272 
z
" transform="scale(0.015625)"/>
        <path id="DejaVuSans-31" d="M 794 531 
L 1825 531 
L 1825 4091 
L 703 3866 
L 703 4441 
L 1819 4666 
L 2450 4666 
L 2450 531 
L 3481 531 
L 3481 0 
L 794 0 
L 794 531 
z
" transform="scale(0.015625)"/>
       </defs>
       <use xlink:href="#DejaVuSans-2212"/>
       <use xlink:href="#DejaVuSans-31" x="83.789062"/>
       <use xlink:href="#DejaVuSans-30" x="147.412109"/>
       <use xlink:href="#DejaVuSans-30" x="211.035156"/>
      </g>
     </g>
    </g>
    <g id="ytick_2">
     <g id="line2d_17">
      <path d="M 45.34 376.409438 
L 1141.2 376.409438 
" clip-path="url(#pa0b2093ece)" style="fill: none; stroke-dasharray: 2.96,1.28; stroke-dashoffset: 0; stroke: #b0b0b0; stroke-width: 0.8"/>
     </g>
     <g id="line2d_18">
      <g>
       <use xlink:href="#m5eb728df68" x="45.34" y="376.409438" style="stroke: #000000; stroke-width: 0.8"/>
      </g>
     </g>
     <g id="text_9">
      <!-- −90 -->
      <g transform="translate(17.235312 380.208656) scale(0.1 -0.1)">
       <use xlink:href="#DejaVuSans-2212"/>
       <use xlink:href="#DejaVuSans-39" x="83.789062"/>
       <use xlink:href="#DejaVuSans-30" x="147.412109"/>
      </g>
     </g>
    </g>
    <g id="ytick_3">
     <g id="line2d_19">
      <path d="M 45.34 283.949212 
L 1141.2 283.949212 
" clip-path="url(#pa0b2093ece)" style="fill: none; stroke-dasharray: 2.96,1.28; stroke-dashoffset: 0; stroke: #b0b0b0; stroke-width: 0.8"/>
     </g>
     <g id="line2d_20">
      <g>
       <use xlink:href="#m5eb728df68" x="45.34" y="283.949212" style="stroke: #000000; stroke-width: 0.8"/>
      </g>
     </g>
     <g id="text_10">
      <!-- −80 -->
      <g transform="translate(17.235312 287.74843) scale(0.1 -0.1)">
       <use xlink:href="#DejaVuSans-2212"/>
       <use xlink:href="#DejaVuSans-38" x="83.789062"/>
       <use xlink:href="#DejaVuSans-30" x="147.412109"/>
      </g>
     </g>
    </g>
    <g id="ytick_4">
     <g id="line2d_21">
      <path d="M 45.34 191.488986 
L 1141.2 191.488986 
" clip-path="url(#pa0b2093ece)" style="fill: none; stroke-dasharray: 2.96,1.28; stroke-dashoffset: 0; stroke: #b0b0b0; stroke-width: 0.8"/>
     </g>
     <g id="line2d_22">
      <g>
       <use xlink:href="#m5eb728df68" x="45.34" y="191.488986" style="stroke: #000000; stroke-width: 0.8"/>
      </g>
     </g>
     <g id="text_11">
      <!-- −70 -->
      <g transform="translate(17.235312 195.288204) scale(0.1 -0.1)">
       <use xlink:href="#DejaVuSans-2212"/>
       <use xlink:href="#DejaVuSans-37" x="83.789062"/>
       <use xlink:href="#DejaVuSans-30" x="147.412109"/>
      </g>
     </g>
    </g>
    <g id="ytick_5">
     <g id="line2d_23">
      <path d="M 45.34 99.02876 
L 1141.2 99.02876 
" clip-path="url(#pa0b2093ece)" style="fill: none; stroke-dasharray: 2.96,1.28; stroke-dashoffset: 0; stroke: #b0b0b0; stroke-width: 0.8"/>
     </g>
     <g id="line2d_24">
      <g>
       <use xlink:href="#m5eb728df68" x="45.34" y="99.02876" style="stroke: #000000; stroke-width: 0.8"/>
      </g>
     </g>
     <g id="text_12">
      <!-- −60 -->
      <g transform="translate(17.235312 102.827978) scale(0.1 -0.1)">
       <use xlink:href="#DejaVuSans-2212"/>
       <use xlink:href="#DejaVuSans-36" x="83.789062"/>
       <use xlink:href="#DejaVuSans-30" x="147.412109"/>
      </g>
     </g>
    </g>
   </g>
   <g id="line2d_25">
    <path d="M 95.151818 100.659257 
L 96.787767 95.459921 
L 98.423716 94.253308 
L 100.059665 94.391182 
L 101.695204 92.692435 
L 103.331153 94.026341 
L 104.967102 94.993395 
L 106.603051 96.860242 
L 108.23859 98.940265 
L 109.874539 95.614302 
L 111.510488 90.417082 
L 113.146437 97.398862 
L 114.782386 92.276522 
L 116.417925 96.314991 
L 118.053874 95.673239 
L 119.689823 89.848129 
L 121.325772 97.277989 
L 122.961311 97.693726 
L 124.59726 94.709183 
L 126.233209 93.40487 
L 127.869158 96.377455 
L 129.505108 92.08345 
L 131.140646 96.858161 
L 132.776595 93.836125 
L 134.412544 97.342922 
L 136.048494 90.85839 
L 137.684032 91.382478 
L 139.319981 93.584927 
L 140.95593 95.44606 
L 142.591879 91.380715 
L 144.227418 92.884626 
L 145.863367 96.459989 
L 147.499316 91.079961 
L 149.135265 95.750129 
L 150.771215 92.111667 
L 152.406753 87.464495 
L 154.042702 90.177029 
L 155.678651 89.628498 
L 157.314601 92.030826 
L 158.950139 76.576194 
L 160.586088 86.182261 
L 162.222037 92.294581 
L 163.857987 94.752319 
L 165.493936 92.452488 
L 167.129474 92.363394 
L 168.765423 92.130007 
L 170.401373 93.49086 
L 172.037322 93.394817 
L 173.67286 91.705665 
L 175.308809 90.873451 
L 176.944759 94.28417 
L 178.580708 90.422796 
L 180.216246 96.947466 
L 181.852195 90.486001 
L 183.488144 90.202883 
L 185.124094 89.634106 
L 186.760043 86.300383 
L 188.395581 84.460588 
L 190.03153 93.96183 
L 191.66748 90.763124 
L 193.303429 84.470746 
L 194.938967 94.225691 
L 196.574916 90.793668 
L 198.210866 88.889963 
L 199.846815 87.804223 
L 201.482764 85.748148 
L 203.118302 92.26252 
L 204.754252 90.364176 
L 206.390201 86.993418 
L 208.02615 81.986802 
L 209.661688 91.402759 
L 211.297638 89.909007 
L 212.933587 89.018631 
L 214.569536 81.372209 
L 216.205074 92.342267 
L 217.841024 91.099078 
L 219.476973 92.788442 
L 221.112922 89.578061 
L 222.748871 80.775745 
L 224.384409 90.563526 
L 226.020359 90.621829 
L 227.656308 94.378696 
L 230.927795 83.270588 
L 232.563745 92.924905 
L 234.199694 88.768173 
L 235.835643 86.196334 
L 237.471592 85.407503 
L 239.107131 81.300997 
L 240.74308 87.330043 
L 242.379029 83.398868 
L 244.014978 75.333428 
L 245.650517 84.709635 
L 247.286466 84.352131 
L 248.922415 88.94682 
L 250.558364 87.559338 
L 252.194313 85.847647 
L 253.829852 84.629112 
L 255.465801 86.921113 
L 257.10175 85.939633 
L 258.737699 89.062014 
L 260.373238 87.133373 
L 262.009187 95.252353 
L 263.645136 90.601901 
L 265.281085 92.815953 
L 266.916624 96.86324 
L 268.552573 95.816721 
L 270.188522 95.910153 
L 271.824471 88.742814 
L 273.46042 93.006945 
L 275.095959 85.081178 
L 276.731908 93.103128 
L 278.367857 90.3895 
L 280.003806 92.164149 
L 281.639345 93.133743 
L 284.911243 89.571218 
L 286.547192 94.022955 
L 288.183141 96.147102 
L 289.81868 93.284561 
L 291.454629 95.022529 
L 293.090578 96.368955 
L 294.726527 100.732726 
L 296.362066 88.520467 
L 297.998015 87.260453 
L 299.633964 95.320531 
L 301.269913 91.109483 
L 302.905452 97.120046 
L 304.541401 87.994227 
L 306.17735 96.75189 
L 307.813299 89.660559 
L 309.449248 89.49461 
L 311.084787 90.835535 
L 312.720736 92.416124 
L 314.356685 95.440205 
L 315.992634 96.143081 
L 317.628173 96.15331 
L 319.264122 97.988871 
L 322.53602 93.887832 
L 324.171969 88.455533 
L 325.807508 96.540054 
L 327.443457 93.187108 
L 329.079406 94.035617 
L 330.715355 100.426541 
L 332.350894 92.454816 
L 333.986843 97.648685 
L 335.622792 96.664983 
L 337.258741 96.960658 
L 338.89428 94.494419 
L 340.530229 98.186458 
L 343.802127 92.990226 
L 345.438076 96.198527 
L 347.073615 101.181864 
L 348.709564 97.567386 
L 350.345513 92.026629 
L 351.981462 97.658737 
L 353.617001 95.040411 
L 355.25295 99.076446 
L 358.524848 82.713451 
L 360.160797 84.018893 
L 361.796336 93.900495 
L 363.432285 95.0918 
L 365.068234 90.110438 
L 366.704183 94.163403 
L 368.339722 94.356581 
L 369.975671 93.425574 
L 371.61162 96.678068 
L 373.247569 94.445816 
L 374.883518 94.660721 
L 376.519057 89.154529 
L 378.155006 96.526333 
L 379.790955 91.26605 
L 381.426904 91.873624 
L 383.062443 95.147211 
L 384.698392 94.098963 
L 386.334341 90.075873 
L 387.97029 84.700994 
L 389.605829 91.579677 
L 391.241778 93.942573 
L 392.877727 91.801848 
L 394.513676 93.431746 
L 396.149625 93.936859 
L 397.785164 92.86699 
L 399.421113 92.182173 
L 401.057062 92.21106 
L 402.693011 81.966839 
L 404.32855 81.976609 
L 407.600448 95.225441 
L 409.236397 89.433451 
L 410.872346 89.613014 
L 412.507885 88.431866 
L 414.143834 88.17961 
L 415.779783 87.00735 
L 417.415732 90.751167 
L 419.051271 81.784947 
L 420.68722 86.679332 
L 422.323169 83.312348 
L 423.959118 89.918318 
L 425.594657 87.747472 
L 427.230606 89.178055 
L 428.866555 86.221658 
L 430.502504 90.975489 
L 432.138453 89.83783 
L 433.773992 90.309718 
L 435.409941 88.166313 
L 437.04589 85.435896 
L 438.681839 86.994759 
L 440.317378 84.681842 
L 441.953327 90.191702 
L 443.589276 78.081763 
L 445.225225 82.699483 
L 446.861174 84.483444 
L 448.496713 82.352525 
L 450.132662 92.302658 
L 451.768611 84.958577 
L 453.40456 87.410495 
L 455.040099 82.125346 
L 456.676048 89.314376 
L 458.311997 88.461847 
L 459.947946 78.480499 
L 461.583485 81.543801 
L 463.219434 85.741024 
L 464.855383 86.732485 
L 466.491332 85.302396 
L 468.127281 82.530536 
L 469.76282 79.090613 
L 471.398769 81.19522 
L 473.034718 86.174854 
L 474.670667 80.450442 
L 476.306206 87.583534 
L 477.942155 83.710908 
L 479.578104 89.1012 
L 481.214053 83.896256 
L 482.850002 84.809628 
L 484.485541 89.436166 
L 486.12149 89.328132 
L 487.757439 85.18378 
L 489.393388 84.222193 
L 491.028927 80.20263 
L 494.300825 86.035182 
L 495.936774 87.096409 
L 497.572723 78.988468 
L 499.208262 84.295698 
L 500.844211 73.284584 
L 502.48016 87.410989 
L 504.116109 89.80009 
L 505.751648 71.810654 
L 507.387597 87.94654 
L 509.023546 85.570913 
L 510.659495 87.592669 
L 512.295034 83.410789 
L 513.930983 90.278186 
L 515.566932 90.487906 
L 517.202881 83.643858 
L 518.838831 86.710547 
L 520.474369 83.995226 
L 522.110318 89.074182 
L 523.746267 87.910317 
L 525.382217 89.595061 
L 527.017755 77.545576 
L 530.289653 86.405031 
L 531.925602 83.928952 
L 533.561552 89.661194 
L 535.19709 79.997883 
L 536.833039 83.620968 
L 538.468988 87.741582 
L 540.104938 83.374919 
L 541.740476 85.534619 
L 543.376425 92.705203 
L 545.012374 85.096909 
L 546.648324 88.563356 
L 548.283862 85.603362 
L 549.919811 84.149253 
L 551.55576 85.442139 
L 553.19171 83.406557 
L 554.827659 75.852861 
L 556.463197 82.564749 
L 558.099146 85.111405 
L 559.735096 83.345609 
L 561.371045 77.848094 
L 563.006583 79.562324 
L 564.642532 83.541256 
L 566.278482 86.45628 
L 567.914431 80.343007 
L 569.55038 81.550291 
L 571.185918 81.589195 
L 572.821867 87.954018 
L 574.457817 63.478144 
L 576.093766 81.674585 
L 577.729304 87.426755 
L 579.365253 84.622446 
L 581.001203 85.067845 
L 582.637152 81.344556 
L 584.27269 81.921269 
L 585.908639 78.97429 
L 587.544589 79.468045 
L 589.180538 81.08253 
L 590.816487 82.029903 
L 592.452025 78.240128 
L 594.087975 84.186852 
L 595.723924 74.850007 
L 597.359873 79.736456 
L 598.995411 80.65332 
L 600.631361 82.710382 
L 602.26731 77.143172 
L 603.903259 82.269356 
L 605.539208 84.016706 
L 607.174747 77.654034 
L 608.810696 81.662311 
L 610.446645 81.373796 
L 612.082594 80.363147 
L 613.718133 82.461335 
L 615.354082 78.768802 
L 616.990031 82.314009 
L 618.62598 86.458431 
L 620.261929 76.930172 
L 621.897468 75.555775 
L 623.533417 71.864406 
L 625.169366 77.175163 
L 626.805315 84.752877 
L 628.440854 85.894769 
L 630.076803 80.842406 
L 631.712752 81.858734 
L 633.348701 80.949312 
L 634.98424 78.82065 
L 636.620189 82.945144 
L 638.256138 83.063936 
L 639.892087 86.506258 
L 641.528036 79.614878 
L 643.163575 85.215983 
L 644.799524 81.177761 
L 646.435473 80.565848 
L 648.071422 78.990408 
L 649.706961 86.614928 
L 651.34291 86.142581 
L 652.978859 82.060059 
L 654.614808 74.064774 
L 656.250757 73.737567 
L 657.886296 73.750194 
L 659.522245 80.458096 
L 661.158194 80.843359 
L 662.794143 84.692282 
L 664.429682 80.655718 
L 666.065631 85.580083 
L 667.70158 82.754788 
L 669.337529 82.735036 
L 670.973068 81.952342 
L 672.609017 82.714544 
L 674.244966 81.080378 
L 675.880915 85.83114 
L 677.516864 74.656864 
L 679.152403 80.675047 
L 680.788352 80.992413 
L 682.424301 76.26306 
L 684.06025 84.875655 
L 685.695789 72.981679 
L 687.331738 84.805748 
L 688.967687 80.731268 
L 690.603636 75.594891 
L 692.239585 81.828613 
L 693.875124 83.684843 
L 695.511073 81.716064 
L 697.147022 78.313174 
L 698.782971 83.833827 
L 700.41851 76.61598 
L 702.054459 82.035793 
L 703.690408 84.886801 
L 705.326357 73.182052 
L 706.961896 83.099172 
L 708.597845 75.580959 
L 710.233794 79.832498 
L 711.869743 81.820148 
L 713.505692 81.11378 
L 715.141231 80.985112 
L 716.77718 80.54465 
L 718.413129 77.543566 
L 720.049078 81.834855 
L 721.684617 79.096644 
L 723.320566 84.491309 
L 724.956515 72.95057 
L 726.592464 79.64648 
L 728.228413 81.727209 
L 729.863952 75.987913 
L 731.499901 81.259519 
L 733.13585 79.346925 
L 734.771799 82.176524 
L 736.407338 71.411918 
L 738.043287 70.834253 
L 739.679236 76.018281 
L 741.315185 73.657643 
L 742.951134 83.574657 
L 744.586673 73.672351 
L 746.222622 73.666743 
L 747.858571 74.482838 
L 749.49452 76.083497 
L 751.130059 83.334675 
L 752.766008 78.043564 
L 754.401957 80.423284 
L 756.037906 78.441807 
L 757.673445 77.296565 
L 759.309394 77.644088 
L 760.945343 68.732044 
L 762.581292 74.099833 
L 764.217241 72.067848 
L 765.85278 75.606601 
L 767.488729 70.284664 
L 769.124678 73.072889 
L 770.760627 72.099451 
L 772.396166 72.684417 
L 774.032115 66.402903 
L 775.668064 75.84884 
L 777.304013 80.48201 
L 778.939962 72.994835 
L 780.575501 76.527027 
L 782.21145 75.116584 
L 783.847399 78.675052 
L 785.483348 85.453849 
L 787.118887 73.654151 
L 788.754836 75.049358 
L 790.390785 75.809478 
L 792.026734 73.660077 
L 793.662273 80.564684 
L 795.298222 78.374581 
L 796.934171 80.949488 
L 798.57012 77.357301 
L 800.206069 77.79099 
L 801.841608 73.394417 
L 803.477557 75.081736 
L 805.113506 71.642483 
L 806.749455 70.625027 
L 810.020943 75.553624 
L 811.656892 72.279367 
L 813.292841 77.865764 
L 814.92879 75.609422 
L 816.564329 71.977273 
L 818.200278 79.873236 
L 819.836227 72.687803 
L 821.472176 77.172165 
L 823.107715 72.967465 
L 824.743664 72.757039 
L 826.379613 76.763905 
L 828.015562 78.332397 
L 829.651101 80.837645 
L 831.28705 80.632651 
L 832.922999 77.251665 
L 836.194897 73.822922 
L 837.830436 77.302878 
L 839.466385 80.187992 
L 841.102334 76.506922 
L 842.738283 79.463037 
L 844.373822 73.327297 
L 846.009771 79.5631 
L 847.64572 82.71733 
L 849.281669 77.159291 
L 850.917618 69.437283 
L 852.553157 78.832501 
L 854.189106 77.875146 
L 855.825055 81.50518 
L 857.461004 66.106346 
L 859.096543 69.990646 
L 860.732492 78.558659 
L 862.368441 79.797157 
L 864.00439 75.327926 
L 865.640339 73.69884 
L 867.275878 79.168103 
L 868.911827 79.426038 
L 870.547776 74.50781 
L 872.183725 82.437915 
L 873.819264 78.643944 
L 875.455213 75.929293 
L 877.091162 72.017658 
L 878.727111 82.871287 
L 880.36265 79.868263 
L 881.998599 81.244634 
L 883.634548 80.736911 
L 885.270497 82.169893 
L 886.906446 78.473974 
L 888.541985 71.518435 
L 890.177934 82.681495 
L 891.813883 77.828377 
L 893.449832 83.82381 
L 895.085371 81.422611 
L 896.72132 82.105735 
L 898.357269 79.609375 
L 899.993218 81.525425 
L 901.629168 83.197895 
L 903.264706 72.635955 
L 904.900655 70.672713 
L 906.536604 78.423395 
L 908.172554 73.526577 
L 909.808092 79.869497 
L 911.444041 83.698493 
L 913.07999 80.468113 
L 914.71594 82.884655 
L 916.351478 71.46038 
L 917.987427 76.973661 
L 919.623376 76.952145 
L 921.259326 81.105491 
L 922.895275 79.881137 
L 924.530813 84.57603 
L 926.166762 85.725116 
L 927.802711 78.55753 
L 929.438661 81.172611 
L 931.074199 80.272431 
L 932.710148 82.382752 
L 934.346097 75.338754 
L 935.982047 82.916222 
L 937.617996 80.158435 
L 939.253534 79.741253 
L 940.889483 84.674894 
L 942.525433 77.880437 
L 944.161382 86.263278 
L 945.79692 85.758765 
L 947.432869 71.546864 
L 949.068819 76.121519 
L 950.704768 72.306843 
L 952.340306 83.359611 
L 953.976255 73.357418 
L 955.612205 84.090069 
L 957.248154 80.324914 
L 958.884103 77.895357 
L 960.519641 79.124861 
L 962.155591 86.421044 
L 963.79154 84.319999 
L 965.427489 77.70567 
L 967.063027 76.866543 
L 968.698976 75.340095 
L 970.334926 78.430379 
L 971.970875 83.634794 
L 973.606824 82.160934 
L 975.242362 79.749471 
L 976.878312 80.587646 
L 978.514261 82.435199 
L 980.15021 81.251971 
L 981.785748 74.980721 
L 983.421698 75.389897 
L 985.057647 82.718212 
L 986.693596 80.906564 
L 988.329545 79.869956 
L 989.965084 74.933952 
L 991.601033 82.431778 
L 993.236982 75.992463 
L 994.872931 77.7766 
L 996.50847 75.538951 
L 998.144419 72.504395 
L 999.780368 80.574842 
L 1001.416317 77.13446 
L 1003.051856 82.985106 
L 1004.687805 84.741485 
L 1006.323754 77.560849 
L 1007.959703 83.497414 
L 1009.595652 81.608417 
L 1011.231191 76.484561 
L 1012.86714 81.316692 
L 1014.503089 80.530507 
L 1016.139038 78.771377 
L 1017.774577 77.698193 
L 1019.410526 75.822528 
L 1021.046475 76.446856 
L 1022.682424 81.01093 
L 1024.318373 80.325619 
L 1027.589861 81.743257 
L 1029.22581 80.531459 
L 1030.861759 76.973661 
L 1032.497298 74.809798 
L 1034.133247 72.959 
L 1035.769196 78.807741 
L 1037.405145 73.894099 
L 1039.040684 80.114523 
L 1040.676633 71.409978 
L 1042.312582 68.303927 
L 1043.948531 72.907469 
L 1045.58448 77.98244 
L 1047.220019 80.701993 
L 1048.855968 75.866088 
L 1050.491917 79.550438 
L 1052.127866 78.828092 
L 1053.763405 74.560716 
L 1055.399354 73.544988 
L 1057.035303 71.650101 
L 1058.671252 72.668651 
L 1060.307201 76.2122 
L 1061.94274 81.523273 
L 1063.578689 76.439414 
L 1065.214638 68.99982 
L 1066.850587 75.119158 
L 1068.486126 75.490842 
L 1070.122075 75.162859 
L 1071.758024 62.253155 
L 1073.393973 64.928584 
L 1075.029512 73.163359 
L 1076.665461 70.881304 
L 1078.30141 71.777781 
L 1079.937359 62.674253 
L 1081.573308 76.456873 
L 1084.844796 68.466526 
L 1086.480745 65.523849 
L 1088.116694 65.727432 
L 1089.752233 75.27301 
L 1091.388182 73.734004 
L 1091.388182 73.734004 
" clip-path="url(#pa0b2093ece)" style="fill: none; stroke: #1f77b4; stroke-width: 1.5; stroke-linecap: square"/>
   </g>
   <g id="line2d_26">
    <path d="M 95.151818 97.515608 
L 98.423716 103.406851 
L 100.059665 104.746717 
L 101.695204 99.072178 
L 103.331153 103.549733 
L 104.967102 108.400135 
L 106.603051 105.73645 
L 108.23859 105.689858 
L 109.874539 102.641299 
L 111.510488 100.772617 
L 113.146437 107.292103 
L 114.782386 104.758639 
L 116.417925 103.434432 
L 118.053874 101.683168 
L 119.689823 107.138182 
L 121.325772 96.075996 
L 122.961311 108.049261 
L 124.59726 107.283779 
L 126.233209 105.332247 
L 127.869158 102.202424 
L 129.505108 104.842971 
L 131.140646 111.004564 
L 132.776595 101.880155 
L 134.412544 93.552055 
L 136.048494 87.992146 
L 137.684032 104.974143 
L 139.319981 98.023014 
L 140.95593 103.21272 
L 142.591879 105.157304 
L 144.227418 99.819143 
L 145.863367 102.192548 
L 147.499316 101.712901 
L 149.135265 103.23942 
L 150.771215 110.418787 
L 152.406753 96.802962 
L 154.042702 105.063131 
L 155.678651 101.001102 
L 157.314601 104.143093 
L 158.950139 99.136477 
L 160.586088 102.3628 
L 163.857987 102.703904 
L 165.493936 100.773887 
L 167.129474 96.709036 
L 168.765423 99.064524 
L 170.401373 90.62458 
L 172.037322 103.103134 
L 173.67286 101.229057 
L 175.308809 102.430979 
L 176.944759 99.369475 
L 178.580708 100.870776 
L 180.216246 92.786749 
L 181.852195 101.488755 
L 183.488144 103.517178 
L 185.124094 106.461864 
L 186.760043 93.974598 
L 188.395581 105.449064 
L 190.03153 101.820971 
L 191.66748 103.707569 
L 193.303429 97.692562 
L 194.938967 101.992351 
L 196.574916 87.46513 
L 198.210866 101.37208 
L 199.846815 95.016109 
L 201.482764 102.853276 
L 203.118302 104.744671 
L 204.754252 103.678471 
L 206.390201 98.458467 
L 208.02615 99.461779 
L 209.661688 87.426967 
L 211.297638 93.330025 
L 212.933587 96.138073 
L 214.569536 100.511473 
L 216.205074 95.208511 
L 217.841024 98.403444 
L 219.476973 101.202321 
L 221.112922 102.707431 
L 222.748871 102.873733 
L 224.384409 105.911922 
L 226.020359 98.296009 
L 227.656308 106.213629 
L 229.292257 99.063748 
L 230.927795 102.872146 
L 232.563745 98.657429 
L 234.199694 100.418146 
L 235.835643 91.281639 
L 237.471592 96.780107 
L 239.107131 103.861279 
L 240.74308 95.743922 
L 242.379029 94.679026 
L 244.014978 99.373073 
L 245.650517 99.318368 
L 247.286466 96.187028 
L 248.922415 96.158706 
L 250.558364 104.017282 
L 252.194313 102.76785 
L 253.829852 105.247738 
L 255.465801 101.80718 
L 257.10175 98.051936 
L 258.737699 104.965184 
L 260.373238 101.464701 
L 262.009187 103.111493 
L 263.645136 100.217773 
L 265.281085 105.760364 
L 266.916624 102.410839 
L 268.552573 109.685754 
L 270.188522 99.331207 
L 271.824471 98.081281 
L 273.46042 102.992666 
L 275.095959 105.32999 
L 276.731908 99.9452 
L 278.367857 95.56725 
L 280.003806 95.955017 
L 281.639345 102.194841 
L 283.275294 87.737914 
L 284.911243 104.549765 
L 286.547192 104.193565 
L 288.183141 105.578049 
L 289.81868 110.851983 
L 291.454629 106.580057 
L 293.090578 104.69039 
L 294.726527 104.431149 
L 296.362066 98.783557 
L 297.998015 107.786635 
L 299.633964 107.617758 
L 301.269913 100.910279 
L 302.905452 97.304971 
L 304.541401 104.54458 
L 306.17735 109.696336 
L 307.813299 108.152604 
L 309.449248 98.463263 
L 311.084787 99.896632 
L 312.720736 90.012138 
L 314.356685 105.980665 
L 315.992634 108.717677 
L 317.628173 98.279891 
L 319.264122 88.557924 
L 320.900071 101.92188 
L 322.53602 106.369984 
L 324.171969 105.190847 
L 325.807508 108.744801 
L 327.443457 102.52561 
L 329.079406 103.00427 
L 330.715355 110.874556 
L 332.350894 108.265541 
L 333.986843 104.768126 
L 335.622792 105.818525 
L 337.258741 97.700321 
L 338.89428 111.692027 
L 340.530229 103.456688 
L 342.166178 96.208685 
L 343.802127 104.825159 
L 345.438076 106.554062 
L 347.073615 103.308445 
L 348.709564 109.772133 
L 350.345513 110.518674 
L 351.981462 107.736903 
L 353.617001 108.539595 
L 355.25295 102.40502 
L 356.888899 97.421188 
L 358.524848 105.458658 
L 360.160797 106.671655 
L 361.796336 97.968732 
L 363.432285 108.68343 
L 365.068234 104.349321 
L 366.704183 101.837619 
L 368.339722 103.972453 
L 369.975671 106.554944 
L 371.61162 102.225703 
L 373.247569 102.304956 
L 374.883518 107.605167 
L 376.519057 105.150144 
L 378.155006 102.998521 
L 379.790955 105.782302 
L 381.426904 99.917689 
L 383.062443 110.680531 
L 384.698392 107.967997 
L 386.334341 97.750088 
L 387.97029 105.31962 
L 389.605829 107.020518 
L 391.241778 108.181456 
L 392.877727 104.931218 
L 394.513676 104.52698 
L 396.149625 108.730516 
L 397.785164 93.051915 
L 399.421113 96.712739 
L 401.057062 99.792795 
L 402.693011 106.561257 
L 404.32855 98.619442 
L 405.964499 97.215948 
L 407.600448 98.64646 
L 409.236397 96.367968 
L 410.872346 104.129267 
L 412.507885 89.17153 
L 414.143834 100.384357 
L 415.779783 106.146614 
L 417.415732 96.668616 
L 419.051271 98.242856 
L 420.68722 95.74043 
L 422.323169 106.057555 
L 423.959118 100.458778 
L 425.594657 96.531201 
L 427.230606 108.039949 
L 428.866555 97.224448 
L 430.502504 99.204443 
L 432.138453 100.74814 
L 433.773992 97.429159 
L 435.409941 102.86749 
L 437.04589 94.774399 
L 438.681839 103.914997 
L 440.317378 98.828281 
L 441.953327 91.11629 
L 443.589276 100.272231 
L 445.225225 95.736374 
L 446.861174 99.277101 
L 448.496713 93.910053 
L 450.132662 100.901462 
L 451.768611 89.119294 
L 453.40456 102.758891 
L 455.040099 80.553539 
L 456.676048 87.37272 
L 458.311997 96.783246 
L 459.947946 95.585626 
L 461.583485 98.09419 
L 463.219434 96.281484 
L 464.855383 95.978508 
L 466.491332 89.185744 
L 468.127281 91.03686 
L 469.76282 90.093402 
L 471.398769 100.519409 
L 473.034718 87.561772 
L 474.670667 91.175827 
L 476.306206 89.340265 
L 477.942155 98.504565 
L 479.578104 92.614663 
L 481.214053 81.029976 
L 482.850002 95.904862 
L 484.485541 96.463128 
L 486.12149 97.742011 
L 487.757439 99.422664 
L 489.393388 96.611865 
L 491.028927 88.616509 
L 492.664876 92.632545 
L 494.300825 94.72643 
L 495.936774 101.057888 
L 497.572723 101.641231 
L 499.208262 105.469098 
L 500.844211 93.533361 
L 502.48016 97.67408 
L 504.116109 100.895289 
L 505.751648 97.514585 
L 507.387597 92.292182 
L 509.023546 98.607803 
L 510.659495 107.841446 
L 512.295034 100.331027 
L 513.930983 88.151605 
L 515.566932 92.984336 
L 517.202881 89.746232 
L 518.838831 88.004984 
L 520.474369 99.898396 
L 522.110318 88.704368 
L 523.746267 99.56029 
L 525.382217 92.73871 
L 527.017755 99.551085 
L 528.653704 94.438691 
L 530.289653 101.476058 
L 531.925602 96.595993 
L 533.561552 102.790529 
L 535.19709 99.96929 
L 536.833039 99.339213 
L 538.468988 92.272113 
L 540.104938 101.31219 
L 541.740476 101.06794 
L 545.012374 86.668751 
L 546.648324 95.960202 
L 548.283862 98.825177 
L 549.919811 91.17625 
L 551.55576 90.897294 
L 553.19171 94.316866 
L 554.827659 99.337767 
L 556.463197 90.146485 
L 558.099146 92.600661 
L 559.735096 96.197574 
L 561.371045 97.264727 
L 563.006583 91.212332 
L 564.642532 95.838483 
L 566.278482 96.164596 
L 567.914431 93.102528 
L 569.55038 95.141955 
L 571.185918 86.212206 
L 572.821867 94.056391 
L 574.457817 96.671332 
L 576.093766 96.005913 
L 577.729304 83.728332 
L 579.365253 94.053393 
L 581.001203 92.834506 
L 582.637152 94.288967 
L 584.27269 92.18436 
L 585.908639 85.169143 
L 587.544589 91.210498 
L 589.180538 93.194832 
L 590.816487 88.039796 
L 592.452025 86.006789 
L 594.087975 85.111475 
L 595.723924 97.780139 
L 597.359873 86.023754 
L 598.995411 87.587837 
L 600.631361 84.467149 
L 602.26731 94.525704 
L 603.903259 98.264971 
L 605.539208 94.927015 
L 607.174747 95.406416 
L 608.810696 97.195632 
L 610.446645 86.736506 
L 612.082594 85.818302 
L 613.718133 94.481157 
L 615.354082 85.241025 
L 616.990031 92.854469 
L 618.62598 91.081442 
L 620.261929 93.203156 
L 621.897468 93.493082 
L 623.533417 92.945327 
L 625.169366 94.37277 
L 626.805315 85.86239 
L 628.440854 88.761013 
L 630.076803 86.482451 
L 631.712752 83.985315 
L 633.348701 97.129852 
L 634.98424 88.991261 
L 636.620189 90.434435 
L 638.256138 86.022661 
L 639.892087 96.584424 
L 641.528036 93.391431 
L 643.163575 93.907267 
L 644.799524 92.457884 
L 646.435473 92.493226 
L 648.071422 97.852268 
L 649.706961 85.690304 
L 651.34291 96.035823 
L 652.978859 93.710032 
L 654.614808 93.851257 
L 656.250757 97.499842 
L 657.886296 92.242239 
L 659.522245 89.611674 
L 661.158194 87.500471 
L 662.794143 89.592663 
L 664.429682 87.960084 
L 666.065631 98.801898 
L 667.70158 92.555549 
L 669.337529 86.895753 
L 670.973068 94.989233 
L 672.609017 96.953392 
L 674.244966 94.024824 
L 675.880915 97.573593 
L 677.516864 95.275526 
L 679.152403 85.945277 
L 682.424301 92.53608 
L 684.06025 77.571289 
L 685.695789 85.926125 
L 687.331738 92.479964 
L 688.967687 82.303075 
L 690.603636 99.634571 
L 692.239585 88.023466 
L 693.875124 93.578084 
L 695.511073 96.417241 
L 697.147022 88.206416 
L 698.782971 83.001683 
L 700.41851 89.190541 
L 702.054459 84.162374 
L 703.690408 83.499883 
L 705.326357 93.338384 
L 706.961896 88.461847 
L 708.597845 92.038868 
L 710.233794 100.728529 
L 711.869743 84.039173 
L 713.505692 93.688376 
L 715.141231 94.206927 
L 716.77718 91.177555 
L 718.413129 90.303087 
L 720.049078 91.173358 
L 721.684617 89.082365 
L 723.320566 85.785747 
L 724.956515 86.172385 
L 726.592464 90.834194 
L 728.228413 94.948989 
L 729.863952 90.78157 
L 731.499901 91.430165 
L 733.13585 80.641398 
L 734.771799 80.974566 
L 736.407338 90.088887 
L 738.043287 77.583845 
L 739.679236 77.127794 
L 741.315185 86.04728 
L 742.951134 88.567483 
L 744.586673 90.22274 
L 746.222622 84.484608 
L 747.858571 90.201084 
L 749.49452 77.28549 
L 751.130059 83.24223 
L 752.766008 87.844361 
L 754.401957 84.584001 
L 756.037906 84.174331 
L 757.673445 84.046157 
L 759.309394 81.434955 
L 760.945343 84.357845 
L 762.581292 86.674394 
L 764.217241 87.23132 
L 767.488729 83.229074 
L 769.124678 91.01016 
L 770.760627 92.995446 
L 772.396166 90.899092 
L 774.032115 90.442583 
L 775.668064 89.1631 
L 777.304013 86.954232 
L 778.939962 81.686083 
L 780.575501 91.413129 
L 782.21145 84.547531 
L 783.847399 88.475849 
L 785.483348 85.916143 
L 787.118887 81.328367 
L 788.754836 87.346585 
L 790.390785 91.620168 
L 792.026734 84.755311 
L 793.662273 86.482168 
L 795.298222 78.651985 
L 796.934171 94.818522 
L 798.57012 79.668807 
L 800.206069 91.382655 
L 801.841608 89.297588 
L 803.477557 85.807121 
L 805.113506 86.990879 
L 806.749455 83.661917 
L 808.384994 92.703122 
L 810.020943 73.519488 
L 811.656892 87.812688 
L 813.292841 89.793142 
L 814.92879 93.361804 
L 816.564329 92.688344 
L 818.200278 87.917266 
L 819.836227 81.656456 
L 821.472176 85.586044 
L 823.107715 87.021423 
L 824.743664 81.078474 
L 826.379613 91.187678 
L 828.015562 87.30105 
L 829.651101 92.210248 
L 831.28705 90.895742 
L 832.922999 83.354038 
L 834.558948 86.045516 
L 836.194897 89.263798 
L 837.830436 72.679867 
L 839.466385 86.567735 
L 841.102334 86.770013 
L 842.738283 83.346349 
L 844.373822 92.74393 
L 846.009771 97.315446 
L 847.64572 90.946285 
L 849.281669 79.840646 
L 850.917618 88.021773 
L 852.553157 89.465406 
L 854.189106 86.011656 
L 855.825055 76.142505 
L 857.461004 91.255539 
L 859.096543 83.767236 
L 860.732492 86.417764 
L 862.368441 87.194003 
L 864.00439 93.542602 
L 865.640339 88.307537 
L 867.275878 87.397057 
L 868.911827 80.350661 
L 870.547776 82.736765 
L 872.183725 89.002583 
L 873.819264 92.790382 
L 875.455213 88.318965 
L 877.091162 86.164096 
L 878.727111 91.100277 
L 880.36265 77.556757 
L 881.998599 89.658513 
L 883.634548 89.798009 
L 885.270497 84.019104 
L 886.906446 88.64462 
L 888.541985 85.942243 
L 890.177934 94.239023 
L 891.813883 87.814099 
L 893.449832 88.354376 
L 895.085371 95.476569 
L 896.72132 84.139836 
L 898.357269 81.920881 
L 899.993218 97.890889 
L 901.629168 96.14234 
L 903.264706 88.076831 
L 904.900655 82.785015 
L 906.536604 94.141641 
L 908.172554 92.665841 
L 909.808092 87.358788 
L 911.444041 95.718315 
L 913.07999 82.317324 
L 914.71594 87.877516 
L 916.351478 89.582575 
L 917.987427 85.572464 
L 919.623376 77.969214 
L 921.259326 91.553506 
L 922.895275 94.859719 
L 924.530813 91.510547 
L 926.166762 92.104895 
L 927.802711 86.509115 
L 929.438661 93.932132 
L 931.074199 94.696239 
L 932.710148 92.830767 
L 934.346097 83.845113 
L 935.982047 90.682883 
L 937.617996 96.801269 
L 939.253534 83.809525 
L 940.889483 96.879641 
L 942.525433 94.800675 
L 944.161382 90.978734 
L 945.79692 84.186958 
L 947.432869 88.097217 
L 949.068819 95.445707 
L 950.704768 89.8743 
L 952.340306 95.934208 
L 953.976255 87.966151 
L 955.612205 91.394435 
L 957.248154 93.454249 
L 958.884103 79.004869 
L 960.519641 98.911343 
L 962.155591 98.810716 
L 963.79154 88.94301 
L 965.427489 85.934625 
L 967.063027 91.567721 
L 968.698976 92.352778 
L 970.334926 88.138696 
L 971.970875 94.637548 
L 973.606824 93.441057 
L 975.242362 90.012562 
L 976.878312 95.658637 
L 978.514261 86.133587 
L 980.15021 86.429756 
L 981.785748 84.226743 
L 983.421698 85.745432 
L 985.057647 88.543181 
L 986.693596 96.532329 
L 988.329545 84.585412 
L 989.965084 90.097458 
L 991.601033 95.006374 
L 993.236982 94.576988 
L 994.872931 86.930178 
L 996.50847 89.777834 
L 998.144419 91.921063 
L 999.780368 92.964514 
L 1001.416317 72.696373 
L 1003.051856 92.231129 
L 1004.687805 96.668863 
L 1006.323754 86.806871 
L 1007.959703 84.606962 
L 1009.595652 92.981021 
L 1011.231191 94.051983 
L 1012.86714 87.788915 
L 1014.503089 94.307061 
L 1016.139038 88.202324 
L 1017.774577 89.718015 
L 1019.410526 92.280437 
L 1021.046475 88.744048 
L 1022.682424 79.993862 
L 1024.318373 92.252997 
L 1025.953912 92.718677 
L 1027.589861 69.076216 
L 1029.22581 87.558456 
L 1030.861759 92.876831 
L 1032.497298 92.56218 
L 1034.133247 90.341497 
L 1035.769196 85.187484 
L 1037.405145 89.797269 
L 1039.040684 75.583992 
L 1040.676633 86.943298 
L 1043.948531 90.105077 
L 1045.58448 78.167365 
L 1047.220019 82.36628 
L 1048.855968 90.012491 
L 1050.491917 93.234547 
L 1052.127866 84.838021 
L 1053.763405 86.857908 
L 1055.399354 87.229098 
L 1057.035303 80.988568 
L 1058.671252 83.671405 
L 1060.307201 88.601872 
L 1061.94274 70.428075 
L 1063.578689 84.945773 
L 1065.214638 91.097808 
L 1066.850587 88.895712 
L 1068.486126 80.391258 
L 1070.122075 76.272407 
L 1071.758024 84.166219 
L 1073.393973 79.907131 
L 1075.029512 84.443517 
L 1076.665461 80.867025 
L 1078.30141 78.342449 
L 1079.937359 77.005581 
L 1081.573308 79.600522 
L 1083.208847 75.680881 
L 1084.844796 76.787925 
L 1086.480745 76.526639 
L 1088.116694 81.538122 
L 1089.752233 76.937261 
L 1091.388182 80.298672 
L 1091.388182 80.298672 
" clip-path="url(#pa0b2093ece)" style="fill: none; stroke: #ff7f0e; stroke-width: 1.5; stroke-linecap: square"/>
   </g>
   <g id="line2d_27">
    <path d="M 95.151818 524.558182 
L 252.194313 520.024844 
L 479.578104 513.785463 
L 652.978859 509.219485 
L 901.629168 502.980426 
L 1073.393973 498.855578 
L 1091.388182 498.433899 
L 1091.388182 498.433899 
" clip-path="url(#pa0b2093ece)" style="fill: none; stroke-dasharray: 9.6,2.4,1.5,2.4; stroke-dashoffset: 0; stroke: #2ca02c; stroke-width: 1.5"/>
   </g>
   <g id="line2d_28">
    <path d="M 95.151818 385.867843 
L 252.194313 381.334505 
L 479.578104 375.095124 
L 652.978859 370.529147 
L 901.629168 364.290087 
L 1073.393973 360.165239 
L 1091.388182 359.74356 
L 1091.388182 359.74356 
" clip-path="url(#pa0b2093ece)" style="fill: none; stroke-dasharray: 9.6,2.4,1.5,2.4; stroke-dashoffset: 0; stroke: #d62728; stroke-width: 1.5"/>
   </g>
   <g id="line2d_29">
    <path d="M 95.151818 77.049881 
L 96.787767 76.558206 
L 98.423716 76.976659 
L 100.059665 77.968508 
L 101.695204 78.379483 
L 103.331153 79.401207 
L 104.967102 79.674838 
L 106.603051 79.345515 
L 108.23859 79.663692 
L 109.874539 80.374469 
L 111.510488 80.360078 
L 113.146437 79.520458 
L 114.782386 79.695683 
L 116.417925 78.493937 
L 118.053874 79.169937 
L 119.689823 79.983845 
L 122.961311 79.419336 
L 124.59726 79.595408 
L 126.233209 80.760578 
L 127.869158 80.103307 
L 129.505108 79.787845 
L 131.140646 77.280657 
L 132.776595 76.992001 
L 134.412544 76.078347 
L 137.684032 76.243908 
L 139.319981 74.845704 
L 140.95593 74.884784 
L 142.591879 75.904886 
L 144.227418 77.810777 
L 145.863367 78.491362 
L 147.499316 78.338851 
L 149.135265 78.570157 
L 150.771215 78.050654 
L 152.406753 78.591143 
L 154.042702 78.209125 
L 155.678651 78.290389 
L 157.314601 78.205175 
L 158.950139 77.240801 
L 160.586088 77.737167 
L 162.222037 76.692905 
L 163.857987 76.450807 
L 165.493936 74.761019 
L 167.129474 75.25682 
L 168.765423 75.115138 
L 170.401373 75.099301 
L 172.037322 74.682471 
L 173.67286 74.694604 
L 175.308809 74.20434 
L 176.944759 74.507316 
L 178.580708 76.118909 
L 180.216246 76.538772 
L 181.852195 75.63196 
L 186.760043 76.670261 
L 188.395581 77.283479 
L 190.03153 77.346402 
L 191.66748 75.339918 
L 193.303429 74.703704 
L 194.938967 74.833888 
L 196.574916 74.509397 
L 198.210866 74.874908 
L 201.482764 74.966965 
L 203.118302 74.650657 
L 204.754252 74.64586 
L 206.390201 73.640607 
L 208.02615 73.780879 
L 209.661688 73.488132 
L 211.297638 72.296121 
L 212.933587 71.636734 
L 216.205074 72.385426 
L 217.841024 74.31629 
L 219.476973 75.889014 
L 221.112922 76.158765 
L 222.748871 76.871516 
L 226.020359 77.912004 
L 229.292257 77.307745 
L 230.927795 75.858716 
L 232.563745 74.717248 
L 234.199694 75.412893 
L 235.835643 74.104207 
L 239.107131 73.118741 
L 240.74308 73.20131 
L 242.379029 72.67246 
L 244.014978 73.28208 
L 245.650517 74.18674 
L 247.286466 74.050066 
L 248.922415 75.238056 
L 250.558364 76.129067 
L 252.194313 75.963929 
L 257.10175 78.198579 
L 258.737699 77.723658 
L 260.373238 78.097705 
L 262.009187 77.743093 
L 263.645136 78.727888 
L 265.281085 78.887806 
L 266.916624 78.02734 
L 270.188522 78.49563 
L 271.824471 78.461594 
L 273.46042 77.187402 
L 275.095959 76.380477 
L 276.731908 75.444108 
L 278.367857 73.994938 
L 280.003806 74.803485 
L 281.639345 74.953562 
L 283.275294 74.9846 
L 286.547192 77.724575 
L 288.183141 78.816453 
L 289.81868 79.096009 
L 291.454629 80.476719 
L 294.726527 81.309356 
L 296.362066 80.725872 
L 297.998015 79.032486 
L 299.633964 78.778043 
L 301.269913 79.403817 
L 302.905452 79.868968 
L 304.541401 79.828971 
L 306.17735 78.842694 
L 307.813299 76.64201 
L 309.449248 77.27579 
L 311.084787 78.702387 
L 312.720736 77.91927 
L 314.356685 75.276995 
L 315.992634 74.498146 
L 317.628173 75.486504 
L 319.264122 76.148254 
L 320.900071 78.489881 
L 322.53602 78.057955 
L 324.171969 77.343792 
L 325.807508 78.918139 
L 327.443457 81.381591 
L 329.079406 81.737367 
L 330.715355 81.668413 
L 332.350894 80.732115 
L 333.986843 81.100518 
L 335.622792 81.216911 
L 338.89428 79.61128 
L 342.166178 79.214907 
L 343.802127 79.709086 
L 345.438076 81.311402 
L 347.073615 80.816976 
L 348.709564 81.452344 
L 350.345513 82.22689 
L 351.981462 81.301385 
L 353.617001 81.164464 
L 355.25295 81.584856 
L 356.888899 80.109444 
L 358.524848 79.880043 
L 360.160797 79.456582 
L 361.796336 78.618831 
L 363.432285 78.814795 
L 365.068234 79.95651 
L 366.704183 79.552378 
L 368.339722 79.006527 
L 369.975671 80.211095 
L 371.61162 79.769434 
L 373.247569 79.600593 
L 374.883518 80.093678 
L 376.519057 79.586837 
L 378.155006 80.102531 
L 379.790955 80.820327 
L 381.426904 80.250951 
L 383.062443 79.965257 
L 384.698392 80.199067 
L 386.334341 80.846921 
L 387.97029 80.740509 
L 389.605829 81.316692 
L 391.241778 81.072971 
L 392.877727 79.208417 
L 394.513676 79.078762 
L 396.149625 78.387913 
L 397.785164 78.330527 
L 399.421113 77.135236 
L 401.057062 76.170862 
L 402.693011 75.435784 
L 404.32855 73.890466 
L 405.964499 75.275126 
L 407.600448 74.332479 
L 409.236397 74.406442 
L 410.872346 74.354594 
L 412.507885 74.110732 
L 414.143834 74.239117 
L 415.779783 73.875864 
L 417.415732 75.087062 
L 419.051271 74.628224 
L 422.323169 76.505159 
L 423.959118 75.389897 
L 428.866555 76.231105 
L 430.502504 75.832369 
L 432.138453 75.121804 
L 433.773992 76.044769 
L 435.409941 74.89332 
L 437.04589 74.129778 
L 438.681839 74.263278 
L 440.317378 73.636798 
L 441.953327 73.867787 
L 443.589276 72.748116 
L 445.225225 73.514021 
L 446.861174 71.664527 
L 448.496713 72.155884 
L 450.132662 70.835523 
L 451.768611 69.223084 
L 453.40456 69.353938 
L 455.040099 68.892491 
L 456.676048 69.415521 
L 458.311997 68.838033 
L 459.947946 69.69543 
L 461.583485 67.9988 
L 463.219434 69.30918 
L 464.855383 69.649261 
L 466.491332 70.116316 
L 468.127281 69.113286 
L 471.398769 67.380856 
L 474.670667 68.12521 
L 476.306206 66.874367 
L 477.942155 67.600804 
L 479.578104 67.093787 
L 481.214053 68.366321 
L 484.485541 70.306108 
L 486.12149 69.070114 
L 487.757439 69.072336 
L 489.393388 70.784415 
L 492.664876 72.075784 
L 494.300825 73.041674 
L 495.936774 72.305538 
L 497.572723 72.438262 
L 499.208262 73.97314 
L 500.844211 74.583395 
L 504.116109 73.972823 
L 505.751648 74.747898 
L 510.659495 72.846662 
L 512.295034 71.453079 
L 513.930983 70.264348 
L 515.566932 71.215142 
L 517.202881 69.977208 
L 520.474369 67.993015 
L 522.110318 69.417955 
L 523.746267 69.59974 
L 525.382217 71.065947 
L 527.017755 72.139871 
L 528.653704 72.501361 
L 530.289653 73.909477 
L 533.561552 73.823522 
L 535.19709 74.043647 
L 536.833039 74.872298 
L 538.468988 73.949333 
L 540.104938 72.708436 
L 541.740476 71.854601 
L 543.376425 71.711613 
L 545.012374 70.69123 
L 546.648324 70.519391 
L 548.283862 69.644957 
L 549.919811 69.428677 
L 551.55576 68.935486 
L 553.19171 69.676983 
L 554.827659 69.706646 
L 556.463197 69.511599 
L 558.099146 69.516113 
L 559.735096 70.13374 
L 561.371045 70.364728 
L 563.006583 69.58535 
L 564.642532 70.209784 
L 566.278482 69.411183 
L 567.914431 69.143548 
L 569.55038 69.069374 
L 571.185918 69.668589 
L 572.821867 68.154802 
L 574.457817 67.890942 
L 577.729304 67.750776 
L 579.365253 68.497282 
L 581.001203 67.386393 
L 582.637152 66.703798 
L 584.27269 66.352395 
L 585.908639 66.891333 
L 589.180538 64.920155 
L 590.816487 65.356525 
L 592.452025 64.586458 
L 594.087975 64.888799 
L 595.723924 64.045863 
L 597.359873 64.212235 
L 598.995411 65.490377 
L 600.631361 66.605392 
L 602.26731 67.892282 
L 603.903259 67.819201 
L 605.539208 67.908295 
L 607.174747 67.687112 
L 608.810696 68.938872 
L 610.446645 67.778287 
L 612.082594 67.10197 
L 613.718133 66.621264 
L 615.354082 66.34587 
L 616.990031 65.883047 
L 618.62598 66.659145 
L 620.261929 67.728485 
L 621.897468 66.651103 
L 623.533417 67.091142 
L 626.805315 65.407597 
L 628.440854 65.898425 
L 630.076803 65.335715 
L 631.712752 65.021805 
L 633.348701 63.978072 
L 634.98424 65.318327 
L 636.620189 65.897155 
L 638.256138 66.8252 
L 639.892087 67.884311 
L 641.528036 67.304706 
L 643.163575 68.41235 
L 644.799524 67.819342 
L 646.435473 69.070961 
L 648.071422 68.711693 
L 649.706961 68.769184 
L 651.34291 69.218252 
L 652.978859 69.191269 
L 654.614808 68.83112 
L 656.250757 67.537105 
L 657.886296 68.0249 
L 659.522245 67.015451 
L 661.158194 67.651947 
L 662.794143 67.489984 
L 664.429682 66.164437 
L 666.065631 66.507833 
L 672.609017 70.153139 
L 674.244966 68.546061 
L 675.880915 68.14087 
L 677.516864 68.845863 
L 679.152403 66.668668 
L 680.788352 65.290216 
L 682.424301 65.097143 
L 684.06025 63.188289 
L 685.695789 63.733187 
L 687.331738 63.992957 
L 690.603636 65.011118 
L 692.239585 66.340509 
L 695.511073 65.563776 
L 697.147022 65.79621 
L 698.782971 63.779357 
L 700.41851 64.443717 
L 703.690408 63.256891 
L 705.326357 64.822172 
L 706.961896 64.951828 
L 708.597845 65.514079 
L 710.233794 66.769648 
L 711.869743 67.729366 
L 713.505692 67.349959 
L 715.141231 67.688875 
L 716.77718 67.319344 
L 718.413129 65.451474 
L 720.049078 65.718121 
L 721.684617 65.361357 
L 723.320566 65.454119 
L 724.956515 65.404599 
L 726.592464 65.545506 
L 728.228413 64.228989 
L 729.863952 63.215518 
L 731.499901 63.753397 
L 733.13585 62.679861 
L 734.771799 60.966547 
L 736.407338 59.853825 
L 738.043287 59.577055 
L 739.679236 59.426167 
L 741.315185 59.906555 
L 742.951134 61.059839 
L 744.586673 59.459427 
L 746.222622 60.166747 
L 747.858571 61.506296 
L 749.49452 61.323382 
L 751.130059 60.774251 
L 752.766008 60.002174 
L 754.401957 59.621003 
L 756.037906 58.89058 
L 757.673445 60.06418 
L 759.309394 60.562803 
L 760.945343 60.246636 
L 762.581292 60.077265 
L 764.217241 60.931735 
L 767.488729 63.233436 
L 769.124678 63.994015 
L 770.760627 64.305103 
L 772.396166 64.270502 
L 774.032115 63.816885 
L 775.668064 64.839878 
L 777.304013 64.032037 
L 780.575501 62.844223 
L 782.21145 61.704941 
L 783.847399 61.477868 
L 785.483348 62.061106 
L 787.118887 62.444781 
L 788.754836 61.828389 
L 790.390785 61.091477 
L 792.026734 61.884328 
L 793.662273 61.103363 
L 795.298222 62.360202 
L 796.934171 62.604064 
L 798.57012 61.877415 
L 800.206069 62.156866 
L 801.841608 61.804334 
L 803.477557 63.560748 
L 805.113506 60.898334 
L 806.749455 61.916354 
L 808.384994 61.717639 
L 810.020943 62.225679 
L 811.656892 63.085827 
L 813.292841 63.201621 
L 814.92879 62.950952 
L 816.564329 62.061317 
L 818.200278 63.749059 
L 819.836227 62.907251 
L 821.472176 63.081595 
L 823.107715 62.324014 
L 824.743664 62.26423 
L 826.379613 62.636513 
L 828.015562 62.848737 
L 829.651101 62.906193 
L 831.28705 63.186455 
L 832.922999 62.136656 
L 834.558948 61.559132 
L 836.194897 61.492752 
L 837.830436 60.384756 
L 839.466385 60.615815 
L 841.102334 62.360978 
L 842.738283 62.973561 
L 844.373822 61.795658 
L 846.009771 63.713436 
L 847.64572 64.075631 
L 849.281669 63.980823 
L 850.917618 63.08036 
L 852.553157 62.894307 
L 854.189106 61.200781 
L 855.825055 60.63472 
L 857.461004 61.553876 
L 859.096543 62.243985 
L 860.732492 62.099269 
L 862.368441 62.272448 
L 864.00439 62.798476 
L 865.640339 61.733581 
L 867.275878 62.38803 
L 868.911827 63.184621 
L 870.547776 63.32521 
L 872.183725 62.402879 
L 873.819264 62.75199 
L 875.455213 61.521956 
L 877.091162 62.685469 
L 878.727111 63.568085 
L 881.998599 62.426934 
L 883.634548 62.129884 
L 885.270497 63.139227 
L 886.906446 62.728429 
L 888.541985 64.078171 
L 890.177934 64.805384 
L 891.813883 64.098134 
L 893.449832 63.83586 
L 896.72132 66.266652 
L 898.357269 65.496409 
L 899.993218 64.867742 
L 901.629168 65.591146 
L 903.264706 65.239814 
L 904.900655 65.642183 
L 906.536604 67.366853 
L 908.172554 65.420153 
L 909.808092 64.387072 
L 911.444041 64.575277 
L 913.07999 64.923717 
L 914.71594 62.902172 
L 916.351478 62.763135 
L 917.987427 63.700738 
L 919.623376 63.17478 
L 921.259326 64.398218 
L 922.895275 64.227154 
L 924.530813 64.770854 
L 926.166762 65.911334 
L 927.802711 67.769011 
L 929.438661 66.805448 
L 931.074199 66.28337 
L 932.710148 66.944697 
L 934.346097 65.907772 
L 935.982047 67.204079 
L 937.617996 67.312642 
L 939.253534 66.847985 
L 940.889483 65.7675 
L 944.161382 66.894331 
L 945.79692 66.028504 
L 947.432869 67.544089 
L 949.068819 66.429885 
L 950.704768 66.004096 
L 952.340306 66.313562 
L 953.976255 65.665779 
L 955.612205 67.017567 
L 957.248154 67.438206 
L 958.884103 67.321777 
L 960.519641 66.071816 
L 962.155591 66.522012 
L 963.79154 66.641792 
L 965.427489 65.977361 
L 967.063027 67.931433 
L 968.698976 67.247673 
L 970.334926 66.147895 
L 971.970875 66.98734 
L 973.606824 67.012206 
L 975.242362 66.36996 
L 976.878312 65.354197 
L 978.514261 65.055065 
L 980.15021 64.293252 
L 981.785748 64.679679 
L 985.057647 63.306164 
L 988.329545 65.433627 
L 989.965084 65.771591 
L 993.236982 66.697872 
L 994.872931 66.251873 
L 996.50847 64.765739 
L 999.780368 65.240272 
L 1001.416317 64.268986 
L 1003.051856 63.978601 
L 1004.687805 64.37903 
L 1006.323754 64.64536 
L 1007.959703 63.998423 
L 1009.595652 66.699742 
L 1011.231191 66.196146 
L 1012.86714 65.327285 
L 1014.503089 66.011503 
L 1016.139038 66.528608 
L 1017.774577 64.9052 
L 1019.410526 64.680349 
L 1021.046475 65.296564 
L 1022.682424 62.142722 
L 1024.318373 62.062234 
L 1025.953912 62.457091 
L 1027.589861 62.492326 
L 1029.22581 62.691994 
L 1030.861759 63.341188 
L 1032.497298 63.034226 
L 1034.133247 60.892373 
L 1035.769196 63.125789 
L 1037.405145 63.238515 
L 1039.040684 62.892014 
L 1040.676633 61.092676 
L 1042.312582 60.095783 
L 1043.948531 60.698913 
L 1045.58448 61.128546 
L 1047.220019 62.285287 
L 1048.855968 62.274635 
L 1050.491917 62.120748 
L 1052.127866 60.981185 
L 1055.399354 62.448661 
L 1057.035303 60.000587 
L 1058.671252 58.964472 
L 1060.307201 59.74699 
L 1061.94274 60.001715 
L 1063.578689 59.146963 
L 1065.214638 58.557448 
L 1066.850587 58.619313 
L 1068.486126 57.532444 
L 1070.122075 59.284378 
L 1071.758024 58.774539 
L 1075.029512 55.693848 
L 1078.30141 55.521057 
L 1079.937359 54.598797 
L 1084.844796 53.321818 
L 1088.116694 53.715087 
L 1089.752233 53.48096 
L 1091.388182 53.937117 
L 1091.388182 53.937117 
" clip-path="url(#pa0b2093ece)" style="fill: none; stroke: #ff0000; stroke-width: 1.5; stroke-linecap: square"/>
   </g>
   <g id="patch_3">
    <path d="M 45.34 548.12 
L 45.34 29.76 
" style="fill: none; stroke: #000000; stroke-width: 0.8; stroke-linejoin: miter; stroke-linecap: square"/>
   </g>
   <g id="patch_4">
    <path d="M 1141.2 548.12 
L 1141.2 29.76 
" style="fill: none; stroke: #000000; stroke-width: 0.8; stroke-linejoin: miter; stroke-linecap: square"/>
   </g>
   <g id="patch_5">
    <path d="M 45.34 548.12 
L 1141.2 548.12 
" style="fill: none; stroke: #000000; stroke-width: 0.8; stroke-linejoin: miter; stroke-linecap: square"/>
   </g>
   <g id="patch_6">
    <path d="M 45.34 29.76 
L 1141.2 29.76 
" style="fill: none; stroke: #000000; stroke-width: 0.8; stroke-linejoin: miter; stroke-linecap: square"/>
   </g>
   <g id="text_13">
    <!-- ALS Bakkie CAA567123 100kHz EIRP with adjusted threshold levels for S3 -->
    <g transform="translate(297.24625 23.76) scale(0.16 -0.16)">
     <defs>
      <path id="DejaVuSans-41" d="M 2188 4044 
L 1331 1722 
L 3047 1722 
L 2188 4044 
z
M 1831 4666 
L 2547 4666 
L 4325 0 
L 3669 0 
L 3244 1197 
L 1141 1197 
L 716 0 
L 50 0 
L 1831 4666 
z
" transform="scale(0.015625)"/>
      <path id="DejaVuSans-4c" d="M 628 4666 
L 1259 4666 
L 1259 531 
L 3531 531 
L 3531 0 
L 628 0 
L 628 4666 
z
" transform="scale(0.015625)"/>
      <path id="DejaVuSans-53" d="M 3425 4513 
L 3425 3897 
Q 3066 4069 2747 4153 
Q 2428 4238 2131 4238 
Q 1616 4238 1336 4038 
Q 1056 3838 1056 3469 
Q 1056 3159 1242 3001 
Q 1428 2844 1947 2747 
L 2328 2669 
Q 3034 2534 3370 2195 
Q 3706 1856 3706 1288 
Q 3706 609 3251 259 
Q 2797 -91 1919 -91 
Q 1588 -91 1214 -16 
Q 841 59 441 206 
L 441 856 
Q 825 641 1194 531 
Q 1563 422 1919 422 
Q 2459 422 2753 634 
Q 3047 847 3047 1241 
Q 3047 1584 2836 1778 
Q 2625 1972 2144 2069 
L 1759 2144 
Q 1053 2284 737 2584 
Q 422 2884 422 3419 
Q 422 4038 858 4394 
Q 1294 4750 2059 4750 
Q 2388 4750 2728 4690 
Q 3069 4631 3425 4513 
z
" transform="scale(0.015625)"/>
      <path id="DejaVuSans-20" transform="scale(0.015625)"/>
      <path id="DejaVuSans-42" d="M 1259 2228 
L 1259 519 
L 2272 519 
Q 2781 519 3026 730 
Q 3272 941 3272 1375 
Q 3272 1813 3026 2020 
Q 2781 2228 2272 2228 
L 1259 2228 
z
M 1259 4147 
L 1259 2741 
L 2194 2741 
Q 2656 2741 2882 2914 
Q 3109 3088 3109 3444 
Q 3109 3797 2882 3972 
Q 2656 4147 2194 4147 
L 1259 4147 
z
M 628 4666 
L 2241 4666 
Q 2963 4666 3353 4366 
Q 3744 4066 3744 3513 
Q 3744 3084 3544 2831 
Q 3344 2578 2956 2516 
Q 3422 2416 3680 2098 
Q 3938 1781 3938 1306 
Q 3938 681 3513 340 
Q 3088 0 2303 0 
L 628 0 
L 628 4666 
z
" transform="scale(0.015625)"/>
      <path id="DejaVuSans-61" d="M 2194 1759 
Q 1497 1759 1228 1600 
Q 959 1441 959 1056 
Q 959 750 1161 570 
Q 1363 391 1709 391 
Q 2188 391 2477 730 
Q 2766 1069 2766 1631 
L 2766 1759 
L 2194 1759 
z
M 3341 1997 
L 3341 0 
L 2766 0 
L 2766 531 
Q 2569 213 2275 61 
Q 1981 -91 1556 -91 
Q 1019 -91 701 211 
Q 384 513 384 1019 
Q 384 1609 779 1909 
Q 1175 2209 1959 2209 
L 2766 2209 
L 2766 2266 
Q 2766 2663 2505 2880 
Q 2244 3097 1772 3097 
Q 1472 3097 1187 3025 
Q 903 2953 641 2809 
L 641 3341 
Q 956 3463 1253 3523 
Q 1550 3584 1831 3584 
Q 2591 3584 2966 3190 
Q 3341 2797 3341 1997 
z
" transform="scale(0.015625)"/>
      <path id="DejaVuSans-6b" d="M 581 4863 
L 1159 4863 
L 1159 1991 
L 2875 3500 
L 3609 3500 
L 1753 1863 
L 3688 0 
L 2938 0 
L 1159 1709 
L 1159 0 
L 581 0 
L 581 4863 
z
" transform="scale(0.015625)"/>
      <path id="DejaVuSans-69" d="M 603 3500 
L 1178 3500 
L 1178 0 
L 603 0 
L 603 3500 
z
M 603 4863 
L 1178 4863 
L 1178 4134 
L 603 4134 
L 603 4863 
z
" transform="scale(0.015625)"/>
      <path id="DejaVuSans-65" d="M 3597 1894 
L 3597 1613 
L 953 1613 
Q 991 1019 1311 708 
Q 1631 397 2203 397 
Q 2534 397 2845 478 
Q 3156 559 3463 722 
L 3463 178 
Q 3153 47 2828 -22 
Q 2503 -91 2169 -91 
Q 1331 -91 842 396 
Q 353 884 353 1716 
Q 353 2575 817 3079 
Q 1281 3584 2069 3584 
Q 2775 3584 3186 3129 
Q 3597 2675 3597 1894 
z
M 3022 2063 
Q 3016 2534 2758 2815 
Q 2500 3097 2075 3097 
Q 1594 3097 1305 2825 
Q 1016 2553 972 2059 
L 3022 2063 
z
" transform="scale(0.015625)"/>
      <path id="DejaVuSans-43" d="M 4122 4306 
L 4122 3641 
Q 3803 3938 3442 4084 
Q 3081 4231 2675 4231 
Q 1875 4231 1450 3742 
Q 1025 3253 1025 2328 
Q 1025 1406 1450 917 
Q 1875 428 2675 428 
Q 3081 428 3442 575 
Q 3803 722 4122 1019 
L 4122 359 
Q 3791 134 3420 21 
Q 3050 -91 2638 -91 
Q 1578 -91 968 557 
Q 359 1206 359 2328 
Q 359 3453 968 4101 
Q 1578 4750 2638 4750 
Q 3056 4750 3426 4639 
Q 3797 4528 4122 4306 
z
" transform="scale(0.015625)"/>
      <path id="DejaVuSans-48" d="M 628 4666 
L 1259 4666 
L 1259 2753 
L 3553 2753 
L 3553 4666 
L 4184 4666 
L 4184 0 
L 3553 0 
L 3553 2222 
L 1259 2222 
L 1259 0 
L 628 0 
L 628 4666 
z
" transform="scale(0.015625)"/>
      <path id="DejaVuSans-7a" d="M 353 3500 
L 3084 3500 
L 3084 2975 
L 922 459 
L 3084 459 
L 3084 0 
L 275 0 
L 275 525 
L 2438 3041 
L 353 3041 
L 353 3500 
z
" transform="scale(0.015625)"/>
      <path id="DejaVuSans-45" d="M 628 4666 
L 3578 4666 
L 3578 4134 
L 1259 4134 
L 1259 2753 
L 3481 2753 
L 3481 2222 
L 1259 2222 
L 1259 531 
L 3634 531 
L 3634 0 
L 628 0 
L 628 4666 
z
" transform="scale(0.015625)"/>
      <path id="DejaVuSans-49" d="M 628 4666 
L 1259 4666 
L 1259 0 
L 628 0 
L 628 4666 
z
" transform="scale(0.015625)"/>
      <path id="DejaVuSans-52" d="M 2841 2188 
Q 3044 2119 3236 1894 
Q 3428 1669 3622 1275 
L 4263 0 
L 3584 0 
L 2988 1197 
Q 2756 1666 2539 1819 
Q 2322 1972 1947 1972 
L 1259 1972 
L 1259 0 
L 628 0 
L 628 4666 
L 2053 4666 
Q 2853 4666 3247 4331 
Q 3641 3997 3641 3322 
Q 3641 2881 3436 2590 
Q 3231 2300 2841 2188 
z
M 1259 4147 
L 1259 2491 
L 2053 2491 
Q 2509 2491 2742 2702 
Q 2975 2913 2975 3322 
Q 2975 3731 2742 3939 
Q 2509 4147 2053 4147 
L 1259 4147 
z
" transform="scale(0.015625)"/>
      <path id="DejaVuSans-50" d="M 1259 4147 
L 1259 2394 
L 2053 2394 
Q 2494 2394 2734 2622 
Q 2975 2850 2975 3272 
Q 2975 3691 2734 3919 
Q 2494 4147 2053 4147 
L 1259 4147 
z
M 628 4666 
L 2053 4666 
Q 2838 4666 3239 4311 
Q 3641 3956 3641 3272 
Q 3641 2581 3239 2228 
Q 2838 1875 2053 1875 
L 1259 1875 
L 1259 0 
L 628 0 
L 628 4666 
z
" transform="scale(0.015625)"/>
      <path id="DejaVuSans-77" d="M 269 3500 
L 844 3500 
L 1563 769 
L 2278 3500 
L 2956 3500 
L 3675 769 
L 4391 3500 
L 4966 3500 
L 4050 0 
L 3372 0 
L 2619 2869 
L 1863 0 
L 1184 0 
L 269 3500 
z
" transform="scale(0.015625)"/>
      <path id="DejaVuSans-74" d="M 1172 4494 
L 1172 3500 
L 2356 3500 
L 2356 3053 
L 1172 3053 
L 1172 1153 
Q 1172 725 1289 603 
Q 1406 481 1766 481 
L 2356 481 
L 2356 0 
L 1766 0 
Q 1100 0 847 248 
Q 594 497 594 1153 
L 594 3053 
L 172 3053 
L 172 3500 
L 594 3500 
L 594 4494 
L 1172 4494 
z
" transform="scale(0.015625)"/>
      <path id="DejaVuSans-68" d="M 3513 2113 
L 3513 0 
L 2938 0 
L 2938 2094 
Q 2938 2591 2744 2837 
Q 2550 3084 2163 3084 
Q 1697 3084 1428 2787 
Q 1159 2491 1159 1978 
L 1159 0 
L 581 0 
L 581 4863 
L 1159 4863 
L 1159 2956 
Q 1366 3272 1645 3428 
Q 1925 3584 2291 3584 
Q 2894 3584 3203 3211 
Q 3513 2838 3513 2113 
z
" transform="scale(0.015625)"/>
      <path id="DejaVuSans-64" d="M 2906 2969 
L 2906 4863 
L 3481 4863 
L 3481 0 
L 2906 0 
L 2906 525 
Q 2725 213 2448 61 
Q 2172 -91 1784 -91 
Q 1150 -91 751 415 
Q 353 922 353 1747 
Q 353 2572 751 3078 
Q 1150 3584 1784 3584 
Q 2172 3584 2448 3432 
Q 2725 3281 2906 2969 
z
M 947 1747 
Q 947 1113 1208 752 
Q 1469 391 1925 391 
Q 2381 391 2643 752 
Q 2906 1113 2906 1747 
Q 2906 2381 2643 2742 
Q 2381 3103 1925 3103 
Q 1469 3103 1208 2742 
Q 947 2381 947 1747 
z
" transform="scale(0.015625)"/>
      <path id="DejaVuSans-6a" d="M 603 3500 
L 1178 3500 
L 1178 -63 
Q 1178 -731 923 -1031 
Q 669 -1331 103 -1331 
L -116 -1331 
L -116 -844 
L 38 -844 
Q 366 -844 484 -692 
Q 603 -541 603 -63 
L 603 3500 
z
M 603 4863 
L 1178 4863 
L 1178 4134 
L 603 4134 
L 603 4863 
z
" transform="scale(0.015625)"/>
      <path id="DejaVuSans-75" d="M 544 1381 
L 544 3500 
L 1119 3500 
L 1119 1403 
Q 1119 906 1312 657 
Q 1506 409 1894 409 
Q 2359 409 2629 706 
Q 2900 1003 2900 1516 
L 2900 3500 
L 3475 3500 
L 3475 0 
L 2900 0 
L 2900 538 
Q 2691 219 2414 64 
Q 2138 -91 1772 -91 
Q 1169 -91 856 284 
Q 544 659 544 1381 
z
M 1991 3584 
L 1991 3584 
z
" transform="scale(0.015625)"/>
      <path id="DejaVuSans-73" d="M 2834 3397 
L 2834 2853 
Q 2591 2978 2328 3040 
Q 2066 3103 1784 3103 
Q 1356 3103 1142 2972 
Q 928 2841 928 2578 
Q 928 2378 1081 2264 
Q 1234 2150 1697 2047 
L 1894 2003 
Q 2506 1872 2764 1633 
Q 3022 1394 3022 966 
Q 3022 478 2636 193 
Q 2250 -91 1575 -91 
Q 1294 -91 989 -36 
Q 684 19 347 128 
L 347 722 
Q 666 556 975 473 
Q 1284 391 1588 391 
Q 1994 391 2212 530 
Q 2431 669 2431 922 
Q 2431 1156 2273 1281 
Q 2116 1406 1581 1522 
L 1381 1569 
Q 847 1681 609 1914 
Q 372 2147 372 2553 
Q 372 3047 722 3315 
Q 1072 3584 1716 3584 
Q 2034 3584 2315 3537 
Q 2597 3491 2834 3397 
z
" transform="scale(0.015625)"/>
      <path id="DejaVuSans-72" d="M 2631 2963 
Q 2534 3019 2420 3045 
Q 2306 3072 2169 3072 
Q 1681 3072 1420 2755 
Q 1159 2438 1159 1844 
L 1159 0 
L 581 0 
L 581 3500 
L 1159 3500 
L 1159 2956 
Q 1341 3275 1631 3429 
Q 1922 3584 2338 3584 
Q 2397 3584 2469 3576 
Q 2541 3569 2628 3553 
L 2631 2963 
z
" transform="scale(0.015625)"/>
      <path id="DejaVuSans-6f" d="M 1959 3097 
Q 1497 3097 1228 2736 
Q 959 2375 959 1747 
Q 959 1119 1226 758 
Q 1494 397 1959 397 
Q 2419 397 2687 759 
Q 2956 1122 2956 1747 
Q 2956 2369 2687 2733 
Q 2419 3097 1959 3097 
z
M 1959 3584 
Q 2709 3584 3137 3096 
Q 3566 2609 3566 1747 
Q 3566 888 3137 398 
Q 2709 -91 1959 -91 
Q 1206 -91 779 398 
Q 353 888 353 1747 
Q 353 2609 779 3096 
Q 1206 3584 1959 3584 
z
" transform="scale(0.015625)"/>
      <path id="DejaVuSans-6c" d="M 603 4863 
L 1178 4863 
L 1178 0 
L 603 0 
L 603 4863 
z
" transform="scale(0.015625)"/>
      <path id="DejaVuSans-76" d="M 191 3500 
L 800 3500 
L 1894 563 
L 2988 3500 
L 3597 3500 
L 2284 0 
L 1503 0 
L 191 3500 
z
" transform="scale(0.015625)"/>
      <path id="DejaVuSans-66" d="M 2375 4863 
L 2375 4384 
L 1825 4384 
Q 1516 4384 1395 4259 
Q 1275 4134 1275 3809 
L 1275 3500 
L 2222 3500 
L 2222 3053 
L 1275 3053 
L 1275 0 
L 697 0 
L 697 3053 
L 147 3053 
L 147 3500 
L 697 3500 
L 697 3744 
Q 697 4328 969 4595 
Q 1241 4863 1831 4863 
L 2375 4863 
z
" transform="scale(0.015625)"/>
     </defs>
     <use xlink:href="#DejaVuSans-41"/>
     <use xlink:href="#DejaVuSans-4c" x="68.408203"/>
     <use xlink:href="#DejaVuSans-53" x="124.121094"/>
     <use xlink:href="#DejaVuSans-20" x="187.597656"/>
     <use xlink:href="#DejaVuSans-42" x="219.384766"/>
     <use xlink:href="#DejaVuSans-61" x="287.988281"/>
     <use xlink:href="#DejaVuSans-6b" x="349.267578"/>
     <use xlink:href="#DejaVuSans-6b" x="407.177734"/>
     <use xlink:href="#DejaVuSans-69" x="465.087891"/>
     <use xlink:href="#DejaVuSans-65" x="492.871094"/>
     <use xlink:href="#DejaVuSans-20" x="554.394531"/>
     <use xlink:href="#DejaVuSans-43" x="586.181641"/>
     <use xlink:href="#DejaVuSans-41" x="656.005859"/>
     <use xlink:href="#DejaVuSans-41" x="727.164062"/>
     <use xlink:href="#DejaVuSans-35" x="795.572266"/>
     <use xlink:href="#DejaVuSans-36" x="859.195312"/>
     <use xlink:href="#DejaVuSans-37" x="922.818359"/>
     <use xlink:href="#DejaVuSans-31" x="986.441406"/>
     <use xlink:href="#DejaVuSans-32" x="1050.064453"/>
     <use xlink:href="#DejaVuSans-33" x="1113.6875"/>
     <use xlink:href="#DejaVuSans-20" x="1177.310547"/>
     <use xlink:href="#DejaVuSans-31" x="1209.097656"/>
     <use xlink:href="#DejaVuSans-30" x="1272.720703"/>
     <use xlink:href="#DejaVuSans-30" x="1336.34375"/>
     <use xlink:href="#DejaVuSans-6b" x="1399.966797"/>
     <use xlink:href="#DejaVuSans-48" x="1457.876953"/>
     <use xlink:href="#DejaVuSans-7a" x="1533.072266"/>
     <use xlink:href="#DejaVuSans-20" x="1585.5625"/>
     <use xlink:href="#DejaVuSans-45" x="1617.349609"/>
     <use xlink:href="#DejaVuSans-49" x="1680.533203"/>
     <use xlink:href="#DejaVuSans-52" x="1710.025391"/>
     <use xlink:href="#DejaVuSans-50" x="1779.507812"/>
     <use xlink:href="#DejaVuSans-20" x="1839.810547"/>
     <use xlink:href="#DejaVuSans-77" x="1871.597656"/>
     <use xlink:href="#DejaVuSans-69" x="1953.384766"/>
     <use xlink:href="#DejaVuSans-74" x="1981.167969"/>
     <use xlink:href="#DejaVuSans-68" x="2020.376953"/>
     <use xlink:href="#DejaVuSans-20" x="2083.755859"/>
     <use xlink:href="#DejaVuSans-61" x="2115.542969"/>
     <use xlink:href="#DejaVuSans-64" x="2176.822266"/>
     <use xlink:href="#DejaVuSans-6a" x="2240.298828"/>
     <use xlink:href="#DejaVuSans-75" x="2268.082031"/>
     <use xlink:href="#DejaVuSans-73" x="2331.460938"/>
     <use xlink:href="#DejaVuSans-74" x="2383.560547"/>
     <use xlink:href="#DejaVuSans-65" x="2422.769531"/>
     <use xlink:href="#DejaVuSans-64" x="2484.292969"/>
     <use xlink:href="#DejaVuSans-20" x="2547.769531"/>
     <use xlink:href="#DejaVuSans-74" x="2579.556641"/>
     <use xlink:href="#DejaVuSans-68" x="2618.765625"/>
     <use xlink:href="#DejaVuSans-72" x="2682.144531"/>
     <use xlink:href="#DejaVuSans-65" x="2721.007812"/>
     <use xlink:href="#DejaVuSans-73" x="2782.53125"/>
     <use xlink:href="#DejaVuSans-68" x="2834.630859"/>
     <use xlink:href="#DejaVuSans-6f" x="2898.009766"/>
     <use xlink:href="#DejaVuSans-6c" x="2959.191406"/>
     <use xlink:href="#DejaVuSans-64" x="2986.974609"/>
     <use xlink:href="#DejaVuSans-20" x="3050.451172"/>
     <use xlink:href="#DejaVuSans-6c" x="3082.238281"/>
     <use xlink:href="#DejaVuSans-65" x="3110.021484"/>
     <use xlink:href="#DejaVuSans-76" x="3171.544922"/>
     <use xlink:href="#DejaVuSans-65" x="3230.724609"/>
     <use xlink:href="#DejaVuSans-6c" x="3292.248047"/>
     <use xlink:href="#DejaVuSans-73" x="3320.03125"/>
     <use xlink:href="#DejaVuSans-20" x="3372.130859"/>
     <use xlink:href="#DejaVuSans-66" x="3403.917969"/>
     <use xlink:href="#DejaVuSans-6f" x="3439.123047"/>
     <use xlink:href="#DejaVuSans-72" x="3500.304688"/>
     <use xlink:href="#DejaVuSans-20" x="3541.417969"/>
     <use xlink:href="#DejaVuSans-53" x="3573.205078"/>
     <use xlink:href="#DejaVuSans-33" x="3636.681641"/>
    </g>
   </g>
   <g id="legend_1">
    <g id="patch_7">
     <path d="M 943.642188 327.135312 
L 1134.2 327.135312 
Q 1136.2 327.135312 1136.2 325.135312 
L 1136.2 252.744687 
Q 1136.2 250.744687 1134.2 250.744687 
L 943.642188 250.744687 
Q 941.642188 250.744687 941.642188 252.744687 
L 941.642188 325.135312 
Q 941.642188 327.135312 943.642188 327.135312 
z
" style="fill: #ffffff; opacity: 0.8; stroke: #cccccc; stroke-linejoin: miter"/>
    </g>
    <g id="line2d_30">
     <path d="M 945.642188 258.843125 
L 955.642188 258.843125 
L 965.642188 258.843125 
" style="fill: none; stroke: #1f77b4; stroke-width: 1.5; stroke-linecap: square"/>
    </g>
    <g id="text_14">
     <!-- ALS Bakkie CAA567123 100kHz -->
     <g transform="translate(973.642188 262.343125) scale(0.1 -0.1)">
      <use xlink:href="#DejaVuSans-41"/>
      <use xlink:href="#DejaVuSans-4c" x="68.408203"/>
      <use xlink:href="#DejaVuSans-53" x="124.121094"/>
      <use xlink:href="#DejaVuSans-20" x="187.597656"/>
      <use xlink:href="#DejaVuSans-42" x="219.384766"/>
      <use xlink:href="#DejaVuSans-61" x="287.988281"/>
      <use xlink:href="#DejaVuSans-6b" x="349.267578"/>
      <use xlink:href="#DejaVuSans-6b" x="407.177734"/>
      <use xlink:href="#DejaVuSans-69" x="465.087891"/>
      <use xlink:href="#DejaVuSans-65" x="492.871094"/>
      <use xlink:href="#DejaVuSans-20" x="554.394531"/>
      <use xlink:href="#DejaVuSans-43" x="586.181641"/>
      <use xlink:href="#DejaVuSans-41" x="656.005859"/>
      <use xlink:href="#DejaVuSans-41" x="727.164062"/>
      <use xlink:href="#DejaVuSans-35" x="795.572266"/>
      <use xlink:href="#DejaVuSans-36" x="859.195312"/>
      <use xlink:href="#DejaVuSans-37" x="922.818359"/>
      <use xlink:href="#DejaVuSans-31" x="986.441406"/>
      <use xlink:href="#DejaVuSans-32" x="1050.064453"/>
      <use xlink:href="#DejaVuSans-33" x="1113.6875"/>
      <use xlink:href="#DejaVuSans-20" x="1177.310547"/>
      <use xlink:href="#DejaVuSans-31" x="1209.097656"/>
      <use xlink:href="#DejaVuSans-30" x="1272.720703"/>
      <use xlink:href="#DejaVuSans-30" x="1336.34375"/>
      <use xlink:href="#DejaVuSans-6b" x="1399.966797"/>
      <use xlink:href="#DejaVuSans-48" x="1457.876953"/>
      <use xlink:href="#DejaVuSans-7a" x="1533.072266"/>
     </g>
    </g>
    <g id="line2d_31">
     <path d="M 945.642188 273.52125 
L 955.642188 273.52125 
L 965.642188 273.52125 
" style="fill: none; stroke: #ff7f0e; stroke-width: 1.5; stroke-linecap: square"/>
    </g>
    <g id="text_15">
     <!-- Background -->
     <g transform="translate(973.642188 277.02125) scale(0.1 -0.1)">
      <defs>
       <path id="DejaVuSans-63" d="M 3122 3366 
L 3122 2828 
Q 2878 2963 2633 3030 
Q 2388 3097 2138 3097 
Q 1578 3097 1268 2742 
Q 959 2388 959 1747 
Q 959 1106 1268 751 
Q 1578 397 2138 397 
Q 2388 397 2633 464 
Q 2878 531 3122 666 
L 3122 134 
Q 2881 22 2623 -34 
Q 2366 -91 2075 -91 
Q 1284 -91 818 406 
Q 353 903 353 1747 
Q 353 2603 823 3093 
Q 1294 3584 2113 3584 
Q 2378 3584 2631 3529 
Q 2884 3475 3122 3366 
z
" transform="scale(0.015625)"/>
       <path id="DejaVuSans-67" d="M 2906 1791 
Q 2906 2416 2648 2759 
Q 2391 3103 1925 3103 
Q 1463 3103 1205 2759 
Q 947 2416 947 1791 
Q 947 1169 1205 825 
Q 1463 481 1925 481 
Q 2391 481 2648 825 
Q 2906 1169 2906 1791 
z
M 3481 434 
Q 3481 -459 3084 -895 
Q 2688 -1331 1869 -1331 
Q 1566 -1331 1297 -1286 
Q 1028 -1241 775 -1147 
L 775 -588 
Q 1028 -725 1275 -790 
Q 1522 -856 1778 -856 
Q 2344 -856 2625 -561 
Q 2906 -266 2906 331 
L 2906 616 
Q 2728 306 2450 153 
Q 2172 0 1784 0 
Q 1141 0 747 490 
Q 353 981 353 1791 
Q 353 2603 747 3093 
Q 1141 3584 1784 3584 
Q 2172 3584 2450 3431 
Q 2728 3278 2906 2969 
L 2906 3500 
L 3481 3500 
L 3481 434 
z
" transform="scale(0.015625)"/>
       <path id="DejaVuSans-6e" d="M 3513 2113 
L 3513 0 
L 2938 0 
L 2938 2094 
Q 2938 2591 2744 2837 
Q 2550 3084 2163 3084 
Q 1697 3084 1428 2787 
Q 1159 2491 1159 1978 
L 1159 0 
L 581 0 
L 581 3500 
L 1159 3500 
L 1159 2956 
Q 1366 3272 1645 3428 
Q 1925 3584 2291 3584 
Q 2894 3584 3203 3211 
Q 3513 2838 3513 2113 
z
" transform="scale(0.015625)"/>
      </defs>
      <use xlink:href="#DejaVuSans-42"/>
      <use xlink:href="#DejaVuSans-61" x="68.603516"/>
      <use xlink:href="#DejaVuSans-63" x="129.882812"/>
      <use xlink:href="#DejaVuSans-6b" x="184.863281"/>
      <use xlink:href="#DejaVuSans-67" x="242.773438"/>
      <use xlink:href="#DejaVuSans-72" x="306.25"/>
      <use xlink:href="#DejaVuSans-6f" x="345.113281"/>
      <use xlink:href="#DejaVuSans-75" x="406.294922"/>
      <use xlink:href="#DejaVuSans-6e" x="469.673828"/>
      <use xlink:href="#DejaVuSans-64" x="533.052734"/>
     </g>
    </g>
    <g id="line2d_32">
     <path d="M 945.642188 288.199375 
L 955.642188 288.199375 
L 965.642188 288.199375 
" style="fill: none; stroke-dasharray: 9.6,2.4,1.5,2.4; stroke-dashoffset: 0; stroke: #2ca02c; stroke-width: 1.5"/>
    </g>
    <g id="text_16">
     <!-- Spectral line threshold -->
     <g transform="translate(973.642188 291.699375) scale(0.1 -0.1)">
      <defs>
       <path id="DejaVuSans-70" d="M 1159 525 
L 1159 -1331 
L 581 -1331 
L 581 3500 
L 1159 3500 
L 1159 2969 
Q 1341 3281 1617 3432 
Q 1894 3584 2278 3584 
Q 2916 3584 3314 3078 
Q 3713 2572 3713 1747 
Q 3713 922 3314 415 
Q 2916 -91 2278 -91 
Q 1894 -91 1617 61 
Q 1341 213 1159 525 
z
M 3116 1747 
Q 3116 2381 2855 2742 
Q 2594 3103 2138 3103 
Q 1681 3103 1420 2742 
Q 1159 2381 1159 1747 
Q 1159 1113 1420 752 
Q 1681 391 2138 391 
Q 2594 391 2855 752 
Q 3116 1113 3116 1747 
z
" transform="scale(0.015625)"/>
      </defs>
      <use xlink:href="#DejaVuSans-53"/>
      <use xlink:href="#DejaVuSans-70" x="63.476562"/>
      <use xlink:href="#DejaVuSans-65" x="126.953125"/>
      <use xlink:href="#DejaVuSans-63" x="188.476562"/>
      <use xlink:href="#DejaVuSans-74" x="243.457031"/>
      <use xlink:href="#DejaVuSans-72" x="282.666016"/>
      <use xlink:href="#DejaVuSans-61" x="323.779297"/>
      <use xlink:href="#DejaVuSans-6c" x="385.058594"/>
      <use xlink:href="#DejaVuSans-20" x="412.841797"/>
      <use xlink:href="#DejaVuSans-6c" x="444.628906"/>
      <use xlink:href="#DejaVuSans-69" x="472.412109"/>
      <use xlink:href="#DejaVuSans-6e" x="500.195312"/>
      <use xlink:href="#DejaVuSans-65" x="563.574219"/>
      <use xlink:href="#DejaVuSans-20" x="625.097656"/>
      <use xlink:href="#DejaVuSans-74" x="656.884766"/>
      <use xlink:href="#DejaVuSans-68" x="696.09375"/>
      <use xlink:href="#DejaVuSans-72" x="759.472656"/>
      <use xlink:href="#DejaVuSans-65" x="798.335938"/>
      <use xlink:href="#DejaVuSans-73" x="859.859375"/>
      <use xlink:href="#DejaVuSans-68" x="911.958984"/>
      <use xlink:href="#DejaVuSans-6f" x="975.337891"/>
      <use xlink:href="#DejaVuSans-6c" x="1036.519531"/>
      <use xlink:href="#DejaVuSans-64" x="1064.302734"/>
     </g>
    </g>
    <g id="line2d_33">
     <path d="M 945.642188 302.8775 
L 955.642188 302.8775 
L 965.642188 302.8775 
" style="fill: none; stroke-dasharray: 9.6,2.4,1.5,2.4; stroke-dashoffset: 0; stroke: #d62728; stroke-width: 1.5"/>
    </g>
    <g id="text_17">
     <!-- Continuum threshold -->
     <g transform="translate(973.642188 306.3775) scale(0.1 -0.1)">
      <defs>
       <path id="DejaVuSans-6d" d="M 3328 2828 
Q 3544 3216 3844 3400 
Q 4144 3584 4550 3584 
Q 5097 3584 5394 3201 
Q 5691 2819 5691 2113 
L 5691 0 
L 5113 0 
L 5113 2094 
Q 5113 2597 4934 2840 
Q 4756 3084 4391 3084 
Q 3944 3084 3684 2787 
Q 3425 2491 3425 1978 
L 3425 0 
L 2847 0 
L 2847 2094 
Q 2847 2600 2669 2842 
Q 2491 3084 2119 3084 
Q 1678 3084 1418 2786 
Q 1159 2488 1159 1978 
L 1159 0 
L 581 0 
L 581 3500 
L 1159 3500 
L 1159 2956 
Q 1356 3278 1631 3431 
Q 1906 3584 2284 3584 
Q 2666 3584 2933 3390 
Q 3200 3197 3328 2828 
z
" transform="scale(0.015625)"/>
      </defs>
      <use xlink:href="#DejaVuSans-43"/>
      <use xlink:href="#DejaVuSans-6f" x="69.824219"/>
      <use xlink:href="#DejaVuSans-6e" x="131.005859"/>
      <use xlink:href="#DejaVuSans-74" x="194.384766"/>
      <use xlink:href="#DejaVuSans-69" x="233.59375"/>
      <use xlink:href="#DejaVuSans-6e" x="261.376953"/>
      <use xlink:href="#DejaVuSans-75" x="324.755859"/>
      <use xlink:href="#DejaVuSans-75" x="388.134766"/>
      <use xlink:href="#DejaVuSans-6d" x="451.513672"/>
      <use xlink:href="#DejaVuSans-20" x="548.925781"/>
      <use xlink:href="#DejaVuSans-74" x="580.712891"/>
      <use xlink:href="#DejaVuSans-68" x="619.921875"/>
      <use xlink:href="#DejaVuSans-72" x="683.300781"/>
      <use xlink:href="#DejaVuSans-65" x="722.164062"/>
      <use xlink:href="#DejaVuSans-73" x="783.6875"/>
      <use xlink:href="#DejaVuSans-68" x="835.787109"/>
      <use xlink:href="#DejaVuSans-6f" x="899.166016"/>
      <use xlink:href="#DejaVuSans-6c" x="960.347656"/>
      <use xlink:href="#DejaVuSans-64" x="988.130859"/>
     </g>
    </g>
    <g id="line2d_34">
     <path d="M 945.642188 317.555625 
L 955.642188 317.555625 
L 965.642188 317.555625 
" style="fill: none; stroke: #ff0000; stroke-width: 1.5; stroke-linecap: square"/>
    </g>
    <g id="text_18">
     <!-- Detection Threshold -->
     <g transform="translate(973.642188 321.055625) scale(0.1 -0.1)">
      <defs>
       <path id="DejaVuSans-44" d="M 1259 4147 
L 1259 519 
L 2022 519 
Q 2988 519 3436 956 
Q 3884 1394 3884 2338 
Q 3884 3275 3436 3711 
Q 2988 4147 2022 4147 
L 1259 4147 
z
M 628 4666 
L 1925 4666 
Q 3281 4666 3915 4102 
Q 4550 3538 4550 2338 
Q 4550 1131 3912 565 
Q 3275 0 1925 0 
L 628 0 
L 628 4666 
z
" transform="scale(0.015625)"/>
       <path id="DejaVuSans-54" d="M -19 4666 
L 3928 4666 
L 3928 4134 
L 2272 4134 
L 2272 0 
L 1638 0 
L 1638 4134 
L -19 4134 
L -19 4666 
z
" transform="scale(0.015625)"/>
      </defs>
      <use xlink:href="#DejaVuSans-44"/>
      <use xlink:href="#DejaVuSans-65" x="77.001953"/>
      <use xlink:href="#DejaVuSans-74" x="138.525391"/>
      <use xlink:href="#DejaVuSans-65" x="177.734375"/>
      <use xlink:href="#DejaVuSans-63" x="239.257812"/>
      <use xlink:href="#DejaVuSans-74" x="294.238281"/>
      <use xlink:href="#DejaVuSans-69" x="333.447266"/>
      <use xlink:href="#DejaVuSans-6f" x="361.230469"/>
      <use xlink:href="#DejaVuSans-6e" x="422.412109"/>
      <use xlink:href="#DejaVuSans-20" x="485.791016"/>
      <use xlink:href="#DejaVuSans-54" x="517.578125"/>
      <use xlink:href="#DejaVuSans-68" x="578.662109"/>
      <use xlink:href="#DejaVuSans-72" x="642.041016"/>
      <use xlink:href="#DejaVuSans-65" x="680.904297"/>
      <use xlink:href="#DejaVuSans-73" x="742.427734"/>
      <use xlink:href="#DejaVuSans-68" x="794.527344"/>
      <use xlink:href="#DejaVuSans-6f" x="857.90625"/>
      <use xlink:href="#DejaVuSans-6c" x="919.087891"/>
      <use xlink:href="#DejaVuSans-64" x="946.871094"/>
     </g>
    </g>
   </g>
  </g>
 </g>
 <defs>
  <clipPath id="pa0b2093ece">
   <rect x="45.34" y="29.76" width="1095.86" height="518.36"/>
  </clipPath>
 </defs>
</svg>
